<svg xmlns="http://www.w3.org/2000/svg" viewBox="0 0 256 256"><title>icon</title><path d="M203.718,221.417a2.5,2.5,0,0,1-2.5-2.5V199.583h-85a2.5,2.5,0,0,1,0-5h87.5a2.5,2.5,0,0,1,2.5,2.5v15.8l26.693-26.694-26.693-26.695v16.09a2.5,2.5,0,0,1-2.5,2.5H170.788a2.5,2.5,0,0,1,0-5h30.431V153.458a2.5,2.5,0,0,1,4.267-1.768l32.729,32.73a2.5,2.5,0,0,1,0,3.535l-32.729,32.73A2.5,2.5,0,0,1,203.718,221.417Z" fill="#ed9abc"/><path d="M116.219,34.583a82.594,82.594,0,0,0-82.5,82.5,81.727,81.727,0,0,0,8.3,36.1,2.5,2.5,0,0,0,4.495-2.192,76.749,76.749,0,0,1-7.791-33.908,77.5,77.5,0,1,1,77.5,77.5H81.846a2.5,2.5,0,0,0,0,5h34.373a82.5,82.5,0,0,0,0-165Z" fill="#846f75"/><path d="M172.219,117.083a56.063,56.063,0,0,1-56,56H81.846a2.5,2.5,0,0,0,0,5h34.373a60.991,60.991,0,1,0-48.881-24.5,2.5,2.5,0,0,0,4-2.994,56,56,0,1,1,100.877-33.5Z" fill="#846f75"/><path d="M70.587,194.584H59.329a2.5,2.5,0,0,0,0,5H70.587a2.5,2.5,0,0,0,0-5Z" fill="#846f75"/><path d="M48.07,194.584H36.811a2.5,2.5,0,0,0,0,5H48.07a2.5,2.5,0,0,0,0-5Z" fill="#846f75"/><path d="M25.552,194.584h-6a2.5,2.5,0,1,0,0,5h6a2.5,2.5,0,0,0,0-5Z" fill="#846f75"/><path d="M70.587,173.084H59.329a2.5,2.5,0,0,0,0,5H70.587a2.5,2.5,0,0,0,0-5Z" fill="#846f75"/><path d="M48.07,173.084H36.811a2.5,2.5,0,0,0,0,5H48.07a2.5,2.5,0,0,0,0-5Z" fill="#846f75"/><path d="M25.552,173.084h-6a2.5,2.5,0,1,0,0,5h6a2.5,2.5,0,0,0,0-5Z" fill="#846f75"/><path d="M116.344,148.081a31,31,0,1,1,30.53-36.385,2.5,2.5,0,1,1-4.925.864,26,26,0,1,0,.006,9.014,2.5,2.5,0,1,1,4.926.858A30.923,30.923,0,0,1,116.344,148.081Z" fill="#ebe7f2"/><path d="M116.344,129.9a12.829,12.829,0,1,1,10.427-20.274h28.512a7.436,7.436,0,0,1,0,14.872H126.8a12.8,12.8,0,0,1-10.454,5.4Zm0-20.638a7.823,7.823,0,1,0,6.872,11.544,2.5,2.5,0,0,1,2.2-1.309h29.869a2.436,2.436,0,1,0,0-4.872H125.392a2.5,2.5,0,0,1-2.193-1.3,7.782,7.782,0,0,0-6.855-4.064Z" fill="#ed9abc"/></svg>