<svg xmlns="http://www.w3.org/2000/svg" viewBox="0 0 256 256"><title>icon</title><path d="M131.512,163.866h-7.024a5.6,5.6,0,0,1-5.418-4.2l-1.607-6.233-5.541,3.271a5.6,5.6,0,0,1-6.8-.865l-4.966-4.966a5.6,5.6,0,0,1-.866-6.8l3.272-5.544-6.231-1.6a5.6,5.6,0,0,1-4.2-5.419v-7.024a5.6,5.6,0,0,1,4.193-5.419l6.235-1.606-3.27-5.542a5.6,5.6,0,0,1,.864-6.8l4.966-4.967a5.6,5.6,0,0,1,6.8-.865l5.544,3.273,1.606-6.233a5.6,5.6,0,0,1,5.419-4.2h7.024a5.6,5.6,0,0,1,5.418,4.193l1.607,6.235,5.542-3.271a5.6,5.6,0,0,1,6.8.864l4.967,4.967a5.6,5.6,0,0,1,.864,6.8l-3.272,5.544,6.232,1.605h0a5.6,5.6,0,0,1,4.193,5.419v7.024a5.6,5.6,0,0,1-4.194,5.418l-6.235,1.606,3.271,5.542a5.6,5.6,0,0,1-.864,6.8l-4.966,4.966a5.6,5.6,0,0,1-6.8.866l-5.544-3.272-1.606,6.231A5.6,5.6,0,0,1,131.512,163.866ZM119.055,147.1a2.5,2.5,0,0,1,2.421,1.876l2.435,9.45a.6.6,0,0,0,.577.445h7.024a.6.6,0,0,0,.578-.448l2.434-9.447a2.5,2.5,0,0,1,3.692-1.53l8.4,4.961a.594.594,0,0,0,.723-.093l4.966-4.966a.6.6,0,0,0,.092-.726l-4.959-8.4a2.5,2.5,0,0,1,1.53-3.692l9.45-2.434a.6.6,0,0,0,.444-.577v-7.024a.6.6,0,0,0-.448-.579l-9.446-2.433a2.5,2.5,0,0,1-1.53-3.692l4.961-8.4a.6.6,0,0,0-.094-.723l-4.967-4.967a.6.6,0,0,0-.725-.091l-8.4,4.959a2.5,2.5,0,0,1-3.691-1.53l-2.435-9.45a.6.6,0,0,0-.577-.444h-7.024a.6.6,0,0,0-.577.446l-2.435,9.448a2.5,2.5,0,0,1-3.692,1.53l-8.4-4.96a.6.6,0,0,0-.723.092l-4.966,4.967a.6.6,0,0,0-.093.725l4.96,8.4a2.5,2.5,0,0,1-1.53,3.692l-9.45,2.434a.6.6,0,0,0-.444.578v7.024a.6.6,0,0,0,.447.578l9.447,2.433a2.5,2.5,0,0,1,1.53,3.692l-4.961,8.4a.6.6,0,0,0,.094.724l4.966,4.966a.6.6,0,0,0,.726.092l8.4-4.96A2.509,2.509,0,0,1,119.055,147.1Z" fill="#ed9abc"/><path d="M128,141.266A13.266,13.266,0,1,1,141.266,128,13.282,13.282,0,0,1,128,141.266Zm0-21.532A8.266,8.266,0,1,0,136.266,128,8.275,8.275,0,0,0,128,119.734Z" fill="#ed9abc"/><path d="M171.917,80.548l-15.2,15.2a2.5,2.5,0,1,0,3.535,3.535l15.2-15.2,37.132,37.132a2.5,2.5,0,0,0,3.535-3.535l-77.8-77.8a2.5,2.5,0,0,0-3.535,3.535Z" fill="#846f75"/><path d="M212.584,134.785l-37.132,37.132-15.2-15.2a2.5,2.5,0,1,0-3.535,3.535l15.2,15.2-37.132,37.132a2.5,2.5,0,1,0,3.535,3.535l77.8-77.8a2.5,2.5,0,0,0-3.535-3.535Z" fill="#846f75"/><path d="M84.083,175.452l15.2-15.2a2.5,2.5,0,1,0-3.535-3.535l-15.2,15.2L43.416,134.785a2.5,2.5,0,0,0-3.535,3.535l77.8,77.8a2.5,2.5,0,0,0,3.535-3.535Z" fill="#846f75"/><path d="M117.68,39.881l-77.8,77.8a2.5,2.5,0,0,0,3.535,3.535L80.548,84.083l15.2,15.2a2.5,2.5,0,1,0,3.535-3.535l-15.2-15.2,37.132-37.132a2.5,2.5,0,0,0-3.535-3.535Z" fill="#846f75"/><path d="M142.6,33.1a14.6,14.6,0,1,0-17.1,14.365V84.89a2.5,2.5,0,0,0,5,0V47.461A14.608,14.608,0,0,0,142.6,33.1Zm-14.6,9.6a9.6,9.6,0,1,1,9.6-9.6A9.606,9.606,0,0,1,128,42.691Z" fill="#ed9abc"/><path d="M130.5,208.539V171.11a2.5,2.5,0,0,0-5,0v37.429a14.6,14.6,0,1,0,5,0ZM128,232.5a9.6,9.6,0,1,1,9.6-9.6A9.607,9.607,0,0,1,128,232.5Z" fill="#ed9abc"/><path d="M222.9,113.4a14.608,14.608,0,0,0-14.365,12.1H171.11a2.5,2.5,0,0,0,0,5h37.429A14.589,14.589,0,1,0,222.9,113.4Zm0,24.192a9.6,9.6,0,1,1,9.6-9.6A9.606,9.606,0,0,1,222.9,137.6Z" fill="#ed9abc"/><path d="M84.89,125.5H47.461a14.6,14.6,0,1,0,0,5H84.89a2.5,2.5,0,0,0,0-5ZM33.1,137.6a9.6,9.6,0,1,1,9.6-9.6A9.607,9.607,0,0,1,33.1,137.6Z" fill="#ed9abc"/></svg>