<svg xmlns="http://www.w3.org/2000/svg" viewBox="0 0 256 256"><title>icon</title><path d="M92.86,198.867H78.47a8.845,8.845,0,0,1-8.563-6.629L65.745,176.09l-14.357,8.475A8.847,8.847,0,0,1,40.643,183.2L30.468,173.022A8.845,8.845,0,0,1,29.1,162.28l8.475-14.361L21.43,143.76A8.847,8.847,0,0,1,14.8,135.2v-14.39a8.847,8.847,0,0,1,6.629-8.565l16.147-4.161L29.1,93.722a8.846,8.846,0,0,1,1.368-10.745L40.643,72.8a8.846,8.846,0,0,1,10.743-1.368l14.359,8.476,4.161-16.145a8.846,8.846,0,0,1,8.564-6.631H92.86a8.848,8.848,0,0,1,8.565,6.628l4.161,16.148,14.357-8.474A8.846,8.846,0,0,1,130.688,72.8l10.176,10.176a8.845,8.845,0,0,1,1.367,10.743l-8.474,14.359,16.143,4.16h0a8.847,8.847,0,0,1,6.629,8.565V135.2a8.845,8.845,0,0,1-6.629,8.564l-16.146,4.16,8.473,14.358a8.846,8.846,0,0,1-1.366,10.745L130.688,183.2a8.843,8.843,0,0,1-10.743,1.368l-14.359-8.476-4.16,16.145A8.849,8.849,0,0,1,92.86,198.867ZM67.337,169.748a2.5,2.5,0,0,1,2.421,1.876l4.99,19.363a3.845,3.845,0,0,0,3.722,2.88H92.86a3.848,3.848,0,0,0,3.725-2.883l4.988-19.36a2.5,2.5,0,0,1,3.692-1.529l17.219,10.164a3.848,3.848,0,0,0,4.669-.6l10.176-10.176a3.846,3.846,0,0,0,.594-4.671L127.761,147.6a2.5,2.5,0,0,1,1.529-3.691l19.362-4.989a3.846,3.846,0,0,0,2.88-3.723v-14.39a3.848,3.848,0,0,0-2.883-3.725l-19.359-4.988a2.5,2.5,0,0,1-1.529-3.692l10.163-17.219a3.844,3.844,0,0,0-.6-4.669L127.153,76.336a3.849,3.849,0,0,0-4.671-.594L105.265,85.9a2.5,2.5,0,0,1-3.692-1.529L96.584,65.012a3.847,3.847,0,0,0-3.724-2.879H78.47a3.846,3.846,0,0,0-3.723,2.882l-4.989,19.36A2.5,2.5,0,0,1,66.066,85.9L48.847,75.74a3.849,3.849,0,0,0-4.669.6L34,86.512a3.849,3.849,0,0,0-.6,4.671L43.57,108.4a2.5,2.5,0,0,1-1.529,3.692l-19.363,4.989a3.847,3.847,0,0,0-2.88,3.724V135.2a3.847,3.847,0,0,0,2.883,3.724l19.36,4.988A2.5,2.5,0,0,1,43.57,147.6L33.406,164.818a3.848,3.848,0,0,0,.6,4.669l10.175,10.176a3.848,3.848,0,0,0,4.672.594L66.066,170.1A2.5,2.5,0,0,1,67.337,169.748Z" fill="#a58bc9"/><path d="M234.57,112.239l-16.144-4.16L226.9,93.72a8.845,8.845,0,0,0-1.367-10.743L215.357,72.8a8.846,8.846,0,0,0-10.745-1.366l-14.357,8.474-4.161-16.148a8.848,8.848,0,0,0-8.565-6.628h-14.39a8.846,8.846,0,0,0-8.564,6.631l-4.99,19.363a2.5,2.5,0,0,0,4.842,1.248l4.989-19.36a3.845,3.845,0,0,1,3.723-2.882h14.39a3.848,3.848,0,0,1,3.724,2.879l4.989,19.363a2.5,2.5,0,0,0,3.692,1.529l17.217-10.162a3.849,3.849,0,0,1,4.671.594L222,86.512a3.845,3.845,0,0,1,.6,4.669L212.43,108.4a2.5,2.5,0,0,0,1.529,3.692l19.36,4.988a3.848,3.848,0,0,1,2.883,3.725V135.2a3.846,3.846,0,0,1-2.88,3.723l-19.363,4.989a2.5,2.5,0,0,0-1.529,3.691l10.162,17.218a3.847,3.847,0,0,1-.594,4.671l-10.176,10.176a3.848,3.848,0,0,1-4.669.6L189.934,170.1a2.5,2.5,0,0,0-3.692,1.529l-4.988,19.36a3.849,3.849,0,0,1-3.725,2.883h-14.39a3.844,3.844,0,0,1-3.722-2.88l-4.99-19.363a2.5,2.5,0,0,0-4.842,1.248l4.991,19.366a8.845,8.845,0,0,0,8.563,6.629h14.39a8.849,8.849,0,0,0,8.566-6.632l4.16-16.145,14.359,8.476a8.843,8.843,0,0,0,10.743-1.368l10.176-10.176a8.846,8.846,0,0,0,1.366-10.745l-8.473-14.358,16.147-4.16A8.845,8.845,0,0,0,241.2,135.2v-14.39A8.848,8.848,0,0,0,234.57,112.239Z" fill="#846f75"/><path d="M116.9,116.981a2.5,2.5,0,0,0-3.535,3.536l5.955,5.955H47.667a2.5,2.5,0,1,0,0,5h71.652l-5.955,5.956a2.5,2.5,0,0,0,3.535,3.535l10.223-10.223a2.5,2.5,0,0,0,0-3.535Z" fill="#846f75"/><path d="M179.155,116.981a2.5,2.5,0,0,0-3.535,0L165.4,127.205a2.5,2.5,0,0,0,0,3.535l10.224,10.223a2.5,2.5,0,0,0,3.535-3.535l-5.956-5.956h25.449a2.5,2.5,0,0,0,0-5H173.2l5.956-5.955A2.5,2.5,0,0,0,179.155,116.981Z" fill="#846f75"/></svg>