<svg xmlns="http://www.w3.org/2000/svg" viewBox="0 0 256 256"><title>icon</title><path d="M167.423,110.887h3.772a.691.691,0,0,1,.691.691v44.644a.692.692,0,0,1-.692.692h-3.771a.692.692,0,0,1-.692-.692V111.579a.692.692,0,0,1,.692-.692Z" fill="#65c1d6"/><path d="M153.224,114.617c-2.806-2.475-6.659-3.73-11.45-3.73H126.565a.693.693,0,0,0-.691.692v44.644a.692.692,0,0,0,.691.691h3.772a.692.692,0,0,0,.691-.691V138.732h10.654c5.057,0,8.992-1.208,11.694-3.592,2.729-2.4,4.113-5.845,4.113-10.223C157.489,120.58,156.054,117.115,153.224,114.617Zm-3.543,17.111c-1.782,1.614-4.443,2.432-7.907,2.432H131.028v-18.7h10.978c3.323.039,5.9.92,7.674,2.618a9.015,9.015,0,0,1,2.656,6.886A8.586,8.586,0,0,1,149.681,131.728Z" fill="#65c1d6"/><path d="M107.146,144.373l4.463,12.089a.693.693,0,0,0,.648.452h3.925a.691.691,0,0,0,.647-.936L99.934,111.334a.7.7,0,0,0-.647-.447H95.7a.693.693,0,0,0-.646.447L78.159,155.977a.692.692,0,0,0,.646.937h3.956a.7.7,0,0,0,.65-.453l4.432-12.088ZM97.478,118.18,105.44,139.8H89.517Z" fill="#65c1d6"/><path d="M131.348,97.114h-6.7a5.452,5.452,0,0,1-5.278-4.087l-1.493-5.792-5.148,3.039a5.454,5.454,0,0,1-6.625-.841L101.375,84.7a5.452,5.452,0,0,1-.844-6.622l3.04-5.152-5.79-1.491a5.455,5.455,0,0,1-4.088-5.28V59.459a5.453,5.453,0,0,1,4.085-5.278l5.793-1.493-3.039-5.149a5.452,5.452,0,0,1,.843-6.624l4.733-4.734a5.453,5.453,0,0,1,6.621-.844l5.152,3.041,1.493-5.79a5.451,5.451,0,0,1,5.278-4.088h6.7a5.454,5.454,0,0,1,5.278,4.085l1.493,5.793,5.149-3.039a5.452,5.452,0,0,1,6.624.842l4.734,4.734a5.454,5.454,0,0,1,.843,6.622l-3.04,5.151,5.79,1.492h0a5.454,5.454,0,0,1,4.086,5.278v6.695a5.454,5.454,0,0,1-4.086,5.279l-5.793,1.493,3.039,5.149a5.455,5.455,0,0,1-.841,6.623l-4.735,4.735a5.45,5.45,0,0,1-6.621.843l-5.152-3.041-1.492,5.79A5.454,5.454,0,0,1,131.348,97.114ZM119.473,80.893a2.5,2.5,0,0,1,2.421,1.876l2.321,9.008a.452.452,0,0,0,.437.337h6.7a.453.453,0,0,0,.438-.34l2.32-9A2.5,2.5,0,0,1,137.8,81.24l8.011,4.729a.454.454,0,0,0,.546-.071l4.736-4.735a.453.453,0,0,0,.069-.55L146.433,72.6a2.5,2.5,0,0,1,1.529-3.691l9.009-2.321a.453.453,0,0,0,.337-.438V59.459a.452.452,0,0,0-.338-.437L147.962,56.7a2.5,2.5,0,0,1-1.529-3.692L151.161,45a.451.451,0,0,0-.071-.548l-4.734-4.733a.449.449,0,0,0-.55-.07L137.8,44.374a2.5,2.5,0,0,1-3.692-1.529l-2.321-9.009a.452.452,0,0,0-.437-.336h-6.7a.451.451,0,0,0-.437.338l-2.321,9.007a2.5,2.5,0,0,1-3.692,1.529l-8.011-4.729a.453.453,0,0,0-.548.072L104.91,44.45a.454.454,0,0,0-.071.55l4.727,8.009a2.5,2.5,0,0,1-1.528,3.692l-9.009,2.321a.452.452,0,0,0-.336.437v6.695a.454.454,0,0,0,.339.439l9.006,2.32a2.5,2.5,0,0,1,1.528,3.691l-4.728,8.012a.453.453,0,0,0,.072.548l4.734,4.733a.453.453,0,0,0,.55.07L118.2,81.24A2.5,2.5,0,0,1,119.473,80.893Z" fill="#65c1d6"/><path d="M128,75.569a12.762,12.762,0,1,1,12.763-12.762A12.776,12.776,0,0,1,128,75.569Zm0-20.524a7.762,7.762,0,1,0,7.763,7.762A7.771,7.771,0,0,0,128,55.045Z" fill="#65c1d6"/><path d="M128,242.59a34.307,34.307,0,1,1,34.308-34.307A34.346,34.346,0,0,1,128,242.59Zm0-63.614a29.307,29.307,0,1,0,29.308,29.307A29.34,29.34,0,0,0,128,178.976Z" fill="#65c1d6"/><path d="M198.776,85.694,168.9,68.445a2.5,2.5,0,1,0-2.5,4.33L195.026,89.3v77.4L163.032,185.17a2.5,2.5,0,1,0,2.5,4.33l33.244-19.194a2.5,2.5,0,0,0,1.25-2.165V87.859A2.5,2.5,0,0,0,198.776,85.694Z" fill="#846f75"/><path d="M92.784,185.064,60.973,166.7V89.3l28.3-16.34a2.5,2.5,0,0,0-2.5-4.33L57.223,85.694a2.5,2.5,0,0,0-1.25,2.165v80.282a2.5,2.5,0,0,0,1.25,2.165l33.061,19.088a2.5,2.5,0,1,0,2.5-4.33Z" fill="#846f75"/><path d="M126.029,212.009l-5.956,5.955V192.516a2.5,2.5,0,0,0-5,0v25.448l-5.955-5.955a2.5,2.5,0,0,0-3.535,3.535l10.223,10.224a2.5,2.5,0,0,0,3.535,0l10.223-10.224a2.5,2.5,0,0,0-3.535-3.535Z" fill="#846f75"/><path d="M140.194,190.748a2.5,2.5,0,0,0-3.535,0l-10.223,10.223a2.5,2.5,0,0,0,3.536,3.535l5.955-5.955V224a2.5,2.5,0,0,0,5,0V198.551l5.956,5.955a2.5,2.5,0,0,0,3.535-3.535Z" fill="#846f75"/></svg>