<svg xmlns="http://www.w3.org/2000/svg" viewBox="0 0 256 256"><title>icon</title><path d="M200.25,204.912a33.251,33.251,0,1,1,33.25-33.251A33.288,33.288,0,0,1,200.25,204.912Zm0-61.5a28.251,28.251,0,1,0,28.25,28.25A28.281,28.281,0,0,0,200.25,143.411Z" fill="#ebe7f2"/><path d="M200.25,194.24a22.579,22.579,0,1,1,22.579-22.579A22.6,22.6,0,0,1,200.25,194.24Zm0-40.158a17.579,17.579,0,1,0,17.579,17.579A17.6,17.6,0,0,0,200.25,154.082Z" fill="#65c1d6"/><path d="M150.064,210.738a2.5,2.5,0,0,1-2.435-1.944,8.249,8.249,0,0,1,.936-6.044l7.564-12.814-14.407-3.712a8.279,8.279,0,0,1-6.205-8.014v-13.1a8.276,8.276,0,0,1,6.2-8.013l14.41-3.713-7.562-12.813a8.274,8.274,0,0,1,1.279-10.053l9.262-9.263a8.279,8.279,0,0,1,10.051-1.28l12.816,7.565,3.712-14.408a8.278,8.278,0,0,1,8.013-6.2h13.1a8.278,8.278,0,0,1,8.013,6.2l3.713,14.411,12.812-7.563a8.279,8.279,0,0,1,10.054,1.278l1.043,1.043a2.5,2.5,0,0,1-3.535,3.535l-1.043-1.042a3.279,3.279,0,0,0-3.98-.507l-15.671,9.251a2.5,2.5,0,0,1-3.692-1.529l-4.542-17.626a3.277,3.277,0,0,0-3.172-2.453H193.7a3.277,3.277,0,0,0-3.172,2.455l-4.541,17.624a2.5,2.5,0,0,1-3.692,1.529l-15.675-9.253a3.278,3.278,0,0,0-3.976.509l-9.263,9.262a3.276,3.276,0,0,0-.507,3.979l9.25,15.673A2.5,2.5,0,0,1,160.6,157.4l-17.625,4.542a3.276,3.276,0,0,0-2.453,3.172v13.1a3.276,3.276,0,0,0,2.456,3.173l17.622,4.54a2.5,2.5,0,0,1,1.529,3.692l-9.251,15.675a3.264,3.264,0,0,0-.37,2.391,2.5,2.5,0,0,1-2.439,3.057Z" fill="#65c1d6"/><path d="M64.592,99.272a2.5,2.5,0,0,1-2.307-3.461L72.3,71.743a2.5,2.5,0,1,1,4.616,1.921L66.9,97.732A2.5,2.5,0,0,1,64.592,99.272Z" fill="#65c1d6"/><path d="M89.547,99.191a2.5,2.5,0,0,1-1.768-4.268L97.964,84.737,87.779,74.552a2.5,2.5,0,0,1,3.535-3.535L103.268,82.97a2.5,2.5,0,0,1,0,3.535L91.314,98.458A2.485,2.485,0,0,1,89.547,99.191Z" fill="#65c1d6"/><path d="M49.652,99.191a2.489,2.489,0,0,1-1.767-.733L35.932,86.505a2.5,2.5,0,0,1,0-3.535L47.885,71.017a2.5,2.5,0,0,1,3.535,3.535L41.235,84.737,51.42,94.923a2.5,2.5,0,0,1-1.768,4.268Z" fill="#65c1d6"/><path d="M48.225,121.305H37.7a2.5,2.5,0,0,1,0-5H48.225a2.5,2.5,0,0,1,0,5Z" fill="#65c1d6"/><path d="M48.225,165.415H37.7a2.5,2.5,0,1,1,0-5H48.225a2.5,2.5,0,0,1,0,5Z" fill="#65c1d6"/><path d="M58.225,121.305H95.558a2.5,2.5,0,0,0,0-5H58.225a2.5,2.5,0,1,0,0,5Z" fill="#846f75"/><path d="M58.225,165.415h8.666a2.5,2.5,0,0,0,0-5H58.225a2.5,2.5,0,1,0,0,5Z" fill="#846f75"/><path d="M99.805,160.415H76.891a2.5,2.5,0,1,0,0,5H99.805a2.5,2.5,0,1,0,0-5Z" fill="#846f75"/><path d="M92.146,180.118a2.5,2.5,0,1,0,0-5H58.225a2.5,2.5,0,1,0,0,5Z" fill="#846f75"/><path d="M58.225,136.008H79.058a2.5,2.5,0,1,0,0-5H58.225a2.5,2.5,0,1,0,0,5Z" fill="#846f75"/><path d="M86.558,133.508a2.5,2.5,0,0,0,2.5,2.5h26.176a2.5,2.5,0,1,0,0-5H89.058A2.5,2.5,0,0,0,86.558,133.508Z" fill="#846f75"/><path d="M58.225,150.711H79.058a2.5,2.5,0,0,0,0-5H58.225a2.5,2.5,0,1,0,0,5Z" fill="#846f75"/><path d="M107.52,145.711H89.058a2.5,2.5,0,1,0,0,5H107.52a2.5,2.5,0,0,0,0-5Z" fill="#846f75"/><path d="M240.667,44.5H15.333a2.5,2.5,0,0,0-2.5,2.5V209a2.5,2.5,0,0,0,2.5,2.5H240.667a2.5,2.5,0,0,0,2.5-2.5V47A2.5,2.5,0,0,0,240.667,44.5Zm-222.834,5H166.489l-82.376,157H17.833Zm220.334,157H89.76l82.375-157h66.032Z" fill="#846f75"/></svg>