<svg xmlns="http://www.w3.org/2000/svg" viewBox="0 0 256 256"><title>icon</title><path d="M204.632,171.228H51.368a2.5,2.5,0,0,1-2.5-2.5v-96.5a2.5,2.5,0,0,1,2.5-2.5H204.632a2.5,2.5,0,0,1,2.5,2.5v96.5A2.5,2.5,0,0,1,204.632,171.228Zm-150.764-5H202.132v-91.5H53.868Z" fill="#ebe7f2"/><path d="M35.947,171.228a2.5,2.5,0,0,0,2.5-2.5V59.605a2.5,2.5,0,0,1,2.5-2.5H215.053a2.5,2.5,0,0,1,2.5,2.5V168.728a2.5,2.5,0,0,0,5,0V59.605a7.509,7.509,0,0,0-7.5-7.5H40.947a7.509,7.509,0,0,0-7.5,7.5V168.728A2.5,2.5,0,0,0,35.947,171.228Z" fill="#846f75"/><path d="M231.5,179.605H24.5a7.509,7.509,0,0,0-7.5,7.5v9.29a7.509,7.509,0,0,0,7.5,7.5h207a7.509,7.509,0,0,0,7.5-7.5v-9.29A7.509,7.509,0,0,0,231.5,179.605ZM234,196.4a2.5,2.5,0,0,1-2.5,2.5H24.5a2.5,2.5,0,0,1-2.5-2.5v-9.29a2.5,2.5,0,0,1,2.5-2.5h207a2.5,2.5,0,0,1,2.5,2.5Z" fill="#846f75"/><path d="M149.36,193.917H106.64a2.5,2.5,0,0,1,0-5h42.72a2.5,2.5,0,0,1,0,5Z" fill="#ebe7f2"/><path d="M103.138,125.6a11.138,11.138,0,0,0-3.631-3.948,31.394,31.394,0,0,0-7.355-3.3A19.12,19.12,0,0,1,85.563,115a5.814,5.814,0,0,1-1.726-4.528,6.269,6.269,0,0,1,1.912-4.84,7.792,7.792,0,0,1,5.517-1.819,6.868,6.868,0,0,1,5.481,2.252,8.557,8.557,0,0,1,1.965,4.919,2.7,2.7,0,0,0,2.624,2.376,2.636,2.636,0,0,0,2.63-2.862,13.3,13.3,0,0,0-2.839-7.517,11.394,11.394,0,0,0-7.381-3.909v-3.35a2.4,2.4,0,1,0-4.793,0v3.34a12.226,12.226,0,0,0-7.313,3.417,11.049,11.049,0,0,0-3.07,8.065,10.9,10.9,0,0,0,2.8,7.712c1.825,1.958,4.845,3.579,9.225,4.954,3.245,1.123,5.514,2.3,6.744,3.509a5.794,5.794,0,0,1,1.718,4.37,5.925,5.925,0,0,1-2.156,4.786,8.741,8.741,0,0,1-5.832,1.891,8.858,8.858,0,0,1-6.412-2.2,7.456,7.456,0,0,1-2.172-4.74,2.714,2.714,0,0,0-2.634-2.36,2.659,2.659,0,0,0-1.974.88,2.626,2.626,0,0,0-.662,2.029,12.158,12.158,0,0,0,3.245,7.407,13.311,13.311,0,0,0,8.408,3.748v2.707a2.383,2.383,0,1,0,4.765,0V142.5a12.764,12.764,0,0,0,7.566-3.38,10.855,10.855,0,0,0,3.153-8.078A11.5,11.5,0,0,0,103.138,125.6Z" fill="#ed9abc"/><path d="M128,161.75a2.5,2.5,0,0,1-2.5-2.5v-77a2.5,2.5,0,0,1,5,0v77A2.5,2.5,0,0,1,128,161.75Z" fill="#ebe7f2"/><path d="M192.75,94.25H181a2.5,2.5,0,0,1,0-5h11.75a2.5,2.5,0,0,1,0,5Z" fill="#ed9abc"/><path d="M159.36,94.25H137.61a2.5,2.5,0,0,1,0-5h21.75a2.5,2.5,0,0,1,0,5Z" fill="#ebe7f2"/><path d="M192.75,109H181a2.5,2.5,0,0,1,0-5h11.75a2.5,2.5,0,0,1,0,5Z" fill="#ed9abc"/><path d="M149.36,109H137.61a2.5,2.5,0,0,1,0-5h11.75a2.5,2.5,0,0,1,0,5Z" fill="#ebe7f2"/><path d="M192.75,123.75H181a2.5,2.5,0,0,1,0-5h11.75a2.5,2.5,0,0,1,0,5Z" fill="#ed9abc"/><path d="M166.5,123.75H137.61a2.5,2.5,0,0,1,0-5H166.5a2.5,2.5,0,0,1,0,5Z" fill="#ebe7f2"/><path d="M192.75,140.375H137.61a2.5,2.5,0,0,1,0-5h55.14a2.5,2.5,0,0,1,0,5Z" fill="#ebe7f2"/><path d="M192.75,157h-24a2.5,2.5,0,0,1,0-5h24a2.5,2.5,0,0,1,0,5Z" fill="#ed9abc"/></svg>