<svg xmlns="http://www.w3.org/2000/svg" viewBox="0 0 256 256"><title>icon</title><path d="M151.083,92.8a2.5,2.5,0,0,1-2.5-2.5,20.584,20.584,0,1,0-41.167,0,2.5,2.5,0,0,1-5,0,25.584,25.584,0,1,1,51.167,0A2.5,2.5,0,0,1,151.083,92.8Z" fill="#ebe7f2"/><path d="M143.119,230.949a2.5,2.5,0,0,1-2.5-2.5V190.315a2.5,2.5,0,0,1,1.406-2.248,32.142,32.142,0,0,0,3.594-55.786v24.137a5.245,5.245,0,0,1-5.24,5.239H115.621a5.245,5.245,0,0,1-5.24-5.239V132.281a32.142,32.142,0,0,0,3.594,55.786,2.5,2.5,0,0,1,1.406,2.248v38.134a2.5,2.5,0,0,1-5,0V191.844a37.136,37.136,0,0,1,1.408-66.092A2.5,2.5,0,0,1,115.381,128v28.418a.24.24,0,0,0,.24.239h24.758a.24.24,0,0,0,.24-.239V128a2.5,2.5,0,0,1,3.592-2.248,37.136,37.136,0,0,1,1.408,66.092v36.605A2.5,2.5,0,0,1,143.119,230.949Z" fill="#a58bc9"/><path d="M182.275,162.927H205.9a8,8,0,1,0,0-16H182.275V134.83A34.013,34.013,0,0,0,210.6,101.2a8,8,0,1,0-16,0,18.137,18.137,0,0,1-17.592,18.1,24.488,24.488,0,0,0-16.907-9.243,37.635,37.635,0,0,0,1.815-36.227C162.148,60.367,170.928,49.5,181.7,49.5a8,8,0,1,0,0-16c-14.654,0-27.578,10.01-33.076,25.248a37.589,37.589,0,0,0-41.24,0C101.882,43.509,88.957,33.5,74.3,33.5a8,8,0,0,0,0,16c10.768,0,19.549,10.865,19.779,24.328A37.64,37.64,0,0,0,95.9,110.058,24.492,24.492,0,0,0,78.988,119.3,18.137,18.137,0,0,1,61.4,101.2a8,8,0,1,0-16,0,34.012,34.012,0,0,0,28.329,33.63v12.1H50.1a8,8,0,0,0,0,16H73.725v5.3a54.329,54.329,0,0,0,.43,6.793,34.311,34.311,0,0,0-28.759,33.7,8,8,0,1,0,16,0,18.136,18.136,0,0,1,17.173-18.08A54.353,54.353,0,0,0,97.4,213.051a2.5,2.5,0,0,0,2.823-4.127,49.294,49.294,0,0,1-21.5-40.7V134.448a19.526,19.526,0,0,1,19.5-19.5h59.542a19.526,19.526,0,0,1,19.5,19.5v33.777a49.294,49.294,0,0,1-21.5,40.7,2.5,2.5,0,0,0,2.823,4.127,54.35,54.35,0,0,0,18.83-22.415,18.135,18.135,0,0,1,17.174,18.08,8,8,0,1,0,16,0,34.31,34.31,0,0,0-28.759-33.7,54.329,54.329,0,0,0,.43-6.793ZM50.4,101.2a3,3,0,1,1,6,0A23.164,23.164,0,0,0,76.04,124.065a24.3,24.3,0,0,0-1.873,5.768A29.029,29.029,0,0,1,50.4,101.2Zm-.3,56.727a3,3,0,0,1,0-6H73.725v6Zm6.3,50.789a3,3,0,1,1-6,0,29.283,29.283,0,0,1,24.633-28.775,53.948,53.948,0,0,0,1.636,5.83A23.159,23.159,0,0,0,56.4,208.716ZM181.7,38.5a3,3,0,1,1,0,6c-11.574,0-21.318,9.608-24.033,22.552a38.144,38.144,0,0,0-4.847-5.116C157.284,47.855,168.722,38.5,181.7,38.5ZM74.3,44.5a3,3,0,1,1,0-6c12.975,0,24.414,9.354,28.882,23.438a38.073,38.073,0,0,0-4.847,5.115C95.622,54.11,85.877,44.5,74.3,44.5Zm27.557,65.442A32.3,32.3,0,0,1,95.289,90.3a32.711,32.711,0,0,1,65.422,0,32.3,32.3,0,0,1-6.571,19.646ZM205.9,151.925a3,3,0,1,1,0,6H182.275v-6ZM199.6,101.2a3,3,0,1,1,6,0,29.029,29.029,0,0,1-23.771,28.633,24.343,24.343,0,0,0-1.873-5.768A23.163,23.163,0,0,0,199.6,101.2Zm6,107.516a3,3,0,1,1-6,0,23.159,23.159,0,0,0-20.268-22.945,54.242,54.242,0,0,0,1.636-5.83A29.282,29.282,0,0,1,205.6,208.716Z" fill="#846f75"/><path d="M128,230.949a2.5,2.5,0,0,1-2.5-2.5V181.333a2.5,2.5,0,1,1,5,0v47.116A2.5,2.5,0,0,1,128,230.949Z" fill="#ebe7f2"/></svg>