<svg xmlns="http://www.w3.org/2000/svg" viewBox="0 0 256 256"><title>icon</title><path d="M128,235.5c-19.292,0-37.451-1.4-51.133-3.948-20.646-3.841-23.034-8.623-23.034-11.885,0-12.332,45.641-15.028,59.628-15.561a2.5,2.5,0,1,1,.191,5c-15.786.6-30.135,2.207-40.4,4.522-13.569,3.059-14.416,6.015-14.416,6.043s1.114,3.652,18.948,6.97c13.39,2.491,31.225,3.863,50.219,3.863s36.829-1.372,50.219-3.863c17.834-3.318,18.948-6.936,18.948-6.97s-.864-3.028-14.706-6.108c-10.467-2.329-25.047-3.924-41.055-4.491a2.5,2.5,0,0,1,.177-5c16.3.578,31.207,2.214,41.964,4.607,12.7,2.827,18.62,6.318,18.62,10.989,0,3.262-2.388,8.044-23.034,11.885C165.451,234.1,147.292,235.5,128,235.5Z" fill="#ebe7f2"/><path d="M154.52,105.972h9.622a2.5,2.5,0,0,0,0-5H154.52V91.915a14.636,14.636,0,0,0,12.122-14.393,2.5,2.5,0,1,0-5,0,9.633,9.633,0,0,1-9.622,9.623h-6.871a18.786,18.786,0,0,0-2.644-19.776c0-.048.014-.093.014-.142,0-5.265,4.662-9.547,10.393-9.547a2.5,2.5,0,0,0,0-5,15.283,15.283,0,0,0-14.854,10.793,18.685,18.685,0,0,0-20.116,0A15.283,15.283,0,0,0,103.088,52.68a2.5,2.5,0,0,0,0,5c5.731,0,10.393,4.282,10.393,9.547,0,.049.012.094.014.142a18.786,18.786,0,0,0-2.644,19.776H103.98a9.633,9.633,0,0,1-9.622-9.623,2.5,2.5,0,1,0-5,0A14.636,14.636,0,0,0,101.48,91.915v9.057H91.858a2.5,2.5,0,0,0,0,5h9.622v4.446a26.507,26.507,0,0,0,.361,4.338A14.632,14.632,0,0,0,89.358,129.2a2.5,2.5,0,0,0,5,0,9.631,9.631,0,0,1,8.772-9.579,26.519,26.519,0,0,0,49.74,0,9.631,9.631,0,0,1,8.772,9.579,2.5,2.5,0,0,0,5,0,14.632,14.632,0,0,0-12.483-14.448,26.507,26.507,0,0,0,.361-4.338Zm-40.355-26.6a13.835,13.835,0,0,1,27.67,0,13.652,13.652,0,0,1-2.394,7.775H116.56A13.65,13.65,0,0,1,114.165,79.37Zm-7.685,31.048V92.145H125.5v39.636A21.542,21.542,0,0,1,106.48,110.418Zm24.02,21.363V92.145h19.02v18.273A21.542,21.542,0,0,1,130.5,131.781Z" fill="#65c1d6"/><path d="M128,20.5A70.239,70.239,0,0,0,57.84,90.66q0,1.83.059,3.647v.008c1.146,36.294,19.1,68.427,34.248,89.262,16.9,23.248,33.539,37.408,34.239,38a2.5,2.5,0,0,0,3.226,0c.7-.591,17.341-14.751,34.239-38,15.651-21.532,34.308-55.13,34.308-92.917A70.239,70.239,0,0,0,128,20.5Zm0,195.827c-9.87-8.94-61.645-58.627-64.988-119.518H74.284a2.5,2.5,0,1,0,0-5H62.855c0-.383-.015-.765-.015-1.149a65.23,65.23,0,0,1,62.66-65.1v15.03a2.5,2.5,0,1,0,5,0V25.563a65.23,65.23,0,0,1,62.66,65.1c0,.384-.011.766-.015,1.149H181.716a2.5,2.5,0,0,0,0,5h11.272C189.645,157.7,137.87,207.387,128,216.327Z" fill="#846f75"/><path d="M128,145.525a2.5,2.5,0,0,0-2.5,2.5V165.4a2.5,2.5,0,0,0,5,0V148.025A2.5,2.5,0,0,0,128,145.525Z" fill="#846f75"/></svg>