<svg xmlns="http://www.w3.org/2000/svg" viewBox="0 0 256 256"><title>icon</title><path d="M151.083,92.8a2.5,2.5,0,0,1-2.5-2.5,20.584,20.584,0,1,0-41.167,0,2.5,2.5,0,0,1-5,0,25.584,25.584,0,1,1,51.167,0A2.5,2.5,0,0,1,151.083,92.8Z" fill="#ebe7f2"/><path d="M182.274,162.927H205.9a8,8,0,1,0,0-16h-23.63V134.83A34.011,34.011,0,0,0,210.6,101.2a8,8,0,1,0-16,0,18.137,18.137,0,0,1-17.593,18.1,24.485,24.485,0,0,0-16.9-9.243,37.638,37.638,0,0,0,1.814-36.227c.229-13.463,9.01-24.329,19.777-24.329a8,8,0,1,0,0-16c-14.654,0-27.578,10.01-33.076,25.247a37.587,37.587,0,0,0-41.24,0C101.881,43.51,88.957,33.5,74.3,33.5a8,8,0,1,0,0,16c10.768,0,19.549,10.866,19.778,24.329A37.638,37.638,0,0,0,95.9,110.058,24.488,24.488,0,0,0,78.988,119.3,18.137,18.137,0,0,1,61.4,101.2a8,8,0,1,0-16,0,34.009,34.009,0,0,0,28.329,33.628v12.1H50.1a8,8,0,0,0,0,16H73.725v5.3a54.373,54.373,0,0,0,.44,6.792,34.31,34.31,0,0,0-28.769,33.7,8,8,0,1,0,16,0,18.135,18.135,0,0,1,17.19-18.08,54.244,54.244,0,0,0,98.825,0,18.136,18.136,0,0,1,17.191,18.08,8,8,0,1,0,16,0,34.309,34.309,0,0,0-28.77-33.7,54.373,54.373,0,0,0,.44-6.792Zm23.63-11a3,3,0,1,1,0,6h-23.63v-6ZM199.6,101.2a3,3,0,1,1,6,0,29.025,29.025,0,0,1-23.772,28.631,24.29,24.29,0,0,0-1.873-5.767A23.163,23.163,0,0,0,199.6,101.2ZM181.7,38.5a3,3,0,1,1,0,6c-11.573,0-21.318,9.608-24.033,22.552a38.081,38.081,0,0,0-4.847-5.116C157.284,47.855,168.722,38.5,181.7,38.5ZM74.3,44.5a3,3,0,1,1,0-6c12.973,0,24.412,9.355,28.881,23.438a38.081,38.081,0,0,0-4.847,5.116C95.622,54.11,85.877,44.5,74.3,44.5ZM128,57.586A32.749,32.749,0,0,1,160.711,90.3a32.3,32.3,0,0,1-6.57,19.646H101.859A32.3,32.3,0,0,1,95.289,90.3,32.749,32.749,0,0,1,128,57.586ZM50.4,101.2a3,3,0,1,1,6,0A23.163,23.163,0,0,0,76.04,124.065a24.29,24.29,0,0,0-1.873,5.767A29.025,29.025,0,0,1,50.4,101.2Zm-.3,56.726a3,3,0,0,1,0-6H73.725v6Zm6.3,50.788a3,3,0,1,1-6,0,29.281,29.281,0,0,1,24.617-28.771,53.958,53.958,0,0,0,1.639,5.829A23.157,23.157,0,0,0,56.4,208.715Zm22.328-40.49V134.448a19.526,19.526,0,0,1,19.5-19.5H125.5V217.437A49.337,49.337,0,0,1,78.725,168.225ZM130.5,217.437V114.944h27.271a19.526,19.526,0,0,1,19.5,19.5v33.777A49.337,49.337,0,0,1,130.5,217.437Zm75.1-8.722a3,3,0,1,1-6,0,23.157,23.157,0,0,0-20.256-22.942,53.73,53.73,0,0,0,1.639-5.829A29.28,29.28,0,0,1,205.6,208.715Z" fill="#846f75"/><path d="M107.141,151.925a11.489,11.489,0,1,1,11.488-11.488A11.5,11.5,0,0,1,107.141,151.925Zm0-17.977a6.489,6.489,0,1,0,6.488,6.489A6.5,6.5,0,0,0,107.141,133.948Z" fill="#ed9abc"/><path d="M97.51,184.808A11.489,11.489,0,1,1,109,173.319,11.5,11.5,0,0,1,97.51,184.808Zm0-17.978A6.489,6.489,0,1,0,104,173.319,6.5,6.5,0,0,0,97.51,166.83Z" fill="#ed9abc"/><path d="M148.859,151.925a11.489,11.489,0,1,1,11.489-11.488A11.5,11.5,0,0,1,148.859,151.925Zm0-17.977a6.489,6.489,0,1,0,6.489,6.489A6.495,6.495,0,0,0,148.859,133.948Z" fill="#ed9abc"/><path d="M158.49,184.808a11.489,11.489,0,1,1,11.489-11.489A11.5,11.5,0,0,1,158.49,184.808Zm0-17.978a6.489,6.489,0,1,0,6.489,6.489A6.5,6.5,0,0,0,158.49,166.83Z" fill="#ed9abc"/></svg>