<svg xmlns="http://www.w3.org/2000/svg" viewBox="0 0 256 256"><title>icon</title><path d="M131.348,97.114h-6.7a5.452,5.452,0,0,1-5.278-4.087l-1.493-5.792-5.148,3.039a5.454,5.454,0,0,1-6.625-.841L101.375,84.7a5.452,5.452,0,0,1-.844-6.622l3.04-5.152-5.79-1.491a5.455,5.455,0,0,1-4.088-5.28V59.459a5.453,5.453,0,0,1,4.085-5.278l5.793-1.493-3.039-5.149a5.452,5.452,0,0,1,.843-6.624l4.733-4.734a5.455,5.455,0,0,1,6.621-.844l5.152,3.041,1.493-5.79a5.451,5.451,0,0,1,5.278-4.088h6.7a5.452,5.452,0,0,1,5.278,4.085l1.493,5.793,5.149-3.039a5.451,5.451,0,0,1,6.623.842l4.734,4.734a5.453,5.453,0,0,1,.844,6.623l-3.041,5.15,5.791,1.492h0a5.453,5.453,0,0,1,4.085,5.278v6.695a5.453,5.453,0,0,1-4.085,5.279l-5.794,1.493,3.039,5.149a5.451,5.451,0,0,1-.842,6.624l-4.733,4.734a5.455,5.455,0,0,1-6.622.843l-5.151-3.041-1.492,5.79A5.453,5.453,0,0,1,131.348,97.114ZM119.473,80.893a2.5,2.5,0,0,1,2.421,1.876l2.321,9.008a.452.452,0,0,0,.437.337h6.7a.452.452,0,0,0,.438-.34l2.32-9a2.5,2.5,0,0,1,3.691-1.53l8.012,4.729a.452.452,0,0,0,.547-.072l4.734-4.733a.452.452,0,0,0,.07-.55l-4.727-8.01a2.5,2.5,0,0,1,1.529-3.691l9.009-2.321a.453.453,0,0,0,.336-.438V59.459a.453.453,0,0,0-.337-.437L147.962,56.7a2.5,2.5,0,0,1-1.529-3.692L151.162,45a.453.453,0,0,0-.072-.548l-4.734-4.734a.454.454,0,0,0-.549-.07l-8.01,4.728a2.5,2.5,0,0,1-3.691-1.53l-2.321-9.008a.452.452,0,0,0-.437-.336h-6.7a.451.451,0,0,0-.437.338l-2.321,9.007a2.5,2.5,0,0,1-3.692,1.529l-8.011-4.729a.453.453,0,0,0-.548.072L104.91,44.45a.454.454,0,0,0-.071.55l4.727,8.009a2.5,2.5,0,0,1-1.528,3.692l-9.009,2.321a.452.452,0,0,0-.336.437v6.695a.454.454,0,0,0,.339.439l9.006,2.32a2.5,2.5,0,0,1,1.528,3.691l-4.728,8.012a.453.453,0,0,0,.072.548l4.734,4.733a.454.454,0,0,0,.55.07L118.2,81.24A2.5,2.5,0,0,1,119.473,80.893Z" fill="#a58bc9"/><path d="M128,75.569a12.762,12.762,0,1,1,12.762-12.762A12.776,12.776,0,0,1,128,75.569Zm0-20.524a7.762,7.762,0,1,0,7.762,7.762A7.771,7.771,0,0,0,128,55.045Z" fill="#a58bc9"/><path d="M132.591,147.758l45.737-45.737,4.634-1.069a8.764,8.764,0,0,0,5.224-3.532L199.4,81.329a4.584,4.584,0,0,0-.52-5.87l-5.6-5.605a4.586,4.586,0,0,0-5.871-.52L171.314,80.549a8.752,8.752,0,0,0-3.531,5.224l-1.069,4.633-45.737,45.738-1.878-1.878a4.588,4.588,0,0,0-6.491,0l-8.054,8.053a7.983,7.983,0,0,0-6.434,2.3l-46,46a8.011,8.011,0,0,0,0,11.314L66.8,216.616a8,8,0,0,0,11.314,0l46-46a7.949,7.949,0,0,0,2.344-5.657c0-.262-.014-.523-.039-.781l8.051-8.051a4.6,4.6,0,0,0,0-6.49ZM172.655,86.9a3.768,3.768,0,0,1,1.518-2.246l15.81-11.019,5.119,5.119-11.019,15.81a3.763,3.763,0,0,1-2.245,1.519L177.856,97l-6.12-6.121Zm-3.666,8.3,4.543,4.544-44.476,44.477-4.544-4.544Zm-48.41,71.878-46,46a3.073,3.073,0,0,1-4.244,0L55.654,198.4a3,3,0,0,1,0-4.244l46-46a3,3,0,0,1,4.243,0l14.681,14.68A3,3,0,0,1,120.579,167.08Zm3.588-7.721c-.019-.019-.034-.039-.053-.058l-14.68-14.681-.058-.052,6.478-6.477,14.79,14.79Z" fill="#846f75"/><path d="M76.77,111.092l21.776,21.777a2.5,2.5,0,0,0,3.536-3.536L79.243,106.5a2.5,2.5,0,0,0-2.585-.6,17.035,17.035,0,0,1-22.55-17.468l9.18,9.179a2.57,2.57,0,0,0,3.535,0L78.875,85.558a2.5,2.5,0,0,0,0-3.536L69.7,72.842A17.037,17.037,0,0,1,87.165,95.393a2.5,2.5,0,0,0,.595,2.584l27.963,27.963a2.5,2.5,0,0,0,3.535-3.535l-26.9-26.9a22.025,22.025,0,0,0-28.485-26.5,2.5,2.5,0,0,0-.951,4.13L73.572,83.79l-8.516,8.517L54.4,81.656a2.5,2.5,0,0,0-4.131.95,22.026,22.026,0,0,0,26.5,28.486Z" fill="#846f75"/><path d="M194.488,182.083a21.861,21.861,0,0,0-21.258-5.706l-26.9-26.9a2.5,2.5,0,0,0-3.535,3.535l27.962,27.963a2.5,2.5,0,0,0,2.585.595,17.035,17.035,0,0,1,22.55,17.469l-9.18-9.18a2.57,2.57,0,0,0-3.535,0l-12.052,12.053a2.5,2.5,0,0,0,0,3.535l9.179,9.18a17.036,17.036,0,0,1-17.469-22.55,2.5,2.5,0,0,0-.595-2.585l-21.933-21.933a2.5,2.5,0,0,0-3.536,3.535l20.872,20.871a22.051,22.051,0,0,0,21.214,27.727,22.212,22.212,0,0,0,7.271-1.231,2.5,2.5,0,0,0,.951-4.13l-10.651-10.652,8.516-8.517L195.6,205.813a2.5,2.5,0,0,0,4.131-.95A21.876,21.876,0,0,0,194.488,182.083Z" fill="#846f75"/></svg>