<svg xmlns="http://www.w3.org/2000/svg" viewBox="0 0 256 256"><title>icon</title><path d="M37.059,203.5a2.5,2.5,0,0,1-2.5-2.5V82.465a2.5,2.5,0,0,1,5,0V201A2.5,2.5,0,0,1,37.059,203.5Z" fill="#ebe7f2"/><path d="M190.245,203.5a2.5,2.5,0,0,1-2.5-2.5V154.374a2.5,2.5,0,0,1,5,0V201A2.5,2.5,0,0,1,190.245,203.5Z" fill="#ebe7f2"/><path d="M190.245,121.325a2.5,2.5,0,0,1-2.5-2.5V82.465a2.5,2.5,0,0,1,5,0v36.36A2.5,2.5,0,0,1,190.245,121.325Z" fill="#ebe7f2"/><path d="M238.115,106.5,220.341,88.729a2.5,2.5,0,0,0-3.535,0l-67.4,67.4a2.5,2.5,0,0,0-.638,1.085l-7.036,24.81a2.5,2.5,0,0,0,3.088,3.087l24.81-7.035a2.5,2.5,0,0,0,1.085-.638l67.4-67.395A2.5,2.5,0,0,0,238.115,106.5Zm-85.693,56.168,11.752,11.752-16.4,4.652Zm16.531,9.46-14.24-14.239,51.653-51.652L220.6,120.479Zm55.187-55.188L209.9,102.7l8.672-8.672,14.239,14.239Z" fill="#f9b087"/><path d="M64.268,113.358a2.5,2.5,0,0,1-2.307-3.461l5.762-13.85a2.5,2.5,0,1,1,4.616,1.921l-5.762,13.85A2.5,2.5,0,0,1,64.268,113.358Z" fill="#f9b087"/><path d="M78.628,113.311a2.5,2.5,0,0,1-1.768-4.268l5.111-5.111-5.11-5.111A2.5,2.5,0,0,1,80.4,95.286l6.878,6.879a2.5,2.5,0,0,1,0,3.535L80.4,112.579A2.493,2.493,0,0,1,78.628,113.311Z" fill="#f9b087"/><path d="M55.671,113.311a2.5,2.5,0,0,1-1.768-.732L47.025,105.7a2.5,2.5,0,0,1,0-3.535L53.9,95.286a2.5,2.5,0,0,1,3.535,3.535l-5.11,5.111,5.11,5.111a2.5,2.5,0,0,1-1.768,4.268Z" fill="#f9b087"/><path d="M59.319,130.5H48.793a2.5,2.5,0,0,1,0-5H59.319a2.5,2.5,0,1,1,0,5Z" fill="#f9b087"/><path d="M59.319,174.61H48.793a2.5,2.5,0,0,1,0-5H59.319a2.5,2.5,0,1,1,0,5Z" fill="#f9b087"/><path d="M202.652,52.431h-178a7.509,7.509,0,0,0-7.5,7.5V196.069a7.509,7.509,0,0,0,7.5,7.5h178a7.508,7.508,0,0,0,7.5-7.5V147.132a2.5,2.5,0,0,0-5,0v48.937a2.5,2.5,0,0,1-2.5,2.5h-178a2.5,2.5,0,0,1-2.5-2.5V84.965h183v5.68a2.5,2.5,0,0,0,5,0V59.931A7.508,7.508,0,0,0,202.652,52.431ZM22.152,79.965V59.931a2.5,2.5,0,0,1,2.5-2.5h178a2.5,2.5,0,0,1,2.5,2.5V79.965Z" fill="#846f75"/><path d="M37.781,62.054a7.25,7.25,0,1,0,7.25,7.25A7.258,7.258,0,0,0,37.781,62.054Zm0,9.5a2.25,2.25,0,1,1,2.25-2.25A2.252,2.252,0,0,1,37.781,71.554Z" fill="#846f75"/><path d="M56.281,62.054a7.25,7.25,0,1,0,7.25,7.25A7.258,7.258,0,0,0,56.281,62.054Zm0,9.5a2.25,2.25,0,1,1,2.25-2.25A2.252,2.252,0,0,1,56.281,71.554Z" fill="#846f75"/><path d="M74.781,62.054a7.25,7.25,0,1,0,7.25,7.25A7.258,7.258,0,0,0,74.781,62.054Zm0,9.5a2.25,2.25,0,1,1,2.25-2.25A2.252,2.252,0,0,1,74.781,71.554Z" fill="#846f75"/><path d="M190.985,66.8h-29a2.5,2.5,0,0,0,0,5h29a2.5,2.5,0,0,0,0-5Z" fill="#846f75"/><path d="M69.319,130.5h37.333a2.5,2.5,0,0,0,0-5H69.319a2.5,2.5,0,0,0,0,5Z" fill="#846f75"/><path d="M69.319,174.61H97.985a2.5,2.5,0,1,0,0-5H69.319a2.5,2.5,0,0,0,0,5Z" fill="#846f75"/><path d="M124.652,172.11a2.5,2.5,0,0,0-2.5-2.5H107.985a2.5,2.5,0,0,0,0,5h14.167A2.5,2.5,0,0,0,124.652,172.11Z" fill="#846f75"/><path d="M69.319,189.313h37.333a2.5,2.5,0,0,0,0-5H69.319a2.5,2.5,0,0,0,0,5Z" fill="#846f75"/><path d="M69.319,145.2H90.152a2.5,2.5,0,1,0,0-5H69.319a2.5,2.5,0,1,0,0,5Z" fill="#846f75"/><path d="M130.652,140.2h-30.5a2.5,2.5,0,0,0,0,5h30.5a2.5,2.5,0,0,0,0-5Z" fill="#846f75"/><path d="M69.319,159.907H90.152a2.5,2.5,0,1,0,0-5H69.319a2.5,2.5,0,1,0,0,5Z" fill="#846f75"/><path d="M133.152,157.407a2.5,2.5,0,0,0-2.5-2.5h-30.5a2.5,2.5,0,0,0,0,5h30.5A2.5,2.5,0,0,0,133.152,157.407Z" fill="#846f75"/></svg>