<svg xmlns="http://www.w3.org/2000/svg" viewBox="0 0 256 256"><title>icon</title><path d="M128,206.268A78.268,78.268,0,1,1,206.268,128,78.357,78.357,0,0,1,128,206.268Zm0-151.536A73.268,73.268,0,1,0,201.268,128,73.351,73.351,0,0,0,128,54.732Z" fill="#ebe7f2"/><path d="M113.429,170.522a7.5,7.5,0,0,1-6.923-10.382L135.644,90.1a7.5,7.5,0,0,1,13.85,5.761L120.356,165.9A7.483,7.483,0,0,1,113.429,170.522Zm29.144-80.043a2.507,2.507,0,0,0-2.313,1.54l-29.137,70.042a2.5,2.5,0,0,0,1.348,3.268,2.537,2.537,0,0,0,3.269-1.349l29.137-70.042a2.5,2.5,0,0,0-2.3-3.459Z" fill="#ed9abc"/><path d="M159.157,158.343a7.5,7.5,0,0,1-5.3-12.8L171.393,128l-17.539-17.541a7.5,7.5,0,1,1,10.6-10.606L187.3,122.7a7.5,7.5,0,0,1,0,10.607L164.46,156.146A7.45,7.45,0,0,1,159.157,158.343Zm0-55.685a2.5,2.5,0,0,0-1.768,4.266L176.7,126.232a2.5,2.5,0,0,1,0,3.535l-19.307,19.308a2.5,2.5,0,0,0,0,3.536,2.562,2.562,0,0,0,3.536,0l22.843-22.842a2.5,2.5,0,0,0,0-3.537l-22.843-22.843A2.493,2.493,0,0,0,159.157,102.658Z" fill="#ed9abc"/><path d="M96.843,158.343a7.446,7.446,0,0,1-5.3-2.2L68.7,133.3a7.5,7.5,0,0,1,0-10.607L91.54,99.853a7.5,7.5,0,0,1,10.606,10.606L84.607,128l17.539,17.54a7.5,7.5,0,0,1-5.3,12.8Zm0-55.685a2.491,2.491,0,0,0-1.768.731L72.232,126.231a2.5,2.5,0,0,0,0,3.537l22.843,22.843a2.563,2.563,0,0,0,3.537,0,2.5,2.5,0,0,0,0-3.535L79.3,129.767a2.5,2.5,0,0,1,0-3.535l19.307-19.308a2.5,2.5,0,0,0-1.768-4.266Z" fill="#ed9abc"/><path d="M128,29.167A98.945,98.945,0,0,0,29.167,128a97.94,97.94,0,0,0,19.124,58.437l-9.644,31a2.5,2.5,0,0,0,3.13,3.129L73.74,210.62A98.838,98.838,0,1,0,128,29.167Zm0,192.666a93.362,93.362,0,0,1-52.465-16.025,2.5,2.5,0,0,0-2.142-.316l-28.558,8.884,8.608-27.668a2.5,2.5,0,0,0-.392-2.249A93.835,93.835,0,1,1,128,221.833Z" fill="#846f75"/></svg>