<svg xmlns="http://www.w3.org/2000/svg" viewBox="0 0 256 256"><title>icon</title><path d="M177.706,135.994a2.5,2.5,0,0,1-2.5-2.5V112.952a2.5,2.5,0,0,1,5,0v20.542A2.5,2.5,0,0,1,177.706,135.994Z" fill="#f9b087"/><path d="M143.048,80.794H109.222a2.5,2.5,0,0,1,0-5h33.826a2.5,2.5,0,0,1,0,5Z" fill="#f9b087"/><path d="M78.294,145.548a2.5,2.5,0,0,1-2.5-2.5V122.506a2.5,2.5,0,0,1,5,0v20.542A2.5,2.5,0,0,1,78.294,145.548Z" fill="#f9b087"/><path d="M145.9,180.206H112.952a2.5,2.5,0,0,1,0-5H145.9a2.5,2.5,0,0,1,0,5Z" fill="#f9b087"/><path d="M52.455,125.007a2.5,2.5,0,0,1-2.424-3.121l8.4-32.8a2.5,2.5,0,1,1,4.844,1.24l-8.4,32.8A2.5,2.5,0,0,1,52.455,125.007Z" fill="#ebe7f2"/><path d="M107.183,125.007a2.5,2.5,0,0,1-2.42-1.881l-8.4-32.8a2.5,2.5,0,0,1,4.844-1.24l8.4,32.8a2.5,2.5,0,0,1-2.424,3.121Z" fill="#ebe7f2"/><path d="M148.816,221.368a2.473,2.473,0,0,1-.622-.079,2.5,2.5,0,0,1-1.8-3.042l8.4-32.8a2.5,2.5,0,0,1,4.844,1.24l-8.4,32.8A2.5,2.5,0,0,1,148.816,221.368Z" fill="#ebe7f2"/><path d="M203.545,221.368a2.5,2.5,0,0,1-2.42-1.881l-8.4-32.8a2.5,2.5,0,1,1,4.843-1.24l8.4,32.8a2.5,2.5,0,0,1-1.8,3.042A2.473,2.473,0,0,1,203.545,221.368Z" fill="#ebe7f2"/><path d="M177.706,91.977a13.683,13.683,0,1,1,13.682-13.683A13.7,13.7,0,0,1,177.706,91.977Zm0-22.365a8.683,8.683,0,1,0,8.682,8.682A8.692,8.692,0,0,0,177.706,69.612Z" fill="#f9b087"/><path d="M111.644,77.29a11.726,11.726,0,0,0-11.365-8.821H95.7a20.654,20.654,0,1,0-31.765,0H59.359A11.726,11.726,0,0,0,48,77.29l-11.417,44.6A2.5,2.5,0,0,0,39,125.006h81.639a2.5,2.5,0,0,0,2.422-3.12ZM42.221,120.006,52.839,78.53a6.727,6.727,0,0,1,6.52-5.061h11.32a2.5,2.5,0,0,0,1.261-4.658,15.654,15.654,0,1,1,15.758,0,2.5,2.5,0,0,0,1.261,4.658h11.32A6.728,6.728,0,0,1,106.8,78.53l10.618,41.476Z" fill="#846f75"/><path d="M219.422,218.247l-11.417-44.6a11.726,11.726,0,0,0-11.364-8.821h-4.578a20.654,20.654,0,1,0-31.765,0h-4.577a11.727,11.727,0,0,0-11.365,8.821l-11.417,44.6a2.5,2.5,0,0,0,2.422,3.12H217a2.5,2.5,0,0,0,2.422-3.12Zm-80.84-1.88L149.2,174.892a6.728,6.728,0,0,1,6.521-5.062h11.32a2.5,2.5,0,0,0,1.261-4.658,15.653,15.653,0,1,1,15.759,0,2.5,2.5,0,0,0,1.26,4.658h11.32a6.727,6.727,0,0,1,6.52,5.062l10.618,41.475Z" fill="#846f75"/><path d="M144.835,87.477l6.6,1.7-3.465,5.87a5.718,5.718,0,0,0,.886,6.942l5.158,5.158a5.716,5.716,0,0,0,6.946.883l5.866-3.463,1.7,6.6a5.717,5.717,0,0,0,5.535,4.285h7.3a5.719,5.719,0,0,0,5.535-4.287l1.7-6.6,5.87,3.466a5.719,5.719,0,0,0,6.942-.886l5.159-5.158a5.72,5.72,0,0,0,.883-6.945l-3.463-5.867,6.6-1.7a5.716,5.716,0,0,0,4.285-5.535v-7.3a5.72,5.72,0,0,0-4.283-5.535h0l-6.6-1.7,3.465-5.869a5.719,5.719,0,0,0-.885-6.942L201.4,49.44a5.721,5.721,0,0,0-6.945-.883l-5.867,3.463-1.7-6.6a5.715,5.715,0,0,0-5.534-4.285h-7.3a5.717,5.717,0,0,0-5.536,4.287l-1.7,6.6-5.87-3.465a5.722,5.722,0,0,0-6.942.885L148.853,54.6a5.718,5.718,0,0,0-.884,6.945l3.463,5.866-6.6,1.7a5.72,5.72,0,0,0-4.283,5.535v7.3A5.718,5.718,0,0,0,144.835,87.477Zm.713-12.831a.718.718,0,0,1,.535-.694l9.815-2.529a2.5,2.5,0,0,0,1.53-3.692l-5.151-8.725a.717.717,0,0,1,.111-.872l5.158-5.158a.712.712,0,0,1,.869-.113l8.729,5.153a2.5,2.5,0,0,0,3.691-1.53l2.529-9.813a.716.716,0,0,1,.695-.537h7.3a.714.714,0,0,1,.693.535l2.529,9.815a2.5,2.5,0,0,0,3.692,1.53l8.726-5.151a.715.715,0,0,1,.872.111l5.158,5.158a.717.717,0,0,1,.113.869l-5.153,8.728a2.5,2.5,0,0,0,1.53,3.692l9.811,2.528a.718.718,0,0,1,.539.7v7.3a.714.714,0,0,1-.535.694l-9.815,2.529a2.5,2.5,0,0,0-1.53,3.691l5.151,8.727a.717.717,0,0,1-.111.872l-5.158,5.158a.715.715,0,0,1-.869.113l-8.729-5.154a2.5,2.5,0,0,0-3.692,1.53l-2.528,9.814a.717.717,0,0,1-.694.537h-7.3a.716.716,0,0,1-.694-.535l-2.53-9.816a2.5,2.5,0,0,0-3.692-1.529l-8.725,5.151a.72.72,0,0,1-.872-.111l-5.158-5.158a.717.717,0,0,1-.113-.869l5.153-8.73a2.5,2.5,0,0,0-1.53-3.691l-9.813-2.528a.717.717,0,0,1-.537-.695Z" fill="#846f75"/><path d="M111.168,168.523h0l-6.6-1.7,3.464-5.868a5.714,5.714,0,0,0-.883-6.943l-5.159-5.16a5.72,5.72,0,0,0-6.945-.882l-5.867,3.463-1.7-6.6a5.719,5.719,0,0,0-5.536-4.284h-7.3a5.717,5.717,0,0,0-5.535,4.287l-1.7,6.6-5.869-3.464a5.721,5.721,0,0,0-6.944.884l-5.157,5.158a5.713,5.713,0,0,0-.883,6.945l3.463,5.867-6.6,1.7a5.72,5.72,0,0,0-4.283,5.536v7.3a5.718,5.718,0,0,0,4.287,5.535l6.6,1.7-3.465,5.869a5.718,5.718,0,0,0,.884,6.943L54.6,206.56a5.718,5.718,0,0,0,6.946.882l5.867-3.463,1.7,6.6a5.716,5.716,0,0,0,5.534,4.285h7.3a5.719,5.719,0,0,0,5.536-4.287l1.7-6.6,5.869,3.464a5.711,5.711,0,0,0,6.943-.883l5.159-5.159a5.715,5.715,0,0,0,.882-6.945l-3.463-5.867,6.6-1.7a5.716,5.716,0,0,0,4.285-5.534v-7.3A5.72,5.72,0,0,0,111.168,168.523Zm-.716,12.831a.715.715,0,0,1-.535.693l-9.816,2.529a2.5,2.5,0,0,0-1.529,3.692L103.723,197a.719.719,0,0,1-.11.871l-5.159,5.158a.71.71,0,0,1-.869.112l-8.729-5.153a2.5,2.5,0,0,0-3.691,1.53l-2.529,9.813a.718.718,0,0,1-.695.538h-7.3a.715.715,0,0,1-.693-.535l-2.53-9.816a2.5,2.5,0,0,0-3.692-1.53l-8.726,5.152a.72.72,0,0,1-.871-.111l-5.158-5.158a.718.718,0,0,1-.113-.869l5.153-8.729a2.5,2.5,0,0,0-1.529-3.692l-9.814-2.528a.717.717,0,0,1-.537-.694v-7.3a.717.717,0,0,1,.535-.695l9.816-2.529a2.5,2.5,0,0,0,1.529-3.691l-5.152-8.729a.715.715,0,0,1,.112-.869l5.158-5.158a.712.712,0,0,1,.868-.113l8.729,5.153a2.5,2.5,0,0,0,3.692-1.53l2.53-9.813a.716.716,0,0,1,.693-.537h7.3a.716.716,0,0,1,.694.535l2.53,9.815a2.5,2.5,0,0,0,3.691,1.53l8.728-5.152a.718.718,0,0,1,.87.111l5.159,5.16a.715.715,0,0,1,.112.867l-5.153,8.73a2.5,2.5,0,0,0,1.529,3.691l9.814,2.528a.72.72,0,0,1,.537.7Z" fill="#846f75"/><path d="M78.294,191.388a13.683,13.683,0,1,1,13.682-13.682A13.7,13.7,0,0,1,78.294,191.388Zm0-22.365a8.683,8.683,0,1,0,8.682,8.683A8.692,8.692,0,0,0,78.294,169.023Z" fill="#f9b087"/></svg>