<svg xmlns="http://www.w3.org/2000/svg" viewBox="0 0 256 256"><title>icon</title><path d="M51.407,183.035a2.5,2.5,0,0,1-2.5-2.5V62a2.5,2.5,0,0,1,5,0V180.535A2.5,2.5,0,0,1,51.407,183.035Z" fill="#ebe7f2"/><path d="M204.593,183.035a2.5,2.5,0,0,1-2.5-2.5V62a2.5,2.5,0,1,1,5,0V180.535A2.5,2.5,0,0,1,204.593,183.035Z" fill="#ebe7f2"/><path d="M217,31.965H39a7.509,7.509,0,0,0-7.5,7.5V175.6a7.508,7.508,0,0,0,7.5,7.5h68.652a20.1,20.1,0,0,1-5.726,19.814L98.514,206.1H91a9,9,0,0,0,0,18h74a9,9,0,0,0,0-18h-7.514l-3.413-3.185a20.1,20.1,0,0,1-5.725-19.814H217a7.508,7.508,0,0,0,7.5-7.5V39.465A7.509,7.509,0,0,0,217,31.965Zm-178,5H217a2.5,2.5,0,0,1,2.5,2.5V59.5H36.5V39.465A2.5,2.5,0,0,1,39,36.965ZM169,215.1a4,4,0,0,1-4,4H91a4,4,0,0,1,0-8h74A4,4,0,0,1,169,215.1Zm-18.829-9H105.829a25.1,25.1,0,0,0,6.966-23h30.41A25.1,25.1,0,0,0,150.171,206.1ZM217,178.1H39a2.5,2.5,0,0,1-2.5-2.5V64.5h183V175.6A2.5,2.5,0,0,1,217,178.1Z" fill="#846f75"/><path d="M52.128,56.089a7.25,7.25,0,1,0-7.25-7.25A7.258,7.258,0,0,0,52.128,56.089Zm0-9.5a2.25,2.25,0,1,1-2.25,2.25A2.252,2.252,0,0,1,52.128,46.589Z" fill="#846f75"/><path d="M70.628,56.089a7.25,7.25,0,1,0-7.25-7.25A7.258,7.258,0,0,0,70.628,56.089Zm0-9.5a2.25,2.25,0,1,1-2.25,2.25A2.252,2.252,0,0,1,70.628,46.589Z" fill="#846f75"/><path d="M89.129,56.089a7.25,7.25,0,1,0-7.25-7.25A7.259,7.259,0,0,0,89.129,56.089Zm0-9.5a2.25,2.25,0,1,1-2.25,2.25A2.252,2.252,0,0,1,89.129,46.589Z" fill="#846f75"/><path d="M176.333,51.339h29a2.5,2.5,0,0,0,0-5h-29a2.5,2.5,0,0,0,0,5Z" fill="#846f75"/><path d="M74,151.628a7.5,7.5,0,0,1-5.3-12.8l17.539-17.54L68.7,103.745A7.5,7.5,0,0,1,79.3,93.138l22.843,22.843a7.5,7.5,0,0,1,0,10.607L79.3,149.431A7.45,7.45,0,0,1,74,151.628Zm0-55.685a2.5,2.5,0,0,0-1.768,4.266L91.54,119.517a2.5,2.5,0,0,1,0,3.535L72.232,142.36a2.5,2.5,0,0,0,0,3.536,2.564,2.564,0,0,0,3.537,0l22.842-22.843a2.5,2.5,0,0,0,0-3.536L75.768,96.673A2.5,2.5,0,0,0,74,95.943Z" fill="#f9b087"/><path d="M149.686,151.628H106.314a7.613,7.613,0,0,1,0-15.225h43.372a7.613,7.613,0,0,1,0,15.225ZM106.314,141.4a2.613,2.613,0,0,0,0,5.225h43.372a2.613,2.613,0,0,0,0-5.225Z" fill="#f9b087"/></svg>