<svg xmlns="http://www.w3.org/2000/svg" viewBox="0 0 256 256"><title>icon</title><path d="M58.934,135.484a7.531,7.531,0,0,1-4.438-1.468,7.439,7.439,0,0,1-2.742-8.441l1.191-3.669a2.542,2.542,0,0,0-.925-2.85L48.9,116.789a7.549,7.549,0,0,1,4.437-13.657h3.858a2.542,2.542,0,0,0,2.424-1.761L60.811,97.7a7.549,7.549,0,0,1,14.359,0l1.192,3.669a2.543,2.543,0,0,0,2.424,1.761h3.859a7.55,7.55,0,0,1,4.437,13.657l-3.122,2.267a2.543,2.543,0,0,0-.926,2.849l1.193,3.67a7.55,7.55,0,0,1-11.618,8.441l-3.121-2.268a2.542,2.542,0,0,0-3,0l-3.121,2.268A7.528,7.528,0,0,1,58.934,135.484Zm-5.6-27.352a2.55,2.55,0,0,0-1.5,4.612l3.12,2.267a7.526,7.526,0,0,1,2.742,8.441l-1.19,3.668a2.549,2.549,0,0,0,3.922,2.851l3.121-2.268a7.522,7.522,0,0,1,8.875,0l3.121,2.268a2.549,2.549,0,0,0,3.922-2.851l-1.192-3.669a7.529,7.529,0,0,1,2.742-8.44l3.123-2.267a2.55,2.55,0,0,0-1.5-4.612H78.786a7.531,7.531,0,0,1-7.18-5.216l-1.192-3.669h0a2.548,2.548,0,0,0-4.848,0l-1.192,3.669a7.53,7.53,0,0,1-7.18,5.216Z" fill="#ed9abc"/><path d="M175.5,90.5H125a2.5,2.5,0,0,1,0-5h50.5a2.5,2.5,0,0,1,0,5Z" fill="#ed9abc"/><path d="M224.667,50.732H72.99a7.509,7.509,0,0,0-7.5,7.5v9.189a2.5,2.5,0,0,0,5,0V58.232a2.5,2.5,0,0,1,2.5-2.5H224.667a2.5,2.5,0,0,1,2.5,2.5V197.768a2.5,2.5,0,0,1-2.5,2.5H72.99a2.5,2.5,0,0,1-2.5-2.5v-14.7a2.5,2.5,0,0,0-5,0v14.7a7.509,7.509,0,0,0,7.5,7.5H224.667a7.509,7.509,0,0,0,7.5-7.5V58.232A7.509,7.509,0,0,0,224.667,50.732Z" fill="#846f75"/><path d="M86.144,187.943A2.5,2.5,0,0,0,90.215,186V145.592a8.906,8.906,0,0,1,2.7-1.25,14,14,0,0,0,10.265-14.129,8.9,8.9,0,0,1,1.963-6.038,14,14,0,0,0,0-17.464,8.908,8.908,0,0,1-1.962-6.039A14,14,0,0,0,92.911,86.544a8.916,8.916,0,0,1-5.138-3.733,14,14,0,0,0-16.608-5.4,8.919,8.919,0,0,1-6.35,0,13.991,13.991,0,0,0-16.608,5.4,8.91,8.91,0,0,1-5.138,3.733,14,14,0,0,0-10.264,14.128,8.908,8.908,0,0,1-1.963,6.039,14,14,0,0,0,0,17.464,8.908,8.908,0,0,1,1.962,6.038A14,14,0,0,0,43.07,144.342a8.906,8.906,0,0,1,2.7,1.25V186a2.5,2.5,0,0,0,4.071,1.945L67.99,173.28ZM37.8,130.463a13.906,13.906,0,0,0-3.063-9.425,8.973,8.973,0,0,1,0-11.19,13.9,13.9,0,0,0,3.064-9.426,8.968,8.968,0,0,1,6.577-9.052,13.911,13.911,0,0,0,8.017-5.825,8.973,8.973,0,0,1,10.642-3.458,13.906,13.906,0,0,0,9.91,0h0a8.97,8.97,0,0,1,10.642,3.458A13.909,13.909,0,0,0,91.6,91.37a8.969,8.969,0,0,1,6.578,9.052,13.911,13.911,0,0,0,3.062,9.426,8.973,8.973,0,0,1,0,11.19,13.906,13.906,0,0,0-3.063,9.425,8.971,8.971,0,0,1-6.577,9.053,13.906,13.906,0,0,0-8.018,5.824A8.972,8.972,0,0,1,72.946,148.8a13.891,13.891,0,0,0-9.911,0,8.972,8.972,0,0,1-10.642-3.459,13.9,13.9,0,0,0-8.017-5.824A8.97,8.97,0,0,1,37.8,130.463Zm12.967,50.3V150.978a14,14,0,0,0,14.049,2.493,8.911,8.911,0,0,1,6.351,0,13.757,13.757,0,0,0,4.9.9,14.088,14.088,0,0,0,9.149-3.4v29.8L69.562,168.121a2.5,2.5,0,0,0-3.143,0Z" fill="#846f75"/><path d="M125,123.7h17.5a2.5,2.5,0,0,0,0-5H125a2.5,2.5,0,0,0,0,5Z" fill="#846f75"/><path d="M125,148.6h80a2.5,2.5,0,0,0,0-5H125a2.5,2.5,0,0,0,0,5Z" fill="#846f75"/><path d="M125,173.5h64.75a2.5,2.5,0,0,0,0-5H125a2.5,2.5,0,0,0,0,5Z" fill="#846f75"/><path d="M195.5,123.7a2.5,2.5,0,0,0,0-5h-43a2.5,2.5,0,0,0,0,5Z" fill="#846f75"/></svg>