<svg xmlns="http://www.w3.org/2000/svg" viewBox="0 0 256 256"><title>icon</title><path d="M66.934,103.458a7.525,7.525,0,0,1-4.438-1.469,7.438,7.438,0,0,1-2.742-8.44l1.191-3.669a2.543,2.543,0,0,0-.924-2.85L56.9,84.763a7.55,7.55,0,0,1,4.438-13.658h3.858a2.543,2.543,0,0,0,2.424-1.76l1.193-3.669a7.549,7.549,0,0,1,14.359,0l1.192,3.669a2.543,2.543,0,0,0,2.424,1.76h3.859a7.55,7.55,0,0,1,4.437,13.658L91.961,87.03a2.542,2.542,0,0,0-.927,2.849l1.193,3.67a7.55,7.55,0,0,1-11.618,8.44l-3.121-2.267a2.539,2.539,0,0,0-3,0l-3.121,2.267A7.522,7.522,0,0,1,66.934,103.458Zm-5.6-27.353a2.55,2.55,0,0,0-1.5,4.613l3.121,2.267A7.527,7.527,0,0,1,65.7,91.426l-1.19,3.668a2.549,2.549,0,0,0,3.922,2.85l3.121-2.267a7.524,7.524,0,0,1,8.875,0l3.121,2.267a2.549,2.549,0,0,0,3.922-2.85l-1.192-3.669a7.529,7.529,0,0,1,2.743-8.44l3.121-2.267a2.551,2.551,0,0,0-1.5-4.613H86.786a7.53,7.53,0,0,1-7.18-5.215l-1.192-3.669h0a2.548,2.548,0,0,0-4.848,0L72.374,70.89a7.529,7.529,0,0,1-7.18,5.215Z" fill="#a58bc9"/><path d="M118.943,103.458a7.522,7.522,0,0,1-4.437-1.469,7.436,7.436,0,0,1-2.742-8.44l1.191-3.669a2.542,2.542,0,0,0-.925-2.85l-3.122-2.267a7.55,7.55,0,0,1,4.438-13.658H117.2a2.543,2.543,0,0,0,2.424-1.76l1.192-3.669a7.549,7.549,0,0,1,14.36,0l1.192,3.669a2.543,2.543,0,0,0,2.424,1.76h3.858a7.55,7.55,0,0,1,4.438,13.658l-3.121,2.267a2.542,2.542,0,0,0-.927,2.849l1.192,3.67a7.549,7.549,0,0,1-11.617,8.44L129.5,99.722a2.539,2.539,0,0,0-3,0l-3.121,2.267A7.525,7.525,0,0,1,118.943,103.458Zm-5.6-27.353a2.55,2.55,0,0,0-1.5,4.613l3.121,2.267a7.527,7.527,0,0,1,2.741,8.441l-1.19,3.668a2.548,2.548,0,0,0,3.921,2.85l3.122-2.267a7.524,7.524,0,0,1,8.875,0l3.121,2.267a2.548,2.548,0,0,0,3.921-2.85l-1.191-3.669a7.527,7.527,0,0,1,2.743-8.44l3.12-2.267a2.55,2.55,0,0,0-1.5-4.613H138.8a7.53,7.53,0,0,1-7.18-5.215l-1.192-3.669h0a2.548,2.548,0,0,0-4.848,0l-1.192,3.669a7.53,7.53,0,0,1-7.18,5.215Z" fill="#a58bc9"/><path d="M170.953,103.458a7.52,7.52,0,0,1-4.437-1.469,7.437,7.437,0,0,1-2.743-8.44l1.192-3.669a2.542,2.542,0,0,0-.925-2.85l-3.122-2.267a7.55,7.55,0,0,1,4.437-13.658h3.859a2.543,2.543,0,0,0,2.424-1.76l1.192-3.669a7.549,7.549,0,0,1,14.359,0l1.193,3.669a2.543,2.543,0,0,0,2.424,1.76h3.858A7.55,7.55,0,0,1,199.1,84.763L195.98,87.03a2.543,2.543,0,0,0-.926,2.849l1.192,3.67a7.549,7.549,0,0,1-11.617,8.44l-3.121-2.267a2.539,2.539,0,0,0-3,0l-3.121,2.267A7.525,7.525,0,0,1,170.953,103.458Zm-5.6-27.353a2.551,2.551,0,0,0-1.5,4.613l3.122,2.267a7.529,7.529,0,0,1,2.741,8.441l-1.191,3.668a2.549,2.549,0,0,0,3.922,2.85l3.121-2.267a7.524,7.524,0,0,1,8.875,0l3.121,2.267a2.549,2.549,0,0,0,3.922-2.85L190.3,91.425a7.527,7.527,0,0,1,2.743-8.44l3.12-2.267a2.55,2.55,0,0,0-1.5-4.613h-3.858a7.529,7.529,0,0,1-7.18-5.215l-1.192-3.669h0a2.548,2.548,0,0,0-4.848,0l-1.192,3.669a7.53,7.53,0,0,1-7.18,5.215Z" fill="#a58bc9"/><path d="M105.2,241.275a2.473,2.473,0,0,1-.622-.079,2.5,2.5,0,0,1-1.8-3.042l7-27.325a2.5,2.5,0,0,1,4.844,1.24L107.623,239.4A2.5,2.5,0,0,1,105.2,241.275Z" fill="#a58bc9"/><path d="M150.8,241.275a2.5,2.5,0,0,1-2.42-1.88l-7-27.326a2.5,2.5,0,1,1,4.844-1.24l7,27.325a2.5,2.5,0,0,1-1.8,3.042A2.473,2.473,0,0,1,150.8,241.275Z" fill="#a58bc9"/><path d="M216.667,27.807H39.333a7.508,7.508,0,0,0-7.5,7.5v93.85a7.508,7.508,0,0,0,7.5,7.5H96.28a7.455,7.455,0,0,1,5.3,2.2L122.7,159.967a7.5,7.5,0,0,0,10.607,0l21.114-21.113a7.451,7.451,0,0,1,5.3-2.2h56.947a7.508,7.508,0,0,0,7.5-7.5V35.307A7.508,7.508,0,0,0,216.667,27.807Zm2.5,101.35a2.5,2.5,0,0,1-2.5,2.5H159.72a12.414,12.414,0,0,0-8.839,3.662l-21.114,21.113a2.558,2.558,0,0,1-3.535,0L105.12,135.319a12.418,12.418,0,0,0-8.84-3.662H39.333a2.5,2.5,0,0,1-2.5-2.5V35.307a2.5,2.5,0,0,1,2.5-2.5H216.667a2.5,2.5,0,0,1,2.5,2.5Z" fill="#846f75"/><path d="M154.917,201a10.184,10.184,0,0,0-9.871-7.663h-2.954a17.624,17.624,0,1,0-28.184,0h-2.954A10.184,10.184,0,0,0,101.083,201l-9.512,37.153a2.5,2.5,0,0,0,2.422,3.12h68.014a2.5,2.5,0,0,0,2.422-3.12Zm-57.7,35.273,8.713-34.033a5.186,5.186,0,0,1,5.027-3.9h9.432a2.5,2.5,0,0,0,1.26-4.659,12.624,12.624,0,1,1,12.708,0,2.5,2.5,0,0,0,1.26,4.659h9.432a5.186,5.186,0,0,1,5.027,3.9l8.713,34.033Z" fill="#846f75"/></svg>