<svg xmlns="http://www.w3.org/2000/svg" viewBox="0 0 256 256"><title>icon</title><path d="M80.268,75.6A11.458,11.458,0,1,1,91.726,64.141,11.471,11.471,0,0,1,80.268,75.6Zm0-17.916a6.458,6.458,0,1,0,6.458,6.458A6.465,6.465,0,0,0,80.268,57.683Z" fill="#a58bc9"/><path d="M148.583,75.6H139.7a2.5,2.5,0,0,1-2.5-2.5V55.183a2.5,2.5,0,0,1,2.5-2.5h8.885a2.5,2.5,0,0,1,2.5,2.5V73.1A2.5,2.5,0,0,1,148.583,75.6Zm-6.385-5h3.885V57.683H142.2Z" fill="#a58bc9"/><path d="M165.416,75.6h-8.884a2.5,2.5,0,0,1-2.5-2.5V55.183a2.5,2.5,0,0,1,2.5-2.5h8.884a2.5,2.5,0,0,1,2.5,2.5V73.1A2.5,2.5,0,0,1,165.416,75.6Zm-6.384-5h3.884V57.683h-3.884Z" fill="#a58bc9"/><path d="M182.25,75.6h-8.885a2.5,2.5,0,0,1-2.5-2.5V55.183a2.5,2.5,0,0,1,2.5-2.5h8.885a2.5,2.5,0,0,1,2.5,2.5V73.1A2.5,2.5,0,0,1,182.25,75.6Zm-6.385-5h3.885V57.683h-3.885Z" fill="#a58bc9"/><path d="M80.268,139.458A11.458,11.458,0,1,1,91.726,128,11.47,11.47,0,0,1,80.268,139.458Zm0-17.916A6.458,6.458,0,1,0,86.726,128,6.465,6.465,0,0,0,80.268,121.542Z" fill="#a58bc9"/><path d="M148.583,139.458H139.7a2.5,2.5,0,0,1-2.5-2.5V119.042a2.5,2.5,0,0,1,2.5-2.5h8.885a2.5,2.5,0,0,1,2.5,2.5v17.916A2.5,2.5,0,0,1,148.583,139.458Zm-6.385-5h3.885V121.542H142.2Z" fill="#a58bc9"/><path d="M165.416,139.458h-8.884a2.5,2.5,0,0,1-2.5-2.5V119.042a2.5,2.5,0,0,1,2.5-2.5h8.884a2.5,2.5,0,0,1,2.5,2.5v17.916A2.5,2.5,0,0,1,165.416,139.458Zm-6.384-5h3.884V121.542h-3.884Z" fill="#a58bc9"/><path d="M182.25,139.458h-8.885a2.5,2.5,0,0,1-2.5-2.5V119.042a2.5,2.5,0,0,1,2.5-2.5h8.885a2.5,2.5,0,0,1,2.5,2.5v17.916A2.5,2.5,0,0,1,182.25,139.458Zm-6.385-5h3.885V121.542h-3.885Z" fill="#a58bc9"/><path d="M80.268,203.318a11.459,11.459,0,1,1,11.458-11.459A11.47,11.47,0,0,1,80.268,203.318Zm0-17.917a6.459,6.459,0,1,0,6.458,6.458A6.465,6.465,0,0,0,80.268,185.4Z" fill="#a58bc9"/><path d="M148.583,203.318H139.7a2.5,2.5,0,0,1-2.5-2.5V182.9a2.5,2.5,0,0,1,2.5-2.5h8.885a2.5,2.5,0,0,1,2.5,2.5v17.917A2.5,2.5,0,0,1,148.583,203.318Zm-6.385-5h3.885V185.4H142.2Z" fill="#a58bc9"/><path d="M165.416,203.318h-8.884a2.5,2.5,0,0,1-2.5-2.5V182.9a2.5,2.5,0,0,1,2.5-2.5h8.884a2.5,2.5,0,0,1,2.5,2.5v17.917A2.5,2.5,0,0,1,165.416,203.318Zm-6.384-5h3.884V185.4h-3.884Z" fill="#a58bc9"/><path d="M182.25,203.318h-8.885a2.5,2.5,0,0,1-2.5-2.5V182.9a2.5,2.5,0,0,1,2.5-2.5h8.885a2.5,2.5,0,0,1,2.5,2.5v17.917A2.5,2.5,0,0,1,182.25,203.318Zm-6.385-5h3.885V185.4h-3.885Z" fill="#a58bc9"/><path d="M194.411,91.781a7.184,7.184,0,0,0,7.176-7.176V43.676a7.184,7.184,0,0,0-7.176-7.176H61.589a7.184,7.184,0,0,0-7.176,7.176V84.605a7.184,7.184,0,0,0,7.176,7.176H75.476v8.578H61.589a7.185,7.185,0,0,0-7.176,7.177v40.928a7.185,7.185,0,0,0,7.176,7.177H75.476v8.578H61.589a7.184,7.184,0,0,0-7.176,7.176v40.929a7.184,7.184,0,0,0,7.176,7.176H194.411a7.184,7.184,0,0,0,7.176-7.176V171.4a7.184,7.184,0,0,0-7.176-7.176H180.524v-8.578h13.887a7.185,7.185,0,0,0,7.176-7.177V107.536a7.185,7.185,0,0,0-7.176-7.177H180.524V91.781Zm-135-7.176V43.676A2.178,2.178,0,0,1,61.589,41.5H194.411a2.178,2.178,0,0,1,2.176,2.176V84.605a2.178,2.178,0,0,1-2.176,2.176H61.589A2.178,2.178,0,0,1,59.413,84.605ZM196.587,171.4v40.929a2.178,2.178,0,0,1-2.176,2.176H61.589a2.178,2.178,0,0,1-2.176-2.176V171.4a2.178,2.178,0,0,1,2.176-2.176H194.411A2.178,2.178,0,0,1,196.587,171.4Zm-21.063-7.176H80.476v-8.578h95.048Zm21.063-56.683v40.928a2.178,2.178,0,0,1-2.176,2.177H61.589a2.178,2.178,0,0,1-2.176-2.177V107.536a2.178,2.178,0,0,1,2.176-2.177H194.411A2.178,2.178,0,0,1,196.587,107.536Zm-21.063-7.177H80.476V91.781h95.048Z" fill="#846f75"/></svg>