<svg xmlns="http://www.w3.org/2000/svg" viewBox="0 0 256 256"><title>icon</title><path d="M122.19,151.733H61.663l-7.446-15.164a2.5,2.5,0,0,0-2.244-1.4H23.923a2.5,2.5,0,0,0-2.5,2.5v74.546a8.319,8.319,0,0,0,8.309,8.309H122.19a8.32,8.32,0,0,0,8.31-8.31V160.043A8.32,8.32,0,0,0,122.19,151.733ZM50.416,140.171l5.677,11.563H26.423V140.171ZM125.5,212.216a3.314,3.314,0,0,1-3.31,3.31H29.732a3.313,3.313,0,0,1-3.309-3.309V156.734H122.19a3.314,3.314,0,0,1,3.31,3.31Z" fill="#846f75"/><path d="M226.267,52.037H165.74l-7.446-15.165a2.5,2.5,0,0,0-2.244-1.4H128a2.5,2.5,0,0,0-2.5,2.5V112.52a8.318,8.318,0,0,0,8.309,8.309h92.458a8.32,8.32,0,0,0,8.31-8.31V60.347A8.32,8.32,0,0,0,226.267,52.037ZM154.492,40.474l5.677,11.563H130.5V40.474Zm75.085,72.045a3.314,3.314,0,0,1-3.31,3.31H133.809a3.312,3.312,0,0,1-3.309-3.309V57.037h95.767a3.314,3.314,0,0,1,3.31,3.31Z" fill="#846f75"/><path d="M109.134,57.437H69.924a2.5,2.5,0,0,0-2.5,2.5V115.9L60.731,109.2a2.5,2.5,0,1,0-3.535,3.535l10.96,10.96a2.5,2.5,0,0,0,3.535,0l10.961-10.96a2.5,2.5,0,0,0-3.535-3.535L72.424,115.9V62.437h36.71a2.5,2.5,0,0,0,0-5Z" fill="#65c1d6"/><path d="M198.8,143.262l-10.96-10.96a2.5,2.5,0,0,0-3.535,0l-10.961,10.96a2.5,2.5,0,0,0,3.535,3.535l6.693-6.692v53.458h-36.71a2.5,2.5,0,1,0,0,5h39.21a2.5,2.5,0,0,0,2.5-2.5V140.1l6.693,6.692a2.5,2.5,0,0,0,3.535-3.535Z" fill="#65c1d6"/></svg>