<svg xmlns="http://www.w3.org/2000/svg" viewBox="0 0 256 256"><title>icon</title><path d="M76.085,165.2H47.147a2.5,2.5,0,0,1-2.5-2.5V133.764a2.5,2.5,0,0,1,2.5-2.5H76.085a2.5,2.5,0,0,1,2.5,2.5V162.7A2.5,2.5,0,0,1,76.085,165.2Zm-26.438-5H73.585V136.264H49.647Z" fill="#a58bc9"/><path d="M120.341,165.2H91.4a2.5,2.5,0,0,1-2.5-2.5V133.764a2.5,2.5,0,0,1,2.5-2.5h28.938a2.5,2.5,0,0,1,2.5,2.5V162.7A2.5,2.5,0,0,1,120.341,165.2Zm-26.438-5h23.938V136.264H93.9Z" fill="#a58bc9"/><path d="M208.853,207.425H135.659a2.5,2.5,0,0,1-2.5-2.5V133.764a2.5,2.5,0,0,1,2.5-2.5h73.194a2.5,2.5,0,0,1,2.5,2.5v71.161A2.5,2.5,0,0,1,208.853,207.425Zm-70.694-5h68.194V136.264H138.159Z" fill="#a58bc9"/><path d="M223.167,52.369H191.834V36.333a2.5,2.5,0,0,0-5,0V52.369h-35.89V36.333a2.5,2.5,0,0,0-5,0V52.369H110.056V36.333a2.5,2.5,0,0,0-5,0V52.369H69.166V36.333a2.5,2.5,0,0,0-5,0V52.369H32.833a2.5,2.5,0,0,0-2.5,2.5v164.8a2.5,2.5,0,0,0,2.5,2.5H223.167a2.5,2.5,0,0,0,2.5-2.5V54.869A2.5,2.5,0,0,0,223.167,52.369Zm-2.5,164.8H35.333V57.369H64.166V72.248a2.5,2.5,0,0,0,5,0V57.369h35.89V72.248a2.5,2.5,0,0,0,5,0V57.369h35.888V72.248a2.5,2.5,0,1,0,5,0V57.369h35.89V72.248a2.5,2.5,0,0,0,5,0V57.369h28.833Z" fill="#846f75"/><path d="M76.085,89.04H47.147a2.5,2.5,0,0,0-2.5,2.5v28.938a2.5,2.5,0,0,0,2.5,2.5H76.085a2.5,2.5,0,0,0,2.5-2.5V91.54A2.5,2.5,0,0,0,76.085,89.04Zm-2.5,28.938H49.647V94.04H73.585Z" fill="#846f75"/><path d="M120.341,89.04H91.4a2.5,2.5,0,0,0-2.5,2.5v28.938a2.5,2.5,0,0,0,2.5,2.5h28.938a2.5,2.5,0,0,0,2.5-2.5V91.54A2.5,2.5,0,0,0,120.341,89.04Zm-2.5,28.938H93.9V94.04h23.938Z" fill="#846f75"/><path d="M164.6,89.04H135.659a2.5,2.5,0,0,0-2.5,2.5v28.938a2.5,2.5,0,0,0,2.5,2.5H164.6a2.5,2.5,0,0,0,2.5-2.5V91.54A2.5,2.5,0,0,0,164.6,89.04Zm-2.5,28.938H138.159V94.04H162.1Z" fill="#846f75"/><path d="M179.915,89.04a2.5,2.5,0,0,0-2.5,2.5v28.938a2.5,2.5,0,0,0,2.5,2.5h28.938a2.5,2.5,0,0,0,2.5-2.5V91.54a2.5,2.5,0,0,0-2.5-2.5Zm26.438,28.938H182.415V94.04h23.938Z" fill="#846f75"/><path d="M76.085,173.487H47.147a2.5,2.5,0,0,0-2.5,2.5v28.938a2.5,2.5,0,0,0,2.5,2.5H76.085a2.5,2.5,0,0,0,2.5-2.5V175.987A2.5,2.5,0,0,0,76.085,173.487Zm-2.5,28.938H49.647V178.487H73.585Z" fill="#846f75"/><path d="M120.341,173.487H91.4a2.5,2.5,0,0,0-2.5,2.5v28.938a2.5,2.5,0,0,0,2.5,2.5h28.938a2.5,2.5,0,0,0,2.5-2.5V175.987A2.5,2.5,0,0,0,120.341,173.487Zm-2.5,28.938H93.9V178.487h23.938Z" fill="#846f75"/><path d="M178.083,174.028H166.43a2.5,2.5,0,0,1-2.5-2.5V147.435a2.5,2.5,0,0,1,2.5-2.5h11.653a2.5,2.5,0,0,1,2.5,2.5v24.093A2.5,2.5,0,0,1,178.083,174.028Zm-9.153-5h6.653V149.935H168.93Z" fill="#a58bc9"/><path d="M172.256,193.754a8.327,8.327,0,1,1,8.327-8.326A8.335,8.335,0,0,1,172.256,193.754Zm0-11.653a3.327,3.327,0,1,0,3.327,3.327A3.33,3.33,0,0,0,172.256,182.1Z" fill="#a58bc9"/></svg>