<svg xmlns="http://www.w3.org/2000/svg" viewBox="0 0 256 256"><title>icon</title><path d="M111.578,43.763a67.815,67.815,0,1,0,67.815,67.815A67.892,67.892,0,0,0,111.578,43.763Zm2.5,130.567V163.906a2.5,2.5,0,0,0-5,0V174.33a62.881,62.881,0,0,1-60.252-60.252H59.25a2.5,2.5,0,0,0,0-5H48.826a62.881,62.881,0,0,1,60.252-60.252V59.25a2.5,2.5,0,0,0,5,0V48.826a62.88,62.88,0,0,1,60.251,60.252H163.905a2.5,2.5,0,0,0,0,5h10.424A62.88,62.88,0,0,1,114.078,174.33Z" fill="#846f75"/><path d="M224.248,210.156,176.68,162.588a82.838,82.838,0,1,0-14.092,14.092l47.568,47.568a9.965,9.965,0,0,0,14.092-14.092Zm-3.535,10.556a4.965,4.965,0,0,1-7.022,0l-49.157-49.157a2.5,2.5,0,0,0-3.365-.156A77.842,77.842,0,1,1,171.4,161.169a2.5,2.5,0,0,0,.156,3.365l49.157,49.157A4.971,4.971,0,0,1,220.713,220.712Z" fill="#846f75"/><path d="M136.939,123.082h9.038a2.5,2.5,0,0,0,0-5h-9.038v-8.4a14.051,14.051,0,0,0,11.538-13.8,2.5,2.5,0,1,0-5,0,9.047,9.047,0,0,1-9.038,9.037h-6.36a17.973,17.973,0,0,0-2.567-18.735c0-.018,0-.035,0-.053,0-4.944,4.383-8.966,9.771-8.966a2.5,2.5,0,0,0,0-5,14.684,14.684,0,0,0-14.2,10.165,17.89,17.89,0,0,0-19.02,0,14.686,14.686,0,0,0-14.2-10.165,2.5,2.5,0,0,0,0,5c5.387,0,9.77,4.022,9.77,8.966,0,.018,0,.035.006.053a17.967,17.967,0,0,0-2.567,18.735H88.716a9.047,9.047,0,0,1-9.037-9.037,2.5,2.5,0,1,0-5,0,14.05,14.05,0,0,0,11.537,13.8v8.4H77.179a2.5,2.5,0,0,0,0,5h9.037v4.112a25.478,25.478,0,0,0,.323,4.028,14.047,14.047,0,0,0-11.86,13.851,2.5,2.5,0,0,0,5,0,9.05,9.05,0,0,1,8.148-8.993,25.358,25.358,0,0,0,47.5,0,9.05,9.05,0,0,1,8.148,8.993,2.5,2.5,0,0,0,5,0,14.047,14.047,0,0,0-11.861-13.851,25.36,25.36,0,0,0,.323-4.028ZM98.53,97.642a13.048,13.048,0,0,1,26.1,0,12.874,12.874,0,0,1-2.222,7.279h-21.65A12.867,12.867,0,0,1,98.53,97.642Zm-7.314,29.552V109.921h17.862v37.464A20.38,20.38,0,0,1,91.216,127.194Zm22.862,20.191V109.921h17.861v17.273A20.379,20.379,0,0,1,114.078,147.385Z" fill="#a58bc9"/></svg>