<svg xmlns="http://www.w3.org/2000/svg" viewBox="0 0 256 256"><title>icon</title><path d="M178.1,45.531H77.9a21.4,21.4,0,1,0,0,42.8H178.1a21.4,21.4,0,1,0,0-42.8Zm0,37.8H77.9a16.4,16.4,0,1,1,0-32.8H178.1a16.4,16.4,0,1,1,0,32.8Z" fill="#846f75"/><path d="M178.1,106.6H77.9a21.4,21.4,0,1,0,0,42.8H178.1a21.4,21.4,0,1,0,0-42.8Zm0,37.8H77.9a16.4,16.4,0,1,1,0-32.8H178.1a16.4,16.4,0,1,1,0,32.8Z" fill="#846f75"/><path d="M178.1,167.667H77.9a21.4,21.4,0,1,0,0,42.8H178.1a21.4,21.4,0,1,0,0-42.8Zm0,37.8H77.9a16.4,16.4,0,1,1,0-32.8H178.1a16.4,16.4,0,1,1,0,32.8Z" fill="#846f75"/><path d="M221.333,65.716H206.952a2.5,2.5,0,0,0,0,5h14.381a7.508,7.508,0,0,1,7.5,7.5V118a7.508,7.508,0,0,1-7.5,7.5h-8.346l8.814-8.813a2.5,2.5,0,1,0-3.535-3.536l-13.081,13.081a2.5,2.5,0,0,0,0,3.536l13.081,13.081a2.5,2.5,0,1,0,3.535-3.536l-8.814-8.813h8.346a12.514,12.514,0,0,0,12.5-12.5V78.216A12.514,12.514,0,0,0,221.333,65.716Z" fill="#846f75"/><path d="M32.952,130.5H47.333a2.5,2.5,0,0,0,0-5H32.952a12.514,12.514,0,0,0-12.5,12.5v39.784a12.514,12.514,0,0,0,12.5,12.5H41.3L32.484,199.1a2.5,2.5,0,0,0,3.536,3.535L49.1,189.552a2.5,2.5,0,0,0,0-3.535L36.02,172.936a2.5,2.5,0,0,0-3.536,3.535l8.814,8.813H32.952a7.508,7.508,0,0,1-7.5-7.5V138A7.508,7.508,0,0,1,32.952,130.5Z" fill="#846f75"/><path d="M156.9,64.32H122.938a2.5,2.5,0,0,1,0-5H156.9a2.5,2.5,0,1,1,0,5Z" fill="#65c1d6"/><path d="M112.938,64.32H93.729a2.5,2.5,0,0,1,0-5h19.209a2.5,2.5,0,1,1,0,5Z" fill="#65c1d6"/><path d="M162.271,75.111H145.938a2.5,2.5,0,0,1,0-5h16.333a2.5,2.5,0,0,1,0,5Z" fill="#65c1d6"/><path d="M135.938,75.111H93.729a2.5,2.5,0,0,1,0-5h42.209a2.5,2.5,0,0,1,0,5Z" fill="#65c1d6"/><path d="M156.9,125.1H122.938a2.5,2.5,0,0,1,0-5H156.9a2.5,2.5,0,0,1,0,5Z" fill="#65c1d6"/><path d="M112.938,125.1H93.729a2.5,2.5,0,0,1,0-5h19.209a2.5,2.5,0,0,1,0,5Z" fill="#65c1d6"/><path d="M162.271,135.9H145.938a2.5,2.5,0,0,1,0-5h16.333a2.5,2.5,0,0,1,0,5Z" fill="#65c1d6"/><path d="M135.938,135.9H93.729a2.5,2.5,0,0,1,0-5h42.209a2.5,2.5,0,0,1,0,5Z" fill="#65c1d6"/><path d="M156.9,185.889H122.938a2.5,2.5,0,1,1,0-5H156.9a2.5,2.5,0,0,1,0,5Z" fill="#65c1d6"/><path d="M112.938,185.889H93.729a2.5,2.5,0,1,1,0-5h19.209a2.5,2.5,0,0,1,0,5Z" fill="#65c1d6"/><path d="M162.271,196.68H145.938a2.5,2.5,0,0,1,0-5h16.333a2.5,2.5,0,1,1,0,5Z" fill="#65c1d6"/><path d="M135.938,196.68H93.729a2.5,2.5,0,1,1,0-5h42.209a2.5,2.5,0,0,1,0,5Z" fill="#65c1d6"/></svg>