<svg xmlns="http://www.w3.org/2000/svg" viewBox="0 0 256 256"><title>icon</title><path d="M204.633,103.156a2.5,2.5,0,0,1-2.5-2.5V74.728H139.289a2.5,2.5,0,0,1,0-5h65.344a2.5,2.5,0,0,1,2.5,2.5v28.428A2.5,2.5,0,0,1,204.633,103.156Z" fill="#ebe7f2"/><path d="M204.633,171.228H51.368a2.5,2.5,0,0,1-2.5-2.5v-96.5a2.5,2.5,0,0,1,2.5-2.5H117.5a2.5,2.5,0,0,1,0,5H53.868v91.5H202.133V134.752a2.5,2.5,0,0,1,5,0v33.976A2.5,2.5,0,0,1,204.633,171.228Z" fill="#ebe7f2"/><path d="M149.359,193.917H106.64a2.5,2.5,0,0,1,0-5h42.719a2.5,2.5,0,0,1,0,5Z" fill="#ebe7f2"/><path d="M139.289,81.214a2.5,2.5,0,0,1-2.5-2.5V54.625a2.5,2.5,0,0,1,2.5-2.5h16.318L128.394,24.912,101.182,52.125H117.5a2.5,2.5,0,0,1,2.5,2.5V78.714a2.5,2.5,0,0,1-5,0V57.125H95.146a2.5,2.5,0,0,1-1.768-4.268l33.248-33.248a2.5,2.5,0,0,1,3.536,0L163.41,52.857a2.5,2.5,0,0,1-1.767,4.268H141.789V78.714A2.5,2.5,0,0,1,139.289,81.214Z" fill="#65c1d6"/><path d="M150.181,141.861H139.448a2.5,2.5,0,0,1-2.5-2.5v-7.584a2.5,2.5,0,0,1,2.5-2.5h10.733a2.5,2.5,0,0,1,2.5,2.5v7.584A2.5,2.5,0,0,1,150.181,141.861Zm-8.233-5h5.733v-2.584h-5.733Z" fill="#ebe7f2"/><path d="M237.1,137.252h-34.1a2.5,2.5,0,0,1-2.5-2.5v-34.1a2.5,2.5,0,0,1,2.5-2.5h34.1a2.5,2.5,0,0,1,2.5,2.5v34.1A2.5,2.5,0,0,1,237.1,137.252Zm-31.6-5h29.1v-29.1h-29.1Z" fill="#65c1d6"/><path d="M217.553,144.752v23.976a2.5,2.5,0,0,0,5,0V144.752a2.5,2.5,0,0,0-5,0Z" fill="#846f75"/><path d="M171.643,57.105h43.41a2.5,2.5,0,0,1,2.5,2.5V90.656a2.5,2.5,0,0,0,5,0V59.605a7.509,7.509,0,0,0-7.5-7.5h-43.41a2.5,2.5,0,0,0,0,5Z" fill="#846f75"/><path d="M35.947,171.228a2.5,2.5,0,0,0,2.5-2.5V59.605a2.5,2.5,0,0,1,2.5-2.5h44.2a2.5,2.5,0,0,0,0-5h-44.2a7.509,7.509,0,0,0-7.5,7.5V168.728A2.5,2.5,0,0,0,35.947,171.228Z" fill="#846f75"/><path d="M231.5,179.605H24.5a7.509,7.509,0,0,0-7.5,7.5v9.29a7.509,7.509,0,0,0,7.5,7.5h207a7.509,7.509,0,0,0,7.5-7.5v-9.29A7.509,7.509,0,0,0,231.5,179.605ZM234,196.4a2.5,2.5,0,0,1-2.5,2.5H24.5a2.5,2.5,0,0,1-2.5-2.5v-9.29a2.5,2.5,0,0,1,2.5-2.5h207a2.5,2.5,0,0,1,2.5,2.5Z" fill="#846f75"/><path d="M85.807,116.526a2.5,2.5,0,0,0,3.245-1.4l5.83-14.722v48.135a2.5,2.5,0,0,0,2.5,2.5h61.236a2.5,2.5,0,0,0,2.5-2.5V100.4l5.83,14.72a2.5,2.5,0,0,0,4.649-1.842l-10.655-26.9a2.5,2.5,0,0,0-2.324-1.579H97.382a2.5,2.5,0,0,0-2.324,1.579L84.4,113.281A2.5,2.5,0,0,0,85.807,116.526Zm14.075,29.51V100.268l5.953,14.864a2.5,2.5,0,0,0,2.321,1.57h39.688a2.5,2.5,0,0,0,2.321-1.57l5.953-14.865v45.769ZM101.076,89.8h53.847l-8.771,21.9h-36.3Z" fill="#846f75"/><path d="M214.092,116.246a2.5,2.5,0,1,0-3.535,3.535l5.712,5.711a2.5,2.5,0,0,0,3.535,0l9.833-9.833a2.5,2.5,0,1,0-3.535-3.535l-8.066,8.065Z" fill="#846f75"/></svg>