<svg xmlns="http://www.w3.org/2000/svg" viewBox="0 0 256 256"><title>icon</title><path d="M157.357,150.214H98.643a2.5,2.5,0,0,1-2.5-2.5V89a2.5,2.5,0,0,1,2.5-2.5h58.714a2.5,2.5,0,0,1,2.5,2.5v58.714A2.5,2.5,0,0,1,157.357,150.214Zm-56.214-5h53.714V91.5H101.143Z" fill="#65c1d6"/><path d="M217,31.966H39a7.508,7.508,0,0,0-7.5,7.5V175.6a7.509,7.509,0,0,0,7.5,7.5h68.651a20.1,20.1,0,0,1-5.724,19.816L98.514,206.1H91a9,9,0,0,0,0,18h74a9,9,0,0,0,0-18h-7.514l-3.412-3.183a20.1,20.1,0,0,1-5.725-19.817H217a7.509,7.509,0,0,0,7.5-7.5V39.466A7.508,7.508,0,0,0,217,31.966ZM169,215.1a4,4,0,0,1-4,4H91a4,4,0,0,1,0-8h74A4,4,0,0,1,169,215.1Zm-18.83-9H105.83a25.1,25.1,0,0,0,6.964-23h30.412A25.1,25.1,0,0,0,150.17,206.1ZM39,36.966H217a2.5,2.5,0,0,1,2.5,2.5V59.5H36.5V39.466A2.5,2.5,0,0,1,39,36.966ZM217,178.1H39a2.5,2.5,0,0,1-2.5-2.5V64.5h183V175.6A2.5,2.5,0,0,1,217,178.1Z" fill="#846f75"/><path d="M52.128,56.089a7.25,7.25,0,1,0-7.25-7.25A7.258,7.258,0,0,0,52.128,56.089Zm0-9.5a2.25,2.25,0,1,1-2.25,2.25A2.253,2.253,0,0,1,52.128,46.589Z" fill="#846f75"/><path d="M70.628,56.089a7.25,7.25,0,1,0-7.25-7.25A7.258,7.258,0,0,0,70.628,56.089Zm0-9.5a2.25,2.25,0,1,1-2.25,2.25A2.253,2.253,0,0,1,70.628,46.589Z" fill="#846f75"/><path d="M89.129,56.089a7.25,7.25,0,1,0-7.25-7.25A7.258,7.258,0,0,0,89.129,56.089Zm0-9.5a2.25,2.25,0,1,1-2.25,2.25A2.253,2.253,0,0,1,89.129,46.589Z" fill="#846f75"/><path d="M176.333,51.339h29a2.5,2.5,0,0,0,0-5h-29a2.5,2.5,0,0,0,0,5Z" fill="#846f75"/><path d="M141.3,105.767l-17.2,17.2-9.248-9.248a2.5,2.5,0,0,0-3.535,3.535l11.015,11.016a2.5,2.5,0,0,0,3.535,0L144.833,109.3a2.5,2.5,0,0,0-3.535-3.535Z" fill="#846f75"/></svg>