<svg xmlns="http://www.w3.org/2000/svg" viewBox="0 0 256 256"><title>icon</title><path d="M193.362,113.5a2.5,2.5,0,0,0,2.5-2.5V45.064a7.509,7.509,0,0,0-7.5-7.5h-81.3a7.453,7.453,0,0,0-5.3,2.2L62.335,79.184a7.448,7.448,0,0,0-2.2,5.3V210.936a7.509,7.509,0,0,0,7.5,7.5H188.362a7.509,7.509,0,0,0,7.5-7.5V197a2.5,2.5,0,0,0-5,0v13.936a2.5,2.5,0,0,1-2.5,2.5H67.638a2.5,2.5,0,0,1-2.5-2.5V84.916h39.851a2.5,2.5,0,0,0,2.5-2.5V42.564h80.873a2.5,2.5,0,0,1,2.5,2.5V111A2.5,2.5,0,0,0,193.362,113.5ZM68.673,79.916,102.489,46.1V79.916Z" fill="#846f75"/><path d="M196.782,188.5h-6.841a5.516,5.516,0,0,1-5.339-4.134l-1.544-5.989-5.324,3.142a5.517,5.517,0,0,1-6.7-.852L166.2,175.83a5.515,5.515,0,0,1-.853-6.7l3.143-5.327-5.986-1.542a5.521,5.521,0,0,1-4.137-5.342v-6.84a5.517,5.517,0,0,1,4.134-5.341l5.989-1.544-3.142-5.323a5.519,5.519,0,0,1,.852-6.7l4.837-4.836a5.516,5.516,0,0,1,6.7-.854l5.327,3.144,1.543-5.987a5.516,5.516,0,0,1,5.34-4.136h6.841a5.517,5.517,0,0,1,5.341,4.133l1.544,5.99,5.323-3.142a5.517,5.517,0,0,1,6.7.851l4.837,4.837a5.517,5.517,0,0,1,.854,6.7l-3.144,5.326,5.987,1.543h0a5.517,5.517,0,0,1,4.133,5.341v6.84a5.518,5.518,0,0,1-4.133,5.341l-5.99,1.543,3.143,5.323a5.518,5.518,0,0,1-.853,6.7l-4.837,4.837a5.518,5.518,0,0,1-6.7.854l-5.325-3.144-1.543,5.986A5.519,5.519,0,0,1,196.782,188.5Zm-12.133-16.466a2.5,2.5,0,0,1,2.421,1.876l2.372,9.205a.517.517,0,0,0,.5.385h6.841a.518.518,0,0,0,.5-.388l2.371-9.2a2.5,2.5,0,0,1,3.692-1.529l8.185,4.832a.515.515,0,0,0,.626-.082l4.837-4.836a.52.52,0,0,0,.08-.629l-4.831-8.183a2.5,2.5,0,0,1,1.529-3.691l9.206-2.372a.516.516,0,0,0,.384-.5v-6.84a.517.517,0,0,0-.387-.5l-9.2-2.371a2.5,2.5,0,0,1-1.529-3.692l4.832-8.186a.517.517,0,0,0-.081-.625l-4.837-4.837a.517.517,0,0,0-.628-.08l-8.183,4.83a2.5,2.5,0,0,1-3.692-1.529l-2.372-9.2a.516.516,0,0,0-.5-.384h-6.841a.518.518,0,0,0-.5.387l-2.371,9.2a2.5,2.5,0,0,1-3.691,1.529l-8.186-4.831a.516.516,0,0,0-.625.08l-4.838,4.838a.519.519,0,0,0-.08.628l4.83,8.183a2.5,2.5,0,0,1-1.529,3.692l-9.2,2.372a.515.515,0,0,0-.385.5v6.84a.518.518,0,0,0,.388.5l9.2,2.371a2.5,2.5,0,0,1,1.529,3.691l-4.831,8.186a.518.518,0,0,0,.081.626l4.837,4.837a.517.517,0,0,0,.629.079l8.183-4.83A2.5,2.5,0,0,1,184.649,172.034Z" fill="#f9b087"/><path d="M193.362,166.486A12.986,12.986,0,1,1,206.348,153.5,13,13,0,0,1,193.362,166.486Zm0-20.972a7.986,7.986,0,1,0,7.986,7.986A8,8,0,0,0,193.362,145.514Z" fill="#f9b087"/><path d="M169.239,110.035H86.761a2.5,2.5,0,0,1,0-5h82.478a2.5,2.5,0,0,1,0,5Z" fill="#f9b087"/><path d="M149.239,137.5H86.761a2.5,2.5,0,0,1,0-5h62.478a2.5,2.5,0,1,1,0,5Z" fill="#f9b087"/><path d="M149.239,164.965H86.761a2.5,2.5,0,0,1,0-5h62.478a2.5,2.5,0,0,1,0,5Z" fill="#f9b087"/><path d="M169.239,192.431H86.761a2.5,2.5,0,0,1,0-5h82.478a2.5,2.5,0,0,1,0,5Z" fill="#f9b087"/></svg>