<svg xmlns="http://www.w3.org/2000/svg" viewBox="0 0 256 256"><title>icon</title><path d="M128,223a95,95,0,1,1,95-95,2.5,2.5,0,0,1-5,0,90,90,0,1,0-90,90,2.5,2.5,0,0,1,0,5Z" fill="#a58bc9"/><path d="M145.448,86.053a7.508,7.508,0,0,0-9.8,4.045L106.506,160.14a7.5,7.5,0,1,0,13.85,5.761l29.138-70.042A7.51,7.51,0,0,0,145.448,86.053Zm-.571,7.885L115.74,163.98a2.537,2.537,0,0,1-3.269,1.349,2.5,2.5,0,0,1-1.348-3.268L140.26,92.019a2.507,2.507,0,0,1,2.313-1.54,2.47,2.47,0,0,1,.955.191A2.5,2.5,0,0,1,144.877,93.938Z" fill="#846f75"/><path d="M151.656,150.843a7.5,7.5,0,0,0,12.8,5.3L187.3,133.3a7.5,7.5,0,0,0,0-10.607L164.46,99.853a7.5,7.5,0,1,0-10.606,10.606L171.394,128l-17.54,17.539A7.452,7.452,0,0,0,151.656,150.843Zm5.733-1.768L176.7,129.767a2.5,2.5,0,0,0,0-3.535l-19.307-19.308a2.5,2.5,0,0,1,3.536-3.536l22.843,22.844a2.5,2.5,0,0,1,0,3.536L160.925,152.61a2.559,2.559,0,0,1-3.536,0,2.5,2.5,0,0,1,0-3.535Z" fill="#846f75"/><path d="M84.607,128l17.539-17.541A7.5,7.5,0,0,0,91.54,99.853L68.7,122.7a7.5,7.5,0,0,0,0,10.607l22.844,22.843a7.5,7.5,0,1,0,10.605-10.606Zm14,24.61a2.563,2.563,0,0,1-3.537,0L72.232,129.768a2.5,2.5,0,0,1,0-3.537l22.843-22.842a2.5,2.5,0,1,1,3.536,3.535L79.3,126.232a2.5,2.5,0,0,0,0,3.535l19.307,19.308A2.5,2.5,0,0,1,98.612,152.61Z" fill="#846f75"/><path d="M234.959,148.535l-4.542-4.541a15.36,15.36,0,0,0-21.7,0L154.062,198.65a14.437,14.437,0,0,0-3.524,5.767l-7.985,24.8a5.706,5.706,0,0,0,7.187,7.187l24.8-7.985a14.448,14.448,0,0,0,5.767-3.524l54.656-54.656A15.363,15.363,0,0,0,234.959,148.535Zm-56.424,71.053-19.171-19.171,42.3-42.295,19.171,19.171Zm-30.328,12.053a.711.711,0,0,1-.895-.895l2-6.2,5.1,5.1Zm24.8-7.986-13.248,4.267-8.724-8.724,4.267-13.249a9.321,9.321,0,0,1,.781-1.746l18.671,18.67A9.334,9.334,0,0,1,173,223.655ZM231.424,166.7l-7.058,7.058L205.2,154.587l7.058-7.058a10.357,10.357,0,0,1,14.629,0l4.542,4.541A10.356,10.356,0,0,1,231.424,166.7Z" fill="#846f75"/><path d="M128,209.5A81.5,81.5,0,1,1,209.5,128a2.5,2.5,0,0,1-5,0A76.5,76.5,0,1,0,128,204.5a2.5,2.5,0,0,1,0,5Z" fill="#ebe7f2"/></svg>