<svg xmlns="http://www.w3.org/2000/svg" viewBox="0 0 256 256"><title>icon</title><path d="M81.125,108.627c-.142,0-.287,0-.429-.011a8.3,8.3,0,0,1-5.993-3.033L58.425,85.688A8.3,8.3,0,1,1,71.269,75.18l10.471,12.8L105.1,64.618a8.3,8.3,0,1,1,11.734,11.735L86.991,106.2A8.239,8.239,0,0,1,81.125,108.627ZM64.84,77.135a3.3,3.3,0,0,0-2.546,5.386l16.278,19.9a3.3,3.3,0,0,0,2.388,1.206l.165,0a3.277,3.277,0,0,0,2.331-.965L113.3,72.817a3.3,3.3,0,1,0-4.664-4.663L83.322,93.468a2.5,2.5,0,0,1-3.7-.185L67.4,78.345a3.273,3.273,0,0,0-2.223-1.193C65.063,77.141,64.951,77.135,64.84,77.135Z" fill="#f9b087"/><path d="M197.476,203.273a8.239,8.239,0,0,1-5.868-2.431l-10.015-10.015-10.017,10.016a8.3,8.3,0,1,1-11.733-11.735l10.015-10.016-10.015-10.015a8.3,8.3,0,0,1,11.734-11.735l10.016,10.016,10.016-10.016a8.3,8.3,0,0,1,11.734,11.735l-10.016,10.015,10.016,10.016a8.3,8.3,0,0,1-5.867,14.165Zm-15.883-18.482a2.492,2.492,0,0,1,1.767.732l11.785,11.785a3.378,3.378,0,0,0,4.663,0,3.3,3.3,0,0,0,0-4.664L188.023,180.86a2.5,2.5,0,0,1,0-3.536l11.785-11.783a3.3,3.3,0,0,0,0-4.663,3.375,3.375,0,0,0-4.662,0L183.36,172.661a2.5,2.5,0,0,1-3.535,0l-11.784-11.784a3.377,3.377,0,0,0-4.662,0,3.3,3.3,0,0,0,0,4.664l11.783,11.784a2.5,2.5,0,0,1,0,3.535l-11.783,11.784a3.3,3.3,0,0,0,0,4.663,3.377,3.377,0,0,0,4.663,0l11.784-11.785A2.493,2.493,0,0,1,181.593,184.791Z" fill="#f9b087"/><path d="M132.481,127.481V87.907h3.5a2.5,2.5,0,0,0,0-5h-3.5V43.333a2.5,2.5,0,0,0-2.5-2.5H45.833a2.5,2.5,0,0,0-2.5,2.5v84.148a2.5,2.5,0,0,0,2.5,2.5H85.407v3.5a2.5,2.5,0,0,0,5,0v-3.5h39.574A2.5,2.5,0,0,0,132.481,127.481Zm-5-2.5H48.333V45.833h79.148Z" fill="#846f75"/><path d="M223.667,134.519H184.093v-3.5a2.5,2.5,0,0,0-5,0v3.5H139.519a2.5,2.5,0,0,0-2.5,2.5v39.574h-3.5a2.5,2.5,0,0,0,0,5h3.5v39.574a2.5,2.5,0,0,0,2.5,2.5h84.148a2.5,2.5,0,0,0,2.5-2.5V137.019A2.5,2.5,0,0,0,223.667,134.519Zm-2.5,84.148H142.019V139.519h79.148Z" fill="#846f75"/><path d="M181.593,102.111a2.5,2.5,0,0,0-2.5,2.5v13.2a2.5,2.5,0,1,0,5,0v-13.2A2.5,2.5,0,0,0,181.593,102.111Z" fill="#846f75"/><path d="M175.593,87.907h3.5v3.5a2.5,2.5,0,1,0,5,0v-6a2.5,2.5,0,0,0-2.5-2.5h-6a2.5,2.5,0,0,0,0,5Z" fill="#846f75"/><path d="M149.185,87.907h13.2a2.5,2.5,0,0,0,0-5h-13.2a2.5,2.5,0,0,0,0,5Z" fill="#846f75"/><path d="M87.907,162.389a2.5,2.5,0,0,0,2.5-2.5v-13.2a2.5,2.5,0,0,0-5,0v13.2A2.5,2.5,0,0,0,87.907,162.389Z" fill="#846f75"/><path d="M93.907,176.593h-3.5v-3.5a2.5,2.5,0,0,0-5,0v6a2.5,2.5,0,0,0,2.5,2.5h6a2.5,2.5,0,1,0,0-5Z" fill="#846f75"/><path d="M120.315,176.593h-13.2a2.5,2.5,0,0,0,0,5h13.2a2.5,2.5,0,1,0,0-5Z" fill="#846f75"/></svg>