<svg xmlns="http://www.w3.org/2000/svg" viewBox="0 0 256 256"><title>icon</title><path d="M86.289,113.085a52.716,52.716,0,0,0-44.427,81.078L34.8,213.95a2.5,2.5,0,0,0,3.2,3.2L57.739,210.1a52.709,52.709,0,1,0,28.55-97.016Zm0,100.415a47.454,47.454,0,0,1-26.8-8.241,2.495,2.495,0,0,0-2.247-.288l-15.953,5.692,5.706-15.992a2.5,2.5,0,0,0-.282-2.237A47.711,47.711,0,1,1,86.289,213.5Z" fill="#846f75"/><path d="M214.138,118.578a52.708,52.708,0,1,0-15.877,15.939L218,141.56a2.5,2.5,0,0,0,3.195-3.195Zm-15.375,10.809a2.5,2.5,0,0,0-2.247.288,47.681,47.681,0,1,1,12.776-12.826,2.5,2.5,0,0,0-.282,2.237l5.706,15.992Z" fill="#846f75"/><path d="M158.708,114.163a8.6,8.6,0,0,1-5.075-1.68,8.5,8.5,0,0,1-3.136-9.653l1.448-4.457a3.626,3.626,0,0,0-1.32-4.063l-3.792-2.755a8.634,8.634,0,0,1,5.075-15.62h4.686a3.625,3.625,0,0,0,3.457-2.511l1.449-4.458a8.633,8.633,0,0,1,16.422,0h0l1.449,4.458a3.625,3.625,0,0,0,3.457,2.511h4.686a8.634,8.634,0,0,1,5.075,15.62L188.8,94.31a3.623,3.623,0,0,0-1.32,4.063l1.447,4.457a8.634,8.634,0,0,1-13.286,9.653l-3.792-2.754a3.626,3.626,0,0,0-4.272,0l-3.792,2.754A8.6,8.6,0,0,1,158.708,114.163Zm-6.8-33.228a3.635,3.635,0,0,0-2.136,6.575l3.791,2.755a8.612,8.612,0,0,1,3.137,9.653l-1.449,4.457a3.635,3.635,0,0,0,5.593,4.063l3.792-2.754a8.612,8.612,0,0,1,10.15,0l3.792,2.754a3.634,3.634,0,0,0,5.592-4.063l-1.448-4.457a8.612,8.612,0,0,1,3.137-9.653l3.791-2.755a3.635,3.635,0,0,0-2.136-6.575h-4.686a8.612,8.612,0,0,1-8.212-5.966l-1.449-4.458a3.635,3.635,0,0,0-6.913,0l-1.448,4.458a8.612,8.612,0,0,1-8.212,5.966Z" fill="#f9b087"/><path d="M93.65,173.354H78.928a2.5,2.5,0,0,1-2.5-2.5V140.415a2.5,2.5,0,0,1,2.5-2.5H93.65a2.5,2.5,0,0,1,2.5,2.5v30.439A2.5,2.5,0,0,1,93.65,173.354Zm-12.222-5H91.15V142.915H81.428Z" fill="#f9b087"/><path d="M86.289,198.272a9.86,9.86,0,1,1,9.861-9.86A9.871,9.871,0,0,1,86.289,198.272Zm0-14.72a4.86,4.86,0,1,0,4.861,4.86A4.866,4.866,0,0,0,86.289,183.552Z" fill="#f9b087"/></svg>