<svg xmlns="http://www.w3.org/2000/svg" viewBox="0 0 256 256"><title>icon</title><path d="M128,98.693a2.5,2.5,0,0,1-2.5-2.5V75.4a2.5,2.5,0,0,1,5,0v20.8A2.5,2.5,0,0,1,128,98.693Z" fill="#65c1d6"/><path d="M128,183.1a2.5,2.5,0,0,1-2.5-2.5v-20.8a2.5,2.5,0,0,1,5,0v20.8A2.5,2.5,0,0,1,128,183.1Z" fill="#65c1d6"/><path d="M177.732,130.5H159.808a2.5,2.5,0,0,1,0-5h17.924a2.5,2.5,0,0,1,0,5Z" fill="#65c1d6"/><path d="M96.193,130.5H78.268a2.5,2.5,0,0,1,0-5H96.193a2.5,2.5,0,0,1,0,5Z" fill="#65c1d6"/><path d="M76.671,102.167H19.829a4.1,4.1,0,0,0-4.1,4.1v43.474a4.1,4.1,0,0,0,4.1,4.1H76.671a4.1,4.1,0,0,0,4.1-4.1V106.263A4.1,4.1,0,0,0,76.671,102.167Zm-.9,46.666H20.732V107.167H75.768Z" fill="#846f75"/><path d="M44.409,137.233a2.5,2.5,0,0,0,3.268-1.347l5.762-13.851a2.5,2.5,0,0,0-4.616-1.921l-5.762,13.851A2.5,2.5,0,0,0,44.409,137.233Z" fill="#846f75"/><path d="M57.961,136.646a2.5,2.5,0,0,0,3.535,0l6.879-6.878a2.5,2.5,0,0,0,0-3.536L61.5,119.354a2.5,2.5,0,1,0-3.535,3.535L63.071,128l-5.11,5.111A2.5,2.5,0,0,0,57.961,136.646Z" fill="#846f75"/><path d="M35,136.646a2.5,2.5,0,0,0,3.535-3.535L33.429,128l5.11-5.111A2.5,2.5,0,1,0,35,119.354l-6.879,6.878a2.5,2.5,0,0,0,0,3.536Z" fill="#846f75"/><path d="M236.171,102.167H179.329a4.1,4.1,0,0,0-4.1,4.1v43.474a4.1,4.1,0,0,0,4.1,4.1h56.842a4.1,4.1,0,0,0,4.1-4.1V106.263A4.1,4.1,0,0,0,236.171,102.167Zm-.9,46.666H180.232V107.167h55.036Z" fill="#846f75"/><path d="M203.909,137.233a2.5,2.5,0,0,0,3.269-1.347l5.761-13.851a2.5,2.5,0,0,0-4.617-1.921l-5.761,13.851A2.5,2.5,0,0,0,203.909,137.233Z" fill="#846f75"/><path d="M217.461,136.646a2.5,2.5,0,0,0,3.535,0l6.879-6.878a2.5,2.5,0,0,0,0-3.536L221,119.354a2.5,2.5,0,1,0-3.535,3.536l5.11,5.11-5.11,5.11A2.5,2.5,0,0,0,217.461,136.646Z" fill="#846f75"/><path d="M194.5,136.646a2.5,2.5,0,0,0,3.535-3.536l-5.11-5.11,5.11-5.11a2.5,2.5,0,1,0-3.535-3.536l-6.879,6.878a2.5,2.5,0,0,0,0,3.536Z" fill="#846f75"/><path d="M99.579,77.9h56.842a4.1,4.1,0,0,0,4.1-4.1V30.326a4.1,4.1,0,0,0-4.1-4.1H99.579a4.1,4.1,0,0,0-4.1,4.1V73.8A4.1,4.1,0,0,0,99.579,77.9Zm.9-46.667h55.036V72.9H100.482Z" fill="#846f75"/><path d="M131.841,42.829a2.5,2.5,0,0,0-3.268,1.348l-5.762,13.85a2.5,2.5,0,1,0,4.616,1.921l5.762-13.85A2.5,2.5,0,0,0,131.841,42.829Z" fill="#846f75"/><path d="M141.246,43.416a2.5,2.5,0,0,0-3.535,3.536l5.11,5.111-5.11,5.11a2.5,2.5,0,1,0,3.535,3.536l6.879-6.878a2.5,2.5,0,0,0,0-3.537Z" fill="#846f75"/><path d="M118.289,43.417a2.5,2.5,0,0,0-3.535,0L107.875,50.3a2.5,2.5,0,0,0,0,3.535l6.879,6.878a2.5,2.5,0,0,0,3.535-3.535l-5.11-5.11,5.11-5.111A2.5,2.5,0,0,0,118.289,43.417Z" fill="#846f75"/><path d="M156.421,178.1H99.579a4.1,4.1,0,0,0-4.1,4.1v43.473a4.1,4.1,0,0,0,4.1,4.1h56.842a4.1,4.1,0,0,0,4.1-4.1V182.2A4.1,4.1,0,0,0,156.421,178.1Zm-.9,46.667H100.482V183.1h55.036Z" fill="#846f75"/><path d="M124.159,213.171a2.5,2.5,0,0,0,3.268-1.348l5.762-13.85a2.5,2.5,0,1,0-4.616-1.921l-5.762,13.85A2.5,2.5,0,0,0,124.159,213.171Z" fill="#846f75"/><path d="M137.711,212.583a2.5,2.5,0,0,0,3.535,0l6.879-6.878a2.5,2.5,0,0,0,0-3.537l-6.879-6.878a2.5,2.5,0,0,0-3.535,3.536l5.11,5.111-5.11,5.11A2.5,2.5,0,0,0,137.711,212.583Z" fill="#846f75"/><path d="M114.754,212.583a2.5,2.5,0,0,0,3.535-3.535l-5.11-5.11,5.11-5.111a2.5,2.5,0,0,0-3.535-3.535l-6.879,6.878a2.5,2.5,0,0,0,0,3.535Z" fill="#846f75"/><path d="M158.222,119.374h0l-5.79-1.492,3.04-5.152a5.454,5.454,0,0,0-.843-6.622l-4.734-4.733a5.452,5.452,0,0,0-6.624-.842l-5.149,3.039-1.493-5.793a5.454,5.454,0,0,0-5.278-4.085h-6.7a5.451,5.451,0,0,0-5.278,4.088l-1.493,5.79-5.152-3.041a5.453,5.453,0,0,0-6.621.844l-4.733,4.734a5.452,5.452,0,0,0-.843,6.624l3.039,5.149-5.793,1.493a5.452,5.452,0,0,0-4.085,5.278v6.7a5.451,5.451,0,0,0,4.088,5.279l5.79,1.492-3.04,5.152a5.452,5.452,0,0,0,.844,6.622l4.733,4.733a5.455,5.455,0,0,0,6.625.842l5.148-3.039,1.493,5.793a5.452,5.452,0,0,0,5.278,4.086h6.7a5.456,5.456,0,0,0,5.279-4.088l1.492-5.791,5.152,3.041a5.452,5.452,0,0,0,6.621-.843l4.735-4.735a5.455,5.455,0,0,0,.841-6.623l-3.039-5.149,5.792-1.493a5.453,5.453,0,0,0,4.087-5.279v-6.7A5.453,5.453,0,0,0,158.222,119.374Zm-.914,11.973a.453.453,0,0,1-.337.438l-9.009,2.321a2.5,2.5,0,0,0-1.529,3.691l4.727,8.009a.453.453,0,0,1-.069.55l-4.736,4.735a.454.454,0,0,1-.546.071l-8.011-4.729a2.5,2.5,0,0,0-3.692,1.529l-2.32,9.005a.453.453,0,0,1-.438.34h-6.7a.451.451,0,0,1-.437-.336l-2.321-9.009a2.5,2.5,0,0,0-3.692-1.529l-8.008,4.727a.453.453,0,0,1-.55-.07l-4.734-4.734a.452.452,0,0,1-.072-.547l4.728-8.012a2.5,2.5,0,0,0-1.528-3.691l-9.007-2.321a.451.451,0,0,1-.338-.438v-6.7a.452.452,0,0,1,.336-.437l9.009-2.321a2.5,2.5,0,0,0,1.528-3.692l-4.727-8.009a.454.454,0,0,1,.071-.55l4.733-4.733a.453.453,0,0,1,.548-.072l8.011,4.728a2.5,2.5,0,0,0,3.692-1.528l2.321-9.007a.451.451,0,0,1,.437-.338h6.7a.452.452,0,0,1,.437.336l2.321,9.009a2.5,2.5,0,0,0,3.692,1.528l8.008-4.726a.449.449,0,0,1,.55.07l4.734,4.733a.45.45,0,0,1,.071.547l-4.728,8.012a2.5,2.5,0,0,0,1.529,3.692l9.008,2.321a.452.452,0,0,1,.338.437Z" fill="#846f75"/><path d="M128,140.762A12.762,12.762,0,1,1,140.763,128,12.776,12.776,0,0,1,128,140.762Zm0-20.524A7.762,7.762,0,1,0,135.763,128,7.771,7.771,0,0,0,128,120.238Z" fill="#65c1d6"/></svg>