<svg xmlns="http://www.w3.org/2000/svg" viewBox="0 0 256 256"><title>icon</title><path d="M179.008,211.5a2.5,2.5,0,0,1-2.5-2.5V134.583a2.5,2.5,0,0,1,5,0V209A2.5,2.5,0,0,1,179.008,211.5Z" fill="#ebe7f2"/><path d="M194.4,211.5a2.5,2.5,0,0,1-2.5-2.5V134.583a2.5,2.5,0,0,1,5,0V209A2.5,2.5,0,0,1,194.4,211.5Z" fill="#ebe7f2"/><path d="M214,133.365,189.258,89.043a2.5,2.5,0,0,0-4.366,0l-24.738,44.322a2.5,2.5,0,0,0-.317,1.218V209a2.5,2.5,0,0,0,2.5,2.5h49.475a2.5,2.5,0,0,0,2.5-2.5V134.583A2.5,2.5,0,0,0,214,133.365Zm-36.384-21.018h18.927l11.016,19.736H166.6Zm9.464-16.955,6.672,11.955H180.4ZM164.837,206.5V137.083h44.475V206.5Z" fill="#a58bc9"/><path d="M64.592,99.272a2.5,2.5,0,0,1-2.307-3.461L72.3,71.743a2.5,2.5,0,1,1,4.616,1.921L66.9,97.732A2.5,2.5,0,0,1,64.592,99.272Z" fill="#a58bc9"/><path d="M89.547,99.191a2.5,2.5,0,0,1-1.768-4.268L97.964,84.737,87.779,74.552a2.5,2.5,0,0,1,3.535-3.535L103.268,82.97a2.5,2.5,0,0,1,0,3.535L91.314,98.458A2.485,2.485,0,0,1,89.547,99.191Z" fill="#a58bc9"/><path d="M49.652,99.191a2.489,2.489,0,0,1-1.767-.733L35.932,86.505a2.5,2.5,0,0,1,0-3.535L47.885,71.017a2.5,2.5,0,0,1,3.535,3.535L41.235,84.737,51.42,94.923a2.5,2.5,0,0,1-1.768,4.268Z" fill="#a58bc9"/><path d="M48.225,121.305H37.7a2.5,2.5,0,0,1,0-5H48.225a2.5,2.5,0,0,1,0,5Z" fill="#a58bc9"/><path d="M48.225,165.415H37.7a2.5,2.5,0,1,1,0-5H48.225a2.5,2.5,0,0,1,0,5Z" fill="#a58bc9"/><path d="M58.225,121.305H95.558a2.5,2.5,0,0,0,0-5H58.225a2.5,2.5,0,1,0,0,5Z" fill="#846f75"/><path d="M58.225,165.415h8.666a2.5,2.5,0,0,0,0-5H58.225a2.5,2.5,0,1,0,0,5Z" fill="#846f75"/><path d="M99.805,160.415H76.891a2.5,2.5,0,1,0,0,5H99.805a2.5,2.5,0,1,0,0-5Z" fill="#846f75"/><path d="M92.146,180.118a2.5,2.5,0,1,0,0-5H58.225a2.5,2.5,0,1,0,0,5Z" fill="#846f75"/><path d="M58.225,136.008H79.058a2.5,2.5,0,1,0,0-5H58.225a2.5,2.5,0,1,0,0,5Z" fill="#846f75"/><path d="M86.558,133.508a2.5,2.5,0,0,0,2.5,2.5h26.176a2.5,2.5,0,1,0,0-5H89.058A2.5,2.5,0,0,0,86.558,133.508Z" fill="#846f75"/><path d="M58.225,150.711H79.058a2.5,2.5,0,0,0,0-5H58.225a2.5,2.5,0,1,0,0,5Z" fill="#846f75"/><path d="M107.52,145.711H89.058a2.5,2.5,0,1,0,0,5H107.52a2.5,2.5,0,0,0,0-5Z" fill="#846f75"/><path d="M240.667,44.5H15.333a2.5,2.5,0,0,0-2.5,2.5V209a2.5,2.5,0,0,0,2.5,2.5H240.667a2.5,2.5,0,0,0,2.5-2.5V47A2.5,2.5,0,0,0,240.667,44.5Zm-222.834,5H166.489l-82.376,157H17.833Zm220.334,157H89.76l82.375-157h66.032Z" fill="#846f75"/></svg>