<svg xmlns="http://www.w3.org/2000/svg" viewBox="0 0 256 256"><title>icon</title><path d="M203.183,173.381a5.723,5.723,0,0,0-5.717-5.716h-1.774l3.972-11.355a6.486,6.486,0,0,0-.519-5.493l-10.478-17.773A6.5,6.5,0,0,0,179.243,131a6.557,6.557,0,0,0-1.834,2.024L166.93,150.8a6.472,6.472,0,0,0-.539,5.481l3.982,11.384H168.6a5.713,5.713,0,0,0-.147,11.425V209a2.5,2.5,0,0,0,5,0V179.1h19.161V209a2.5,2.5,0,0,0,5,0V179.09A5.721,5.721,0,0,0,203.183,173.381ZM184.64,154.075a1.607,1.607,0,1,1-1.608-1.607A1.609,1.609,0,0,1,184.64,154.075Zm-13.54.527a1.457,1.457,0,0,1,.127-1.246l9.305-15.784v10.391a6.608,6.608,0,1,0,5,0V137.572l9.316,15.8a1.47,1.47,0,0,1,.107,1.257l-4.56,13.035H175.67Zm26.366,19.5H168.6a.716.716,0,1,1,0-1.432h28.867a.716.716,0,1,1,0,1.432Z" fill="#f9b087"/><path d="M158.126,114.613a2.5,2.5,0,0,0,0,5h6.825a35.532,35.532,0,0,0-17.24,28.79,2.5,2.5,0,0,0,2.39,2.607l.11,0a2.5,2.5,0,0,0,2.5-2.391,30.482,30.482,0,0,1,25.181-28.575,2.492,2.492,0,0,0,2.057-2.705c.007-.077.023-.15.023-.228a2.5,2.5,0,0,0-2.5-2.5Z" fill="#846f75"/><path d="M188.437,120.092a30.53,30.53,0,0,1,24.92,28.529,2.5,2.5,0,0,0,2.5,2.391l.111,0a2.5,2.5,0,0,0,2.389-2.607,35.594,35.594,0,0,0-17.256-28.79h6.84a2.5,2.5,0,0,0,0-5H188.6a2.8,2.8,0,0,0-.16,5.479Z" fill="#846f75"/><path d="M58.225,121.305H95.558a2.5,2.5,0,0,0,0-5H58.225a2.5,2.5,0,1,0,0,5Z" fill="#846f75"/><path d="M58.225,165.415h8.667a2.5,2.5,0,0,0,0-5H58.225a2.5,2.5,0,1,0,0,5Z" fill="#846f75"/><path d="M99.806,160.415H76.892a2.5,2.5,0,0,0,0,5H99.806a2.5,2.5,0,1,0,0-5Z" fill="#846f75"/><path d="M92.146,180.118a2.5,2.5,0,1,0,0-5H58.225a2.5,2.5,0,1,0,0,5Z" fill="#846f75"/><path d="M58.225,136.008H79.058a2.5,2.5,0,1,0,0-5H58.225a2.5,2.5,0,1,0,0,5Z" fill="#846f75"/><path d="M86.558,133.508a2.5,2.5,0,0,0,2.5,2.5h26.176a2.5,2.5,0,1,0,0-5H89.058A2.5,2.5,0,0,0,86.558,133.508Z" fill="#846f75"/><path d="M58.225,150.711H79.058a2.5,2.5,0,0,0,0-5H58.225a2.5,2.5,0,1,0,0,5Z" fill="#846f75"/><path d="M107.52,145.711H89.058a2.5,2.5,0,1,0,0,5H107.52a2.5,2.5,0,0,0,0-5Z" fill="#846f75"/><path d="M240.667,44.5H15.333a2.5,2.5,0,0,0-2.5,2.5V209a2.5,2.5,0,0,0,2.5,2.5H240.667a2.5,2.5,0,0,0,2.5-2.5V47A2.5,2.5,0,0,0,240.667,44.5Zm-222.834,5H166.488l-82.375,157H17.833Zm220.334,157H89.76l82.375-157h66.032Z" fill="#846f75"/><path d="M152.023,124.909a8.064,8.064,0,1,1,8.065-8.064A8.073,8.073,0,0,1,152.023,124.909Zm0-11.128a3.064,3.064,0,1,0,3.065,3.064A3.067,3.067,0,0,0,152.023,113.781Z" fill="#f9b087"/><path d="M213.5,124.909a8.064,8.064,0,1,1,8.064-8.064A8.074,8.074,0,0,1,213.5,124.909Zm0-11.128a3.064,3.064,0,1,0,3.064,3.064A3.068,3.068,0,0,0,213.5,113.781Z" fill="#f9b087"/><path d="M183.032,124.909a8.064,8.064,0,1,1,8.065-8.064A8.073,8.073,0,0,1,183.032,124.909Zm0-11.128a3.064,3.064,0,1,0,3.065,3.064A3.067,3.067,0,0,0,183.032,113.781Z" fill="#f9b087"/><path d="M150.178,162.139a8.064,8.064,0,1,1,8.063-8.064A8.074,8.074,0,0,1,150.178,162.139Zm0-11.128a3.064,3.064,0,1,0,3.063,3.064A3.068,3.068,0,0,0,150.178,151.011Z" fill="#f9b087"/><path d="M215.888,162.139a8.064,8.064,0,1,1,8.063-8.064A8.074,8.074,0,0,1,215.888,162.139Zm0-11.128a3.064,3.064,0,1,0,3.063,3.064A3.068,3.068,0,0,0,215.888,151.011Z" fill="#f9b087"/><path d="M64.592,99.272a2.5,2.5,0,0,1-2.308-3.461L72.3,71.743a2.5,2.5,0,0,1,4.617,1.921L66.9,97.732A2.5,2.5,0,0,1,64.592,99.272Z" fill="#f9b087"/><path d="M89.547,99.191a2.5,2.5,0,0,1-1.768-4.268L97.965,84.737,87.779,74.552a2.5,2.5,0,0,1,3.535-3.535L103.268,82.97a2.5,2.5,0,0,1,0,3.535L91.314,98.458A2.487,2.487,0,0,1,89.547,99.191Z" fill="#f9b087"/><path d="M49.652,99.191a2.489,2.489,0,0,1-1.767-.733L35.932,86.505a2.5,2.5,0,0,1,0-3.535L47.885,71.017a2.5,2.5,0,0,1,3.535,3.535L41.234,84.737,51.42,94.923a2.5,2.5,0,0,1-1.768,4.268Z" fill="#f9b087"/><path d="M48.225,121.305H37.7a2.5,2.5,0,0,1,0-5H48.225a2.5,2.5,0,0,1,0,5Z" fill="#f9b087"/><path d="M48.225,165.415H37.7a2.5,2.5,0,1,1,0-5H48.225a2.5,2.5,0,0,1,0,5Z" fill="#f9b087"/></svg>