<svg xmlns="http://www.w3.org/2000/svg" viewBox="0 0 256 256"><title>icon</title><path d="M195.074,130.5a2.5,2.5,0,0,1-2.5-2.5V87.964a2.5,2.5,0,0,1,5,0V128A2.5,2.5,0,0,1,195.074,130.5Z" fill="#ebe7f2"/><path d="M210.566,86.746,197.257,62.9a2.5,2.5,0,0,0-4.365,0L179.583,86.746a2.494,2.494,0,0,0-.317,1.218V128a2.5,2.5,0,0,0,2.5,2.5h26.618a2.5,2.5,0,0,0,2.5-2.5V87.964A2.5,2.5,0,0,0,210.566,86.746Zm-19.9-9.591h8.827l4.637,8.309h-18.1Zm6.036-5h-3.245l1.622-2.907ZM184.266,125.5V90.464h21.618V125.5Z" fill="#ed9abc"/><path d="M64.592,99.272a2.5,2.5,0,0,1-2.307-3.461L72.3,71.743a2.5,2.5,0,1,1,4.616,1.921L66.9,97.732A2.5,2.5,0,0,1,64.592,99.272Z" fill="#ed9abc"/><path d="M89.547,99.191a2.5,2.5,0,0,1-1.768-4.268L97.964,84.737,87.779,74.552a2.5,2.5,0,0,1,3.535-3.535L103.268,82.97a2.5,2.5,0,0,1,0,3.535L91.314,98.458A2.485,2.485,0,0,1,89.547,99.191Z" fill="#ed9abc"/><path d="M49.652,99.191a2.489,2.489,0,0,1-1.767-.733L35.932,86.505a2.5,2.5,0,0,1,0-3.535L47.885,71.017a2.5,2.5,0,0,1,3.535,3.535L41.235,84.737,51.42,94.923a2.5,2.5,0,0,1-1.768,4.268Z" fill="#ed9abc"/><path d="M48.225,121.305H37.7a2.5,2.5,0,0,1,0-5H48.225a2.5,2.5,0,0,1,0,5Z" fill="#ed9abc"/><path d="M48.225,165.415H37.7a2.5,2.5,0,1,1,0-5H48.225a2.5,2.5,0,0,1,0,5Z" fill="#ed9abc"/><path d="M58.225,121.305H95.558a2.5,2.5,0,0,0,0-5H58.225a2.5,2.5,0,1,0,0,5Z" fill="#846f75"/><path d="M58.225,165.415h8.666a2.5,2.5,0,0,0,0-5H58.225a2.5,2.5,0,1,0,0,5Z" fill="#846f75"/><path d="M99.805,160.415H76.891a2.5,2.5,0,1,0,0,5H99.805a2.5,2.5,0,1,0,0-5Z" fill="#846f75"/><path d="M92.146,180.118a2.5,2.5,0,1,0,0-5H58.225a2.5,2.5,0,1,0,0,5Z" fill="#846f75"/><path d="M58.225,136.008H79.058a2.5,2.5,0,1,0,0-5H58.225a2.5,2.5,0,1,0,0,5Z" fill="#846f75"/><path d="M86.558,133.508a2.5,2.5,0,0,0,2.5,2.5h26.176a2.5,2.5,0,1,0,0-5H89.058A2.5,2.5,0,0,0,86.558,133.508Z" fill="#846f75"/><path d="M58.225,150.711H79.058a2.5,2.5,0,0,0,0-5H58.225a2.5,2.5,0,1,0,0,5Z" fill="#846f75"/><path d="M107.52,145.711H89.058a2.5,2.5,0,1,0,0,5H107.52a2.5,2.5,0,0,0,0-5Z" fill="#846f75"/><path d="M240.667,44.5H15.333a2.5,2.5,0,0,0-2.5,2.5V209a2.5,2.5,0,0,0,2.5,2.5H240.667a2.5,2.5,0,0,0,2.5-2.5V47A2.5,2.5,0,0,0,240.667,44.5Zm-2.5,81H132.259l39.876-76h66.032ZM17.833,49.5H166.488l-82.375,157H17.833ZM143.266,205.644l6.1-10.336a2.5,2.5,0,0,0-1.529-3.691l-11.619-2.994a1.31,1.31,0,0,1-.982-1.268v-8.637a1.309,1.309,0,0,1,.979-1.267l11.622-3a2.5,2.5,0,0,0,1.529-3.692l-6.1-10.333a1.31,1.31,0,0,1,.2-1.591l6.107-6.107a1.311,1.311,0,0,1,1.588-.2l10.336,6.1a2.5,2.5,0,0,0,3.691-1.528l3-11.621a1.308,1.308,0,0,1,1.267-.98h8.638a1.307,1.307,0,0,1,1.266.978l3,11.623a2.5,2.5,0,0,0,3.691,1.528l10.333-6.1a1.31,1.31,0,0,1,1.591.2l6.107,6.107a1.307,1.307,0,0,1,.2,1.588l-6.1,10.336a2.5,2.5,0,0,0,1.529,3.692l11.619,2.994a1.31,1.31,0,0,1,.982,1.268v8.637a1.309,1.309,0,0,1-.979,1.267l-11.622,2.995a2.5,2.5,0,0,0-1.529,3.691l6.1,10.334a1.3,1.3,0,0,1,.162.858H143.1A1.3,1.3,0,0,1,143.266,205.644Zm66.171.856a6.281,6.281,0,0,0-.85-3.4l-4.411-7.474,8.406-2.166a6.309,6.309,0,0,0,4.728-6.108v-8.637a6.311,6.311,0,0,0-4.731-6.109l-8.4-2.166,4.412-7.476a6.308,6.308,0,0,0-.976-7.662L201.5,149.2a6.313,6.313,0,0,0-7.664-.974l-7.474,4.411-2.167-8.406a6.307,6.307,0,0,0-6.107-4.728h-8.638a6.308,6.308,0,0,0-6.108,4.73l-2.166,8.4-7.477-4.413a6.311,6.311,0,0,0-7.661.976l-6.107,6.108a6.31,6.31,0,0,0-.976,7.664l4.411,7.474-8.406,2.166a6.311,6.311,0,0,0-4.728,6.109v8.637a6.311,6.311,0,0,0,4.731,6.109l8.4,2.165-4.413,7.477a6.278,6.278,0,0,0-.848,3.394H89.76l39.876-76H238.167v76Z" fill="#846f75"/><path d="M173.773,200.957a17.921,17.921,0,1,1,17.92-17.92A17.94,17.94,0,0,1,173.773,200.957Zm0-30.841a12.921,12.921,0,1,0,12.92,12.921A12.934,12.934,0,0,0,173.773,170.116Z" fill="#ed9abc"/></svg>