<svg xmlns="http://www.w3.org/2000/svg" viewBox="0 0 256 256"><title>icon</title><path d="M175.588,31.87H80.412A11.774,11.774,0,0,0,68.653,43.629V212.371A11.774,11.774,0,0,0,80.412,224.13h95.176a11.774,11.774,0,0,0,11.759-11.759V43.629A11.774,11.774,0,0,0,175.588,31.87Zm6.759,180.5a6.767,6.767,0,0,1-6.759,6.759H80.412a6.767,6.767,0,0,1-6.759-6.759V43.629a6.767,6.767,0,0,1,6.759-6.759h95.176a6.767,6.767,0,0,1,6.759,6.759Z" fill="#846f75"/><path d="M128,209.54A12.737,12.737,0,1,1,140.737,196.8,12.752,12.752,0,0,1,128,209.54Zm0-20.474a7.737,7.737,0,1,0,7.737,7.737A7.745,7.745,0,0,0,128,189.066Z" fill="#ebe7f2"/><path d="M106.831,88.355a15.678,15.678,0,1,1,15.678-15.677A15.7,15.7,0,0,1,106.831,88.355Zm0-26.355a10.678,10.678,0,1,0,10.678,10.678A10.69,10.69,0,0,0,106.831,62Z" fill="#a58bc9"/><path d="M156.457,87.8H141.882a2.5,2.5,0,0,1-2.165-1.25l-7.288-12.623a2.5,2.5,0,0,1,0-2.5l7.288-12.622a2.5,2.5,0,0,1,2.165-1.25h14.575a2.5,2.5,0,0,1,2.165,1.25l7.287,12.622a2.5,2.5,0,0,1,0,2.5l-7.287,12.623A2.5,2.5,0,0,1,156.457,87.8Zm-13.132-5h11.689l5.843-10.123-5.843-10.122H143.325L137.48,72.678Z" fill="#a58bc9"/><path d="M114.118,128.609H99.543a2.5,2.5,0,0,1-2.165-1.25l-7.287-12.622a2.5,2.5,0,0,1,0-2.5l7.287-12.623a2.5,2.5,0,0,1,2.165-1.25h14.575a2.5,2.5,0,0,1,2.165,1.25l7.288,12.623a2.5,2.5,0,0,1,0,2.5l-7.288,12.622A2.5,2.5,0,0,1,114.118,128.609Zm-13.132-5h11.689l5.845-10.122-5.845-10.123H100.986l-5.843,10.123Z" fill="#a58bc9"/><path d="M161.688,128.966H136.65a2.5,2.5,0,0,1-2.252-3.586l12.519-25.957a2.5,2.5,0,0,1,4.5,0L163.94,125.38a2.5,2.5,0,0,1-2.252,3.586Zm-21.056-5h17.075l-8.538-17.7Z" fill="#a58bc9"/><path d="M156.457,169.419H141.882a2.5,2.5,0,0,1-2.165-1.25l-7.288-12.622a2.5,2.5,0,0,1,0-2.5l7.288-12.623a2.5,2.5,0,0,1,2.165-1.25h14.575a2.5,2.5,0,0,1,2.165,1.25l7.287,12.623a2.5,2.5,0,0,1,0,2.5l-7.287,12.622A2.5,2.5,0,0,1,156.457,169.419Zm-13.132-5h11.689l5.843-10.122-5.843-10.123H143.325L137.48,154.3Z" fill="#a58bc9"/><path d="M119.35,169.775H94.312a2.5,2.5,0,0,1-2.252-3.586l12.519-25.958a2.5,2.5,0,0,1,2.252-1.414h0a2.5,2.5,0,0,1,2.252,1.414L121.6,166.189a2.5,2.5,0,0,1-2.252,3.586Zm-21.057-5h17.075l-8.537-17.7Z" fill="#a58bc9"/></svg>