<svg xmlns="http://www.w3.org/2000/svg" viewBox="0 0 256 256"><title>icon</title><path d="M189.6,95.048a2.5,2.5,0,0,1-2.5-2.5V54.256H157.333a2.5,2.5,0,0,1,0-5H189.6a2.5,2.5,0,0,1,2.5,2.5V92.548A2.5,2.5,0,0,1,189.6,95.048Z" fill="#ed9abc"/><path d="M66.4,95.048h0a2.5,2.5,0,0,1-2.5-2.5V51.756a2.5,2.5,0,0,1,2.5-2.5H98.667a2.5,2.5,0,0,1,0,5H68.9V92.548A2.5,2.5,0,0,1,66.4,95.048Z" fill="#ed9abc"/><path d="M98.667,206.744H66.4a2.5,2.5,0,0,1-2.5-2.5V163.452a2.5,2.5,0,1,1,5,0v38.292H98.667a2.5,2.5,0,0,1,0,5Z" fill="#ed9abc"/><path d="M189.6,206.744H157.333a2.5,2.5,0,0,1,0-5H187.1V163.452a2.5,2.5,0,0,1,2.5-2.5h0a2.5,2.5,0,0,1,2.5,2.5v40.792A2.5,2.5,0,0,1,189.6,206.744Z" fill="#ed9abc"/><path d="M224,90.048H32a2.5,2.5,0,0,0-2.5,2.5v70.9a2.5,2.5,0,0,0,2.5,2.5H224a2.5,2.5,0,0,0,2.5-2.5v-70.9A2.5,2.5,0,0,0,224,90.048Zm-2.5,70.9H34.5v-65.9h187Z" fill="#846f75"/><path d="M100.083,59.9l5.09,1.312L102.5,65.74a5.221,5.221,0,0,0,.808,6.343l4.365,4.365a5.222,5.222,0,0,0,6.346.807l4.526-2.672,1.311,5.092a5.224,5.224,0,0,0,5.057,3.915h6.174a5.226,5.226,0,0,0,5.058-3.917l1.311-5.089,4.527,2.673a5.22,5.22,0,0,0,6.343-.808l4.366-4.366a5.222,5.222,0,0,0,.807-6.345l-2.672-4.526L155.92,59.9a5.223,5.223,0,0,0,3.913-5.057V48.669a5.222,5.222,0,0,0-3.913-5.056h0l-5.09-1.311,2.673-4.528a5.223,5.223,0,0,0-.808-6.344l-4.365-4.365a5.221,5.221,0,0,0-6.346-.806l-4.525,2.671-1.312-5.093a5.225,5.225,0,0,0-5.057-3.913h-6.174a5.224,5.224,0,0,0-5.057,3.916l-1.311,5.09-4.528-2.673a5.223,5.223,0,0,0-6.343.807l-4.366,4.367a5.221,5.221,0,0,0-.807,6.344l2.672,4.527-5.093,1.312a5.222,5.222,0,0,0-3.913,5.056v6.174A5.223,5.223,0,0,0,100.083,59.9Zm1.084-11.231a.222.222,0,0,1,.164-.215l8.308-2.141a2.5,2.5,0,0,0,1.529-3.691l-4.359-7.387a.221.221,0,0,1,.034-.27L111.21,30.6a.222.222,0,0,1,.268-.036l7.387,4.361a2.5,2.5,0,0,0,3.692-1.528l2.141-8.307a.223.223,0,0,1,.215-.166h6.174a.224.224,0,0,1,.216.164l2.14,8.308a2.5,2.5,0,0,0,3.692,1.529l7.386-4.359a.219.219,0,0,1,.27.035l4.366,4.365a.22.22,0,0,1,.035.268l-4.36,7.389a2.5,2.5,0,0,0,1.529,3.691l8.305,2.141a.221.221,0,0,1,.167.215v6.174a.222.222,0,0,1-.164.216l-8.308,2.14a2.5,2.5,0,0,0-1.529,3.692l4.359,7.386a.221.221,0,0,1-.034.27l-4.367,4.367a.221.221,0,0,1-.268.036l-7.387-4.362a2.5,2.5,0,0,0-3.692,1.53l-2.139,8.3a.225.225,0,0,1-.217.168h-6.174a.223.223,0,0,1-.215-.165l-2.141-8.308a2.5,2.5,0,0,0-3.692-1.529l-7.386,4.36a.221.221,0,0,1-.27-.035l-4.366-4.365a.222.222,0,0,1-.035-.269l4.36-7.388a2.5,2.5,0,0,0-1.529-3.692l-8.3-2.14a.222.222,0,0,1-.167-.216Z" fill="#846f75"/><path d="M128,63.721a11.965,11.965,0,1,0-11.964-11.965A11.978,11.978,0,0,0,128,63.721Zm0-18.929a6.965,6.965,0,1,1-6.964,6.964A6.972,6.972,0,0,1,128,44.792Z" fill="#846f75"/><path d="M155.773,178.942H100.227a4.064,4.064,0,0,0-4.06,4.06v42.483a4.064,4.064,0,0,0,4.06,4.06h55.546a4.064,4.064,0,0,0,4.06-4.06V183A4.064,4.064,0,0,0,155.773,178.942Zm-.94,45.6H101.167v-40.6h53.666Z" fill="#846f75"/><path d="M124.225,213.319a2.5,2.5,0,0,0,3.268-1.348l5.631-13.534a2.5,2.5,0,0,0-4.617-1.921l-5.631,13.534A2.5,2.5,0,0,0,124.225,213.319Z" fill="#846f75"/><path d="M137.449,212.733a2.5,2.5,0,0,0,3.535,0l6.722-6.722a2.5,2.5,0,0,0,0-3.535l-6.722-6.722a2.5,2.5,0,1,0-3.535,3.536l4.954,4.954-4.954,4.954A2.5,2.5,0,0,0,137.449,212.733Z" fill="#846f75"/><path d="M115.016,212.733a2.5,2.5,0,1,0,3.535-3.535l-4.954-4.954,4.954-4.954a2.5,2.5,0,0,0-3.535-3.536l-6.722,6.722a2.5,2.5,0,0,0,0,3.535Z" fill="#846f75"/><path d="M147.258,114.747a1.124,1.124,0,0,0-.924-.484h-2.807a1.125,1.125,0,0,0-1.058.744l-6.458,18-6.519-18a1.127,1.127,0,0,0-1.057-.742h-2.807a1.125,1.125,0,0,0-1.054,1.52l9.269,24.7a1.13,1.13,0,0,0,1.053.73h2.214a1.13,1.13,0,0,0,1.054-.732l9.224-24.7A1.122,1.122,0,0,0,147.258,114.747Z" fill="#ed9abc"/><path d="M122.133,141.216a1.127,1.127,0,0,0,1.125-1.125v-.274a1.116,1.116,0,0,0-.09-.439,13.125,13.125,0,0,1-.663-4.925V122.737a8.519,8.519,0,0,0-2.842-6.591,10.761,10.761,0,0,0-7.256-2.339,11.693,11.693,0,0,0-7.429,2.4,7.449,7.449,0,0,0-3.168,5.987,1.129,1.129,0,0,0,1.116,1.125l2.739.022a1.123,1.123,0,0,0,1.134-1.125,3.253,3.253,0,0,1,1.436-2.628,6.314,6.314,0,0,1,4.035-1.223,5.725,5.725,0,0,1,4,1.217,4.3,4.3,0,0,1,1.271,3.343v1.683H113.71c-3.8,0-6.829.775-9.013,2.3a7.712,7.712,0,0,0-3.482,6.631,7.585,7.585,0,0,0,2.574,5.857,9.4,9.4,0,0,0,6.518,2.275,12.407,12.407,0,0,0,5.182-1.117,11.132,11.132,0,0,0,1.859-1.071l.458-.327.126.548a7.168,7.168,0,0,0,.219.76,1.127,1.127,0,0,0,1.061.751ZM117.5,133.1a6.623,6.623,0,0,1-2.562,2.747,7.994,7.994,0,0,1-4.31,1.158,4.686,4.686,0,0,1-3.258-1.085,3.312,3.312,0,0,1-1.164-2.608,3.4,3.4,0,0,1,1.779-3.031,11.2,11.2,0,0,1,5.791-1.323h3.763Z" fill="#ed9abc"/><path d="M170.107,139.817a1.155,1.155,0,0,0-.089-.439,13.09,13.09,0,0,1-.664-4.925V122.735a8.525,8.525,0,0,0-2.843-6.589,10.761,10.761,0,0,0-7.256-2.339,11.7,11.7,0,0,0-7.432,2.4,7.451,7.451,0,0,0-3.167,5.986,1.129,1.129,0,0,0,1.117,1.125l2.74.022a1.123,1.123,0,0,0,1.134-1.125,3.249,3.249,0,0,1,1.437-2.628,6.31,6.31,0,0,1,4.035-1.223,5.722,5.722,0,0,1,3.994,1.216,4.3,4.3,0,0,1,1.274,3.344v1.683h-3.83c-3.8,0-6.827.775-9.01,2.3a7.707,7.707,0,0,0-3.484,6.631,7.581,7.581,0,0,0,2.575,5.857,9.4,9.4,0,0,0,6.518,2.275,12.415,12.415,0,0,0,5.183-1.117,11.317,11.317,0,0,0,1.857-1.071l.455-.325.128.544a7.147,7.147,0,0,0,.219.759,1.125,1.125,0,0,0,1.061.754h2.923a1.127,1.127,0,0,0,1.125-1.125Zm-5.759-6.719a6.64,6.64,0,0,1-2.562,2.746A8.007,8.007,0,0,1,157.475,137a4.678,4.678,0,0,1-3.257-1.085,3.309,3.309,0,0,1-1.167-2.608,3.4,3.4,0,0,1,1.78-3.031,11.209,11.209,0,0,1,5.791-1.323h3.765Z" fill="#ed9abc"/><path d="M85.894,149.615a1.125,1.125,0,0,0,.737,1.079,8.045,8.045,0,0,0,2.786.5,7.313,7.313,0,0,0,5.671-2.172,8.606,8.606,0,0,0,1.938-5.986V105.931a1.127,1.127,0,0,0-1.125-1.125H93.185a1.127,1.127,0,0,0-1.125,1.125V143.01c0,3.136-1.486,3.559-2.939,3.559a6.153,6.153,0,0,1-1.737-.251,1.137,1.137,0,0,0-.982.17,1.119,1.119,0,0,0-.461.886Z" fill="#ed9abc"/></svg>