<svg xmlns="http://www.w3.org/2000/svg" viewBox="0 0 256 256"><title>icon</title><path d="M96.465,133.224H84.494V109.616a1.247,1.247,0,0,0-1.247-1.248h-2.28a1.248,1.248,0,0,0-1.247,1.248v26.767a1.248,1.248,0,0,0,1.247,1.248h15.5a1.247,1.247,0,0,0,1.247-1.248v-1.911A1.247,1.247,0,0,0,96.465,133.224Z" fill="#ed9abc"/><path d="M117.323,109.682a11.9,11.9,0,0,0-12.248.033,11.167,11.167,0,0,0-4.129,4.868,16.681,16.681,0,0,0-1.41,7v2.758c0,4.089,1.073,7.409,3.188,9.867a10.743,10.743,0,0,0,8.52,3.79,11.261,11.261,0,0,0,6.148-1.7,11.023,11.023,0,0,0,4.115-4.836,16.785,16.785,0,0,0,1.39-7.008v-3.218a16.467,16.467,0,0,0-1.462-6.82A11.055,11.055,0,0,0,117.323,109.682Zm-6.079,23.855a6,6,0,0,1-5.016-2.313,10.7,10.7,0,0,1-1.936-6.772v-2.794c0-2.978.652-5.3,1.939-6.893a6.622,6.622,0,0,1,10-.013,10.7,10.7,0,0,1,1.915,6.8v2.831c0,2.973-.635,5.29-1.886,6.889A5.949,5.949,0,0,1,111.244,133.537Z" fill="#ed9abc"/><path d="M148.928,122.432H139.48a1.247,1.247,0,0,0-1.247,1.248v1.912a1.247,1.247,0,0,0,1.247,1.248h5.94V132a5.086,5.086,0,0,1-1.277.774,11.264,11.264,0,0,1-4.517.814,6.6,6.6,0,0,1-3.769-1.08,6.95,6.95,0,0,1-2.526-3.1,12.061,12.061,0,0,1-.931-4.9v-3.165c0-2.927.641-5.192,1.9-6.733a6.037,6.037,0,0,1,4.975-2.212,6.474,6.474,0,0,1,4.194,1.248,5.7,5.7,0,0,1,1.948,3.7,1.247,1.247,0,0,0,1.23,1.041h2.261a1.249,1.249,0,0,0,1.238-1.408,9.941,9.941,0,0,0-3.434-6.6,11.285,11.285,0,0,0-7.457-2.4,10.754,10.754,0,0,0-8.5,3.654c-2.071,2.374-3.121,5.61-3.121,9.616v3.389a15.768,15.768,0,0,0,1.487,6.864,11.3,11.3,0,0,0,4.254,4.782A11.707,11.707,0,0,0,139.626,138a17.243,17.243,0,0,0,6.052-1.017,8.817,8.817,0,0,0,4.271-3.062,1.251,1.251,0,0,0,.227-.717V123.68A1.248,1.248,0,0,0,148.928,122.432Z" fill="#ed9abc"/><path d="M175.146,125.62a9.059,9.059,0,0,0-3.228-2.942,25.629,25.629,0,0,0-5.749-2.161,14.126,14.126,0,0,1-4.8-2.05,2.806,2.806,0,0,1-1.16-2.353,3.031,3.031,0,0,1,1.323-2.585,6.776,6.776,0,0,1,4.14-1.121,6.052,6.052,0,0,1,4.207,1.353,4.393,4.393,0,0,1,1.457,3.484,1.247,1.247,0,0,0,1.247,1.248h2.281a1.247,1.247,0,0,0,1.247-1.248,8.786,8.786,0,0,0-1.351-4.764,9.074,9.074,0,0,0-3.77-3.324A12,12,0,0,0,165.675,108a11.639,11.639,0,0,0-7.218,2.176,7.421,7.421,0,0,0,.219,12.106,20.94,20.94,0,0,0,6.459,2.736c3.222.905,4.639,1.709,5.259,2.222a3.36,3.36,0,0,1-.268,5.211,7.194,7.194,0,0,1-4.286,1.14,7.784,7.784,0,0,1-4.862-1.376,4.122,4.122,0,0,1-1.631-3.48,1.247,1.247,0,0,0-1.247-1.248h-2.261a1.247,1.247,0,0,0-1.247,1.248,8.548,8.548,0,0,0,1.435,4.868,9.191,9.191,0,0,0,4.128,3.283A14.366,14.366,0,0,0,165.84,138a12.03,12.03,0,0,0,7.418-2.165,7.267,7.267,0,0,0,3.022-6.069A7.577,7.577,0,0,0,175.146,125.62Z" fill="#ed9abc"/><path d="M175.587,51.438H136a10.172,10.172,0,0,0-4.623,1.116L116.5,60.181a4.559,4.559,0,0,0,0,8.115l14.87,7.626A10.18,10.18,0,0,0,136,77.039h39.589A10.752,10.752,0,0,0,186.327,66.3v-4.12A10.752,10.752,0,0,0,175.587,51.438Zm-37.089,5h28.8v15.6H138.5Zm-16.072,6.325v2.951l-2.877-1.476Zm5,5.515V60.2l6.072-3.115V71.392Zm53.9-1.98a5.747,5.747,0,0,1-5.74,5.741H172.3v-15.6h3.286a5.747,5.747,0,0,1,5.74,5.74Z" fill="#846f75"/><path d="M193.2,30.52H105.383A7.847,7.847,0,0,0,99.8,32.834L57.216,75.415A7.85,7.85,0,0,0,54.9,81V217.58a7.91,7.91,0,0,0,7.9,7.9H193.2a7.91,7.91,0,0,0,7.9-7.9V38.42A7.91,7.91,0,0,0,193.2,30.52Zm-92.551,8.536V76.264H63.437ZM196.1,217.58a2.9,2.9,0,0,1-2.9,2.9H62.8a2.9,2.9,0,0,1-2.9-2.9V81.264h43.245a2.5,2.5,0,0,0,2.5-2.5V35.52H193.2a2.9,2.9,0,0,1,2.9,2.9Z" fill="#846f75"/><path d="M176.28,152.087H80.813a2.5,2.5,0,1,1,0-5H176.28a2.5,2.5,0,0,1,0,5Z" fill="#ed9abc"/><path d="M176.28,169.5H111a2.5,2.5,0,0,1,0-5h65.28a2.5,2.5,0,0,1,0,5Z" fill="#ed9abc"/><path d="M101,169.5H80.813a2.5,2.5,0,1,1,0-5H101a2.5,2.5,0,0,1,0,5Z" fill="#ed9abc"/><path d="M176.28,186.913H147.333a2.5,2.5,0,1,1,0-5H176.28a2.5,2.5,0,0,1,0,5Z" fill="#ed9abc"/><path d="M137.333,186.913H80.813a2.5,2.5,0,1,1,0-5h56.52a2.5,2.5,0,0,1,0,5Z" fill="#ed9abc"/><path d="M176.28,204.326H80.813a2.5,2.5,0,0,1,0-5H176.28a2.5,2.5,0,0,1,0,5Z" fill="#ebe7f2"/><path d="M176.28,100.723H80.813a2.5,2.5,0,0,1,0-5H176.28a2.5,2.5,0,0,1,0,5Z" fill="#ed9abc"/></svg>