<svg xmlns="http://www.w3.org/2000/svg" viewBox="0 0 256 256"><title>icon</title><path d="M104,167.667a9.334,9.334,0,1,1,9.333-9.334A9.344,9.344,0,0,1,104,167.667ZM104,154a4.334,4.334,0,1,0,4.333,4.333A4.338,4.338,0,0,0,104,154Z" fill="#f9b087"/><path d="M190,199.261a9.334,9.334,0,1,1,9.333-9.333A9.344,9.344,0,0,1,190,199.261Zm0-13.667a4.334,4.334,0,1,0,4.333,4.334A4.338,4.338,0,0,0,190,185.594Z" fill="#f9b087"/><path d="M207.092,147.557H173a2.5,2.5,0,0,1-2.5-2.5v-34.1a2.5,2.5,0,0,1,2.5-2.5h34.1a2.5,2.5,0,0,1,2.5,2.5v34.1A2.5,2.5,0,0,1,207.092,147.557Zm-31.6-5h29.1v-29.1H175.5Z" fill="#f9b087"/><path d="M222.366,79H157.634a8.09,8.09,0,0,0-8.08,8.081V200.919a8.09,8.09,0,0,0,8.08,8.081h64.732a8.09,8.09,0,0,0,8.08-8.081V87.081A8.09,8.09,0,0,0,222.366,79Zm3.08,121.919a3.084,3.084,0,0,1-3.08,3.081H157.634a3.084,3.084,0,0,1-3.08-3.081V87.081A3.084,3.084,0,0,1,157.634,84h64.732a3.084,3.084,0,0,1,3.08,3.081Z" fill="#846f75"/><path d="M142.054,173H29a2.5,2.5,0,0,1-2.5-2.5V54.5A2.5,2.5,0,0,1,29,52H179a2.5,2.5,0,0,1,2.5,2.5V70.25a2.5,2.5,0,0,0,5,0V54.5A7.508,7.508,0,0,0,179,47H29a7.508,7.508,0,0,0-7.5,7.5v116A7.508,7.508,0,0,0,29,178H142.054a2.5,2.5,0,0,0,0-5Z" fill="#846f75"/><path d="M196.093,122.429l-8.066,8.065-3.944-3.944a2.5,2.5,0,0,0-3.535,3.536l5.712,5.712a2.5,2.5,0,0,0,3.535,0l9.833-9.833a2.5,2.5,0,1,0-3.535-3.535Z" fill="#846f75"/><path d="M138.308,106.57V99.875a5.453,5.453,0,0,0-4.086-5.278h0l-5.79-1.492,3.04-5.152a5.454,5.454,0,0,0-.843-6.622L125.893,76.6a5.455,5.455,0,0,0-6.625-.842l-5.149,3.039L112.626,73a5.453,5.453,0,0,0-5.278-4.084h-6.7A5.454,5.454,0,0,0,95.373,73l-1.492,5.79-5.152-3.041a5.452,5.452,0,0,0-6.621.843l-4.735,4.735a5.456,5.456,0,0,0-.841,6.624L79.571,93.1,73.778,94.6a5.453,5.453,0,0,0-4.086,5.278v6.695a5.454,5.454,0,0,0,4.089,5.279l5.79,1.492-3.04,5.152a5.454,5.454,0,0,0,.843,6.622l4.733,4.733a5.454,5.454,0,0,0,6.625.842l5.149-3.039,1.493,5.793a5.454,5.454,0,0,0,5.278,4.086h6.7a5.455,5.455,0,0,0,5.279-4.089l1.492-5.79,5.152,3.041a5.454,5.454,0,0,0,6.621-.843l4.735-4.735a5.456,5.456,0,0,0,.841-6.624l-3.039-5.149,5.793-1.493A5.453,5.453,0,0,0,138.308,106.57Zm-5,0a.452.452,0,0,1-.337.437l-9.009,2.322a2.5,2.5,0,0,0-1.529,3.691l4.727,8.009a.453.453,0,0,1-.069.55l-4.736,4.734a.452.452,0,0,1-.546.071l-8.011-4.728a2.5,2.5,0,0,0-3.692,1.529l-2.32,9a.453.453,0,0,1-.438.341h-6.7a.452.452,0,0,1-.437-.337l-2.321-9.008a2.5,2.5,0,0,0-3.692-1.529l-8.008,4.726a.453.453,0,0,1-.55-.069L80.91,121.58a.453.453,0,0,1-.071-.549l4.728-8.011a2.5,2.5,0,0,0-1.529-3.691l-9.006-2.321a.453.453,0,0,1-.34-.438V99.875a.452.452,0,0,1,.337-.437l9.009-2.322a2.5,2.5,0,0,0,1.529-3.692L80.84,85.416a.453.453,0,0,1,.069-.55l4.736-4.735a.451.451,0,0,1,.546-.07L94.2,84.789a2.5,2.5,0,0,0,3.692-1.529l2.32-9.005a.452.452,0,0,1,.438-.339h6.7a.451.451,0,0,1,.437.336l2.321,9.008a2.5,2.5,0,0,0,3.692,1.529l8.008-4.726a.449.449,0,0,1,.55.069l4.734,4.733a.452.452,0,0,1,.071.548l-4.728,8.011a2.5,2.5,0,0,0,1.529,3.692l9.009,2.322a.453.453,0,0,1,.337.437Z" fill="#846f75"/><path d="M104,90.46a12.763,12.763,0,1,0,12.763,12.763A12.778,12.778,0,0,0,104,90.46Zm0,20.525a7.763,7.763,0,1,1,7.763-7.762A7.772,7.772,0,0,1,104,110.985Z" fill="#846f75"/><path d="M166.667,63.75H41.333a2.5,2.5,0,0,1,0-5H166.667a2.5,2.5,0,0,1,0,5Z" fill="#ebe7f2"/><path d="M215.213,96h-50.25a2.5,2.5,0,1,1,0-5h50.25a2.5,2.5,0,0,1,0,5Z" fill="#ebe7f2"/></svg>