<svg xmlns="http://www.w3.org/2000/svg" viewBox="0 0 256 256"><title>icon</title><path d="M184.847,59.5H71.153a2.5,2.5,0,0,1,0-5H184.847a2.5,2.5,0,0,1,0,5Z" fill="#ebe7f2"/><path d="M175.588,31.87H80.412A11.773,11.773,0,0,0,68.653,43.629V212.371A11.773,11.773,0,0,0,80.412,224.13h95.176a11.773,11.773,0,0,0,11.759-11.759V43.629A11.773,11.773,0,0,0,175.588,31.87Zm6.759,180.5a6.767,6.767,0,0,1-6.759,6.759H80.412a6.767,6.767,0,0,1-6.759-6.759V43.629a6.767,6.767,0,0,1,6.759-6.759h95.176a6.767,6.767,0,0,1,6.759,6.759Z" fill="#846f75"/><path d="M128,209.54A12.737,12.737,0,1,1,140.737,196.8,12.752,12.752,0,0,1,128,209.54Zm0-20.474a7.737,7.737,0,1,0,7.737,7.737A7.746,7.746,0,0,0,128,189.066Z" fill="#a58bc9"/><path d="M120.578,150.233c-.151,0-.3,0-.455-.011a8.854,8.854,0,0,1-6.391-3.233L95.918,125.216a8.844,8.844,0,1,1,13.691-11.2l11.624,14.208,25.75-25.749a8.844,8.844,0,1,1,12.508,12.507l-32.66,32.66A8.782,8.782,0,0,1,120.578,150.233Zm-17.821-34.462a3.844,3.844,0,0,0-2.969,6.279L117.6,143.823a3.851,3.851,0,0,0,2.785,1.406l.191,0a3.813,3.813,0,0,0,2.717-1.125l32.661-32.66a3.845,3.845,0,1,0-5.438-5.436l-27.7,27.7a2.5,2.5,0,0,1-3.7-.185l-13.375-16.346a3.816,3.816,0,0,0-2.592-1.392C103.016,115.777,102.886,115.771,102.757,115.771Z" fill="#a58bc9"/><path d="M96.418,209.54A12.737,12.737,0,1,1,109.155,196.8,12.751,12.751,0,0,1,96.418,209.54Zm0-20.474a7.737,7.737,0,1,0,7.737,7.737A7.745,7.745,0,0,0,96.418,189.066Z" fill="#a58bc9"/><path d="M159.582,209.54A12.737,12.737,0,1,1,172.318,196.8,12.752,12.752,0,0,1,159.582,209.54Zm0-20.474a7.737,7.737,0,1,0,7.736,7.737A7.745,7.745,0,0,0,159.582,189.066Z" fill="#a58bc9"/><path d="M99.75,48.25H84.182a2.5,2.5,0,0,1,0-5H99.75a2.5,2.5,0,0,1,0,5Z" fill="#a58bc9"/><path d="M142.5,48.25h-4.263a2.5,2.5,0,0,1,0-5H142.5a2.5,2.5,0,0,1,0,5Z" fill="#a58bc9"/><path d="M157.75,48.25h-4.263a2.5,2.5,0,0,1,0-5h4.263a2.5,2.5,0,0,1,0,5Z" fill="#a58bc9"/><path d="M173,48.25h-4.263a2.5,2.5,0,0,1,0-5H173a2.5,2.5,0,0,1,0,5Z" fill="#a58bc9"/><path d="M128,166.007A44.007,44.007,0,1,1,172.006,122,44.056,44.056,0,0,1,128,166.007Zm0-83.014A39.007,39.007,0,1,0,167.006,122,39.05,39.05,0,0,0,128,82.993Z" fill="#ebe7f2"/></svg>