<svg xmlns="http://www.w3.org/2000/svg" viewBox="0 0 256 256"><title>icon</title><path d="M150.181,232.567H139.448a2.5,2.5,0,0,1-2.5-2.5v-7.584a2.5,2.5,0,0,1,2.5-2.5h10.733a2.5,2.5,0,0,1,2.5,2.5v7.584A2.5,2.5,0,0,1,150.181,232.567Zm-8.233-5h5.733v-2.584h-5.733Z" fill="#ebe7f2"/><path d="M53.553,67.5a2.493,2.493,0,0,1-1.768-.732l-5.711-5.711a2.5,2.5,0,1,1,3.535-3.535l3.944,3.943L61.618,53.4a2.5,2.5,0,1,1,3.535,3.535L55.32,66.764A2.492,2.492,0,0,1,53.553,67.5Z" fill="#a58bc9"/><path d="M111.79,54.832H88.135a2.5,2.5,0,0,1,0-5H111.79a2.5,2.5,0,0,1,0,5Z" fill="#a58bc9"/><path d="M120,68.119H88.135a2.5,2.5,0,0,1,0-5H120a2.5,2.5,0,0,1,0,5Z" fill="#a58bc9"/><path d="M153.479,67.5a2.493,2.493,0,0,1-1.768-.732L146,61.053a2.5,2.5,0,1,1,3.535-3.535l3.944,3.943,8.065-8.065a2.5,2.5,0,1,1,3.535,3.535l-9.833,9.833A2.492,2.492,0,0,1,153.479,67.5Z" fill="#a58bc9"/><path d="M211.716,54.832H188.061a2.5,2.5,0,0,1,0-5h23.655a2.5,2.5,0,0,1,0,5Z" fill="#a58bc9"/><path d="M219.926,68.119H188.061a2.5,2.5,0,0,1,0-5h31.865a2.5,2.5,0,0,1,0,5Z" fill="#a58bc9"/><path d="M53.553,118a2.493,2.493,0,0,1-1.768-.732l-5.711-5.711a2.5,2.5,0,1,1,3.535-3.535l3.944,3.943,8.065-8.065a2.5,2.5,0,1,1,3.535,3.535l-9.833,9.833A2.492,2.492,0,0,1,53.553,118Z" fill="#a58bc9"/><path d="M111.79,105.332H88.135a2.5,2.5,0,1,1,0-5H111.79a2.5,2.5,0,1,1,0,5Z" fill="#a58bc9"/><path d="M120,118.619H88.135a2.5,2.5,0,0,1,0-5H120a2.5,2.5,0,0,1,0,5Z" fill="#a58bc9"/><path d="M160.942,177.085a2.5,2.5,0,0,0-2.324-1.579H97.382a2.5,2.5,0,0,0-2.324,1.579L84.4,203.987a2.5,2.5,0,0,0,4.649,1.842l5.83-14.721v48.133a2.5,2.5,0,0,0,2.5,2.5h61.236a2.5,2.5,0,0,0,2.5-2.5V191.108l5.83,14.721a2.5,2.5,0,0,0,2.325,1.58,2.469,2.469,0,0,0,.92-.177,2.5,2.5,0,0,0,1.4-3.245Zm-6.019,3.421-8.771,21.9h-36.3l-8.771-21.9ZM99.882,236.741V190.973l5.953,14.865a2.5,2.5,0,0,0,2.321,1.57h39.688a2.5,2.5,0,0,0,2.321-1.57l5.953-14.865v45.768Z" fill="#846f75"/><path d="M232.333,19.5h-210a2.5,2.5,0,0,0-2.5,2.5V146.334a2.5,2.5,0,0,0,2.5,2.5H105.91l19.655,19.655a2.5,2.5,0,0,0,3.536,0l19.656-19.655h83.576a2.5,2.5,0,0,0,2.5-2.5V22A2.5,2.5,0,0,0,232.333,19.5Zm-2.5,124.334H147.722a2.5,2.5,0,0,0-1.768.732l-18.621,18.621-18.62-18.621a2.5,2.5,0,0,0-1.768-.732H24.833V24.5h205Z" fill="#846f75"/><path d="M38.522,78.523h34.1a2.5,2.5,0,0,0,2.5-2.5V41.928a2.5,2.5,0,0,0-2.5-2.5h-34.1a2.5,2.5,0,0,0-2.5,2.5v34.1A2.5,2.5,0,0,0,38.522,78.523Zm2.5-34.095h29.1v29.1h-29.1Z" fill="#846f75"/><path d="M138.448,78.523h34.1a2.5,2.5,0,0,0,2.5-2.5V41.928a2.5,2.5,0,0,0-2.5-2.5H138.448a2.5,2.5,0,0,0-2.5,2.5v34.1A2.5,2.5,0,0,0,138.448,78.523Zm2.5-34.095h29.1v29.1H140.948Z" fill="#846f75"/><path d="M38.522,129.023h34.1a2.5,2.5,0,0,0,2.5-2.5V92.428a2.5,2.5,0,0,0-2.5-2.5h-34.1a2.5,2.5,0,0,0-2.5,2.5v34.1A2.5,2.5,0,0,0,38.522,129.023Zm2.5-34.095h29.1v29.1h-29.1Z" fill="#846f75"/><path d="M138.448,129.023h34.1a2.5,2.5,0,0,0,2.5-2.5V92.428a2.5,2.5,0,0,0-2.5-2.5H138.448a2.5,2.5,0,0,0-2.5,2.5v34.1A2.5,2.5,0,0,0,138.448,129.023Zm2.5-34.095h29.1v29.1H140.948Z" fill="#846f75"/><path d="M153.479,118a2.493,2.493,0,0,1-1.768-.732L146,111.553a2.5,2.5,0,1,1,3.535-3.535l3.944,3.943,8.065-8.065a2.5,2.5,0,1,1,3.535,3.535l-9.833,9.833A2.492,2.492,0,0,1,153.479,118Z" fill="#a58bc9"/><path d="M211.716,105.332H188.061a2.5,2.5,0,0,1,0-5h23.655a2.5,2.5,0,0,1,0,5Z" fill="#a58bc9"/><path d="M219.926,118.619H188.061a2.5,2.5,0,0,1,0-5h31.865a2.5,2.5,0,0,1,0,5Z" fill="#a58bc9"/></svg>