<svg xmlns="http://www.w3.org/2000/svg" viewBox="0 0 256 256"><title>icon</title><path d="M199.688,165.273H56.312a2.5,2.5,0,0,0-2.5,2.5V223a2.5,2.5,0,0,0,2.5,2.5H199.688a2.5,2.5,0,0,0,2.5-2.5V167.773A2.5,2.5,0,0,0,199.688,165.273Zm-2.5,55.227H58.812V170.273H197.188Z" fill="#846f75"/><path d="M116.848,197.459H125.5v8.652a2.5,2.5,0,0,0,5,0v-8.652h8.652a2.5,2.5,0,0,0,0-5H130.5v-8.652a2.5,2.5,0,0,0-5,0v8.652h-8.652a2.5,2.5,0,0,0,0,5Z" fill="#846f75"/><path d="M71.158,113.28a20.506,20.506,0,0,0,15.033,20.693,15.367,15.367,0,0,1,8.863,6.438,20.5,20.5,0,0,0,24.323,7.9,15.394,15.394,0,0,1,10.954,0,20.124,20.124,0,0,0,7.179,1.319,20.509,20.509,0,0,0,17.144-9.221,15.372,15.372,0,0,1,8.863-6.438A20.506,20.506,0,0,0,178.55,113.28a15.355,15.355,0,0,1,3.386-10.417,20.5,20.5,0,0,0,0-25.575,15.356,15.356,0,0,1-3.385-10.417,20.5,20.5,0,0,0-15.033-20.692,15.369,15.369,0,0,1-8.862-6.439,20.5,20.5,0,0,0-24.324-7.9,15.384,15.384,0,0,1-10.954,0,20.5,20.5,0,0,0-24.324,7.9,15.365,15.365,0,0,1-8.862,6.439A20.5,20.5,0,0,0,71.158,66.871a15.362,15.362,0,0,1-3.384,10.417,20.5,20.5,0,0,0,0,25.575A15.361,15.361,0,0,1,71.158,113.28Zm.51-32.855a20.365,20.365,0,0,0,4.484-13.8A15.474,15.474,0,0,1,87.5,51.005a20.361,20.361,0,0,0,11.741-8.53A15.474,15.474,0,0,1,117.6,36.51a20.354,20.354,0,0,0,14.512,0,15.474,15.474,0,0,1,18.358,5.965,20.366,20.366,0,0,0,11.742,8.53,15.474,15.474,0,0,1,11.346,15.616,20.363,20.363,0,0,0,4.485,13.8,15.474,15.474,0,0,1,0,19.3,20.355,20.355,0,0,0-4.486,13.8,15.473,15.473,0,0,1-11.346,15.616,20.37,20.37,0,0,0-11.742,8.531,15.476,15.476,0,0,1-18.358,5.965,20.358,20.358,0,0,0-14.512,0,15.478,15.478,0,0,1-18.359-5.965A20.36,20.36,0,0,0,87.5,129.146,15.473,15.473,0,0,1,76.152,113.53a20.357,20.357,0,0,0-4.485-13.8A15.472,15.472,0,0,1,71.668,80.425Z" fill="#846f75"/><path d="M110.67,120.046a10.389,10.389,0,0,1-6.119-2.025,10.255,10.255,0,0,1-3.78-11.637l1.866-5.747a5.394,5.394,0,0,0-1.964-6.047l-4.888-3.551A10.408,10.408,0,0,1,101.9,72.21h6.042a5.4,5.4,0,0,0,5.144-3.737l1.867-5.746a10.408,10.408,0,0,1,19.8,0l1.867,5.746a5.4,5.4,0,0,0,5.144,3.737h6.042a10.408,10.408,0,0,1,6.118,18.829l-4.888,3.551a5.4,5.4,0,0,0-1.965,6.047l1.867,5.747a10.408,10.408,0,0,1-16.017,11.637l-4.888-3.552a5.4,5.4,0,0,0-6.357,0l-4.889,3.552A10.385,10.385,0,0,1,110.67,120.046ZM101.9,77.21a5.408,5.408,0,0,0-3.178,9.784l4.887,3.551a10.38,10.38,0,0,1,3.781,11.638l-1.866,5.746a5.408,5.408,0,0,0,8.322,6.047l4.888-3.552a10.385,10.385,0,0,1,12.236,0l4.888,3.552a5.409,5.409,0,0,0,8.323-6.047l-1.868-5.747A10.383,10.383,0,0,1,146.1,90.545l4.886-3.551a5.408,5.408,0,0,0-3.178-9.784h-6.042a10.384,10.384,0,0,1-9.9-7.192L130,64.271h0a5.407,5.407,0,0,0-10.286,0l-1.867,5.747a10.384,10.384,0,0,1-9.9,7.192Z" fill="#ed9abc"/></svg>