<svg xmlns="http://www.w3.org/2000/svg" viewBox="0 0 256 256"><title>icon</title><path d="M69.051,164.868A17.07,17.07,0,0,1,52,147.817v-3.472a7.531,7.531,0,0,1,15.061,0v3.472a1.99,1.99,0,1,0,3.98,0V78.487A27.354,27.354,0,0,1,99.678,51.162a27.537,27.537,0,0,1,26.043,26.043,27.126,27.126,0,0,1-6.591,19.127,30.246,30.246,0,0,1,5.218,4.622h0A30.539,30.539,0,0,1,86.1,147.648v.169A17.071,17.071,0,0,1,69.051,164.868ZM59.53,141.815a2.533,2.533,0,0,0-2.53,2.53v3.472a12.051,12.051,0,0,0,24.1,0v-4.975a2.5,2.5,0,0,1,4.1-1.918,25.674,25.674,0,0,0,16.443,5.947,26.087,26.087,0,0,0,2.837-.156,25.547,25.547,0,0,0,16.138-42.425h0A25.5,25.5,0,0,0,113.97,99a2.5,2.5,0,0,1-.482-4.026c.366-.338.729-.683,1.076-1.047a22.19,22.19,0,0,0,6.163-16.49,22.5,22.5,0,0,0-21.28-21.277,22.354,22.354,0,0,0-23.406,22.33v69.33a6.99,6.99,0,1,1-13.98,0v-3.472A2.533,2.533,0,0,0,59.53,141.815Zm42.032,0a20.249,20.249,0,0,1-13.636-5.222A20.518,20.518,0,0,1,81.1,121.329V78.487A17.3,17.3,0,0,1,99.215,61.211,17.4,17.4,0,0,1,115.67,77.667,17.295,17.295,0,0,1,98.4,95.781a2.531,2.531,0,1,0,0,5.061c.618,0,1.265-.029,1.979-.091a2.48,2.48,0,0,1,.709.04,2.558,2.558,0,0,0,.5.051,20.491,20.491,0,0,1,20.355,22.829h0a20.513,20.513,0,0,1-18.013,18.014A21.765,21.765,0,0,1,101.562,141.816ZM98.4,66.193A12.292,12.292,0,0,0,86.1,78.487v42.842a15.488,15.488,0,0,0,30.873,1.792h0a15.495,15.495,0,0,0-15.387-17.279,7.554,7.554,0,0,1-1.111-.083c-.733.056-1.416.083-2.081.083a7.531,7.531,0,1,1,0-15.061A12.294,12.294,0,0,0,110.676,77.9a12.36,12.36,0,0,0-11.691-11.69C98.79,66.2,98.6,66.193,98.4,66.193Z" fill="#ed9abc"/><path d="M178.38,152.176H168.063a2.5,2.5,0,0,1-2.5-2.5V129.134H157.48a2.5,2.5,0,0,1-1.767-4.268l15.741-15.741a2.5,2.5,0,0,1,3.535,0l15.741,15.741a2.5,2.5,0,0,1-1.767,4.268H180.88v20.542A2.5,2.5,0,0,1,178.38,152.176Zm-7.817-5h5.317V126.634a2.5,2.5,0,0,1,2.5-2.5h4.548l-9.706-9.706-9.706,9.706h4.547a2.5,2.5,0,0,1,2.5,2.5Z" fill="#ed9abc"/><path d="M217,31.965H39a7.509,7.509,0,0,0-7.5,7.5V175.6a7.508,7.508,0,0,0,7.5,7.5h68.652a20.1,20.1,0,0,1-5.726,19.815L98.514,206.1H91a9,9,0,0,0,0,18h74a9,9,0,0,0,0-18h-7.514l-3.412-3.185a20.1,20.1,0,0,1-5.726-19.815H217a7.508,7.508,0,0,0,7.5-7.5V39.465A7.509,7.509,0,0,0,217,31.965ZM169,215.1a4,4,0,0,1-4,4H91a4,4,0,0,1,0-8h74A4,4,0,0,1,169,215.1Zm-18.829-9H105.829a25.1,25.1,0,0,0,6.965-23h30.412A25.1,25.1,0,0,0,150.171,206.1ZM219.5,175.6a2.5,2.5,0,0,1-2.5,2.5H39a2.5,2.5,0,0,1-2.5-2.5V39.465a2.5,2.5,0,0,1,2.5-2.5H217a2.5,2.5,0,0,1,2.5,2.5Z" fill="#846f75"/><path d="M173.222,99.506A30.779,30.779,0,1,0,204,130.284,30.813,30.813,0,0,0,173.222,99.506Zm0,56.557A25.779,25.779,0,1,1,199,130.284,25.808,25.808,0,0,1,173.222,156.063Z" fill="#846f75"/></svg>