<svg xmlns="http://www.w3.org/2000/svg" viewBox="0 0 256 256"><title>icon</title><path d="M189.6,95.048a2.5,2.5,0,0,1-2.5-2.5V54.256H157.333a2.5,2.5,0,0,1,0-5H189.6a2.5,2.5,0,0,1,2.5,2.5V92.548A2.5,2.5,0,0,1,189.6,95.048Z" fill="#f9b087"/><path d="M66.4,95.048a2.5,2.5,0,0,1-2.5-2.5V51.756a2.5,2.5,0,0,1,2.5-2.5H98.667a2.5,2.5,0,0,1,0,5H68.9V92.548A2.5,2.5,0,0,1,66.4,95.048Z" fill="#f9b087"/><path d="M98.667,206.744H66.4a2.5,2.5,0,0,1-2.5-2.5V163.452a2.5,2.5,0,0,1,5,0v38.292H98.667a2.5,2.5,0,0,1,0,5Z" fill="#f9b087"/><path d="M189.6,206.744H157.333a2.5,2.5,0,0,1,0-5H187.1V163.452a2.5,2.5,0,0,1,5,0v40.792A2.5,2.5,0,0,1,189.6,206.744Z" fill="#f9b087"/><path d="M224,90.048H32a2.5,2.5,0,0,0-2.5,2.5v70.9a2.5,2.5,0,0,0,2.5,2.5H224a2.5,2.5,0,0,0,2.5-2.5v-70.9A2.5,2.5,0,0,0,224,90.048Zm-2.5,70.9H34.5v-65.9h187Z" fill="#846f75"/><path d="M100.083,59.9l5.089,1.312L102.5,65.74a5.222,5.222,0,0,0,.808,6.343l4.365,4.365a5.22,5.22,0,0,0,6.346.807l4.525-2.671,1.312,5.092a5.225,5.225,0,0,0,5.057,3.914h6.174a5.225,5.225,0,0,0,5.057-3.917l1.312-5.089,4.528,2.673a5.224,5.224,0,0,0,6.343-.808l4.366-4.366a5.225,5.225,0,0,0,.806-6.346l-2.672-4.525,5.092-1.312a5.223,5.223,0,0,0,3.914-5.057V48.669a5.223,5.223,0,0,0-3.914-5.056h0l-5.09-1.311,2.673-4.528a5.222,5.222,0,0,0-.808-6.343l-4.366-4.367a5.224,5.224,0,0,0-6.345-.8l-4.525,2.671-1.312-5.092a5.225,5.225,0,0,0-5.057-3.914h-6.174a5.224,5.224,0,0,0-5.057,3.917l-1.312,5.089-4.527-2.673a5.222,5.222,0,0,0-6.343.807l-4.367,4.367a5.223,5.223,0,0,0-.806,6.344l2.671,4.527-5.091,1.312a5.223,5.223,0,0,0-3.914,5.056v6.174A5.223,5.223,0,0,0,100.083,59.9Zm1.084-11.231a.222.222,0,0,1,.164-.215l8.308-2.141a2.5,2.5,0,0,0,1.528-3.691l-4.358-7.387a.221.221,0,0,1,.034-.27l4.366-4.366a.222.222,0,0,1,.268-.036l7.388,4.361a2.5,2.5,0,0,0,3.692-1.529l2.14-8.305a.224.224,0,0,1,.216-.167h6.174a.223.223,0,0,1,.215.164l2.141,8.308a2.5,2.5,0,0,0,3.692,1.529l7.386-4.359a.225.225,0,0,1,.271.034l4.365,4.365a.223.223,0,0,1,.036.269l-4.361,7.388a2.5,2.5,0,0,0,1.529,3.692l8.306,2.141a.222.222,0,0,1,.166.215v6.174a.222.222,0,0,1-.164.216l-8.308,2.14a2.5,2.5,0,0,0-1.529,3.692l4.359,7.386a.222.222,0,0,1-.034.271l-4.365,4.365a.225.225,0,0,1-.269.037l-7.388-4.362a2.5,2.5,0,0,0-3.692,1.53l-2.14,8.305a.224.224,0,0,1-.216.167h-6.174a.222.222,0,0,1-.215-.164l-2.141-8.308a2.5,2.5,0,0,0-3.692-1.53l-7.385,4.36a.221.221,0,0,1-.271-.035l-4.366-4.365a.223.223,0,0,1-.036-.269l4.36-7.388a2.5,2.5,0,0,0-1.528-3.692l-8.306-2.14a.222.222,0,0,1-.166-.216Z" fill="#846f75"/><path d="M128,63.721a11.965,11.965,0,1,0-11.964-11.965A11.978,11.978,0,0,0,128,63.721Zm0-18.929a6.965,6.965,0,1,1-6.964,6.964A6.972,6.972,0,0,1,128,44.792Z" fill="#846f75"/><path d="M155.773,178.942H100.227a4.064,4.064,0,0,0-4.06,4.06v42.483a4.064,4.064,0,0,0,4.06,4.06h55.546a4.064,4.064,0,0,0,4.06-4.06V183A4.064,4.064,0,0,0,155.773,178.942Zm-.94,45.6H101.167v-40.6h53.666Z" fill="#846f75"/><path d="M124.224,213.319a2.5,2.5,0,0,0,3.269-1.348l5.631-13.534a2.5,2.5,0,0,0-4.617-1.921l-5.631,13.534A2.5,2.5,0,0,0,124.224,213.319Z" fill="#846f75"/><path d="M137.449,212.733a2.5,2.5,0,0,0,3.535,0l6.722-6.722a2.5,2.5,0,0,0,0-3.535l-6.722-6.722a2.5,2.5,0,1,0-3.535,3.536l4.954,4.954-4.954,4.954A2.5,2.5,0,0,0,137.449,212.733Z" fill="#846f75"/><path d="M115.016,212.733a2.5,2.5,0,1,0,3.535-3.535l-4.954-4.954,4.954-4.954a2.5,2.5,0,0,0-3.535-3.536l-6.722,6.722a2.5,2.5,0,0,0,0,3.535Z" fill="#846f75"/><path d="M168.569,113.906a12.447,12.447,0,0,0-8.506-2.793H149.324a1.127,1.127,0,0,0-1.125,1.125v31.524a1.127,1.127,0,0,0,1.125,1.125h2.663a1.127,1.127,0,0,0,1.125-1.125V132.049H160c3.729,0,6.649-.907,8.678-2.7a10.986,10.986,0,0,0-.107-15.447Zm-3.351,12.088a7.5,7.5,0,0,1-5.155,1.552h-6.951V115.615h7.106a7,7,0,0,1,4.987,1.67,5.763,5.763,0,0,1,1.679,4.4A5.463,5.463,0,0,1,165.218,125.994Z" fill="#f9b087"/><path d="M135.968,144.887h2.685a1.127,1.127,0,0,0,1.125-1.125V112.238a1.127,1.127,0,0,0-1.125-1.125h-2.685a1.127,1.127,0,0,0-1.125,1.125v13.035H119.08V112.238a1.127,1.127,0,0,0-1.125-1.125h-2.663a1.126,1.126,0,0,0-1.125,1.125v31.524a1.126,1.126,0,0,0,1.125,1.125h2.663a1.127,1.127,0,0,0,1.125-1.125V129.775h15.763v13.987A1.127,1.127,0,0,0,135.968,144.887Z" fill="#f9b087"/><path d="M104.573,113.906a12.447,12.447,0,0,0-8.506-2.793H85.329a1.126,1.126,0,0,0-1.125,1.125v31.524a1.126,1.126,0,0,0,1.125,1.125h2.662a1.127,1.127,0,0,0,1.125-1.125V132.049H96c3.73,0,6.65-.907,8.679-2.7a10.984,10.984,0,0,0-.107-15.447Zm-3.351,12.088a7.494,7.494,0,0,1-5.155,1.552H89.116V115.615h7.107a7,7,0,0,1,4.987,1.67,5.768,5.768,0,0,1,1.678,4.4A5.46,5.46,0,0,1,101.222,125.994Z" fill="#f9b087"/></svg>