<svg xmlns="http://www.w3.org/2000/svg" viewBox="0 0 256 256"><title>icon</title><path d="M225,130.5a2.5,2.5,0,0,0,0-5H198.624V94.7H225a2.5,2.5,0,0,0,0-5H198.624V70.536a13.175,13.175,0,0,0-13.16-13.16H166.3V31a2.5,2.5,0,0,0-5,0V57.376H130.5V31a2.5,2.5,0,0,0-5,0V57.376H94.7V31a2.5,2.5,0,0,0-5,0V57.376H70.536a13.175,13.175,0,0,0-13.16,13.16V89.7H31a2.5,2.5,0,0,0,0,5H57.376v30.8H31a2.5,2.5,0,0,0,0,5H57.376v30.8H31a2.5,2.5,0,0,0,0,5H57.376v19.167a13.175,13.175,0,0,0,13.16,13.16H89.7V225a2.5,2.5,0,0,0,5,0V198.624h30.8V225a2.5,2.5,0,0,0,5,0V198.624h30.8V225a2.5,2.5,0,0,0,5,0V198.624h19.167a13.175,13.175,0,0,0,13.16-13.16V166.3H225a2.5,2.5,0,0,0,0-5H198.624V130.5Zm-31.376,54.964a8.169,8.169,0,0,1-8.16,8.16H70.536a8.169,8.169,0,0,1-8.16-8.16V70.536a8.169,8.169,0,0,1,8.16-8.16H185.464a8.169,8.169,0,0,1,8.16,8.16Z" fill="#846f75"/><path d="M179,74.5H77A2.5,2.5,0,0,0,74.5,77V179a2.5,2.5,0,0,0,2.5,2.5H179a2.5,2.5,0,0,0,2.5-2.5V77A2.5,2.5,0,0,0,179,74.5Zm-2.5,102h-97v-97h97Z" fill="#846f75"/><path d="M150.333,99.573a2.5,2.5,0,0,0-2.5,2.5v21.585L106.922,99.911a2.5,2.5,0,0,0-3.755,2.162v51.854a2.5,2.5,0,0,0,3.755,2.162l40.911-23.747v21.585a2.5,2.5,0,0,0,5,0V102.073A2.5,2.5,0,0,0,150.333,99.573Zm-42.166,50.012v-43.17L145.354,128Z" fill="#65c1d6"/></svg>