<svg xmlns="http://www.w3.org/2000/svg" viewBox="0 0 256 256"><title>icon</title><path d="M225,130.5a2.5,2.5,0,0,0,0-5H198.624V94.7H225a2.5,2.5,0,0,0,0-5H198.624V70.536a13.175,13.175,0,0,0-13.16-13.16H166.3V31a2.5,2.5,0,0,0-5,0V57.376H130.5V31a2.5,2.5,0,0,0-5,0V57.376H94.7V31a2.5,2.5,0,0,0-5,0V57.376H70.536a13.175,13.175,0,0,0-13.16,13.16V89.7H31a2.5,2.5,0,0,0,0,5H57.376v30.8H31a2.5,2.5,0,0,0,0,5H57.376v30.8H31a2.5,2.5,0,0,0,0,5H57.376v19.167a13.175,13.175,0,0,0,13.16,13.16H89.7V225a2.5,2.5,0,0,0,5,0V198.624h30.8V225a2.5,2.5,0,0,0,5,0V198.624h30.8V225a2.5,2.5,0,0,0,5,0V198.624h19.167a13.175,13.175,0,0,0,13.16-13.16V166.3H225a2.5,2.5,0,0,0,0-5H198.624V130.5Zm-31.376,54.964a8.169,8.169,0,0,1-8.16,8.16H70.536a8.17,8.17,0,0,1-8.16-8.16V70.536a8.17,8.17,0,0,1,8.16-8.16H185.464a8.169,8.169,0,0,1,8.16,8.16Z" fill="#846f75"/><path d="M179,74.5H77A2.5,2.5,0,0,0,74.5,77V179a2.5,2.5,0,0,0,2.5,2.5H179a2.5,2.5,0,0,0,2.5-2.5V77A2.5,2.5,0,0,0,179,74.5Zm-2.5,102h-97v-97h97Z" fill="#846f75"/><path d="M131.6,164.7h-7.2a5.674,5.674,0,0,1-5.493-4.251l-1.667-6.47-5.751,3.394a5.673,5.673,0,0,1-6.893-.876L99.508,151.4a5.676,5.676,0,0,1-.879-6.891l3.4-5.753-6.465-1.666a5.676,5.676,0,0,1-4.255-5.494v-7.2a5.674,5.674,0,0,1,4.251-5.493l6.47-1.667-3.395-5.751a5.675,5.675,0,0,1,.877-6.893l5.089-5.09a5.674,5.674,0,0,1,6.891-.877l5.753,3.4,1.666-6.467a5.676,5.676,0,0,1,5.494-4.254h7.2a5.673,5.673,0,0,1,5.493,4.252l1.667,6.469,5.751-3.395a5.672,5.672,0,0,1,6.893.876l5.089,5.09a5.673,5.673,0,0,1,.878,6.89l-3.4,5.754,6.465,1.666h0A5.673,5.673,0,0,1,164.7,124.4v7.2a5.674,5.674,0,0,1-4.252,5.493l-6.468,1.667,3.394,5.75a5.677,5.677,0,0,1-.877,6.894l-5.09,5.09a5.672,5.672,0,0,1-6.89.877l-5.753-3.4-1.666,6.466A5.674,5.674,0,0,1,131.6,164.7Zm-12.766-17.063a2.5,2.5,0,0,1,2.42,1.876l2.5,9.685a.674.674,0,0,0,.652.5h7.2a.674.674,0,0,0,.653-.5l2.494-9.682a2.5,2.5,0,0,1,3.691-1.529l8.614,5.084a.671.671,0,0,0,.815-.106l5.091-5.09a.676.676,0,0,0,.1-.82l-5.082-8.609a2.5,2.5,0,0,1,1.529-3.692l9.684-2.5a.674.674,0,0,0,.5-.652v-7.2a.674.674,0,0,0-.5-.652l-9.684-2.5a2.5,2.5,0,0,1-1.529-3.692l5.083-8.613a.671.671,0,0,0-.105-.815l-5.09-5.091a.673.673,0,0,0-.818-.1l-8.612,5.083a2.5,2.5,0,0,1-3.691-1.529l-2.5-9.685a.673.673,0,0,0-.652-.5h-7.2a.675.675,0,0,0-.653.5l-2.5,9.682a2.5,2.5,0,0,1-3.691,1.529l-8.613-5.084a.674.674,0,0,0-.817.105l-5.089,5.09a.677.677,0,0,0-.105.819l5.083,8.61a2.5,2.5,0,0,1-1.529,3.692l-9.685,2.5a.673.673,0,0,0-.5.652v7.2a.675.675,0,0,0,.5.653l9.682,2.494a2.5,2.5,0,0,1,1.529,3.692l-5.084,8.613a.676.676,0,0,0,.106.817l5.089,5.089a.676.676,0,0,0,.819.1l8.611-5.082A2.5,2.5,0,0,1,118.833,147.632Z" fill="#f9b087"/><path d="M128,141.533A13.533,13.533,0,1,1,141.533,128,13.548,13.548,0,0,1,128,141.533Zm0-22.066A8.533,8.533,0,1,0,136.533,128,8.543,8.543,0,0,0,128,119.467Z" fill="#f9b087"/></svg>