<svg xmlns="http://www.w3.org/2000/svg" viewBox="0 0 256 256"><title>icon</title><path d="M60.061,198.5a2.5,2.5,0,0,1-2.424-3.12L73.57,133.142a2.5,2.5,0,1,1,4.844,1.24L62.48,196.62A2.5,2.5,0,0,1,60.061,198.5Z" fill="#ebe7f2"/><path d="M149.853,143.575a2.5,2.5,0,0,1-2.42-1.88l-1.872-7.313a2.5,2.5,0,1,1,4.843-1.24l1.872,7.313a2.5,2.5,0,0,1-2.423,3.12Z" fill="#ebe7f2"/><path d="M218.592,224.5h-95.5a2.5,2.5,0,0,1-2.5-2.5V141.075a2.5,2.5,0,0,1,2.5-2.5h95.5a2.5,2.5,0,0,1,2.5,2.5V222A2.5,2.5,0,0,1,218.592,224.5Zm-93-5h90.5V143.575h-90.5Z" fill="#a58bc9"/><path d="M165.358,112l5.1,19.941a2.5,2.5,0,0,0,4.844-1.24l-5.1-19.942a20.007,20.007,0,0,0-19.39-15.051H136.937a36.8,36.8,0,0,0,11.91-29.831,37.2,37.2,0,0,0-35.812-34.359A36.947,36.947,0,0,0,75.04,68.447,37.1,37.1,0,0,0,87.068,95.705h-13.9a20.007,20.007,0,0,0-19.39,15.051L35.3,182.9a12.5,12.5,0,0,0,12.11,15.6h66.263a2.5,2.5,0,0,0,0-5H47.413a7.5,7.5,0,0,1-7.266-9.36L58.617,112a15.006,15.006,0,0,1,14.546-11.292H94.644a2.5,2.5,0,0,0,1.26-4.659,32.084,32.084,0,0,1-15.864-27.6A31.946,31.946,0,0,1,112.9,36.513a32.162,32.162,0,0,1,30.962,29.7A31.841,31.841,0,0,1,128.07,96.046a2.5,2.5,0,0,0,1.261,4.659h21.481A15.007,15.007,0,0,1,165.358,112Z" fill="#846f75"/><path d="M201.049,174.068h0l-5.164-1.331,2.712-4.594a5.247,5.247,0,0,0-.811-6.372l-4.406-4.406a5.248,5.248,0,0,0-6.374-.809l-4.592,2.71L181.08,154.1a5.248,5.248,0,0,0-5.08-3.931h-6.229a5.248,5.248,0,0,0-5.081,3.935l-1.331,5.163-4.594-2.712a5.247,5.247,0,0,0-6.372.811l-4.406,4.406a5.249,5.249,0,0,0-.809,6.375l2.71,4.591-5.167,1.332a5.246,5.246,0,0,0-3.931,5.079v6.23a5.249,5.249,0,0,0,3.935,5.081l5.163,1.33-2.712,4.594a5.249,5.249,0,0,0,.812,6.373l4.405,4.405a5.248,5.248,0,0,0,6.375.81l4.591-2.711,1.332,5.167a5.248,5.248,0,0,0,5.08,3.932H176a5.25,5.25,0,0,0,5.081-3.935l1.33-5.164,4.595,2.712a5.246,5.246,0,0,0,6.372-.811l4.405-4.406a5.249,5.249,0,0,0,.81-6.375l-2.711-4.591,5.167-1.331a5.248,5.248,0,0,0,3.932-5.08v-6.23A5.246,5.246,0,0,0,201.049,174.068Zm-1.068,11.309a.247.247,0,0,1-.182.239l-8.382,2.159a2.5,2.5,0,0,0-1.53,3.692l4.4,7.451a.249.249,0,0,1-.037.3l-4.405,4.4a.247.247,0,0,1-.3.04l-7.454-4.4a2.5,2.5,0,0,0-3.692,1.529l-2.158,8.379a.248.248,0,0,1-.24.186h-6.229a.246.246,0,0,1-.239-.182l-2.16-8.383a2.5,2.5,0,0,0-3.692-1.529l-7.451,4.4a.248.248,0,0,1-.3-.039l-4.405-4.4a.249.249,0,0,1-.04-.3l4.4-7.454a2.5,2.5,0,0,0-1.529-3.692l-8.379-2.158a.248.248,0,0,1-.185-.24v-6.23a.246.246,0,0,1,.182-.238l8.382-2.16a2.5,2.5,0,0,0,1.529-3.692l-4.4-7.452a.248.248,0,0,1,.038-.3l4.405-4.405a.249.249,0,0,1,.3-.04l7.454,4.4a2.5,2.5,0,0,0,3.692-1.529l2.159-8.379a.247.247,0,0,1,.24-.185H176a.247.247,0,0,1,.239.182l2.159,8.382a2.5,2.5,0,0,0,3.692,1.529l7.452-4.4a.247.247,0,0,1,.3.038l4.4,4.4a.247.247,0,0,1,.04.3l-4.4,7.454a2.5,2.5,0,0,0,1.529,3.692l8.381,2.159a.248.248,0,0,1,.184.239Z" fill="#846f75"/><path d="M172.885,170.213a12.049,12.049,0,1,0,12.049,12.049A12.064,12.064,0,0,0,172.885,170.213Zm0,19.1a7.049,7.049,0,1,1,7.049-7.049A7.057,7.057,0,0,1,172.885,189.311Z" fill="#846f75"/></svg>