<svg xmlns="http://www.w3.org/2000/svg" viewBox="0 0 256 256"><title>icon</title><path d="M60.061,198.5a2.5,2.5,0,0,1-2.424-3.12L73.57,133.142a2.5,2.5,0,1,1,4.844,1.24L62.48,196.62A2.5,2.5,0,0,1,60.061,198.5Z" fill="#ebe7f2"/><path d="M149.853,143.575a2.5,2.5,0,0,1-2.42-1.88l-1.872-7.313a2.5,2.5,0,1,1,4.843-1.24l1.872,7.313a2.5,2.5,0,0,1-2.423,3.12Z" fill="#ebe7f2"/><path d="M113.676,198.5H47.413A12.5,12.5,0,0,1,35.3,182.9l18.469-72.144A20.008,20.008,0,0,1,73.163,95.705h13.9A37.1,37.1,0,0,1,75.04,68.447a36.947,36.947,0,0,1,37.995-36.932,37.2,37.2,0,0,1,35.812,34.359,36.8,36.8,0,0,1-11.909,29.831h13.874a20.006,20.006,0,0,1,19.39,15.051l5.106,19.942a2.5,2.5,0,0,1-4.844,1.24L165.358,112a15.007,15.007,0,0,0-14.546-11.292H129.331a2.5,2.5,0,0,1-1.261-4.659,31.84,31.84,0,0,0,15.788-29.834,32.162,32.162,0,0,0-30.962-29.7A31.946,31.946,0,0,0,80.04,68.447,32.084,32.084,0,0,0,95.9,96.046a2.5,2.5,0,0,1-1.26,4.659H73.163A15.008,15.008,0,0,0,58.616,112L40.146,184.14a7.5,7.5,0,0,0,7.267,9.36h66.263a2.5,2.5,0,0,1,0,5Z" fill="#846f75"/><path d="M218.593,224.5h-95.5a2.5,2.5,0,0,1-2.5-2.5V141.075a2.5,2.5,0,0,1,2.5-2.5h95.5a2.5,2.5,0,0,1,2.5,2.5V222A2.5,2.5,0,0,1,218.593,224.5Zm-93-5h90.5V143.575h-90.5Z" fill="#65c1d6"/><path d="M177.344,207a2.5,2.5,0,0,1-2.5-2.5v-1.45a29.39,29.39,0,0,1,5.071-16.98,11.065,11.065,0,1,0-20.066-7.589,11.1,11.1,0,0,0,1.97,7.658,27.09,27.09,0,0,1,5.023,15.789V204.5a2.5,2.5,0,0,1-5,0v-2.572a22.117,22.117,0,0,0-4.1-12.89,16.063,16.063,0,1,1,26.266-.1,24.426,24.426,0,0,0-4.167,14.113v1.45A2.5,2.5,0,0,1,177.344,207Z" fill="#846f75"/><path d="M178.127,197.063H163.558a2.5,2.5,0,0,1,0-5h14.569a2.5,2.5,0,0,1,0,5Z" fill="#846f75"/><path d="M177.344,211.563h-13a2.5,2.5,0,0,1-2.5-2.5V204.5a2.5,2.5,0,0,1,5,0v2.063h8V204.5a2.5,2.5,0,0,1,5,0v4.563A2.5,2.5,0,0,1,177.344,211.563Z" fill="#846f75"/><path d="M170.843,159.111a2.5,2.5,0,0,1-2.5-2.5v-5.162a2.5,2.5,0,0,1,5,0v5.162A2.5,2.5,0,0,1,170.843,159.111Z" fill="#65c1d6"/><path d="M198.185,181.291h-5.162a2.5,2.5,0,1,1,0-5h5.162a2.5,2.5,0,0,1,0,5Z" fill="#65c1d6"/><path d="M148.662,181.291H143.5a2.5,2.5,0,0,1,0-5h5.162a2.5,2.5,0,0,1,0,5Z" fill="#65c1d6"/><path d="M186.526,165.607a2.5,2.5,0,0,1-1.767-4.268l3.65-3.65a2.5,2.5,0,0,1,3.535,3.537l-3.65,3.649A2.493,2.493,0,0,1,186.526,165.607Z" fill="#65c1d6"/><path d="M151.509,200.625a2.5,2.5,0,0,1-1.768-4.268l3.65-3.649a2.5,2.5,0,1,1,3.535,3.535l-3.65,3.65A2.492,2.492,0,0,1,151.509,200.625Z" fill="#65c1d6"/><path d="M190.177,200.625a2.493,2.493,0,0,1-1.768-.732l-3.65-3.65a2.5,2.5,0,0,1,3.535-3.536l3.65,3.65a2.5,2.5,0,0,1-1.767,4.268Z" fill="#65c1d6"/><path d="M155.158,165.607a2.492,2.492,0,0,1-1.767-.732l-3.65-3.65a2.5,2.5,0,0,1,3.535-3.535l3.65,3.649a2.5,2.5,0,0,1-1.768,4.268Z" fill="#65c1d6"/><path d="M169.265,186.642a2.5,2.5,0,0,1-1.768-.732l-3.643-3.642a2.5,2.5,0,0,1,3.536-3.536l1.875,1.874,5.311-5.311a2.5,2.5,0,1,1,3.535,3.535l-7.079,7.079A2.493,2.493,0,0,1,169.265,186.642Z" fill="#65c1d6"/></svg>