<svg xmlns="http://www.w3.org/2000/svg" viewBox="0 0 256 256"><title>icon</title><path d="M78.013,60.437h-28a2.5,2.5,0,0,1,0-5h28a2.5,2.5,0,0,1,0,5Z" fill="#ed9abc"/><path d="M205.985,60.437H189.869a2.5,2.5,0,0,1,0-5h16.116a2.5,2.5,0,0,1,0,5Z" fill="#ed9abc"/><path d="M69.94,118.309a2.493,2.493,0,0,1-1.767-.733l-5.712-5.711A2.5,2.5,0,1,1,66,108.33l3.943,3.943,8.066-8.065a2.5,2.5,0,0,1,3.536,3.535l-9.834,9.833A2.494,2.494,0,0,1,69.94,118.309Z" fill="#ed9abc"/><path d="M190.309,105.645H148.492a2.5,2.5,0,0,1,0-5h41.817a2.5,2.5,0,0,1,0,5Z" fill="#ed9abc"/><path d="M136.177,105.645H112.522a2.5,2.5,0,0,1,0-5h23.655a2.5,2.5,0,0,1,0,5Z" fill="#ed9abc"/><path d="M196.927,118.932H176.814a2.5,2.5,0,0,1,0-5h20.113a2.5,2.5,0,0,1,0,5Z" fill="#ed9abc"/><path d="M164.5,118.932H112.522a2.5,2.5,0,0,1,0-5H164.5a2.5,2.5,0,0,1,0,5Z" fill="#ed9abc"/><path d="M220.053,44.1H35.947a2.5,2.5,0,0,0-2.5,2.5V209.4a2.5,2.5,0,0,0,2.5,2.5H220.053a2.5,2.5,0,0,0,2.5-2.5V46.6A2.5,2.5,0,0,0,220.053,44.1Zm-2.5,5V65.572H38.447V49.1ZM38.447,206.9V70.572H217.553V206.9Z" fill="#846f75"/><path d="M89.005,90.24H54.91a2.5,2.5,0,0,0-2.5,2.5v34.1a2.5,2.5,0,0,0,2.5,2.5h34.1a2.5,2.5,0,0,0,2.5-2.5V92.74A2.5,2.5,0,0,0,89.005,90.24Zm-2.5,34.1H57.41V95.24h29.1Z" fill="#846f75"/><path d="M89.005,147.079H54.91a2.5,2.5,0,0,0-2.5,2.5v34.1a2.5,2.5,0,0,0,2.5,2.5h34.1a2.5,2.5,0,0,0,2.5-2.5v-34.1A2.5,2.5,0,0,0,89.005,147.079Zm-2.5,34.1H57.41v-29.1h29.1Z" fill="#846f75"/><path d="M190.309,162.483H148.492a2.5,2.5,0,0,1,0-5h41.817a2.5,2.5,0,1,1,0,5Z" fill="#ed9abc"/><path d="M136.177,162.483H112.522a2.5,2.5,0,1,1,0-5h23.655a2.5,2.5,0,0,1,0,5Z" fill="#ed9abc"/><path d="M196.927,175.771H176.814a2.5,2.5,0,0,1,0-5h20.113a2.5,2.5,0,0,1,0,5Z" fill="#ed9abc"/><path d="M164.5,175.771H112.522a2.5,2.5,0,0,1,0-5H164.5a2.5,2.5,0,0,1,0,5Z" fill="#ed9abc"/><path d="M71.958,170.931a2.5,2.5,0,0,1-2.5-2.5V157.938a2.5,2.5,0,0,1,5,0v10.493A2.5,2.5,0,0,1,71.958,170.931Z" fill="#ed9abc"/><path d="M71.958,178.734a2.5,2.5,0,0,1-2.5-2.5v-.623a2.5,2.5,0,0,1,5,0v.623A2.5,2.5,0,0,1,71.958,178.734Z" fill="#ed9abc"/></svg>