<svg xmlns="http://www.w3.org/2000/svg" viewBox="0 0 256 256"><title>icon</title><path d="M158.935,210.808a2.5,2.5,0,0,1-2.5-2.5V191.037a2.5,2.5,0,1,1,5,0v17.271A2.5,2.5,0,0,1,158.935,210.808Z" fill="#ebe7f2"/><path d="M189.869,210.808a2.5,2.5,0,0,1-2.5-2.5V191.037a2.5,2.5,0,0,1,5,0v17.271A2.5,2.5,0,0,1,189.869,210.808Z" fill="#ebe7f2"/><path d="M97.065,210.808a2.5,2.5,0,0,1-2.5-2.5V191.037a2.5,2.5,0,1,1,5,0v17.271A2.5,2.5,0,0,1,97.065,210.808Z" fill="#ebe7f2"/><path d="M189.869,169.823a2.5,2.5,0,0,1-2.5-2.5V121.836a2.5,2.5,0,1,1,5,0v45.487A2.5,2.5,0,0,1,189.869,169.823Z" fill="#ebe7f2"/><path d="M158.935,169.823a2.5,2.5,0,0,1-2.5-2.5V156.437a2.5,2.5,0,0,1,5,0v10.886A2.5,2.5,0,0,1,158.935,169.823Z" fill="#ebe7f2"/><path d="M97.065,169.823a2.5,2.5,0,0,1-2.5-2.5V156.437a2.5,2.5,0,0,1,5,0v10.886A2.5,2.5,0,0,1,97.065,169.823Z" fill="#ebe7f2"/><path d="M97.065,135.223a2.5,2.5,0,0,1-2.5-2.5V121.836a2.5,2.5,0,0,1,5,0v10.887A2.5,2.5,0,0,1,97.065,135.223Z" fill="#ebe7f2"/><path d="M66.131,211.9a2.5,2.5,0,0,1-2.5-2.5V121.836a2.5,2.5,0,1,1,5,0V209.4A2.5,2.5,0,0,1,66.131,211.9Z" fill="#ebe7f2"/><path d="M66.131,100.622a2.5,2.5,0,0,1-2.5-2.5V68.072a2.5,2.5,0,0,1,5,0v30.05A2.5,2.5,0,0,1,66.131,100.622Z" fill="#ebe7f2"/><path d="M97.065,100.622a2.5,2.5,0,0,1-2.5-2.5V68.072a2.5,2.5,0,0,1,5,0v30.05A2.5,2.5,0,0,1,97.065,100.622Z" fill="#ebe7f2"/><path d="M128,100.622a2.5,2.5,0,0,1-2.5-2.5V68.072a2.5,2.5,0,0,1,5,0v30.05A2.5,2.5,0,0,1,128,100.622Z" fill="#ebe7f2"/><path d="M158.935,135.223a2.5,2.5,0,0,1-2.5-2.5V68.072a2.5,2.5,0,0,1,5,0v64.651A2.5,2.5,0,0,1,158.935,135.223Z" fill="#ebe7f2"/><path d="M189.869,100.622a2.5,2.5,0,0,1-2.5-2.5V68.072a2.5,2.5,0,0,1,5,0v30.05A2.5,2.5,0,0,1,189.869,100.622Z" fill="#ebe7f2"/><path d="M163.3,158.937H92.7a2.5,2.5,0,0,1-2.5-2.5V132.723a2.5,2.5,0,0,1,2.5-2.5h70.6a2.5,2.5,0,0,1,2.5,2.5v23.714A2.5,2.5,0,0,1,163.3,158.937Zm-68.1-5h65.6V135.223H95.2Z" fill="#a58bc9"/><path d="M78.013,60.437h-28a2.5,2.5,0,0,1,0-5h28a2.5,2.5,0,0,1,0,5Z" fill="#a58bc9"/><path d="M205.985,60.437H189.869a2.5,2.5,0,0,1,0-5h16.116a2.5,2.5,0,0,1,0,5Z" fill="#a58bc9"/><path d="M130.5,121.836V98.122a2.5,2.5,0,0,0-2.5-2.5H50.015a2.5,2.5,0,0,0-2.5,2.5v23.714a2.5,2.5,0,0,0,2.5,2.5H128A2.5,2.5,0,0,0,130.5,121.836Zm-5-2.5H52.515V100.622H125.5Z" fill="#846f75"/><path d="M205.985,95.622H178.074a2.5,2.5,0,0,0-2.5,2.5v23.714a2.5,2.5,0,0,0,2.5,2.5h27.911a2.5,2.5,0,0,0,2.5-2.5V98.122A2.5,2.5,0,0,0,205.985,95.622Zm-2.5,23.714H180.574V100.622h22.911Z" fill="#846f75"/><path d="M192.029,164.823H92.7a2.5,2.5,0,0,0-2.5,2.5v23.714a2.5,2.5,0,0,0,2.5,2.5h99.328a2.5,2.5,0,0,0,2.5-2.5V167.323A2.5,2.5,0,0,0,192.029,164.823Zm-2.5,23.714H95.2V169.823h94.328Z" fill="#846f75"/><path d="M220.053,44.1H35.947a2.5,2.5,0,0,0-2.5,2.5V209.4a2.5,2.5,0,0,0,2.5,2.5H220.053a2.5,2.5,0,0,0,2.5-2.5V46.6A2.5,2.5,0,0,0,220.053,44.1Zm-2.5,5V65.572H38.447V49.1ZM38.447,206.9V70.572H217.553V206.9Z" fill="#846f75"/></svg>