<svg xmlns="http://www.w3.org/2000/svg" viewBox="0 0 256 256"><title>icon</title><path d="M189.6,95.048a2.5,2.5,0,0,1-2.5-2.5V54.256H157.333a2.5,2.5,0,0,1,0-5H189.6a2.5,2.5,0,0,1,2.5,2.5V92.548A2.5,2.5,0,0,1,189.6,95.048Z" fill="#a58bc9"/><path d="M66.4,95.048a2.5,2.5,0,0,1-2.5-2.5V51.756a2.5,2.5,0,0,1,2.5-2.5H98.667a2.5,2.5,0,0,1,0,5H68.9V92.548A2.5,2.5,0,0,1,66.4,95.048Z" fill="#a58bc9"/><path d="M98.667,206.744H66.4a2.5,2.5,0,0,1-2.5-2.5V163.452a2.5,2.5,0,0,1,5,0v38.292H98.667a2.5,2.5,0,0,1,0,5Z" fill="#a58bc9"/><path d="M189.6,206.744H157.333a2.5,2.5,0,0,1,0-5H187.1V163.452a2.5,2.5,0,0,1,2.5-2.5h0a2.5,2.5,0,0,1,2.5,2.5v40.792A2.5,2.5,0,0,1,189.6,206.744Z" fill="#a58bc9"/><path d="M224,90.048H32a2.5,2.5,0,0,0-2.5,2.5v70.9a2.5,2.5,0,0,0,2.5,2.5H224a2.5,2.5,0,0,0,2.5-2.5v-70.9A2.5,2.5,0,0,0,224,90.048Zm-2.5,70.9H34.5v-65.9h187Z" fill="#846f75"/><path d="M100.083,59.9l5.089,1.312L102.5,65.74a5.222,5.222,0,0,0,.808,6.343l4.365,4.365a5.22,5.22,0,0,0,6.346.807l4.525-2.671,1.312,5.092a5.225,5.225,0,0,0,5.057,3.914h6.174a5.226,5.226,0,0,0,5.058-3.917l1.311-5.089,4.527,2.673a5.22,5.22,0,0,0,6.343-.808l4.366-4.366a5.222,5.222,0,0,0,.807-6.345l-2.672-4.526L155.92,59.9a5.223,5.223,0,0,0,3.913-5.057V48.669a5.222,5.222,0,0,0-3.913-5.056h0l-5.09-1.311,2.673-4.528a5.223,5.223,0,0,0-.808-6.344l-4.365-4.365a5.221,5.221,0,0,0-6.346-.806l-4.525,2.671-1.312-5.093a5.225,5.225,0,0,0-5.057-3.913h-6.174a5.224,5.224,0,0,0-5.057,3.917l-1.312,5.089-4.527-2.673a5.222,5.222,0,0,0-6.343.807l-4.367,4.367a5.223,5.223,0,0,0-.806,6.344l2.671,4.527-5.091,1.312a5.223,5.223,0,0,0-3.914,5.056v6.174A5.223,5.223,0,0,0,100.083,59.9Zm1.084-11.231a.222.222,0,0,1,.164-.215l8.308-2.141a2.5,2.5,0,0,0,1.528-3.691l-4.358-7.387a.221.221,0,0,1,.034-.27l4.366-4.366a.222.222,0,0,1,.268-.036l7.388,4.361a2.5,2.5,0,0,0,3.692-1.529l2.14-8.305a.224.224,0,0,1,.216-.167h6.174a.224.224,0,0,1,.216.164l2.14,8.308a2.5,2.5,0,0,0,3.692,1.529l7.386-4.359a.219.219,0,0,1,.27.035l4.366,4.365a.22.22,0,0,1,.035.268l-4.36,7.389a2.5,2.5,0,0,0,1.529,3.691l8.305,2.141a.221.221,0,0,1,.167.215v6.174a.222.222,0,0,1-.164.216l-8.308,2.14a2.5,2.5,0,0,0-1.529,3.692l4.359,7.386a.221.221,0,0,1-.034.27l-4.367,4.367a.221.221,0,0,1-.268.036l-7.387-4.362a2.5,2.5,0,0,0-3.692,1.53l-2.139,8.3a.225.225,0,0,1-.217.168h-6.174a.222.222,0,0,1-.215-.164l-2.141-8.308a2.5,2.5,0,0,0-3.692-1.53l-7.385,4.36a.221.221,0,0,1-.271-.035l-4.366-4.365a.223.223,0,0,1-.036-.269l4.36-7.388a2.5,2.5,0,0,0-1.528-3.692l-8.306-2.14a.222.222,0,0,1-.166-.216Z" fill="#846f75"/><path d="M128,63.721a11.965,11.965,0,1,0-11.964-11.965A11.978,11.978,0,0,0,128,63.721Zm0-18.929a6.965,6.965,0,1,1-6.964,6.964A6.972,6.972,0,0,1,128,44.792Z" fill="#846f75"/><path d="M155.773,178.942H100.227a4.064,4.064,0,0,0-4.06,4.06v42.483a4.064,4.064,0,0,0,4.06,4.06h55.546a4.064,4.064,0,0,0,4.06-4.06V183A4.064,4.064,0,0,0,155.773,178.942Zm-.94,45.6H101.167v-40.6h53.666Z" fill="#846f75"/><path d="M124.224,213.319a2.5,2.5,0,0,0,3.269-1.348l5.631-13.534a2.5,2.5,0,0,0-4.617-1.921l-5.631,13.534A2.5,2.5,0,0,0,124.224,213.319Z" fill="#846f75"/><path d="M137.449,212.733a2.5,2.5,0,0,0,3.535,0l6.722-6.722a2.5,2.5,0,0,0,0-3.535l-6.722-6.722a2.5,2.5,0,1,0-3.535,3.536l4.954,4.954-4.954,4.954A2.5,2.5,0,0,0,137.449,212.733Z" fill="#846f75"/><path d="M115.016,212.733a2.5,2.5,0,1,0,3.535-3.535l-4.954-4.954,4.954-4.954a2.5,2.5,0,0,0-3.535-3.536l-6.722,6.722a2.5,2.5,0,0,0,0,3.535Z" fill="#846f75"/><path d="M157.786,116.5a9.676,9.676,0,0,0-8.941,5.6,13.123,13.123,0,0,0-1.247,5.759v.446a12.062,12.062,0,0,0,2.809,8.28,9.5,9.5,0,0,0,7.416,3.229,9.939,9.939,0,0,0,5.313-1.447,9.641,9.641,0,0,0,3.63-4.109,13.2,13.2,0,0,0,1.246-5.785v-.466a12.087,12.087,0,0,0-2.8-8.278A9.491,9.491,0,0,0,157.786,116.5Zm5.561,11.789a8.288,8.288,0,0,1-1.6,5.337,5.094,5.094,0,0,1-7.872,0,7.872,7.872,0,0,1-1.6-5.15v-.409a8.187,8.187,0,0,1,1.608-5.34,4.679,4.679,0,0,1,3.9-1.876,4.894,4.894,0,0,1,2.843.838,5.637,5.637,0,0,1,1.97,2.453,9.071,9.071,0,0,1,.748,3.72Z" fill="#a58bc9"/><path d="M139.827,139.444h2.213a1.227,1.227,0,0,0,1.226-1.226V125.007a9.406,9.406,0,0,0-1.9-6.261,7.222,7.222,0,0,0-5.743-2.246,8.614,8.614,0,0,0-4.35,1.15c-.132.076-.262.156-.391.238l-.578.373v-8.6a1.228,1.228,0,0,0-1.226-1.227h-2.213a1.228,1.228,0,0,0-1.226,1.227v28.561a1.227,1.227,0,0,0,1.226,1.226h2.213a1.227,1.227,0,0,0,1.226-1.226l.025-13.631a6.208,6.208,0,0,1,1.873-2.682,4.406,4.406,0,0,1,2.882-1.018,3.374,3.374,0,0,1,2.665.89A5.1,5.1,0,0,1,138.6,125v13.223A1.227,1.227,0,0,0,139.827,139.444Z" fill="#a58bc9"/><path d="M186.624,139.444h2.213a1.226,1.226,0,0,0,1.226-1.226V125.009a9.408,9.408,0,0,0-1.9-6.264,7.226,7.226,0,0,0-5.743-2.245,8.6,8.6,0,0,0-4.351,1.141c-.183.106-.361.216-.534.335l-.432.3-.141-.5a1.23,1.23,0,0,0-1.181-.895h-2.119a1.227,1.227,0,0,0-1.226,1.226v20.119a1.227,1.227,0,0,0,1.226,1.226h2.213a1.227,1.227,0,0,0,1.227-1.226l.025-13.631A6.2,6.2,0,0,1,179,121.905a4.4,4.4,0,0,1,2.882-1.018,3.373,3.373,0,0,1,2.664.89A5.1,5.1,0,0,1,185.4,125v13.223A1.227,1.227,0,0,0,186.624,139.444Z" fill="#a58bc9"/><path d="M88.82,147.262a7.5,7.5,0,0,0,2.049.308c1.938,0,4.595-.766,6.243-4.414l9.06-24.638a1.225,1.225,0,0,0-1.152-1.645h-2.4a1.226,1.226,0,0,0-1.158.823l-4.754,13.687-5.061-13.709a1.233,1.233,0,0,0-1.151-.8H88.06a1.224,1.224,0,0,0-1.146,1.661l7.426,19.527-.832,2.291a5.042,5.042,0,0,1-1.331,2.235,2.829,2.829,0,0,1-1.725.549l-1.194-.114a1.167,1.167,0,0,0-.132-.007,1.23,1.23,0,0,0-1.213,1.24l.019,1.841A1.232,1.232,0,0,0,88.82,147.262Z" fill="#a58bc9"/><path d="M113.648,138.015a5.136,5.136,0,0,0,4.3,1.8,8.349,8.349,0,0,0,2.793-.385,1.218,1.218,0,0,0,.812-1.218l-.093-1.806a1.233,1.233,0,0,0-.449-.886,1.212,1.212,0,0,0-.956-.264,12.411,12.411,0,0,1-1.624.172,1.251,1.251,0,0,1-1.032-.322,3.028,3.028,0,0,1-.362-1.764V121.148h2.938a1.228,1.228,0,0,0,1.226-1.227V118.1a1.227,1.227,0,0,0-1.226-1.226h-2.938v-3.925a1.228,1.228,0,0,0-1.227-1.226h-2.231a1.227,1.227,0,0,0-1.226,1.226v3.925h-2.476a1.227,1.227,0,0,0-1.226,1.226v1.822a1.228,1.228,0,0,0,1.226,1.227h2.476v12.2A7.441,7.441,0,0,0,113.648,138.015Z" fill="#a58bc9"/><path d="M67.163,116.873a1.227,1.227,0,0,0-1.226,1.226v27.855a1.227,1.227,0,0,0,1.226,1.226h2.212a1.228,1.228,0,0,0,1.227-1.226v-7.449l.549.288a9.7,9.7,0,0,0,4.547,1.023,7.83,7.83,0,0,0,6.556-3.249,13.343,13.343,0,0,0,2.331-8.2v-.316c0-3.493-.774-6.294-2.3-8.324a7.89,7.89,0,0,0-6.642-3.223,8.882,8.882,0,0,0-4.761,1.249l-.36.223-.178-.385a1.234,1.234,0,0,0-1.116-.714Zm3.475,6.815a4.786,4.786,0,0,1,1.673-2.023,4.91,4.91,0,0,1,2.829-.778,3.9,3.9,0,0,1,3.405,1.714,9.223,9.223,0,0,1,1.356,5.372,10.183,10.183,0,0,1-1.348,5.794,3.861,3.861,0,0,1-3.376,1.719,5.35,5.35,0,0,1-2.874-.733,4.518,4.518,0,0,1-1.657-1.791l-.044-.177Z" fill="#a58bc9"/></svg>