<svg xmlns="http://www.w3.org/2000/svg" viewBox="0 0 256 256"><title>icon</title><path d="M159.067,194.207a2.492,2.492,0,0,1-1.767-.732L146.416,182.59a2.5,2.5,0,1,1,3.535-3.535l10.884,10.884a2.5,2.5,0,0,1-1.768,4.268Z" fill="#ed9abc"/><path d="M193.362,186.734a2.5,2.5,0,0,0-2.5,2.5v21.7a2.5,2.5,0,0,1-2.5,2.5H67.638a2.5,2.5,0,0,1-2.5-2.5V84.916h39.851a2.5,2.5,0,0,0,2.5-2.5V42.564h80.873a2.5,2.5,0,0,1,2.5,2.5V104a2.5,2.5,0,0,0,5,0V45.064a7.509,7.509,0,0,0-7.5-7.5h-81.3a7.452,7.452,0,0,0-5.3,2.2L62.335,79.183a7.548,7.548,0,0,0-2.2,5.3v126.45a7.509,7.509,0,0,0,7.5,7.5H188.362a7.509,7.509,0,0,0,7.5-7.5v-21.7A2.5,2.5,0,0,0,193.362,186.734ZM102.489,46.1V79.916H68.673Z" fill="#846f75"/><path d="M234.959,109.473l-4.542-4.541a15.36,15.36,0,0,0-21.7,0l-54.656,54.656a14.429,14.429,0,0,0-3.524,5.766l-7.985,24.8a5.716,5.716,0,0,0,5.426,7.465,5.765,5.765,0,0,0,1.761-.277l24.8-7.985a14.484,14.484,0,0,0,5.767-3.525L226.133,140h0l8.824-8.824A15.363,15.363,0,0,0,234.959,109.473Zm-56.424,71.052-19.171-19.17,42.3-42.295,19.171,19.17ZM173,184.593l-24.8,7.985a.711.711,0,0,1-.895-.894l7.986-24.8a9.312,9.312,0,0,1,.781-1.745l18.671,18.67A9.465,9.465,0,0,1,173,184.593Zm58.421-56.955-7.058,7.057L205.2,115.524l7.058-7.057a10.356,10.356,0,0,1,14.629,0l4.542,4.541A10.358,10.358,0,0,1,231.424,127.638Z" fill="#846f75"/><path d="M145.025,145.049v-6.615a5.421,5.421,0,0,0-4.057-5.246h0l-5.684-1.464,2.985-5.057a5.415,5.415,0,0,0-.838-6.579l-4.679-4.679a5.422,5.422,0,0,0-6.581-.836l-5.053,2.984-1.466-5.686a5.416,5.416,0,0,0-5.244-4.059h-6.615a5.418,5.418,0,0,0-5.246,4.062l-1.464,5.683-5.058-2.986a5.42,5.42,0,0,0-6.578.839l-4.677,4.678a5.416,5.416,0,0,0-.837,6.581l2.983,5.055-5.687,1.464a5.421,5.421,0,0,0-4.058,5.246v6.615a5.416,5.416,0,0,0,4.062,5.245l5.683,1.465-2.984,5.055a5.419,5.419,0,0,0,.837,6.58l4.679,4.679a5.428,5.428,0,0,0,6.581.836l5.054-2.983,1.465,5.684a5.418,5.418,0,0,0,5.245,4.061H114.4a5.418,5.418,0,0,0,5.245-4.063l1.465-5.682,5.057,2.985a5.42,5.42,0,0,0,6.578-.839l4.678-4.678a5.418,5.418,0,0,0,.837-6.581l-2.984-5.054,5.686-1.466A5.415,5.415,0,0,0,145.025,145.049Zm-5,0a.416.416,0,0,1-.309.4l-8.9,2.294a2.5,2.5,0,0,0-1.529,3.692l4.672,7.914a.416.416,0,0,1-.064.506l-4.677,4.678a.417.417,0,0,1-.506.067l-7.916-4.673a2.5,2.5,0,0,0-3.692,1.529l-2.292,8.9a.419.419,0,0,1-.405.314h-6.615a.418.418,0,0,1-.4-.311l-2.294-8.9a2.5,2.5,0,0,0-3.692-1.529L93.487,164.6a.421.421,0,0,1-.508-.064L88.3,159.858a.417.417,0,0,1-.066-.5l4.672-7.916a2.5,2.5,0,0,0-1.529-3.692l-8.9-2.293a.417.417,0,0,1-.312-.4v-6.615a.418.418,0,0,1,.31-.405l8.9-2.293a2.5,2.5,0,0,0,1.529-3.691l-4.671-7.915a.419.419,0,0,1,.065-.507l4.677-4.677a.419.419,0,0,1,.505-.066l7.916,4.673a2.5,2.5,0,0,0,3.692-1.53l2.294-8.9a.416.416,0,0,1,.4-.312H114.4a.417.417,0,0,1,.4.31l2.293,8.9a2.5,2.5,0,0,0,3.692,1.53l7.913-4.671a.417.417,0,0,1,.508.063l4.678,4.678a.417.417,0,0,1,.065.5l-4.673,7.917a2.5,2.5,0,0,0,1.529,3.691l8.9,2.292a.42.42,0,0,1,.311.406Z" fill="#846f75"/><path d="M111.1,129.1a12.641,12.641,0,1,0,12.641,12.64A12.654,12.654,0,0,0,111.1,129.1Zm0,20.281a7.641,7.641,0,1,1,7.641-7.641A7.649,7.649,0,0,1,111.1,149.382Z" fill="#846f75"/><path d="M167.183,78.646H133a2.5,2.5,0,0,1,0-5h34.183a2.5,2.5,0,0,1,0,5Z" fill="#ed9abc"/><path d="M167.183,94H133a2.5,2.5,0,0,1,0-5h34.183a2.5,2.5,0,0,1,0,5Z" fill="#ed9abc"/></svg>