<svg xmlns="http://www.w3.org/2000/svg" viewBox="0 0 256 256"><title>icon</title><path d="M139.289,119.1a2.5,2.5,0,0,1-2.5-2.5V92.516a2.5,2.5,0,0,1,2.5-2.5h16.317L128.394,62.8,101.182,90.016H117.5a2.5,2.5,0,0,1,2.5,2.5V116.6a2.5,2.5,0,1,1-5,0V95.016H95.146a2.5,2.5,0,0,1-1.768-4.268L126.626,57.5a2.5,2.5,0,0,1,3.536,0L163.41,90.748a2.5,2.5,0,0,1-1.768,4.268H141.789V116.6A2.5,2.5,0,0,1,139.289,119.1Z" fill="#f9b087"/><path d="M150.18,179.752H139.448a2.5,2.5,0,0,1-2.5-2.5v-7.585a2.5,2.5,0,0,1,2.5-2.5H150.18a2.5,2.5,0,0,1,2.5,2.5v7.585A2.5,2.5,0,0,1,150.18,179.752Zm-8.232-5h5.732v-2.585h-5.732Z" fill="#ebe7f2"/><path d="M160.942,124.27a2.5,2.5,0,0,0-2.324-1.58H97.382a2.5,2.5,0,0,0-2.324,1.58L84.4,151.172a2.5,2.5,0,0,0,4.649,1.842l5.83-14.722v48.134a2.5,2.5,0,0,0,2.5,2.5h61.236a2.5,2.5,0,0,0,2.5-2.5V138.292l5.83,14.722a2.5,2.5,0,0,0,4.649-1.842Zm-6.019,3.42-8.771,21.9h-36.3l-8.772-21.9ZM99.882,183.926V138.158l5.953,14.864a2.5,2.5,0,0,0,2.321,1.571h39.688a2.5,2.5,0,0,0,2.321-1.571l5.953-14.864v45.768Z" fill="#846f75"/><path d="M221.416,195.491H204.154a100.631,100.631,0,0,0,22.6-92.274,2.5,2.5,0,0,0-4.849,1.221,95.671,95.671,0,0,1-21.032,87.228V174.945a2.5,2.5,0,0,0-5,0v23.046a2.5,2.5,0,0,0,2.5,2.5h23.046a2.5,2.5,0,0,0,0-5Z" fill="#846f75"/><path d="M56.038,64.5V81.2a2.5,2.5,0,0,0,5,0V58.159a2.5,2.5,0,0,0-2.5-2.5H35.493a2.5,2.5,0,0,0,0,5H52.751a101.307,101.307,0,0,0-20.9,98.218,2.5,2.5,0,1,0,4.764-1.516A96.314,96.314,0,0,1,56.038,64.5Z" fill="#846f75"/><path d="M200.87,59.268V36.222a2.5,2.5,0,0,0-5,0V53.487A101.263,101.263,0,0,0,97.822,32.524a2.5,2.5,0,1,0,1.507,4.768,96.271,96.271,0,0,1,92.7,19.476H175.325a2.5,2.5,0,0,0,0,5H198.37A2.5,2.5,0,0,0,200.87,59.268Z" fill="#846f75"/><path d="M152.292,222.58A95.7,95.7,0,0,1,64.87,201.6H81.583a2.5,2.5,0,1,0,0-5H58.538a2.5,2.5,0,0,0-2.5,2.5v23.046a2.5,2.5,0,0,0,5,0V204.9a100.461,100.461,0,0,0,67.131,25.722,102.874,102.874,0,0,0,25.354-3.192,2.5,2.5,0,0,0-1.231-4.846Z" fill="#846f75"/><path d="M75.942,52.986A9.258,9.258,0,1,1,85.2,43.729,9.267,9.267,0,0,1,75.942,52.986Zm0-13.515A4.258,4.258,0,1,0,80.2,43.729,4.262,4.262,0,0,0,75.942,39.471Z" fill="#f9b087"/><path d="M212.85,85.7a9.258,9.258,0,1,1,9.258-9.258A9.268,9.268,0,0,1,212.85,85.7Zm0-13.515a4.258,4.258,0,1,0,4.258,4.257A4.262,4.262,0,0,0,212.85,72.182Z" fill="#f9b087"/><path d="M47.016,188.882a9.258,9.258,0,1,1,9.257-9.258A9.268,9.268,0,0,1,47.016,188.882Zm0-13.516a4.258,4.258,0,1,0,4.257,4.258A4.263,4.263,0,0,0,47.016,175.366Z" fill="#f9b087"/><path d="M175.325,220.772a9.257,9.257,0,1,1,9.258-9.257A9.268,9.268,0,0,1,175.325,220.772Zm0-13.514a4.257,4.257,0,1,0,4.258,4.257A4.262,4.262,0,0,0,175.325,207.258Z" fill="#f9b087"/></svg>