<svg xmlns="http://www.w3.org/2000/svg" viewBox="0 0 256 256"><title>icon</title><path d="M181.641,151.2a7.485,7.485,0,1,1,7.485-7.485A7.494,7.494,0,0,1,181.641,151.2Zm0-9.97a2.485,2.485,0,1,0,2.485,2.485A2.488,2.488,0,0,0,181.641,141.232Z" fill="#ebe7f2"/><path d="M43.682,205.62a7.485,7.485,0,1,1,7.484-7.485A7.495,7.495,0,0,1,43.682,205.62Zm0-9.97a2.485,2.485,0,1,0,2.484,2.485A2.489,2.489,0,0,0,43.682,195.65Z" fill="#ebe7f2"/><path d="M55.8,170.5H31.564a2.5,2.5,0,0,1-2.5-2.5V143.77a2.5,2.5,0,0,1,2.5-2.5H55.8a2.5,2.5,0,0,1,2.5,2.5V168A2.5,2.5,0,0,1,55.8,170.5Zm-21.735-5H53.3V146.27H34.064Z" fill="#f9b087"/><path d="M199.653,122.147H163.628a2.5,2.5,0,0,1-2.5-2.5V83.623a2.5,2.5,0,0,1,2.5-2.5h36.025a2.5,2.5,0,0,1,2.5,2.5v36.024A2.5,2.5,0,0,1,199.653,122.147Zm-33.525-5h31.025V86.123H166.128Z" fill="#f9b087"/><path d="M208.941,164.306a2.5,2.5,0,0,0-2.5,2.5v3.036a1.9,1.9,0,0,1-1.9,1.895H81.929a2.5,2.5,0,0,0,0,5h26.257a17.278,17.278,0,0,1-5,16.84l-2.913,2.712H93.787a8.214,8.214,0,0,0,0,16.428h65.049a8.214,8.214,0,0,0,0-16.428h-6.488l-2.913-2.712a17.278,17.278,0,0,1-5-16.84h60.11a6.9,6.9,0,0,0,6.9-6.895v-3.036A2.5,2.5,0,0,0,208.941,164.306ZM162.05,204.5a3.218,3.218,0,0,1-3.214,3.214H93.787a3.214,3.214,0,0,1,0-6.428h65.049A3.217,3.217,0,0,1,162.05,204.5Zm-16.981-8.214H107.553a22.279,22.279,0,0,0,5.761-19.552h25.994A22.279,22.279,0,0,0,145.069,196.289Z" fill="#846f75"/><path d="M43.682,110.973a2.5,2.5,0,0,0,2.5-2.5v-58.3a1.9,1.9,0,0,1,1.895-1.9H204.546a1.9,1.9,0,0,1,1.9,1.9v3.587a2.5,2.5,0,1,0,5,0V50.171a6.9,6.9,0,0,0-6.9-6.9H48.077a6.9,6.9,0,0,0-6.895,6.9v58.3A2.5,2.5,0,0,0,43.682,110.973Z" fill="#846f75"/><path d="M66.854,116.538H20.509a7.018,7.018,0,0,0-7.009,7.009v82.169a7.018,7.018,0,0,0,7.009,7.009H66.854a7.017,7.017,0,0,0,7.009-7.009V123.547A7.017,7.017,0,0,0,66.854,116.538Zm2.009,89.178a2.012,2.012,0,0,1-2.009,2.009H20.509a2.012,2.012,0,0,1-2.009-2.009V123.547a2.011,2.011,0,0,1,2.009-2.009H66.854a2.011,2.011,0,0,1,2.009,2.009Z" fill="#846f75"/><path d="M235.491,61.824H127.79a7.018,7.018,0,0,0-7.009,7.009v82.9a7.017,7.017,0,0,0,7.009,7.009h107.7a7.017,7.017,0,0,0,7.009-7.009v-82.9A7.018,7.018,0,0,0,235.491,61.824Zm2.009,89.907a2.011,2.011,0,0,1-2.009,2.009H127.79a2.012,2.012,0,0,1-2.009-2.009v-82.9a2.012,2.012,0,0,1,2.009-2.009h107.7a2.012,2.012,0,0,1,2.009,2.009Z" fill="#846f75"/><path d="M47.47,151.409l-5.222,5.222-2.292-2.292a2.5,2.5,0,1,0-3.535,3.535l4.059,4.06a2.5,2.5,0,0,0,3.536,0l6.989-6.99a2.5,2.5,0,1,0-3.535-3.535Z" fill="#846f75"/><path d="M188.132,95.839l-8.622,8.623-4.268-4.268a2.5,2.5,0,1,0-3.535,3.535l6.035,6.036a2.5,2.5,0,0,0,3.535,0l10.39-10.391a2.5,2.5,0,0,0-3.535-3.535Z" fill="#846f75"/></svg>