<svg xmlns="http://www.w3.org/2000/svg" viewBox="0 0 256 256"><title>icon</title><path d="M227.253,104.9h0l-26.8-6.907,14.07-23.837a12.339,12.339,0,0,0-1.909-14.986L196.833,43.39a12.34,12.34,0,0,0-14.988-1.908l-23.836,14.07L151.1,28.746A12.343,12.343,0,0,0,139.156,19.5H116.844A12.34,12.34,0,0,0,104.9,28.749l-6.907,26.8L74.153,41.481A12.34,12.34,0,0,0,59.167,43.39L43.391,59.166a12.341,12.341,0,0,0-1.908,14.988L55.552,97.989l-26.8,6.908A12.342,12.342,0,0,0,19.5,116.844v22.311A12.344,12.344,0,0,0,28.75,151.1l26.8,6.905-14.07,23.839a12.337,12.337,0,0,0,1.909,14.985l15.776,15.777a12.346,12.346,0,0,0,14.989,1.908l23.835-14.07,6.907,26.805a12.34,12.34,0,0,0,11.946,9.248h22.312a12.345,12.345,0,0,0,11.947-9.25l6.906-26.8,23.838,14.071a12.344,12.344,0,0,0,14.986-1.909l15.776-15.777a12.341,12.341,0,0,0,1.908-14.988l-14.069-23.836,26.8-6.906a12.344,12.344,0,0,0,9.247-11.947V116.844A12.344,12.344,0,0,0,227.253,104.9Zm4.247,34.258a7.342,7.342,0,0,1-5.5,7.106L195.981,154a2.5,2.5,0,0,0-1.529,3.692l15.757,26.7a7.341,7.341,0,0,1-1.135,8.914L193.3,209.073a7.34,7.34,0,0,1-8.912,1.137l-26.7-15.759A2.5,2.5,0,0,0,154,195.98L146.262,226a7.343,7.343,0,0,1-7.106,5.5H116.844a7.338,7.338,0,0,1-7.1-5.5L102,195.98a2.5,2.5,0,0,0-3.691-1.529L71.617,210.209a7.345,7.345,0,0,1-8.914-1.135L46.926,193.3a7.341,7.341,0,0,1-1.137-8.912l15.758-26.7A2.5,2.5,0,0,0,60.018,154L30,146.262a7.343,7.343,0,0,1-5.5-7.107V116.844a7.342,7.342,0,0,1,5.5-7.106L60.019,102a2.5,2.5,0,0,0,1.528-3.691l-15.756-26.7A7.341,7.341,0,0,1,46.926,62.7L62.7,46.925a7.338,7.338,0,0,1,8.911-1.136l26.7,15.759A2.5,2.5,0,0,0,102,60.019L109.739,30a7.339,7.339,0,0,1,7.1-5.5h22.312a7.342,7.342,0,0,1,7.1,5.5L154,60.019a2.5,2.5,0,0,0,3.691,1.529l26.7-15.758a7.344,7.344,0,0,1,8.914,1.135L209.074,62.7a7.34,7.34,0,0,1,1.136,8.912l-15.758,26.7A2.5,2.5,0,0,0,195.981,102L226,109.738a7.342,7.342,0,0,1,5.5,7.106Z" fill="#846f75"/><path d="M128,66.664A61.336,61.336,0,1,0,189.336,128,61.406,61.406,0,0,0,128,66.664Zm0,117.672A56.336,56.336,0,1,1,184.336,128,56.4,56.4,0,0,1,128,184.336Z" fill="#846f75"/><path d="M128,82.838a2.5,2.5,0,0,1-2.5-2.5V58.25a2.5,2.5,0,0,1,5,0V80.338A2.5,2.5,0,0,1,128,82.838Z" fill="#65c1d6"/><path d="M128,200.25a2.5,2.5,0,0,1-2.5-2.5V175.662a2.5,2.5,0,0,1,5,0V197.75A2.5,2.5,0,0,1,128,200.25Z" fill="#65c1d6"/><path d="M197.75,130.5H175.662a2.5,2.5,0,0,1,0-5H197.75a2.5,2.5,0,0,1,0,5Z" fill="#65c1d6"/><path d="M80.338,130.5H58.25a2.5,2.5,0,0,1,0-5H80.338a2.5,2.5,0,0,1,0,5Z" fill="#65c1d6"/><path d="M122.993,142.535a2.5,2.5,0,0,1-2.307-3.461L130.7,115.006a2.5,2.5,0,1,1,4.617,1.92L125.3,140.994A2.5,2.5,0,0,1,122.993,142.535Z" fill="#65c1d6"/><path d="M147.947,142.453a2.5,2.5,0,0,1-1.767-4.267L156.365,128,146.18,117.814a2.5,2.5,0,1,1,3.535-3.535l11.953,11.953a2.5,2.5,0,0,1,0,3.536l-11.953,11.953A2.493,2.493,0,0,1,147.947,142.453Z" fill="#65c1d6"/><path d="M108.053,142.453a2.493,2.493,0,0,1-1.768-.732L94.332,129.768a2.5,2.5,0,0,1,0-3.536l11.953-11.953a2.5,2.5,0,0,1,3.535,3.535L99.635,128l10.185,10.186a2.5,2.5,0,0,1-1.767,4.267Z" fill="#65c1d6"/></svg>