<svg xmlns="http://www.w3.org/2000/svg" viewBox="0 0 256 256"><title>icon</title><path d="M134.646,131.09l-.542-.542,28.135-28.135,2.677-.617a6.453,6.453,0,0,0,3.855-2.606l7.1-10.19a3.819,3.819,0,0,0-.433-4.892l-3.549-3.549A3.818,3.818,0,0,0,167,80.126l-10.192,7.1a6.451,6.451,0,0,0-2.6,3.853l-.618,2.679L125.452,121.9l-.542-.542a3.829,3.829,0,0,0-5.407,0l-4.821,4.822a5.952,5.952,0,0,0-4.355,1.737L81.191,157.049a5.992,5.992,0,0,0,0,8.462h0l9.3,9.3a5.991,5.991,0,0,0,8.462,0l29.136-29.136a5.952,5.952,0,0,0,1.737-4.355l4.823-4.823A3.828,3.828,0,0,0,134.646,131.09Zm24.431-38.885a1.466,1.466,0,0,1,.592-.875l9.384-6.54,2.157,2.157-6.539,9.383a1.473,1.473,0,0,1-.878.594l-2.026.468-3.159-3.159Zm-34.525,49.933L95.416,171.273a.987.987,0,0,1-1.392,0l-9.3-9.3a.986.986,0,0,1,0-1.392l29.135-29.136a.987.987,0,0,1,1.392,0l9.3,9.3A.986.986,0,0,1,124.552,142.138Zm2.922-5.54-8.071-8.072,2.8-2.8,8.071,8.071Zm1.513-11.166,26.874-26.875,1.582,1.582-26.875,26.874Z" fill="#65c1d6"/><path d="M97.172,108.341,110.6,121.766a2.5,2.5,0,1,0,3.535-3.536L99.667,103.766a2.5,2.5,0,0,0-2.584-.595,9.887,9.887,0,0,1-13.009-7.928l4.192,4.192a2.5,2.5,0,0,0,3.535,0L99.435,91.8a2.5,2.5,0,0,0,0-3.535l-4.192-4.192a9.887,9.887,0,0,1,7.928,13.009,2.5,2.5,0,0,0,.595,2.584l17.71,17.71a2.5,2.5,0,0,0,3.535-3.535l-16.67-16.67A14.869,14.869,0,0,0,88.984,79.805a2.5,2.5,0,0,0-.951,4.13l6.1,6.1-4.1,4.1-6.1-6.1a2.5,2.5,0,0,0-4.13.951,14.869,14.869,0,0,0,17.367,19.357Z" fill="#65c1d6"/><path d="M172.659,151.641a14.749,14.749,0,0,0-13.831-3.982l-16.67-16.67a2.5,2.5,0,0,0-3.535,3.535l17.71,17.71a2.494,2.494,0,0,0,2.584.595,9.887,9.887,0,0,1,13.009,7.928l-4.192-4.192a2.5,2.5,0,0,0-3.535,0l-7.634,7.634a2.5,2.5,0,0,0,0,3.535l4.192,4.192a9.887,9.887,0,0,1-7.928-13.009,2.5,2.5,0,0,0-.595-2.584l-13.891-13.892a2.5,2.5,0,1,0-3.535,3.536l12.851,12.851a14.889,14.889,0,0,0,14.449,18.2,14.989,14.989,0,0,0,4.908-.831,2.5,2.5,0,0,0,.951-4.13l-6.1-6.1,4.1-4.1,6.1,6.1a2.5,2.5,0,0,0,4.13-.951A14.762,14.762,0,0,0,172.659,151.641Z" fill="#65c1d6"/><path d="M217.639,106.914h0L193.76,100.76l12.534-21.235A11.38,11.38,0,0,0,204.533,65.7L190.3,51.465a11.387,11.387,0,0,0-13.822-1.758L155.238,62.239,149.085,38.36a11.38,11.38,0,0,0-11.017-8.527H117.932a11.382,11.382,0,0,0-11.018,8.53l-6.153,23.876L79.525,49.706a11.381,11.381,0,0,0-13.82,1.76L51.467,65.7a11.382,11.382,0,0,0-1.76,13.823L62.24,100.76l-23.879,6.154a11.381,11.381,0,0,0-8.528,11.018v20.135a11.383,11.383,0,0,0,8.531,11.019l23.876,6.152L49.706,176.474A11.382,11.382,0,0,0,51.467,190.3l14.238,14.238a11.383,11.383,0,0,0,13.823,1.759l21.233-12.533,6.154,23.88a11.38,11.38,0,0,0,11.017,8.528h20.136a11.381,11.381,0,0,0,11.018-8.531l6.152-23.877,21.237,12.534a11.379,11.379,0,0,0,13.82-1.76L204.533,190.3a11.382,11.382,0,0,0,1.76-13.824L193.76,155.238l23.879-6.153a11.381,11.381,0,0,0,8.528-11.018V117.932A11.381,11.381,0,0,0,217.639,106.914Zm3.528,31.153a6.38,6.38,0,0,1-4.779,6.177l-27.095,6.982a2.5,2.5,0,0,0-1.529,3.691l14.221,24.093a6.381,6.381,0,0,1-.987,7.75L186.76,201a6.375,6.375,0,0,1-7.746.987l-24.1-14.222a2.5,2.5,0,0,0-3.691,1.529l-6.981,27.093a6.382,6.382,0,0,1-6.177,4.782H117.932a6.38,6.38,0,0,1-6.176-4.779l-6.983-27.1a2.5,2.5,0,0,0-3.691-1.529L76.99,201.984A6.383,6.383,0,0,1,69.24,201L55,186.76a6.382,6.382,0,0,1-.988-7.748l14.222-24.095a2.5,2.5,0,0,0-1.529-3.691l-27.092-6.981a6.382,6.382,0,0,1-4.782-6.178V117.932a6.38,6.38,0,0,1,4.779-6.177l27.095-6.983a2.5,2.5,0,0,0,1.529-3.691L54.015,76.989A6.383,6.383,0,0,1,55,69.239L69.24,55a6.379,6.379,0,0,1,7.747-.987l24.1,14.221a2.5,2.5,0,0,0,3.691-1.529l6.982-27.092a6.381,6.381,0,0,1,6.177-4.781h20.136a6.379,6.379,0,0,1,6.176,4.778l6.982,27.1a2.5,2.5,0,0,0,3.691,1.529l24.1-14.22A6.383,6.383,0,0,1,186.76,55L201,69.239a6.378,6.378,0,0,1,.988,7.747l-14.222,24.1a2.5,2.5,0,0,0,1.529,3.691l27.092,6.982a6.382,6.382,0,0,1,4.782,6.178Z" fill="#846f75"/><path d="M128,52.466a2.5,2.5,0,0,0-2.5,2.5v33.02a2.5,2.5,0,0,0,5,0V54.966A2.5,2.5,0,0,0,128,52.466Z" fill="#846f75"/><path d="M128,165.514a2.5,2.5,0,0,0-2.5,2.5v33.02a2.5,2.5,0,0,0,5,0v-33.02A2.5,2.5,0,0,0,128,165.514Z" fill="#846f75"/><path d="M201.034,125.5h-33.02a2.5,2.5,0,0,0,0,5h33.02a2.5,2.5,0,0,0,0-5Z" fill="#846f75"/><path d="M87.986,125.5H54.966a2.5,2.5,0,0,0,0,5h33.02a2.5,2.5,0,0,0,0-5Z" fill="#846f75"/></svg>