<svg xmlns="http://www.w3.org/2000/svg" viewBox="0 0 256 256"><title>icon</title><path d="M60.061,198.5a2.5,2.5,0,0,1-2.424-3.12L73.57,133.142a2.5,2.5,0,1,1,4.844,1.24L62.48,196.62A2.5,2.5,0,0,1,60.061,198.5Z" fill="#ebe7f2"/><path d="M149.853,143.575a2.5,2.5,0,0,1-2.42-1.88l-1.872-7.313a2.5,2.5,0,1,1,4.843-1.24l1.872,7.313a2.5,2.5,0,0,1-2.423,3.12Z" fill="#ebe7f2"/><path d="M218.592,224.5h-95.5a2.5,2.5,0,0,1-2.5-2.5V141.075a2.5,2.5,0,0,1,2.5-2.5h95.5a2.5,2.5,0,0,1,2.5,2.5V222A2.5,2.5,0,0,1,218.592,224.5Zm-93-5h90.5V143.575h-90.5Z" fill="#ed9abc"/><path d="M175.111,181.14a2.5,2.5,0,0,1-1.407-4.568l19.067-12.949a2.5,2.5,0,1,1,2.809,4.136l-19.066,12.949A2.492,2.492,0,0,1,175.111,181.14Z" fill="#ebe7f2"/><path d="M154.363,206.923a2.5,2.5,0,0,1-2.027-3.961l13.467-18.7a2.5,2.5,0,1,1,4.057,2.922l-13.466,18.7A2.5,2.5,0,0,1,154.363,206.923Z" fill="#ebe7f2"/><path d="M172.047,179.027a2.5,2.5,0,0,1-2.433-3.084L175,153.527a2.5,2.5,0,1,1,4.862,1.167l-5.381,22.416A2.5,2.5,0,0,1,172.047,179.027Z" fill="#ebe7f2"/><path d="M170.842,197.528a15.991,15.991,0,1,1,15.991-15.99A16.008,16.008,0,0,1,170.842,197.528Zm0-26.982a10.991,10.991,0,1,0,10.991,10.992A11,11,0,0,0,170.842,170.546Z" fill="#ed9abc"/><path d="M165.358,112l5.1,19.941a2.5,2.5,0,0,0,4.844-1.24l-5.1-19.942a20.007,20.007,0,0,0-19.39-15.051H136.937a36.8,36.8,0,0,0,11.91-29.831,37.2,37.2,0,0,0-35.812-34.359A36.947,36.947,0,0,0,75.04,68.447,37.1,37.1,0,0,0,87.068,95.705h-13.9a20.007,20.007,0,0,0-19.39,15.051L35.3,182.9a12.5,12.5,0,0,0,12.11,15.6h66.263a2.5,2.5,0,0,0,0-5H47.413a7.5,7.5,0,0,1-7.266-9.36L58.617,112a15.006,15.006,0,0,1,14.546-11.292H94.644a2.5,2.5,0,0,0,1.26-4.659,32.084,32.084,0,0,1-15.864-27.6A31.946,31.946,0,0,1,112.9,36.513a32.162,32.162,0,0,1,30.962,29.7A31.841,31.841,0,0,1,128.07,96.046a2.5,2.5,0,0,0,1.261,4.659h21.481A15.007,15.007,0,0,1,165.358,112Z" fill="#846f75"/><path d="M170.842,150.833a30.7,30.7,0,1,0,30.7,30.705A30.739,30.739,0,0,0,170.842,150.833Zm0,56.409a25.7,25.7,0,1,1,25.7-25.7A25.733,25.733,0,0,1,170.842,207.242Z" fill="#846f75"/><path d="M170.842,173.88a7.658,7.658,0,1,0,7.658,7.658A7.666,7.666,0,0,0,170.842,173.88Zm0,10.315a2.658,2.658,0,1,1,2.658-2.657A2.66,2.66,0,0,1,170.842,184.2Z" fill="#846f75"/></svg>