<svg xmlns="http://www.w3.org/2000/svg" viewBox="0 0 256 256"><title>icon</title><path d="M128,154.546a38.873,38.873,0,1,1,38.287-45.63,2.5,2.5,0,1,1-4.926.863,33.869,33.869,0,1,0,.009,11.744,2.5,2.5,0,1,1,4.926.858A38.78,38.78,0,0,1,128,154.546Z" fill="#ebe7f2"/><path d="M161.989,189.729h0l-6.936-1.789,3.642-6.17a5.828,5.828,0,0,0-.9-7.078l-5.338-5.337a5.832,5.832,0,0,0-7.079-.9L139.2,172.1l-1.788-6.941a5.831,5.831,0,0,0-5.643-4.366h-7.546a5.83,5.83,0,0,0-5.644,4.37L116.8,172.1l-6.171-3.643a5.829,5.829,0,0,0-7.078.9L98.21,174.69a5.829,5.829,0,0,0-.9,7.081l3.64,6.168-6.94,1.79a5.829,5.829,0,0,0-4.366,5.642v7.547a5.832,5.832,0,0,0,4.37,5.644l6.936,1.787-3.642,6.171a5.828,5.828,0,0,0,.9,7.078l5.337,5.337a5.832,5.832,0,0,0,7.081.9l6.168-3.642,1.788,6.94a5.83,5.83,0,0,0,5.643,4.367h7.546a5.832,5.832,0,0,0,5.644-4.37l1.787-6.937,6.172,3.644a5.828,5.828,0,0,0,7.077-.9l5.338-5.338a5.832,5.832,0,0,0,.9-7.08l-3.641-6.168,6.94-1.788a5.831,5.831,0,0,0,4.366-5.643v-7.547A5.829,5.829,0,0,0,161.989,189.729Zm-.634,13.189a.828.828,0,0,1-.618.8l-10.155,2.616a2.5,2.5,0,0,0-1.529,3.691l5.33,9.028a.833.833,0,0,1-.128,1.008l-5.336,5.335a.829.829,0,0,1-1.005.13l-9.031-5.331a2.5,2.5,0,0,0-3.692,1.53l-2.615,10.151a.83.83,0,0,1-.8.622h-7.546a.829.829,0,0,1-.8-.618l-2.616-10.155a2.5,2.5,0,0,0-3.692-1.53l-9.027,5.329a.829.829,0,0,1-1.007-.127l-5.337-5.336a.83.83,0,0,1-.13-1l5.33-9.031a2.5,2.5,0,0,0-1.529-3.691l-10.151-2.615a.829.829,0,0,1-.621-.8v-7.547a.828.828,0,0,1,.618-.8l10.154-2.617a2.5,2.5,0,0,0,1.529-3.691l-5.328-9.028a.828.828,0,0,1,.128-1.006l5.337-5.337a.822.822,0,0,1,1-.129l9.031,5.331a2.5,2.5,0,0,0,3.692-1.529l2.615-10.153a.829.829,0,0,1,.8-.621h7.546a.829.829,0,0,1,.8.618l2.616,10.156a2.5,2.5,0,0,0,3.692,1.529l9.029-5.33a.828.828,0,0,1,1.006.128l5.337,5.337a.828.828,0,0,1,.129,1l-5.331,9.031a2.5,2.5,0,0,0,1.529,3.691l10.151,2.616a.829.829,0,0,1,.622.8Z" fill="#846f75"/><path d="M128,185.076a14.069,14.069,0,1,0,14.068,14.069A14.085,14.085,0,0,0,128,185.076Zm0,23.137a9.069,9.069,0,1,1,9.068-9.068A9.078,9.078,0,0,1,128,208.213Z" fill="#846f75"/><path d="M128,26.5a89.172,89.172,0,0,0-89.173,89.173,89.553,89.553,0,0,0,44.325,77.091,2.5,2.5,0,0,0,2.518-4.321,84.265,84.265,0,0,1-29.242-28.561L79.32,146.665a2.5,2.5,0,1,0-2.5-4.33L53.931,155.55a83.977,83.977,0,0,1-.049-79.782L76.82,89.011a2.5,2.5,0,1,0,2.5-4.33L56.388,71.442A84.572,84.572,0,0,1,67.305,57.354,83.4,83.4,0,0,1,125.5,31.562V58.019a2.5,2.5,0,1,0,5,0V31.563a84.19,84.19,0,0,1,69.084,39.895l-22.9,13.223a2.5,2.5,0,1,0,2.5,4.33L202.1,75.779a83.867,83.867,0,0,1-.034,79.769l-22.884-13.213a2.5,2.5,0,1,0-2.5,4.33l22.889,13.216a84.282,84.282,0,0,1-29.082,28.471,2.5,2.5,0,0,0,2.528,4.314A89.183,89.183,0,0,0,128,26.5Z" fill="#846f75"/><path d="M128,131.346a15.682,15.682,0,1,1,12.948-24.5H177.7a8.8,8.8,0,1,1,0,17.6H140.98a15.64,15.64,0,0,1-12.98,6.9ZM128,105a10.673,10.673,0,1,0,7.547,18.22,10.721,10.721,0,0,0,1.832-2.462,2.5,2.5,0,0,1,2.2-1.308H177.7a3.8,3.8,0,1,0,0-7.6h-38.15a2.5,2.5,0,0,1-2.194-1.3A10.627,10.627,0,0,0,128,105Z" fill="#f9b087"/></svg>