<svg xmlns="http://www.w3.org/2000/svg" viewBox="0 0 256 256"><title>icon</title><path d="M128,172.646a2.5,2.5,0,0,1-1.25-.334l-36.5-21.074A2.5,2.5,0,0,1,89,149.073V106.927a2.5,2.5,0,0,1,1.25-2.165l36.5-21.074a2.5,2.5,0,0,1,2.5,0l36.5,21.074a2.5,2.5,0,0,1,1.25,2.165v42.146a2.5,2.5,0,0,1-1.25,2.165l-36.5,21.074A2.5,2.5,0,0,1,128,172.646ZM94,147.63l34,19.63,34-19.63V108.37L128,88.74,94,108.37Z" fill="#ed9abc"/><path d="M129.25,107.071a2.5,2.5,0,0,0-2.5,0l-16.25,9.382a2.5,2.5,0,0,0-1.25,2.165v18.764a2.5,2.5,0,0,0,1.25,2.165l16.25,9.382a2.5,2.5,0,0,0,2.5,0l16.25-9.382a2.5,2.5,0,0,0,1.25-2.165V118.618a2.5,2.5,0,0,0-1.25-2.165Zm12.5,28.867L128,143.877l-13.75-7.939V120.062L128,112.123l13.75,7.939Z" fill="#846f75"/><path d="M128,80.21a10.171,10.171,0,0,0,10.159-10.159V28.758a10.159,10.159,0,1,0-20.318,0V70.051A10.171,10.171,0,0,0,128,80.21Zm-5.159-51.452a5.159,5.159,0,1,1,10.318,0V70.051a5.159,5.159,0,1,1-10.318,0Z" fill="#846f75"/><path d="M128,175.79a10.171,10.171,0,0,0-10.159,10.159v41.293a10.159,10.159,0,1,0,20.318,0V185.949A10.171,10.171,0,0,0,128,175.79Zm5.159,51.452a5.159,5.159,0,1,1-10.318,0V185.949a5.159,5.159,0,1,1,10.318,0Z" fill="#846f75"/><path d="M227.242,117.841H185.949a10.159,10.159,0,0,0,0,20.318h41.293a10.159,10.159,0,1,0,0-20.318Zm0,15.318H185.949a5.159,5.159,0,0,1,0-10.318h41.293a5.159,5.159,0,1,1,0,10.318Z" fill="#846f75"/><path d="M80.21,128a10.171,10.171,0,0,0-10.159-10.159H28.758a10.159,10.159,0,0,0,0,20.318H70.051A10.171,10.171,0,0,0,80.21,128ZM23.6,128a5.164,5.164,0,0,1,5.159-5.159H70.051a5.159,5.159,0,0,1,0,10.318H28.758A5.164,5.164,0,0,1,23.6,128Z" fill="#846f75"/><path d="M145.25,60.563,195.027,89.3v20.2a2.5,2.5,0,0,0,5,0V87.858a2.5,2.5,0,0,0-1.25-2.165L147.75,56.233a2.5,2.5,0,1,0-2.5,4.33Z" fill="#846f75"/><path d="M58.473,112a2.5,2.5,0,0,0,2.5-2.5V89.3L110.75,60.563a2.5,2.5,0,0,0-2.5-4.33L57.223,85.693a2.5,2.5,0,0,0-1.25,2.165V109.5A2.5,2.5,0,0,0,58.473,112Z" fill="#846f75"/><path d="M197.527,144a2.5,2.5,0,0,0-2.5,2.5v20.2l-49.777,28.74a2.5,2.5,0,1,0,2.5,4.33l51.027-29.461a2.5,2.5,0,0,0,1.25-2.165V146.5A2.5,2.5,0,0,0,197.527,144Z" fill="#846f75"/><path d="M110.75,195.437,60.973,166.7V146.5a2.5,2.5,0,0,0-5,0v21.641a2.5,2.5,0,0,0,1.25,2.165l51.027,29.461a2.5,2.5,0,0,0,2.5-4.33Z" fill="#846f75"/><path d="M39.5,112a2.5,2.5,0,0,1-2.5-2.5V76.9a2.5,2.5,0,0,1,1.25-2.165l70-40.414a2.5,2.5,0,1,1,2.5,4.33L42,78.348V109.5A2.5,2.5,0,0,1,39.5,112Z" fill="#ed9abc"/><path d="M216.5,112a2.5,2.5,0,0,1-2.5-2.5V78.348L145.25,38.655a2.5,2.5,0,0,1,2.5-4.33l70,40.414A2.5,2.5,0,0,1,219,76.9v32.6A2.5,2.5,0,0,1,216.5,112Z" fill="#ed9abc"/><path d="M146.5,222.01a2.5,2.5,0,0,1-1.252-4.665L214,177.652V146.5a2.5,2.5,0,0,1,5,0v32.6a2.5,2.5,0,0,1-1.25,2.165l-70,40.414A2.491,2.491,0,0,1,146.5,222.01Z" fill="#ed9abc"/><path d="M109.5,222.01a2.491,2.491,0,0,1-1.248-.335l-70-40.414A2.5,2.5,0,0,1,37,179.1V146.5a2.5,2.5,0,0,1,5,0v31.152l68.75,39.693a2.5,2.5,0,0,1-1.252,4.665Z" fill="#ed9abc"/></svg>