<svg xmlns="http://www.w3.org/2000/svg" viewBox="0 0 256 256"><title>icon</title><path d="M101.137,100.743l-.125,0a2.5,2.5,0,0,1-1.81-.914l-3.317-4.055a2.5,2.5,0,1,1,3.869-3.166l1.568,1.916,5.235-5.233a2.5,2.5,0,0,1,3.535,3.536l-7.188,7.187A2.5,2.5,0,0,1,101.137,100.743Z" fill="#a58bc9"/><path d="M101.137,141.277l-.125,0a2.5,2.5,0,0,1-1.81-.914l-3.317-4.054a2.5,2.5,0,1,1,3.869-3.166l1.568,1.916,5.235-5.234a2.5,2.5,0,0,1,3.535,3.536l-7.188,7.187A2.5,2.5,0,0,1,101.137,141.277Z" fill="#a58bc9"/><path d="M101.137,181.812l-.125,0a2.5,2.5,0,0,1-1.81-.914l-3.317-4.054a2.5,2.5,0,1,1,3.869-3.166l1.568,1.916,5.235-5.234a2.5,2.5,0,0,1,3.535,3.536L102.9,181.08A2.5,2.5,0,0,1,101.137,181.812Z" fill="#a58bc9"/><path d="M196.449,166.833h-6.175a5.222,5.222,0,0,1-5.055-3.913l-1.313-5.092-4.525,2.671a5.224,5.224,0,0,1-6.346-.807l-4.365-4.365a5.223,5.223,0,0,1-.808-6.344l2.673-4.527-5.09-1.312a5.225,5.225,0,0,1-3.917-5.057v-6.174a5.226,5.226,0,0,1,3.913-5.057l5.094-1.312-2.672-4.526a5.222,5.222,0,0,1,.807-6.345l4.366-4.366a5.222,5.222,0,0,1,6.343-.807l4.527,2.672,1.312-5.089a5.224,5.224,0,0,1,5.056-3.916h6.175a5.223,5.223,0,0,1,5.057,3.914l1.311,5.091,4.527-2.671a5.221,5.221,0,0,1,6.344.806l4.367,4.366a5.224,5.224,0,0,1,.807,6.344l-2.673,4.527,5.09,1.311h0a5.224,5.224,0,0,1,3.912,5.057v6.174a5.224,5.224,0,0,1-3.913,5.057l-5.093,1.312,2.672,4.525a5.227,5.227,0,0,1-.8,6.345l-4.368,4.367a5.221,5.221,0,0,1-6.342.807l-4.529-2.673-1.311,5.09A5.223,5.223,0,0,1,196.449,166.833ZM185.5,151.485a2.5,2.5,0,0,1,2.421,1.876l2.141,8.308a.221.221,0,0,0,.214.164h6.175a.22.22,0,0,0,.215-.166l2.141-8.306a2.5,2.5,0,0,1,3.691-1.529l7.389,4.361a.221.221,0,0,0,.267-.035l4.368-4.367a.224.224,0,0,0,.034-.27l-4.36-7.387a2.5,2.5,0,0,1,1.53-3.691l8.307-2.141a.222.222,0,0,0,.164-.215v-6.174a.222.222,0,0,0-.167-.216l-8.3-2.14a2.5,2.5,0,0,1-1.53-3.692l4.361-7.388a.223.223,0,0,0-.036-.269l-4.366-4.366a.225.225,0,0,0-.27-.034l-7.387,4.359a2.5,2.5,0,0,1-3.691-1.528l-2.141-8.308a.22.22,0,0,0-.215-.164h-6.175a.222.222,0,0,0-.215.167l-2.14,8.3a2.5,2.5,0,0,1-3.691,1.528l-7.388-4.36a.223.223,0,0,0-.269.035l-4.366,4.366a.224.224,0,0,0-.034.271l4.359,7.386A2.5,2.5,0,0,1,175,129.557l-8.308,2.14a.224.224,0,0,0-.165.216v6.174a.225.225,0,0,0,.168.216l8.305,2.14a2.5,2.5,0,0,1,1.529,3.691l-4.36,7.388a.224.224,0,0,0,.035.27l4.366,4.365a.224.224,0,0,0,.271.034l7.386-4.359A2.5,2.5,0,0,1,185.5,151.485Z" fill="#a58bc9"/><path d="M193.362,146.964A11.964,11.964,0,1,1,205.326,135,11.978,11.978,0,0,1,193.362,146.964Zm0-18.928A6.964,6.964,0,1,0,200.326,135,6.972,6.972,0,0,0,193.362,128.036Z" fill="#a58bc9"/><path d="M193.362,98.167a2.5,2.5,0,0,0,2.5-2.5v-55.6a2.5,2.5,0,0,0-2.5-2.5h-52.6V31.932a12.766,12.766,0,0,0-25.532,0v5.632h-52.6a2.5,2.5,0,0,0-2.5,2.5V215.936a2.5,2.5,0,0,0,2.5,2.5H193.362a2.5,2.5,0,0,0,2.5-2.5v-41.6a2.5,2.5,0,0,0-5,0v39.1H65.138V42.564H87.191v8.563A7.882,7.882,0,0,0,95.063,59h65.874a7.882,7.882,0,0,0,7.872-7.873V42.564h22.053v53.1A2.5,2.5,0,0,0,193.362,98.167ZM120.234,31.932a7.766,7.766,0,0,1,15.532,0v5.632H120.234Zm43.575,19.2A2.876,2.876,0,0,1,160.937,54H95.063a2.876,2.876,0,0,1-2.872-2.873V42.564h71.618Z" fill="#846f75"/><path d="M118.3,81.41a2.5,2.5,0,0,0-2.5-2.5H89.691a2.5,2.5,0,0,0-2.5,2.5v26.111a2.5,2.5,0,0,0,2.5,2.5H115.8a2.5,2.5,0,0,0,2.5-2.5Zm-5,23.611H92.191V83.91H113.3Z" fill="#846f75"/><path d="M166.309,91.965h-36.5a2.5,2.5,0,0,0,0,5h36.5a2.5,2.5,0,0,0,0-5Z" fill="#846f75"/><path d="M118.3,121.944a2.5,2.5,0,0,0-2.5-2.5H89.691a2.5,2.5,0,0,0-2.5,2.5v26.112a2.5,2.5,0,0,0,2.5,2.5H115.8a2.5,2.5,0,0,0,2.5-2.5Zm-5,23.612H92.191V124.444H113.3Z" fill="#846f75"/><path d="M129.809,137.5H155a2.5,2.5,0,0,0,0-5H129.809a2.5,2.5,0,1,0,0,5Z" fill="#846f75"/><path d="M115.8,159.979H89.691a2.5,2.5,0,0,0-2.5,2.5V188.59a2.5,2.5,0,0,0,2.5,2.5H115.8a2.5,2.5,0,0,0,2.5-2.5V162.479A2.5,2.5,0,0,0,115.8,159.979Zm-2.5,26.111H92.191V164.979H113.3Z" fill="#846f75"/><path d="M129.809,178.035h36.5a2.5,2.5,0,0,0,0-5h-36.5a2.5,2.5,0,0,0,0,5Z" fill="#846f75"/></svg>