<svg xmlns="http://www.w3.org/2000/svg" viewBox="0 0 256 256"><title>icon</title><path d="M204.633,171.228H51.367a2.5,2.5,0,0,1-2.5-2.5v-96.5a2.5,2.5,0,0,1,2.5-2.5H204.633a2.5,2.5,0,0,1,2.5,2.5v96.5A2.5,2.5,0,0,1,204.633,171.228Zm-150.766-5H202.133v-91.5H53.867Z" fill="#ebe7f2"/><path d="M149.359,193.917H106.641a2.5,2.5,0,1,1,0-5h42.718a2.5,2.5,0,0,1,0,5Z" fill="#ebe7f2"/><path d="M79.932,104.889l-.125,0a2.5,2.5,0,0,1-1.81-.914L74.68,99.917a2.5,2.5,0,1,1,3.869-3.166l1.568,1.917,5.235-5.234a2.5,2.5,0,0,1,3.535,3.535L81.7,104.156A2.5,2.5,0,0,1,79.932,104.889Z" fill="#f9b087"/><path d="M35.947,171.228a2.5,2.5,0,0,0,2.5-2.5V59.605a2.5,2.5,0,0,1,2.5-2.5H215.053a2.5,2.5,0,0,1,2.5,2.5V168.728a2.5,2.5,0,0,0,5,0V59.605a7.509,7.509,0,0,0-7.5-7.5H40.947a7.509,7.509,0,0,0-7.5,7.5V168.728A2.5,2.5,0,0,0,35.947,171.228Z" fill="#846f75"/><path d="M231.5,179.605H24.5a7.509,7.509,0,0,0-7.5,7.5v9.29a7.509,7.509,0,0,0,7.5,7.5h207a7.509,7.509,0,0,0,7.5-7.5v-9.29A7.509,7.509,0,0,0,231.5,179.605ZM234,196.4a2.5,2.5,0,0,1-2.5,2.5H24.5a2.5,2.5,0,0,1-2.5-2.5v-9.29a2.5,2.5,0,0,1,2.5-2.5h207a2.5,2.5,0,0,1,2.5,2.5Z" fill="#846f75"/><path d="M97.1,85.556a2.5,2.5,0,0,0-2.5-2.5H68.486a2.5,2.5,0,0,0-2.5,2.5v26.111a2.5,2.5,0,0,0,2.5,2.5H94.6a2.5,2.5,0,0,0,2.5-2.5Zm-5,23.611H70.986V88.056H92.1Z" fill="#846f75"/><path d="M187.514,96.111H139.375a2.5,2.5,0,0,0,0,5h48.139a2.5,2.5,0,0,0,0-5Z" fill="#846f75"/><path d="M108.6,101.111h20.771a2.5,2.5,0,0,0,0-5H108.6a2.5,2.5,0,0,0,0,5Z" fill="#846f75"/><path d="M94.6,123.694H68.486a2.5,2.5,0,0,0-2.5,2.5v26.112a2.5,2.5,0,0,0,2.5,2.5H94.6a2.5,2.5,0,0,0,2.5-2.5V126.194A2.5,2.5,0,0,0,94.6,123.694Zm-2.5,26.112H70.986V128.694H92.1Z" fill="#846f75"/><path d="M187.514,136.75H163a2.5,2.5,0,0,0,0,5h24.514a2.5,2.5,0,0,0,0-5Z" fill="#846f75"/><path d="M108.6,141.75H153a2.5,2.5,0,0,0,0-5H108.6a2.5,2.5,0,1,0,0,5Z" fill="#846f75"/><path d="M79.932,145.527l-.125,0A2.5,2.5,0,0,1,78,144.61l-3.317-4.054a2.5,2.5,0,1,1,3.869-3.166l1.568,1.917,5.235-5.235a2.5,2.5,0,1,1,3.535,3.535L81.7,144.795A2.5,2.5,0,0,1,79.932,145.527Z" fill="#f9b087"/></svg>