<svg xmlns="http://www.w3.org/2000/svg" viewBox="0 0 256 256"><title>icon</title><path d="M51.407,183.035a2.5,2.5,0,0,1-2.5-2.5V62a2.5,2.5,0,0,1,5,0V180.535A2.5,2.5,0,0,1,51.407,183.035Z" fill="#ebe7f2"/><path d="M204.593,183.035a2.5,2.5,0,0,1-2.5-2.5V62a2.5,2.5,0,1,1,5,0V180.535A2.5,2.5,0,0,1,204.593,183.035Z" fill="#ebe7f2"/><path d="M217,31.965H39a7.509,7.509,0,0,0-7.5,7.5V175.6a7.508,7.508,0,0,0,7.5,7.5h68.652a20.1,20.1,0,0,1-5.726,19.815L98.514,206.1H91a9,9,0,0,0,0,18h74a9,9,0,0,0,0-18h-7.514l-3.413-3.185a20.1,20.1,0,0,1-5.725-19.815H217a7.508,7.508,0,0,0,7.5-7.5V39.465A7.509,7.509,0,0,0,217,31.965Zm-178,5H217a2.5,2.5,0,0,1,2.5,2.5V59.5H36.5V39.465A2.5,2.5,0,0,1,39,36.965ZM169,215.1a4,4,0,0,1-4,4H91a4,4,0,0,1,0-8h74A4,4,0,0,1,169,215.1Zm-18.829-9H105.829a25.1,25.1,0,0,0,6.965-23h30.412A25.1,25.1,0,0,0,150.171,206.1ZM217,178.1H39a2.5,2.5,0,0,1-2.5-2.5V64.5h183V175.6A2.5,2.5,0,0,1,217,178.1Z" fill="#846f75"/><path d="M52.128,56.089a7.25,7.25,0,1,0-7.25-7.25A7.258,7.258,0,0,0,52.128,56.089Zm0-9.5a2.25,2.25,0,1,1-2.25,2.25A2.252,2.252,0,0,1,52.128,46.589Z" fill="#846f75"/><path d="M70.628,56.089a7.25,7.25,0,1,0-7.25-7.25A7.258,7.258,0,0,0,70.628,56.089Zm0-9.5a2.25,2.25,0,1,1-2.25,2.25A2.252,2.252,0,0,1,70.628,46.589Z" fill="#846f75"/><path d="M89.129,56.089a7.25,7.25,0,1,0-7.25-7.25A7.259,7.259,0,0,0,89.129,56.089Zm0-9.5a2.25,2.25,0,1,1-2.25,2.25A2.252,2.252,0,0,1,89.129,46.589Z" fill="#846f75"/><path d="M176.333,51.339h29a2.5,2.5,0,0,0,0-5h-29a2.5,2.5,0,0,0,0,5Z" fill="#846f75"/><path d="M89.612,150.519A30.454,30.454,0,1,1,103.774,93.11a7.5,7.5,0,1,1-6.99,13.272,15.237,15.237,0,0,0-7.172-1.771,15.454,15.454,0,1,0,0,30.908,15.237,15.237,0,0,0,7.172-1.771,7.5,7.5,0,1,1,6.991,13.271A30.494,30.494,0,0,1,89.612,150.519Zm0-55.908A25.454,25.454,0,1,0,101.445,142.6a2.5,2.5,0,1,0-2.332-4.423,20.182,20.182,0,0,1-9.5,2.347,20.454,20.454,0,1,1,0-40.908,20.18,20.18,0,0,1,9.5,2.347,2.5,2.5,0,0,0,2.33-4.424A25.49,25.49,0,0,0,89.612,94.611Z" fill="#65c1d6"/><path d="M153.76,151.063a7.469,7.469,0,0,1-6.959-4.7L126.823,96.74a7.5,7.5,0,1,1,13.915-5.6l19.978,49.621a7.5,7.5,0,0,1-6.956,10.3ZM133.782,91.437a2.5,2.5,0,0,0-2.32,3.436L151.439,144.5a2.53,2.53,0,0,0,3.252,1.385,2.5,2.5,0,0,0,1.386-3.253L136.1,93.005a2.505,2.505,0,0,0-2.318-1.568Z" fill="#65c1d6"/><path d="M189.342,150.519H173.217a7.5,7.5,0,1,1,0-15h16.125a7.5,7.5,0,0,1,0,15Zm-16.125-10a2.5,2.5,0,1,0,0,5h16.125a2.5,2.5,0,0,0,0-5Z" fill="#65c1d6"/><path d="M118.654,126.625a7.875,7.875,0,1,1,7.875-7.875A7.884,7.884,0,0,1,118.654,126.625Zm0-10.75a2.875,2.875,0,1,0,2.875,2.875A2.879,2.879,0,0,0,118.654,115.875Z" fill="#65c1d6"/><path d="M118.654,149.625a7.875,7.875,0,1,1,7.875-7.875A7.884,7.884,0,0,1,118.654,149.625Zm0-10.75a2.875,2.875,0,1,0,2.875,2.875A2.879,2.879,0,0,0,118.654,138.875Z" fill="#65c1d6"/></svg>