<svg xmlns="http://www.w3.org/2000/svg" viewBox="0 0 256 256"><title>icon</title><path d="M207.107,131.44H154.181a2.5,2.5,0,1,1,0-5h52.926a2.5,2.5,0,1,1,0,5Z" fill="#ebe7f2"/><path d="M146.424,88.607H46.813a2.5,2.5,0,0,1,0-5h99.611a2.5,2.5,0,0,1,0,5Z" fill="#ebe7f2"/><path d="M105.257,131.44H46.813a2.5,2.5,0,1,1,0-5h58.444a2.5,2.5,0,0,1,0,5Z" fill="#ebe7f2"/><path d="M207.107,174.274H46.813a2.5,2.5,0,1,1,0-5H207.107a2.5,2.5,0,0,1,0,5Z" fill="#ebe7f2"/><path d="M228.768,54.3,203.5,29.032a2.572,2.572,0,0,0-3.535,0L104.15,124.846a2.5,2.5,0,0,0-.638,1.085l-10,35.272A2.5,2.5,0,0,0,96.6,164.29l35.272-10a2.509,2.509,0,0,0,1.086-.638l95.813-95.813A2.5,2.5,0,0,0,228.768,54.3ZM107.161,131.391l19.247,19.248-26.866,7.619Zm24.026,16.956-21.734-21.734,74.922-74.922,21.734,21.733Zm78.458-78.458L187.911,48.155l13.819-13.82,21.734,21.734Z" fill="#a58bc9"/><path d="M207.107,95.8a2.5,2.5,0,0,0-2.5,2.5V197.92a8.677,8.677,0,0,1-8.668,8.667H57.98a8.677,8.677,0,0,1-8.667-8.667V59.961a8.678,8.678,0,0,1,8.667-8.668H162.04a2.5,2.5,0,0,0,0-5H57.98A13.683,13.683,0,0,0,44.313,59.961V197.92A13.682,13.682,0,0,0,57.98,211.587H195.939a13.683,13.683,0,0,0,13.668-13.667V98.3A2.5,2.5,0,0,0,207.107,95.8Z" fill="#846f75"/></svg>