<svg xmlns="http://www.w3.org/2000/svg" viewBox="0 0 256 256"><title>icon</title><path d="M141.659,176.9a2.5,2.5,0,0,1-.58-4.932,56.011,56.011,0,0,0,22.259-97.908,2.5,2.5,0,0,1,3.158-3.877,61.013,61.013,0,0,1-24.253,106.649A2.549,2.549,0,0,1,141.659,176.9Z" fill="#ed9abc"/><path d="M114.341,176.9a2.549,2.549,0,0,1-.584-.068A61.013,61.013,0,0,1,89.5,70.179a2.5,2.5,0,0,1,3.158,3.877,56.011,56.011,0,0,0,22.259,97.908,2.5,2.5,0,0,1-.58,4.932Z" fill="#ed9abc"/><path d="M201.412,67.852a87.293,87.293,0,0,0-35.4-31.536,2.5,2.5,0,0,0-3.593,2.249v69.39a4.193,4.193,0,0,1-4.188,4.188H97.773a4.193,4.193,0,0,1-4.188-4.188V38.565a2.5,2.5,0,0,0-3.593-2.249A87.066,87.066,0,0,0,88.585,192.27V235a2.5,2.5,0,0,0,5,0V190.721a2.5,2.5,0,0,0-1.407-2.249,82.071,82.071,0,0,1-3.593-145.8v65.288a9.2,9.2,0,0,0,9.188,9.188h60.454a9.2,9.2,0,0,0,9.188-9.188V42.667a82.071,82.071,0,0,1-3.593,145.805,2.5,2.5,0,0,0-1.407,2.249V235a2.5,2.5,0,0,0,5,0V192.27a87.077,87.077,0,0,0,34-124.418Z" fill="#846f75"/><path d="M128,156.366a16.564,16.564,0,0,0-16.545,16.545V235a2.5,2.5,0,0,0,5,0V172.911a11.545,11.545,0,1,1,23.09,0V235a2.5,2.5,0,0,0,5,0V172.911A16.564,16.564,0,0,0,128,156.366Z" fill="#846f75"/><path d="M131,100.5h-6a5.142,5.142,0,0,1-4.98-3.856l-1.252-4.856-4.316,2.547a5.143,5.143,0,0,1-6.251-.794L103.959,89.3a5.15,5.15,0,0,1-.8-6.249l2.55-4.319-4.854-1.251A5.147,5.147,0,0,1,97,72.5v-6a5.146,5.146,0,0,1,3.855-4.981l4.857-1.251-2.548-4.316a5.148,5.148,0,0,1,.8-6.251l4.242-4.243a5.144,5.144,0,0,1,6.248-.8l4.319,2.549,1.251-4.853A5.143,5.143,0,0,1,125,38.5h6a5.145,5.145,0,0,1,4.981,3.855l1.252,4.856,4.316-2.547a5.149,5.149,0,0,1,6.251.794l4.242,4.243a5.145,5.145,0,0,1,.8,6.248l-2.549,4.319,4.854,1.25h0A5.146,5.146,0,0,1,159,66.5v6a5.145,5.145,0,0,1-3.855,4.981l-4.857,1.252,2.548,4.315a5.152,5.152,0,0,1-.794,6.252L147.8,93.542a5.149,5.149,0,0,1-6.248.8l-4.319-2.549-1.251,4.854A5.147,5.147,0,0,1,131,100.5Zm-10.64-15.055a2.5,2.5,0,0,1,2.421,1.876l2.08,8.073a.144.144,0,0,0,.14.106h6a.147.147,0,0,0,.142-.11l2.079-8.069a2.5,2.5,0,0,1,3.691-1.529l7.178,4.238a.144.144,0,0,0,.175-.024l4.242-4.242a.146.146,0,0,0,.021-.179l-4.235-7.174a2.5,2.5,0,0,1,1.529-3.692l8.073-2.079A.146.146,0,0,0,154,72.5v-6a.147.147,0,0,0-.107-.141l-8.072-2.079a2.5,2.5,0,0,1-1.529-3.692l4.237-7.178a.143.143,0,0,0-.023-.174l-4.242-4.242a.146.146,0,0,0-.178-.022l-7.175,4.235a2.5,2.5,0,0,1-3.691-1.529l-2.08-8.072A.146.146,0,0,0,131,43.5h-6a.144.144,0,0,0-.14.108l-2.08,8.07a2.5,2.5,0,0,1-3.691,1.529l-7.178-4.237a.146.146,0,0,0-.175.024l-4.242,4.242a.145.145,0,0,0-.022.177l4.236,7.175a2.5,2.5,0,0,1-1.529,3.692l-8.073,2.08a.145.145,0,0,0-.106.14v6a.148.148,0,0,0,.109.142l8.07,2.078a2.5,2.5,0,0,1,1.529,3.692l-4.237,7.178a.145.145,0,0,0,.024.176l4.241,4.24a.147.147,0,0,0,.178.023l7.175-4.236A2.5,2.5,0,0,1,120.359,85.445Z" fill="#ed9abc"/><path d="M128,81.195A11.695,11.695,0,1,1,139.7,69.5,11.708,11.708,0,0,1,128,81.195Zm0-18.39a6.7,6.7,0,1,0,6.695,6.7A6.7,6.7,0,0,0,128,62.805Z" fill="#ed9abc"/></svg>