<svg xmlns="http://www.w3.org/2000/svg" viewBox="0 0 256 256"><title>icon</title><path d="M151.375,115.637H117.28a2.5,2.5,0,0,1-2.5-2.5V79.042a2.5,2.5,0,0,1,2.5-2.5h34.1a2.5,2.5,0,0,1,2.5,2.5v34.1A2.5,2.5,0,0,1,151.375,115.637Zm-31.595-5h29.1V81.542H119.78Z" fill="#f9b087"/><path d="M76.4,144.5h-24a2.5,2.5,0,0,1,0-5h24a2.5,2.5,0,1,1,0,5Z" fill="#f9b087"/><path d="M76.4,155.442h-24a2.5,2.5,0,0,1,0-5h24a2.5,2.5,0,1,1,0,5Z" fill="#f9b087"/><path d="M76.4,166.385h-24a2.5,2.5,0,0,1,0-5h24a2.5,2.5,0,1,1,0,5Z" fill="#f9b087"/><path d="M203.6,144.5h-24a2.5,2.5,0,0,1,0-5h24a2.5,2.5,0,0,1,0,5Z" fill="#f9b087"/><path d="M203.6,155.442h-24a2.5,2.5,0,0,1,0-5h24a2.5,2.5,0,0,1,0,5Z" fill="#f9b087"/><path d="M203.6,166.385h-24a2.5,2.5,0,0,1,0-5h24a2.5,2.5,0,0,1,0,5Z" fill="#f9b087"/><path d="M109.689,167.8a14.855,14.855,0,1,1,14.854-14.855A14.872,14.872,0,0,1,109.689,167.8Zm0-24.709a9.855,9.855,0,1,0,9.854,9.854A9.866,9.866,0,0,0,109.689,143.088Z" fill="#f9b087"/><path d="M146.311,167.8a14.855,14.855,0,1,1,14.854-14.855A14.871,14.871,0,0,1,146.311,167.8Zm0-24.709a9.855,9.855,0,1,0,9.854,9.854A9.865,9.865,0,0,0,146.311,143.088Z" fill="#f9b087"/><path d="M203.6,115.637H169.5a2.5,2.5,0,0,1-2.5-2.5V79.042a2.5,2.5,0,0,1,2.5-2.5h34.1a2.5,2.5,0,0,1,2.5,2.5v34.1A2.5,2.5,0,0,1,203.6,115.637Zm-31.595-5h29.1V81.542H172Z" fill="#f9b087"/><path d="M217,31.965H39a7.509,7.509,0,0,0-7.5,7.5V175.6a7.508,7.508,0,0,0,7.5,7.5h68.652a20.1,20.1,0,0,1-5.725,19.815L98.515,206.1H91a9,9,0,0,0,0,18h74a9,9,0,0,0,0-18h-7.515l-3.412-3.185a20.1,20.1,0,0,1-5.725-19.815H217a7.508,7.508,0,0,0,7.5-7.5V39.465A7.509,7.509,0,0,0,217,31.965Zm-178,5H217a2.5,2.5,0,0,1,2.5,2.5V59.5H36.5V39.465A2.5,2.5,0,0,1,39,36.965ZM169,215.1a4,4,0,0,1-4,4H91a4,4,0,0,1,0-8h74A4,4,0,0,1,169,215.1Zm-18.83-9H105.83a25.1,25.1,0,0,0,6.964-23h30.412A25.1,25.1,0,0,0,150.17,206.1Zm66.83-28H39a2.5,2.5,0,0,1-2.5-2.5V64.5h183V175.6A2.5,2.5,0,0,1,217,178.1Z" fill="#846f75"/><path d="M52.128,56.089a7.25,7.25,0,1,0-7.25-7.25A7.258,7.258,0,0,0,52.128,56.089Zm0-9.5a2.25,2.25,0,1,1-2.25,2.25A2.252,2.252,0,0,1,52.128,46.589Z" fill="#846f75"/><path d="M70.628,56.089a7.25,7.25,0,1,0-7.25-7.25A7.258,7.258,0,0,0,70.628,56.089Zm0-9.5a2.25,2.25,0,1,1-2.25,2.25A2.252,2.252,0,0,1,70.628,46.589Z" fill="#846f75"/><path d="M89.129,56.089a7.25,7.25,0,1,0-7.25-7.25A7.259,7.259,0,0,0,89.129,56.089Zm0-9.5a2.25,2.25,0,1,1-2.25,2.25A2.252,2.252,0,0,1,89.129,46.589Z" fill="#846f75"/><path d="M176.333,51.339h29a2.5,2.5,0,0,0,0-5h-29a2.5,2.5,0,0,0,0,5Z" fill="#846f75"/><path d="M140.786,104.923a2.5,2.5,0,0,0,1.767-4.268l-4.691-4.691,4.691-4.691a2.5,2.5,0,1,0-3.535-3.535l-4.691,4.691-4.69-4.691a2.5,2.5,0,0,0-3.535,3.535l4.69,4.691-4.69,4.691a2.5,2.5,0,1,0,3.535,3.535l4.69-4.69,4.691,4.69A2.489,2.489,0,0,0,140.786,104.923Z" fill="#846f75"/><path d="M92.283,99.377a2.5,2.5,0,0,0-4.072-.077l-8.06,10.874-7.381-10.8A2.5,2.5,0,0,0,68.7,99.3L50.393,124a2.5,2.5,0,0,0,4.016,2.977L70.624,105.1,77,114.425,69.906,124a2.5,2.5,0,0,0,4.017,2.977L90.137,105.1l6.95,10.165a2.5,2.5,0,1,0,4.128-2.823Z" fill="#846f75"/><path d="M70.14,97.2a7.121,7.121,0,1,0-7.121-7.121A7.128,7.128,0,0,0,70.14,97.2Zm0-9.241a2.121,2.121,0,1,1-2.121,2.12A2.123,2.123,0,0,1,70.14,87.954Z" fill="#846f75"/><path d="M111.457,149.116a2.5,2.5,0,0,0-3.535,0l-4.036,4.035a2.5,2.5,0,0,0,3.535,3.537l2.268-2.268,2.268,2.267a2.5,2.5,0,0,0,3.535-3.535Z" fill="#846f75"/><path d="M148.579,149.2l-2.268,2.267-2.268-2.267a2.5,2.5,0,1,0-3.536,3.535l4.035,4.036a2.5,2.5,0,0,0,3.536,0l4.036-4.036a2.5,2.5,0,0,0-3.535-3.535Z" fill="#846f75"/><path d="M192.6,90.509l-8.066,8.066-3.943-3.944a2.5,2.5,0,0,0-3.536,3.536l5.711,5.711a2.5,2.5,0,0,0,3.536,0l9.833-9.834a2.5,2.5,0,1,0-3.535-3.535Z" fill="#846f75"/><path d="M203.6,127.985H117.28a2.5,2.5,0,0,1,0-5H203.6a2.5,2.5,0,0,1,0,5Z" fill="#f9b087"/><path d="M99.151,127.985H52.4a2.5,2.5,0,0,1-2.5-2.5V78.735a2.5,2.5,0,0,1,2.5-2.5h46.75a2.5,2.5,0,0,1,2.5,2.5v46.75A2.5,2.5,0,0,1,99.151,127.985Zm-44.25-5h41.75V81.235H54.9Z" fill="#f9b087"/></svg>