<svg xmlns="http://www.w3.org/2000/svg" viewBox="0 0 256 256"><title>icon</title><path d="M128,109.689a2.5,2.5,0,0,1-2.5-2.5V80.5a2.5,2.5,0,0,1,5,0v26.689A2.5,2.5,0,0,1,128,109.689Z" fill="#65c1d6"/><path d="M73.7,115.869a2.5,2.5,0,0,1-1.943-4.071L98.31,78.929a2.5,2.5,0,0,1,3.89,3.142L75.648,114.94A2.494,2.494,0,0,1,73.7,115.869Z" fill="#65c1d6"/><path d="M181.73,115.167a2.494,2.494,0,0,1-1.946-.929L153.8,82.071a2.5,2.5,0,0,1,3.89-3.142L183.674,111.1a2.5,2.5,0,0,1-1.944,4.071Z" fill="#65c1d6"/><path d="M109.4,83a2.473,2.473,0,0,1-.622-.079,2.5,2.5,0,0,1-1.8-3.042l5.707-22.294a2.5,2.5,0,0,1,4.844,1.24L111.821,81.12A2.5,2.5,0,0,1,109.4,83Z" fill="#ebe7f2"/><path d="M146.6,83a2.5,2.5,0,0,1-2.42-1.881l-5.708-22.294a2.5,2.5,0,0,1,4.844-1.24l5.707,22.294a2.5,2.5,0,0,1-1.8,3.042A2.473,2.473,0,0,1,146.6,83Z" fill="#ebe7f2"/><path d="M176.568,182.755a2.5,2.5,0,0,1-2.222-3.642L184.859,158.6a2.5,2.5,0,1,1,4.449,2.282L178.8,181.4A2.5,2.5,0,0,1,176.568,182.755Z" fill="#65c1d6"/><path d="M79.432,182.755a2.5,2.5,0,0,1-2.227-1.36L66.692,160.887a2.5,2.5,0,1,1,4.449-2.282l10.513,20.508a2.5,2.5,0,0,1-2.222,3.642Z" fill="#65c1d6"/><path d="M151.2,182.755a2.5,2.5,0,0,1-2.227-1.36l-10.51-20.5a2.5,2.5,0,0,1,4.45-2.282l10.509,20.5a2.5,2.5,0,0,1-2.222,3.642Z" fill="#65c1d6"/><path d="M104.8,182.755a2.5,2.5,0,0,1-2.222-3.642l10.45-20.385a2.5,2.5,0,1,1,4.449,2.281L107.026,181.4A2.5,2.5,0,0,1,104.8,182.755Z" fill="#65c1d6"/><path d="M100.255,83h55.49a2.5,2.5,0,0,0,2.422-3.12l-7.76-30.312a8.771,8.771,0,0,0-8.5-6.6h-1.525a14.839,14.839,0,1,0-24.764,0h-1.525a8.771,8.771,0,0,0-8.5,6.6L97.833,79.88A2.5,2.5,0,0,0,100.255,83Zm10.182-32.191a3.773,3.773,0,0,1,3.656-2.839h7.695a2.5,2.5,0,0,0,1.26-4.659,9.839,9.839,0,1,1,9.9,0,2.5,2.5,0,0,0,1.26,4.659h7.7a3.773,3.773,0,0,1,3.656,2.839L152.524,78H103.476Z" fill="#846f75"/><path d="M86.541,135A30.311,30.311,0,1,0,56.23,165.311,30.345,30.345,0,0,0,86.541,135ZM56.23,160.311A25.311,25.311,0,1,1,81.541,135,25.339,25.339,0,0,1,56.23,160.311Z" fill="#846f75"/><path d="M158.311,135A30.311,30.311,0,1,0,128,165.311,30.346,30.346,0,0,0,158.311,135ZM128,160.311A25.311,25.311,0,1,1,153.311,135,25.34,25.34,0,0,1,128,160.311Z" fill="#846f75"/><path d="M199.77,104.689A30.311,30.311,0,1,0,230.08,135,30.345,30.345,0,0,0,199.77,104.689Zm0,55.622A25.311,25.311,0,1,1,225.08,135,25.34,25.34,0,0,1,199.77,160.311Z" fill="#846f75"/><path d="M92.115,174.689A30.311,30.311,0,1,0,122.426,205,30.345,30.345,0,0,0,92.115,174.689Zm0,55.622A25.311,25.311,0,1,1,117.426,205,25.339,25.339,0,0,1,92.115,230.311Z" fill="#846f75"/><path d="M163.885,174.689A30.311,30.311,0,1,0,194.2,205,30.345,30.345,0,0,0,163.885,174.689Zm0,55.622A25.311,25.311,0,1,1,189.2,205,25.34,25.34,0,0,1,163.885,230.311Z" fill="#846f75"/><path d="M98.12,200.005l-8.066,8.065-3.944-3.943a2.5,2.5,0,1,0-3.535,3.535l5.712,5.711a2.5,2.5,0,0,0,3.535,0l9.833-9.833a2.5,2.5,0,1,0-3.535-3.535Z" fill="#846f75"/><path d="M169.89,200.005l-8.066,8.065-3.944-3.943a2.5,2.5,0,1,0-3.535,3.535l5.711,5.711a2.5,2.5,0,0,0,3.535,0l9.834-9.833a2.5,2.5,0,1,0-3.535-3.535Z" fill="#846f75"/><path d="M45.793,132.1h15.5a2.5,2.5,0,0,0,0-5h-15.5a2.5,2.5,0,1,0,0,5Z" fill="#846f75"/><path d="M66.668,137.9H45.793a2.5,2.5,0,0,0,0,5H66.668a2.5,2.5,0,0,0,0-5Z" fill="#846f75"/><path d="M117.562,132.1h15.5a2.5,2.5,0,0,0,0-5h-15.5a2.5,2.5,0,1,0,0,5Z" fill="#846f75"/><path d="M138.437,137.9H117.562a2.5,2.5,0,1,0,0,5h20.875a2.5,2.5,0,0,0,0-5Z" fill="#846f75"/><path d="M189.332,132.1h15.5a2.5,2.5,0,0,0,0-5h-15.5a2.5,2.5,0,0,0,0,5Z" fill="#846f75"/><path d="M210.207,137.9H189.332a2.5,2.5,0,0,0,0,5h20.875a2.5,2.5,0,0,0,0-5Z" fill="#846f75"/></svg>