<svg xmlns="http://www.w3.org/2000/svg" viewBox="0 0 256 256"><title>icon</title><path d="M105.2,241.275a2.473,2.473,0,0,1-.622-.079,2.5,2.5,0,0,1-1.8-3.042l7-27.325a2.5,2.5,0,0,1,4.844,1.24l-7,27.326A2.5,2.5,0,0,1,105.2,241.275Z" fill="#ebe7f2"/><path d="M150.8,241.275a2.5,2.5,0,0,1-2.42-1.88l-7-27.326a2.5,2.5,0,1,1,4.844-1.24l7,27.325a2.5,2.5,0,0,1-1.8,3.042A2.473,2.473,0,0,1,150.8,241.275Z" fill="#ebe7f2"/><path d="M154.917,201a10.184,10.184,0,0,0-9.871-7.663h-2.954a17.624,17.624,0,1,0-28.184,0h-2.953A10.185,10.185,0,0,0,101.083,201l-9.512,37.153a2.5,2.5,0,0,0,2.422,3.12h68.014a2.5,2.5,0,0,0,2.422-3.12Zm-57.7,35.273,8.713-34.033a5.19,5.19,0,0,1,5.029-3.9h9.43a2.5,2.5,0,0,0,1.261-4.659,12.624,12.624,0,1,1,12.708,0,2.5,2.5,0,0,0,1.26,4.659h9.432a5.186,5.186,0,0,1,5.027,3.9l8.713,34.033Z" fill="#846f75"/><path d="M184.333,99.5a2.5,2.5,0,0,0,2.5-2.5V83h38a2.5,2.5,0,0,0,2.5-2.5V28.333a2.5,2.5,0,0,0-2.5-2.5h-81a2.5,2.5,0,0,0-2.5,2.5V51.917H114.667V28.333a2.5,2.5,0,0,0-2.5-2.5h-81a2.5,2.5,0,0,0-2.5,2.5V80.5a2.5,2.5,0,0,0,2.5,2.5h81a2.5,2.5,0,0,0,2.5-2.5V56.917h26.666V80.5a2.5,2.5,0,0,0,2.5,2.5h38V94.5H128a2.5,2.5,0,0,0-2.5,2.5v16.833H31.167a2.5,2.5,0,0,0-2.5,2.5V153a2.5,2.5,0,0,0,2.5,2.5H224.833a2.5,2.5,0,0,0,2.5-2.5V116.333a2.5,2.5,0,0,0-2.5-2.5H130.5V99.5ZM109.667,78h-76V30.833h76Zm36.666-47.167h76V78h-76Zm76,119.667H33.667V118.833H222.333Z" fill="#846f75"/><path d="M69.054,70.728A2.5,2.5,0,0,1,66.6,67.774l1.289-6.988H57.338a2.5,2.5,0,0,1-2.5-2.5V50.12a2.5,2.5,0,0,1,2.5-2.5H67.884L66.6,40.632a2.5,2.5,0,0,1,3.962-2.451L89.2,52.205a2.5,2.5,0,0,1,0,4L70.557,70.226A2.5,2.5,0,0,1,69.054,70.728ZM59.838,55.786H70.887a2.5,2.5,0,0,1,2.459,2.953l-.671,3.636L83.538,54.2,72.675,46.031l.671,3.636a2.5,2.5,0,0,1-2.459,2.953H59.838Z" fill="#a58bc9"/><path d="M184.333,71.882a2.5,2.5,0,0,1-2-1L168.311,52.242a2.5,2.5,0,0,1,2.451-3.962l6.988,1.29V39.024a2.5,2.5,0,0,1,2.5-2.5h8.167a2.5,2.5,0,0,1,2.5,2.5V49.569L197.9,48.28a2.5,2.5,0,0,1,2.451,3.962L186.331,70.885A2.5,2.5,0,0,1,184.333,71.882Zm-8.171-17.521,8.171,10.863L192.5,54.361l-3.634.671a2.5,2.5,0,0,1-2.953-2.459V41.524H182.75V52.573a2.5,2.5,0,0,1-2.953,2.459Z" fill="#a58bc9"/><path d="M147,133.167H109a2.5,2.5,0,0,1,0-5h38a2.5,2.5,0,0,1,0,5Z" fill="#a58bc9"/><path d="M203,144.5H122.2a2.5,2.5,0,0,1,0-5H203a2.5,2.5,0,0,1,0,5Z" fill="#a58bc9"/><path d="M112.2,144.5H89.75a2.5,2.5,0,0,1,0-5H112.2a2.5,2.5,0,0,1,0,5Z" fill="#a58bc9"/><path d="M79.75,144.5H53a2.5,2.5,0,0,1,0-5H79.75a2.5,2.5,0,0,1,0,5Z" fill="#a58bc9"/></svg>