<svg xmlns="http://www.w3.org/2000/svg" viewBox="0 0 256 256"><title>icon</title><path d="M205.908,204.383l-13.275-13.275a2.5,2.5,0,0,0-3.54,0l-13.275,13.275a2.5,2.5,0,0,0,3.535,3.535l9.01-9.009v19.258a10.011,10.011,0,0,1-10,10H161.289a10.011,10.011,0,0,1-10-10,15.017,15.017,0,0,0-15-15H119.711a15.017,15.017,0,0,0-15,15,10.011,10.011,0,0,1-10,10H77.637a10.011,10.011,0,0,1-10-10V192.873a2.5,2.5,0,0,0-5,0v25.294a15.017,15.017,0,0,0,15,15H94.711a15.017,15.017,0,0,0,15-15,10.011,10.011,0,0,1,10-10h16.578a10.011,10.011,0,0,1,10,10,15.017,15.017,0,0,0,15,15h17.074a15.017,15.017,0,0,0,15-15V198.909l9.01,9.009a2.5,2.5,0,0,0,3.535-3.535Z" fill="#f9b087"/><path d="M131.348,97.114h-6.7a5.452,5.452,0,0,1-5.278-4.087l-1.493-5.792-5.148,3.039a5.455,5.455,0,0,1-6.625-.841L101.375,84.7a5.452,5.452,0,0,1-.844-6.622l3.04-5.152-5.79-1.491a5.455,5.455,0,0,1-4.088-5.28V59.459a5.453,5.453,0,0,1,4.085-5.278l5.793-1.493-3.039-5.149a5.452,5.452,0,0,1,.843-6.624l4.733-4.734a5.453,5.453,0,0,1,6.621-.844l5.152,3.041,1.493-5.79a5.451,5.451,0,0,1,5.278-4.088h6.7a5.452,5.452,0,0,1,5.278,4.085l1.493,5.793,5.149-3.039a5.452,5.452,0,0,1,6.623.842l4.734,4.734a5.453,5.453,0,0,1,.844,6.623l-3.041,5.15,5.791,1.492h0a5.453,5.453,0,0,1,4.085,5.278v6.695a5.453,5.453,0,0,1-4.085,5.279l-5.794,1.493,3.039,5.149a5.451,5.451,0,0,1-.842,6.624l-4.733,4.734a5.453,5.453,0,0,1-6.622.843l-5.151-3.041-1.492,5.79A5.453,5.453,0,0,1,131.348,97.114ZM119.473,80.893a2.5,2.5,0,0,1,2.421,1.876l2.321,9.008a.452.452,0,0,0,.437.337h6.7a.452.452,0,0,0,.438-.34l2.32-9a2.5,2.5,0,0,1,3.691-1.53l8.012,4.729a.452.452,0,0,0,.547-.072l4.734-4.733a.452.452,0,0,0,.07-.55l-4.727-8.01a2.5,2.5,0,0,1,1.529-3.691l9.009-2.321a.453.453,0,0,0,.336-.438V59.459a.453.453,0,0,0-.337-.437L147.962,56.7a2.5,2.5,0,0,1-1.529-3.692L151.162,45a.453.453,0,0,0-.072-.548l-4.734-4.734a.457.457,0,0,0-.549-.07l-8.01,4.728a2.5,2.5,0,0,1-3.691-1.53l-2.321-9.008a.452.452,0,0,0-.437-.336h-6.7a.451.451,0,0,0-.437.338l-2.321,9.007a2.5,2.5,0,0,1-3.692,1.529l-8.011-4.729a.453.453,0,0,0-.548.072L104.91,44.45a.454.454,0,0,0-.071.55l4.727,8.009a2.5,2.5,0,0,1-1.528,3.692l-9.009,2.321a.452.452,0,0,0-.336.437v6.695a.454.454,0,0,0,.339.439l9.006,2.32a2.5,2.5,0,0,1,1.528,3.691l-4.728,8.012a.453.453,0,0,0,.072.548l4.734,4.733a.454.454,0,0,0,.55.07L118.2,81.24A2.5,2.5,0,0,1,119.473,80.893Z" fill="#f9b087"/><path d="M128,75.569a12.762,12.762,0,1,1,12.762-12.762A12.776,12.776,0,0,1,128,75.569Zm0-20.524a7.762,7.762,0,1,0,7.762,7.762A7.771,7.771,0,0,0,128,55.045Z" fill="#f9b087"/><path d="M184.081,174.019q-.216,0-.429-.012a8.3,8.3,0,0,1-5.994-3.031l-16.279-19.9a8.3,8.3,0,1,1,12.845-10.507l10.472,12.8,23.361-23.361a8.3,8.3,0,1,1,11.735,11.735l-29.845,29.844A8.24,8.24,0,0,1,184.081,174.019ZM167.8,142.527a3.3,3.3,0,0,0-2.547,5.385l16.279,19.9a3.3,3.3,0,0,0,2.388,1.205l.165,0a3.275,3.275,0,0,0,2.331-.966l29.844-29.845a3.3,3.3,0,1,0-4.664-4.663l-25.314,25.314a2.5,2.5,0,0,1-3.7-.185l-12.222-14.937a3.276,3.276,0,0,0-2.223-1.194C168.018,142.532,167.906,142.527,167.8,142.527Z" fill="#f9b087"/><path d="M232.937,106.225H148.789a2.5,2.5,0,0,0-2.5,2.5v84.148a2.5,2.5,0,0,0,2.5,2.5h84.148a2.5,2.5,0,0,0,2.5-2.5V108.725A2.5,2.5,0,0,0,232.937,106.225Zm-2.5,84.148H151.289V111.225h79.148Z" fill="#846f75"/><path d="M107.211,106.225H23.063a2.5,2.5,0,0,0-2.5,2.5v84.148a2.5,2.5,0,0,0,2.5,2.5h84.148a2.5,2.5,0,0,0,2.5-2.5V108.725A2.5,2.5,0,0,0,107.211,106.225Zm-2.5,84.148H25.563V111.225h79.148Z" fill="#846f75"/><path d="M37.447,134.9H49.49a2.5,2.5,0,1,0,0-5H37.447a2.5,2.5,0,0,0,0,5Z" fill="#846f75"/><path d="M37.447,155.5H92.5a2.5,2.5,0,0,0,0-5H37.447a2.5,2.5,0,0,0,0,5Z" fill="#846f75"/><path d="M37.447,176.1H82.005a2.5,2.5,0,0,0,0-5H37.447a2.5,2.5,0,0,0,0,5Z" fill="#846f75"/><path d="M59.49,134.9H85.962a2.5,2.5,0,0,0,0-5H59.49a2.5,2.5,0,0,0,0,5Z" fill="#846f75"/></svg>