<svg xmlns="http://www.w3.org/2000/svg" viewBox="0 0 256 256"><title>icon</title><path d="M202.243,164.881a2.489,2.489,0,0,1-1.768-.733l-8.88-8.88a2.5,2.5,0,0,1-.733-1.768V136.471a2.5,2.5,0,0,1,5,0v15.994l8.148,8.148a2.5,2.5,0,0,1-1.767,4.268Z" fill="#65c1d6"/><path d="M215.38,131.482a31.135,31.135,0,0,0-46.363,41.424h-4.18a2.5,2.5,0,0,0,0,5h10.485a2.5,2.5,0,0,0,2.5-2.5V164.922a2.5,2.5,0,0,0-5,0v4.734a26.127,26.127,0,1,1,18.274,9.885,2.5,2.5,0,1,0-.431,4.98q1.357.12,2.707.118a31.139,31.139,0,0,0,22.008-53.157Z" fill="#846f75"/><path d="M193.362,194.5a2.5,2.5,0,0,0-2.5,2.5v13.936a2.5,2.5,0,0,1-2.5,2.5H67.638a2.5,2.5,0,0,1-2.5-2.5V84.916h39.851a2.5,2.5,0,0,0,2.5-2.5V42.564h80.873a2.5,2.5,0,0,1,2.5,2.5V111a2.5,2.5,0,0,0,5,0V45.064a7.509,7.509,0,0,0-7.5-7.5h-81.3a7.452,7.452,0,0,0-5.3,2.2L62.335,79.183a7.548,7.548,0,0,0-2.2,5.3v126.45a7.509,7.509,0,0,0,7.5,7.5H188.362a7.509,7.509,0,0,0,7.5-7.5V197A2.5,2.5,0,0,0,193.362,194.5ZM102.489,46.1V79.916H68.673Z" fill="#846f75"/><path d="M169.239,110.034H86.761a2.5,2.5,0,0,1,0-5h82.478a2.5,2.5,0,0,1,0,5Z" fill="#65c1d6"/><path d="M149.239,137.5H86.761a2.5,2.5,0,0,1,0-5h62.478a2.5,2.5,0,1,1,0,5Z" fill="#65c1d6"/><path d="M149.239,164.966H86.761a2.5,2.5,0,0,1,0-5h62.478a2.5,2.5,0,1,1,0,5Z" fill="#65c1d6"/><path d="M169.239,192.431H86.761a2.5,2.5,0,0,1,0-5h82.478a2.5,2.5,0,0,1,0,5Z" fill="#65c1d6"/></svg>