<svg xmlns="http://www.w3.org/2000/svg" viewBox="0 0 256 256"><title>icon</title><path d="M217,31.966H39a7.508,7.508,0,0,0-7.5,7.5V175.6a7.509,7.509,0,0,0,7.5,7.5h68.651a20.1,20.1,0,0,1-5.724,19.815L98.514,206.1H91a9,9,0,0,0,0,18h74a9,9,0,0,0,0-18h-7.515l-3.411-3.184a20.1,20.1,0,0,1-5.726-19.816H217a7.509,7.509,0,0,0,7.5-7.5V39.466A7.508,7.508,0,0,0,217,31.966Zm-178,5H217a2.5,2.5,0,0,1,2.5,2.5V59.5H36.5V39.466A2.5,2.5,0,0,1,39,36.966ZM169,215.1a4,4,0,0,1-4,4H91a4,4,0,0,1,0-8h74A4,4,0,0,1,169,215.1Zm-18.829-9H105.83a25.1,25.1,0,0,0,6.964-23h30.412A25.1,25.1,0,0,0,150.171,206.1ZM217,178.1H39a2.5,2.5,0,0,1-2.5-2.5V64.5h183V175.6A2.5,2.5,0,0,1,217,178.1Z" fill="#846f75"/><path d="M52.128,56.089a7.25,7.25,0,1,0-7.25-7.25A7.258,7.258,0,0,0,52.128,56.089Zm0-9.5a2.25,2.25,0,1,1-2.25,2.25A2.253,2.253,0,0,1,52.128,46.589Z" fill="#846f75"/><path d="M70.628,56.089a7.25,7.25,0,1,0-7.25-7.25A7.258,7.258,0,0,0,70.628,56.089Zm0-9.5a2.25,2.25,0,1,1-2.25,2.25A2.253,2.253,0,0,1,70.628,46.589Z" fill="#846f75"/><path d="M89.129,56.089a7.25,7.25,0,1,0-7.25-7.25A7.258,7.258,0,0,0,89.129,56.089Zm0-9.5a2.25,2.25,0,1,1-2.25,2.25A2.253,2.253,0,0,1,89.129,46.589Z" fill="#846f75"/><path d="M176.333,51.339h29a2.5,2.5,0,0,0,0-5h-29a2.5,2.5,0,0,0,0,5Z" fill="#846f75"/><path d="M184.333,90.75H72.5a2.5,2.5,0,0,1-2.5-2.5v-14a2.5,2.5,0,0,1,2.5-2.5H184.333a2.5,2.5,0,0,1,2.5,2.5v14A2.5,2.5,0,0,1,184.333,90.75ZM75,85.75H181.833v-9H75Z" fill="#ed9abc"/><path d="M207.667,79H194.5a2.5,2.5,0,0,1,0-5h13.167a2.5,2.5,0,1,1,0,5Z" fill="#ed9abc"/><path d="M207.667,88.5H194.5a2.5,2.5,0,0,1,0-5h13.167a2.5,2.5,0,1,1,0,5Z" fill="#ed9abc"/><path d="M207.667,134.167H48.333a2.5,2.5,0,0,1-2.5-2.5V99a2.5,2.5,0,0,1,2.5-2.5H207.667a2.5,2.5,0,0,1,2.5,2.5v32.667A2.5,2.5,0,0,1,207.667,134.167Zm-156.834-5H205.167V101.5H50.833Z" fill="#ebe7f2"/><path d="M93.857,168.618H48.333a2.5,2.5,0,0,1-2.5-2.5V142.667a2.5,2.5,0,0,1,2.5-2.5H93.857a2.5,2.5,0,0,1,2.5,2.5v23.451A2.5,2.5,0,0,1,93.857,168.618Zm-43.024-5H91.357V145.167H50.833Z" fill="#ed9abc"/><path d="M150.762,168.618H105.238a2.5,2.5,0,0,1-2.5-2.5V142.667a2.5,2.5,0,0,1,2.5-2.5h45.524a2.5,2.5,0,0,1,2.5,2.5v23.451A2.5,2.5,0,0,1,150.762,168.618Zm-43.024-5h40.524V145.167H107.738Z" fill="#ed9abc"/><path d="M207.667,168.618H162.143a2.5,2.5,0,0,1-2.5-2.5V142.667a2.5,2.5,0,0,1,2.5-2.5h45.524a2.5,2.5,0,0,1,2.5,2.5v23.451A2.5,2.5,0,0,1,207.667,168.618Zm-43.024-5h40.524V145.167H164.643Z" fill="#ed9abc"/><path d="M55.333,90.75a9.5,9.5,0,1,1,9.5-9.5A9.511,9.511,0,0,1,55.333,90.75Zm0-14a4.5,4.5,0,1,0,4.5,4.5A4.505,4.505,0,0,0,55.333,76.75Z" fill="#ed9abc"/></svg>