<svg xmlns="http://www.w3.org/2000/svg" viewBox="0 0 256 256"><title>icon</title><path d="M112.045,141.526a10.56,10.56,0,0,0-2.255-7.087,7.773,7.773,0,0,0-6.186-2.679,8.242,8.242,0,0,0-4.62,1.409A9.451,9.451,0,0,0,95.7,137a12.229,12.229,0,0,0-1.16,5.37v.77a11.4,11.4,0,0,0,1.195,5.233,9.1,9.1,0,0,0,3.394,3.7A9.207,9.207,0,0,0,104,153.4a8.584,8.584,0,0,0,7.5-3.756.775.775,0,0,0-.169-1.062l-1.343-1.021a.783.783,0,0,0-1.086.141,6.014,6.014,0,0,1-2.111,1.781,6.256,6.256,0,0,1-2.7.55,5.22,5.22,0,0,1-4.163-1.922,7.083,7.083,0,0,1-1.684-4.409l-.011-.2h13.037a.781.781,0,0,0,.779-.78Zm-13.617-1.407.054-.234a6.894,6.894,0,0,1,1.619-3.217,4.565,4.565,0,0,1,3.5-1.525,4.159,4.159,0,0,1,3.346,1.482,5.924,5.924,0,0,1,1.351,3.28l.026.214Z" fill="#f9b087"/><path d="M150.825,92.751h-2.149a.779.779,0,0,0-.779.778v4.18h-2.783a.78.78,0,0,0-.78.779v1.754a.78.78,0,0,0,.78.779H147.9v12.146a6.781,6.781,0,0,0,1.168,4.248,4.568,4.568,0,0,0,3.818,1.58,7.7,7.7,0,0,0,2.554-.346.783.783,0,0,0,.516-.775l-.09-1.739a.781.781,0,0,0-.285-.563.793.793,0,0,0-.61-.167,12.172,12.172,0,0,1-1.62.17c-.967,0-1.229-.354-1.315-.471a3.273,3.273,0,0,1-.429-1.94V101.021h3.231a.78.78,0,0,0,.779-.779V98.488a.78.78,0,0,0-.779-.779H151.6v-4.18A.78.78,0,0,0,150.825,92.751Z" fill="#f9b087"/><path d="M168.824,117.193a9.473,9.473,0,0,0,5.966,1.8,9.231,9.231,0,0,0,5.629-1.623,5.748,5.748,0,0,0,1.49-7.527,6.264,6.264,0,0,0-2.374-2.072,18.77,18.77,0,0,0-4.414-1.486,10.211,10.211,0,0,1-3.595-1.324,1.886,1.886,0,0,1-.754-1.624,2.117,2.117,0,0,1,.963-1.816,4.881,4.881,0,0,1,2.93-.789,4.809,4.809,0,0,1,3.106.96,2.673,2.673,0,0,1,1.128,2.219.78.78,0,0,0,.778.779h2.149a.781.781,0,0,0,.779-.779,5.911,5.911,0,0,0-2.246-4.785,8.76,8.76,0,0,0-5.694-1.777,8.523,8.523,0,0,0-5.384,1.66,5.37,5.37,0,0,0-2.216,4.4,5.09,5.09,0,0,0,.823,2.906,6.118,6.118,0,0,0,2.412,1.99,17.944,17.944,0,0,0,4.185,1.317,9.235,9.235,0,0,1,3.55,1.372,2.269,2.269,0,0,1,.971,1.939,2.175,2.175,0,0,1-1.052,1.854,5.364,5.364,0,0,1-3.164.84,5.767,5.767,0,0,1-3.4-.9,2.951,2.951,0,0,1-1.26-2.345.783.783,0,0,0-.778-.728H167.2a.78.78,0,0,0-.778.779A5.807,5.807,0,0,0,168.824,117.193Z" fill="#f9b087"/><path d="M164.348,90.361a.78.78,0,0,0-.779-.779h-2.113a.781.781,0,0,0-.779.779v2.323a6.988,6.988,0,0,1-1.512,4.105.78.78,0,0,0,.166,1.093l1.271.93a.8.8,0,0,0,.984-.051,8.517,8.517,0,0,0,2.762-6.593Z" fill="#f9b087"/><path d="M120.846,152.484a.784.784,0,0,0,.748.562h1.825a.776.776,0,0,0,.743-.543l4.383-13.771,4.463,13.775a.776.776,0,0,0,.74.539h1.827a.784.784,0,0,0,.748-.562l5.638-19.37a.778.778,0,0,0-.748-1h-2.219a.78.78,0,0,0-.752.577l-3.678,13.753-4.315-13.785a.775.775,0,0,0-.742-.545H127.68a.775.775,0,0,0-.744.545l-4.274,13.619-3.737-13.591a.78.78,0,0,0-.751-.573h-2.2a.777.777,0,0,0-.747,1Z" fill="#f9b087"/><path d="M91.471,118.051l6.678-26.066a.779.779,0,0,0-.755-.972H95.138a.782.782,0,0,0-.757.593l-4.875,19.707-5.74-19.738a.782.782,0,0,0-.748-.562H81.032a.783.783,0,0,0-.747.56L74.493,111.24,69.578,91.6a.779.779,0,0,0-.756-.591H66.567a.779.779,0,0,0-.755.972l6.659,26.065a.78.78,0,0,0,.755.586h2.112a.783.783,0,0,0,.747-.557l5.957-20.072,5.813,20.068a.784.784,0,0,0,.749.561h2.112A.778.778,0,0,0,91.471,118.051Z" fill="#f9b087"/><path d="M125.86,117.238A7.28,7.28,0,0,0,130.9,119a9.623,9.623,0,0,0,4.02-.867,8.556,8.556,0,0,0,1.688-1.015l.247-.19.059.306a6.412,6.412,0,0,0,.232.888.782.782,0,0,0,.736.519h2.292a.779.779,0,0,0,.778-.778v-.215a.793.793,0,0,0-.061-.3,10.714,10.714,0,0,1-.53-3.9v-9.185a6.576,6.576,0,0,0-2.194-5.09,8.318,8.318,0,0,0-5.619-1.81,9.065,9.065,0,0,0-5.763,1.858,5.742,5.742,0,0,0-2.447,4.613.783.783,0,0,0,.773.78l2.148.018a.748.748,0,0,0,.556-.226.773.773,0,0,0,.23-.554,2.616,2.616,0,0,1,1.168-2.143,5.054,5.054,0,0,1,3.226-.98,4.582,4.582,0,0,1,3.2.981,3.474,3.474,0,0,1,1.032,2.7v1.422h-3.106a12.105,12.105,0,0,0-7.007,1.789,5.94,5.94,0,0,0-2.687,5.113A5.851,5.851,0,0,0,125.86,117.238Zm3.165-7.161a8.883,8.883,0,0,1,4.6-1.053h3.054l-.019,3.351a5.3,5.3,0,0,1-2.071,2.241,6.451,6.451,0,0,1-3.432.924,3.767,3.767,0,0,1-2.624-.878,2.66,2.66,0,0,1-.947-2.121A2.732,2.732,0,0,1,129.025,110.077Z" fill="#f9b087"/><path d="M88.174,153.046a.781.781,0,0,0,.78-.78V126.2a.781.781,0,0,0-.78-.779H85.991a.781.781,0,0,0-.78.779v19.767l-13.575-20.2a.778.778,0,0,0-.647-.344h-2.22a.781.781,0,0,0-.779.779v26.064a.781.781,0,0,0,.779.78h2.22a.78.78,0,0,0,.779-.78V132.518L85.326,152.7a.778.778,0,0,0,.647.345Z" fill="#f9b087"/><path d="M115.034,105.128v12.73a.78.78,0,0,0,.78.778h2.129a.779.779,0,0,0,.779-.778V105.143a8.691,8.691,0,0,0-1.729-5.769,6.578,6.578,0,0,0-5.226-2.023A7.889,7.889,0,0,0,107.78,98.4a8.108,8.108,0,0,0-1.219.862l-.316.272V90.361a.781.781,0,0,0-.78-.779h-2.13a.781.781,0,0,0-.779.779v27.5a.78.78,0,0,0,.779.778h2.13a.78.78,0,0,0,.78-.778l.012-13.164a6.478,6.478,0,0,1,1.965-2.853,4.62,4.62,0,0,1,3.026-1.07,3.611,3.611,0,0,1,2.871,1A5.207,5.207,0,0,1,115.034,105.128Z" fill="#f9b087"/><path d="M204.633,171.228H51.367a2.5,2.5,0,0,1-2.5-2.5v-96.5a2.5,2.5,0,0,1,2.5-2.5H204.633a2.5,2.5,0,0,1,2.5,2.5V101a2.5,2.5,0,1,1-5,0V74.728H53.867v91.5H202.133V134.5a2.5,2.5,0,0,1,5,0v34.228A2.5,2.5,0,0,1,204.633,171.228Z" fill="#ebe7f2"/><path d="M149.359,193.917H106.641a2.5,2.5,0,1,1,0-5h42.718a2.5,2.5,0,0,1,0,5Z" fill="#ebe7f2"/><path d="M226.661,115.073a8.555,8.555,0,0,0,.965-3.981,7.4,7.4,0,0,0-2.008-5.423,7.31,7.31,0,0,0-5.412-2.027,7.893,7.893,0,0,0-5.481,1.964,6.9,6.9,0,0,0-2.245,5.269.779.779,0,0,0,.779.788h2.131a.783.783,0,0,0,.779-.767,3.651,3.651,0,0,1,1.1-2.763,4.1,4.1,0,0,1,2.935-1.018,3.542,3.542,0,0,1,2.75,1.032,4.174,4.174,0,0,1,.981,2.982,5.781,5.781,0,0,1-.239,1.738,5.118,5.118,0,0,1-.684,1.381,21.439,21.439,0,0,1-2.191,2.361,10.785,10.785,0,0,0-2.483,3.287,10.043,10.043,0,0,0-.632,3.685.779.779,0,0,0,.778.792h2.131a.781.781,0,0,0,.779-.779,5.343,5.343,0,0,1,1.777-4.369A16.19,16.19,0,0,0,226.661,115.073Z" fill="#f9b087"/><path d="M219.668,131.766a2.249,2.249,0,0,0,1.638-.637,2.151,2.151,0,0,0,.626-1.547,2.246,2.246,0,0,0-.618-1.575,2.215,2.215,0,0,0-1.646-.663,2.154,2.154,0,0,0-1.66.678,2.284,2.284,0,0,0-.586,1.56,2.133,2.133,0,0,0,2.246,2.184Z" fill="#f9b087"/><path d="M217.553,149.908v18.82a2.5,2.5,0,0,0,5,0v-18.82a2.5,2.5,0,0,0-5,0Z" fill="#846f75"/><path d="M35.947,171.228a2.5,2.5,0,0,0,2.5-2.5V59.605a2.5,2.5,0,0,1,2.5-2.5H215.053a2.5,2.5,0,0,1,2.5,2.5V85.5a2.5,2.5,0,0,0,5,0v-25.9a7.509,7.509,0,0,0-7.5-7.5H40.947a7.509,7.509,0,0,0-7.5,7.5V168.728A2.5,2.5,0,0,0,35.947,171.228Z" fill="#846f75"/><path d="M231.5,179.605H24.5a7.509,7.509,0,0,0-7.5,7.5v9.29a7.509,7.509,0,0,0,7.5,7.5h207a7.509,7.509,0,0,0,7.5-7.5v-9.29A7.509,7.509,0,0,0,231.5,179.605ZM234,196.4a2.5,2.5,0,0,1-2.5,2.5H24.5a2.5,2.5,0,0,1-2.5-2.5v-9.29a2.5,2.5,0,0,1,2.5-2.5h207a2.5,2.5,0,0,1,2.5,2.5Z" fill="#846f75"/><path d="M195.349,117.7a24.7,24.7,0,1,0,24.7-24.7A24.732,24.732,0,0,0,195.349,117.7Zm44.408,0a19.7,19.7,0,1,1-19.7-19.7A19.726,19.726,0,0,1,239.757,117.7Z" fill="#846f75"/></svg>