<?xml version="1.0" standalone="no"?>
<!DOCTYPE svg PUBLIC "-//W3C//DTD SVG 1.1//EN" "http://www.w3.org/Graphics/SVG/1.1/DTD/svg11.dtd" >
<svg xmlns="http://www.w3.org/2000/svg" xmlns:xlink="http://www.w3.org/1999/xlink" version="1.1">
<metadata></metadata>
<defs>
<font id="lie_to_meregular" horiz-adv-x="835" >
<font-face units-per-em="2048" ascent="1638" descent="-410" />
<missing-glyph horiz-adv-x="512" />
<glyph unicode="tt" horiz-adv-x="962" d="M-20.5 294q10.5 142 79.5 372q29 90 61 180t66 180l-65 -14h-12q-23 0 -39.5 13t-20.5 36q-4 25 9.5 46t37.5 26l146 30q27 63 51 120.5t47 109.5q10 23 33.5 33t46.5 -1q25 -10 34 -34.5t-1 -47.5l-66 -151l377 70l57 131q10 23 34 33t46 -1q25 -10 34 -34.5t-1 -47.5 l-23 -53l207 39q25 4 46.5 -10t27.5 -39q4 -25 -10.5 -46.5t-38.5 -25.5l-291 -55l-39 -98q-49 -123 -87 -228.5t-67 -197.5q-59 -193 -71 -312q-10 -84 -2 -121.5t18 -52.5q4 -8 15.5 -15t33.5 -7q37 0 88.5 39t108.5 110q25 29 44 58.5t36 52.5q18 27 33 51q12 23 36.5 30 t47.5 -5t28.5 -37t-6.5 -47q0 -2 -9 -17.5t-25.5 -41t-39 -57.5t-49.5 -64q-63 -78 -127 -130q-88 -66 -166 -65q-63 0 -99 25.5t-54 52.5q-29 41 -39 112q-61 -76 -123 -125q-88 -66 -166 -65q-63 0 -99 25.5t-55 52.5q-49 76 -38.5 218zM104.5 195.5q8.5 -37.5 18.5 -52.5 q4 -8 15.5 -15t33.5 -7q37 0 88 39t109 110q45 53 74.5 100.5t35.5 57.5q23 109 62 238q29 90 60.5 180t66.5 180l39 100l-375 -71q-49 -123 -87 -228.5t-67 -197.5q-59 -193 -72 -312q-10 -84 -1.5 -121.5z" />
<glyph unicode="or" horiz-adv-x="1769" d="M-37 260q0 68 22.5 143.5t63.5 143.5q37 66 88 106q41 35 78 43q8 20 14 29q74 121 189 121q102 0 160 -109q41 -86 40 -207q0 -131 -43 -243q252 76 347 323q-35 20 -60 43q-68 61 -88 135q-18 70 2 134q16 47 51 78.5t78 35.5q86 6 137 -86q51 -94 35 -223l-6 -35 q37 -4 77 5.5t87 27.5q37 16 69.5 34.5t55.5 35.5q27 18 51 36q16 14 37.5 15.5t38.5 -10.5q16 -12 23.5 -32t-1.5 -40q-59 -172 -85.5 -287t-32 -185.5t3 -104t16.5 -46.5q6 -8 16.5 -14t32.5 -6q37 0 88 39t109 110q25 29 44 58.5t36 52.5q18 27 32 51q12 23 37 30t47 -5 q23 -12 30 -37t-7 -47q0 -2 -9 -17.5t-25.5 -41t-39 -57.5t-49.5 -64q-63 -78 -127 -130q-88 -66 -166 -65q-59 0 -95 23.5t-54 48.5q-68 94 -31 313q14 106 59 256q-25 -12 -57 -27q-133 -55 -246 -41q-31 -90 -84 -164.5t-122.5 -129t-151.5 -87t-172 -38.5 q-47 -61 -103 -101q-84 -53 -182 -53q-80 0 -128 25.5t-70 54.5q-59 70 -60 182zM86 260q0 -23 6 -51.5t23 -50.5q33 -37 106 -37q76 0 135 49q-68 27 -118 94q-33 45 -50.5 104.5t-17.5 125.5v16l-16 -27q-31 -53 -49.5 -112.5t-18.5 -110.5zM293 494q0 -96 45 -158 q35 -49 100 -62q29 55 43.5 122t14.5 134q0 82 -21.5 137.5t-56.5 55.5q-29 0 -54.5 -24.5t-41.5 -65.5q-3 -9 -11 -25q-8 -25 -13 -53.5t-5 -60.5zM889 863.5q-2 -13.5 1 -32t15.5 -41t38.5 -47.5l10 -6q4 41 1 81t-21 75q-4 4 -7 8t-5 8l-4 4q-4 0 -11.5 -7t-13.5 -23 q-2 -6 -4 -19.5z" />
<glyph unicode="os" horiz-adv-x="1550" d="M-37 260q0 68 22.5 143.5t63.5 143.5q37 66 88 106q41 35 78 43q8 20 14 29q74 121 189 121q102 0 160 -109q41 -86 40 -207q0 -131 -43 -243q72 12 152 72.5t147.5 143.5t112.5 174t45 165q0 23 15.5 40t39.5 21q23 2 42.5 -12t23.5 -37q6 -27 36 -55.5t64 -59.5 q31 -29 65 -59.5t61.5 -68.5t46 -84t18.5 -103q0 -125 -39 -202t-80 -118q-49 -47 -112.5 -74.5t-131.5 -27.5q-41 0 -77.5 11.5t-65.5 31.5q-70 51 -70 135q0 27 17.5 44.5t44.5 17.5t44 -17.5t17 -44.5q0 -33 33 -44t57 -11q90 0 158 68q82 82 82 231q0 72 -45 123 t-102 100l-58 49q-49 -104 -103.5 -197t-126 -165t-164.5 -120t-216 -62q-47 -61 -103 -101q-84 -53 -182 -53q-80 0 -128 25.5t-70 54.5q-59 70 -60 182zM86 260q0 -23 6 -51.5t23 -50.5q33 -37 106 -37q76 0 135 49q-68 27 -118 94q-33 45 -50.5 104.5t-17.5 125.5v16 l-16 -27q-31 -53 -49.5 -112.5t-18.5 -110.5zM293 494q0 -96 45 -158q35 -49 100 -62q29 55 43.5 122t14.5 134q0 82 -21.5 137.5t-56.5 55.5q-29 0 -54.5 -24.5t-41.5 -65.5q-3 -9 -11 -25q-8 -25 -13 -53.5t-5 -60.5z" />
<glyph unicode="az" horiz-adv-x="1916" d="M-33 145q-25 90 10 220q29 102 85.5 192t134.5 162q74 68 147.5 98.5t132.5 16.5q12 -4 32.5 -14.5t39 -34t27 -64.5t-6.5 -105q-4 -25 -25.5 -39t-45.5 -8q-25 4 -39.5 25.5t-7.5 46.5q6 33 5 48.5t-3 19.5q-4 6 -7 6q-16 4 -62 -13.5t-105 -72.5q-63 -59 -111.5 -136 t-71.5 -161q-23 -80 -14.5 -136.5t43.5 -68.5q23 -8 63.5 3t96.5 56q45 39 108.5 119t128.5 227q10 23 31.5 32t44.5 1q23 -10 34 -30.5t5 -42.5q-41 -154 -40 -240t24 -115q4 -6 12 -11t24 -5q43 0 80 29.5t70 76.5t60.5 105.5t51 118t42 110.5t34.5 86q35 74 94.5 125 t139.5 78q66 23 129 13.5t127 -25.5q39 -10 78 -17.5t76.5 -8.5t77.5 8t83 32q23 12 47.5 5t36.5 -30t5 -47t-29 -37q-37 -20 -80 -60t-89 -90t-92.5 -107.5t-91.5 -112.5q-47 -59 -90 -111.5t-80 -93.5q57 -18 115.5 -33.5t118.5 -15.5q33 0 65.5 14t63.5 37t57.5 49.5 t48.5 52.5q25 31 45.5 59.5t35 51.5t22.5 38l8 15q12 23 36.5 30t47.5 -5t30 -36t-6 -46q-2 -4 -34.5 -60.5t-89.5 -125.5q-168 -197 -330 -197q-84 0 -165 22.5t-149 44.5l-18 7q-86 -74 -152 -74h-4q-59 0 -87.5 28.5t-32.5 63.5q-4 49 38 92q39 33 95 41q23 4 50.5 1 t59.5 -13h2q47 47 97.5 109.5t105.5 130.5q51 63 101.5 125.5t101.5 115.5q-43 4 -83 12.5t-75 16.5q-55 14 -101 21.5t-87 -7.5q-115 -37 -160 -137q-20 -41 -42 -102.5t-48.5 -128t-60 -132t-77.5 -118t-98.5 -85t-124.5 -32.5q-86 0 -133 63q-43 55 -49 150 q-27 -35 -55.5 -64.5t-57.5 -54.5q-72 -59 -141 -80q-74 -25 -137 -2q-43 16 -72.5 51t-44.5 84z" />
<glyph unicode="ax" horiz-adv-x="1957" d="M-33 145q-25 90 10 220q29 102 85.5 192t134.5 162q74 68 147.5 98.5t132.5 16.5q12 -4 32.5 -14.5t39 -34t27 -64.5t-6.5 -105q-4 -25 -25.5 -39t-45.5 -8q-25 4 -39.5 25.5t-7.5 46.5q6 33 5 48.5t-3 19.5q-4 6 -7 6q-16 4 -62 -13.5t-105 -72.5q-63 -59 -111.5 -136 t-71.5 -161q-23 -80 -14.5 -136.5t43.5 -68.5q23 -8 63.5 3t96.5 56q45 39 108.5 119t128.5 227q10 23 31.5 32t44.5 1q23 -10 34 -30.5t5 -42.5q-41 -154 -40 -240t24 -115q4 -6 12 -11t24 -5q37 0 89.5 39t111.5 110q66 82 116 172t116 181q145 203 268 237q74 20 139 -16 q29 -18 45.5 -44t25.5 -52.5t12 -51t5 -37.5q0 -10 1 -22t1 -25l242 236q18 18 43.5 18t42.5 -18q18 -18 17 -44t-17 -44l-334 -326v-2q-4 -51 -7 -102t1 -94q4 -51 11 -74t16 -31q4 -4 11 -8t21 -4q88 0 211 151q25 31 45.5 60.5t36.5 52.5q18 27 31 51q12 23 36.5 30 t47.5 -5t30 -37t-6 -47q0 -2 -9 -17.5t-25.5 -41t-40 -58.5t-49.5 -65q-160 -197 -308 -197q-76 0 -123 51q-41 43 -52 110.5t-9 149.5l-297 -293q-20 -16 -43 -16q-27 0 -45 18q-16 18 -16 44t18 42l393 387q4 43 5 84t-3 76q-4 51 -14 67.5t-16 20.5t-15.5 7.5t-25.5 -1.5 q-12 -4 -31 -13t-43.5 -30.5t-56 -56.5t-70.5 -90q-61 -88 -113.5 -180t-124.5 -180q-33 -41 -65.5 -73t-63.5 -57q-88 -66 -166 -65q-86 0 -133 63q-43 55 -49 150q-27 -35 -55.5 -64.5t-57.5 -54.5q-72 -59 -141 -80q-74 -25 -137 -2q-43 16 -72.5 51t-44.5 84z" />
<glyph unicode="as" horiz-adv-x="1687" d="M-33 145q-25 90 10 220q29 102 85.5 192t134.5 162q74 68 147.5 98.5t132.5 16.5q12 -4 32.5 -14.5t39 -34t27 -64.5t-6.5 -105q-4 -25 -25.5 -39t-45.5 -8q-25 4 -39.5 25.5t-7.5 46.5q6 33 5 48.5t-3 19.5q-4 6 -7 6q-16 4 -62 -13.5t-105 -72.5q-63 -59 -111.5 -136 t-71.5 -161q-23 -80 -14.5 -136.5t43.5 -68.5q23 -8 63.5 3t96.5 56q45 39 108.5 119t128.5 227q10 23 31.5 32t44.5 1q23 -10 34 -30.5t5 -42.5q-41 -154 -40 -240t24 -115q4 -6 12 -11t24 -5q37 0 89.5 39t111.5 110q55 70 102.5 146t90.5 151q41 72 64.5 122t35.5 82 t15 48.5t3 22.5q0 23 15.5 40t40.5 21q23 2 42 -12t23 -37q6 -27 36 -55.5t65 -59.5q31 -29 64.5 -59.5t61 -68.5t46 -84t18.5 -103q0 -125 -39 -202t-80 -118q-49 -47 -112 -74.5t-131 -27.5q-41 0 -78 11.5t-66 31.5q-70 51 -69 135q0 27 17 44.5t44 17.5t44 -17.5 t17 -44.5q0 -33 33 -44t58 -11q90 0 157 68q82 82 82 231q0 72 -45 123t-102 100l-58 49q-16 -35 -38.5 -82t-57.5 -108q-51 -88 -98 -165t-107 -148q-33 -41 -65.5 -73t-63.5 -57q-88 -66 -166 -65q-86 0 -133 63q-43 55 -49 150q-27 -35 -55.5 -64.5t-57.5 -54.5 q-72 -59 -141 -80q-74 -25 -137 -2q-43 16 -72.5 51t-44.5 84z" />
<glyph unicode="ar" horiz-adv-x="1906" d="M-33 145q-25 90 10 220q29 102 85.5 192t134.5 162q74 68 147.5 98.5t132.5 16.5q12 -4 32.5 -14.5t39 -34t27 -64.5t-6.5 -105q-4 -25 -25.5 -39t-45.5 -8q-25 4 -39.5 25.5t-7.5 46.5q6 33 5 48.5t-3 19.5q-4 6 -7 6q-16 4 -62 -13.5t-105 -72.5q-63 -59 -111.5 -136 t-71.5 -161q-23 -80 -14.5 -136.5t43.5 -68.5q23 -8 63.5 3t96.5 56q45 39 108.5 119t128.5 227q10 23 31.5 32t44.5 1q23 -10 34 -30.5t5 -42.5q-41 -154 -40 -240t24 -115q4 -6 12 -11t24 -5q37 0 89.5 39t111.5 110q59 72 103.5 144.5t78.5 150.5l19 45q-35 20 -60 43 q-68 61 -88 135q-18 70 2 134q16 47 51 78.5t78 35.5q86 6 138 -86q51 -94 34 -223l-6 -35q37 -4 77 5.5t87 27.5q37 16 70 34.5t55 35.5q27 18 51 36q16 14 38 15.5t38 -10.5t23.5 -32t-0.5 -40q-59 -172 -86 -287t-32 -185.5t3 -104t16 -46.5q6 -8 16.5 -14t32.5 -6 q37 0 88.5 39t108.5 110q25 29 44.5 58.5t35.5 52.5q18 27 33 51q12 23 36.5 30t47.5 -5t30 -37t-8 -47q0 -2 -9 -17.5t-25.5 -41t-39 -57.5t-49.5 -64q-63 -78 -127 -130q-88 -65 -166 -65q-59 0 -95 23.5t-54 48.5q-68 94 -31 313q14 106 60 256q-25 -12 -58 -27 q-133 -55 -245 -41q-4 -14 -9.5 -27.5t-11.5 -27.5q-41 -94 -91 -172t-110 -151q-33 -41 -65.5 -73t-63.5 -57q-88 -66 -166 -65q-86 0 -133 63q-43 55 -49 150q-27 -35 -55.5 -64.5t-57.5 -54.5q-72 -59 -141 -80q-74 -25 -137 -2q-43 16 -72.5 51t-44.5 84zM1026 863.5 q-2 -13.5 1 -32t15.5 -41t38.5 -47.5l11 -6q4 41 1 81t-22 75q-4 4 -7 8t-5 8l-4 4q-4 0 -11.5 -7t-13.5 -23q-2 -6 -4 -19.5z" />
<glyph unicode="br" horiz-adv-x="1728" d="M-94 74l370 1310q6 25 29 37.5t47 5.5q25 -8 37 -29.5t6 -45.5l-188 -662q33 33 63 58q74 57 148 79q76 23 141 0q90 -35 119 -135q29 -94 -8 -219q-29 -100 -84.5 -191.5t-132.5 -162.5q-63 -57 -127 -88t-117 -31q-16 0 -37 4q-12 2 -33.5 13.5t-40 35t-27 64.5 t6.5 104q4 27 25.5 40t46.5 7q27 -4 40 -25.5t7 -45.5q-6 -33 -5 -48.5t3 -19.5t3 -4t3 -2q16 -4 62 14.5t106 73.5q66 57 112.5 134t69.5 161q16 59 15 95t-5 58q-12 39 -43 52q-33 10 -78 -4.5t-92 -55.5q-47 -37 -111.5 -116.5t-130.5 -227.5q-4 -6 -6 -10t-6 -8 l-69 -248q-14 -45 -60 -45q-10 0 -16 2q-25 8 -37 29.5t-6 46.5zM696 88q2 6 14.5 40t30 82t38 106.5t40 114.5t35.5 103.5t27 75.5q-35 20 -60 43q-68 61 -88 135q-18 70 2 134q16 47 51 78.5t78 35.5q86 6 137 -86q51 -94 35 -223l-6 -35q37 -4 77 5.5t87 27.5 q37 16 69.5 34.5t55.5 35.5q27 18 51 36q16 14 38 15.5t38 -10.5t23.5 -32t-1.5 -40q-59 -172 -85.5 -287t-31.5 -185.5t3 -104t16 -46.5q6 -8 16.5 -14t32.5 -6q37 0 88.5 39t108.5 110q25 29 44 58.5t36 52.5q18 27 33 51q12 23 36.5 30t46.5 -5q23 -12 30 -37t-7 -47 q0 -2 -9 -17.5t-25.5 -41t-39 -57.5t-49.5 -64q-63 -78 -127 -130q-88 -65 -166 -65q-59 0 -95 23.5t-54 48.5q-68 94 -31 313q14 106 59 256q-25 -12 -57 -27q-133 -55 -246 -41l-188 -528q-10 -29 -33.5 -36t-44 2t-33 29.5t-0.5 49.5zM848 863.5q-2 -13.5 1 -32t15.5 -41 t38.5 -47.5l10 -6q4 41 1 81t-21 75q-4 4 -7 8t-5 8l-4 4q-4 0 -11.5 -7t-13.5 -23q-2 -6 -4 -19.5z" />
<glyph unicode="bs" horiz-adv-x="1509" d="M-94 74l370 1310q6 25 29 37.5t47 5.5q25 -8 37 -29.5t6 -45.5l-188 -662q33 33 63 58q74 57 148 79q76 23 141 0q90 -35 119 -135q29 -94 -8 -219q-29 -100 -84.5 -191.5t-132.5 -162.5q-63 -57 -127 -88t-117 -31q-16 0 -37 4q-12 2 -33.5 13.5t-40 35t-27 64.5 t6.5 104q4 27 25.5 40t46.5 7q27 -4 40 -25.5t7 -45.5q-6 -33 -5 -48.5t3 -19.5t3 -4t3 -2q16 -4 62 14.5t106 73.5q66 57 112.5 134t69.5 161q16 59 15 95t-5 58q-12 39 -43 52q-33 10 -78 -4.5t-92 -55.5q-47 -37 -111.5 -116.5t-130.5 -227.5q-4 -6 -6 -10t-6 -8 l-69 -248q-14 -45 -60 -45q-10 0 -16 2q-25 8 -37 29.5t-6 46.5zM564 59q-5 25 9 45q16 23 53.5 79.5t83.5 129t96 154.5t91 155.5t67.5 133t26.5 86.5q0 23 15.5 40t40.5 21q23 2 42 -12t23 -37q6 -27 36 -55.5t64 -59.5q31 -29 65 -59.5t61.5 -68.5t46 -84t18.5 -103 q0 -125 -39 -202t-80 -118q-49 -47 -112.5 -74.5t-131.5 -27.5q-41 0 -77.5 11.5t-65.5 31.5q-70 51 -70 135q0 27 17.5 44.5t44.5 17.5t44 -17.5t17 -44.5q0 -33 33 -44t57 -11q90 0 158 68q82 82 82 231q0 72 -45 123t-102 100l-58 49q-10 -25 -39.5 -78t-68.5 -121.5 t-84 -143t-86 -139t-74 -114t-47 -63.5q-14 -23 -39 -27t-45 10q-23 14 -28 39z" />
<glyph unicode="tb" horiz-adv-x="1275" d="M-20.5 294q10.5 142 79.5 372q29 90 61 180t66 180l-65 -14h-12q-23 0 -39.5 13t-20.5 36q-4 25 9.5 46t37.5 26l146 30q27 63 51 120.5t47 109.5q10 23 33.5 33t46.5 -1q25 -10 34 -34.5t-1 -47.5l-66 -151l334 59l37 133q6 25 28.5 37.5t47.5 5.5q25 -8 37 -29.5 t6 -45.5l-23 -76l162 31q25 4 46 -10.5t28 -39.5q4 -25 -10.5 -46t-39.5 -25l-223 -43l-129 -453q33 33 64 58q74 57 147 79q76 23 141 0q90 -35 119 -135q29 -94 -8 -219q-29 -100 -84 -191.5t-133 -162.5q-63 -57 -127 -88t-117 -31q-16 0 -37 4q-12 2 -33.5 13.5t-40 35 t-26.5 64.5t6 104q4 27 25.5 40t46.5 7q27 -4 40 -25.5t7 -45.5q-6 -33 -5 -48.5t3 -19.5t3 -4t3 -2q16 -4 62.5 14.5t105.5 73.5q66 57 113 134t69 161q16 59 15.5 95t-5.5 58q-12 39 -43 52q-33 10 -77.5 -4.5t-92.5 -55.5q-47 -37 -111.5 -116.5t-129.5 -227.5 q-4 -6 -6 -10t-7 -8l-69 -248q-14 -45 -60 -45q-10 0 -16 2q-25 8 -37 29.5t-6 46.5l12 45q-31 -31 -61 -56q-88 -66 -166 -65q-63 0 -99 25.5t-55 52.5q-49 76 -38.5 218zM104.5 195.5q8.5 -37.5 18.5 -52.5q4 -8 15.5 -15t33.5 -7q37 0 88 39t109 110q25 29 44 58.5 t36 52.5q18 26 32 51q4 10 13 17l188 669l-350 -63q-49 -123 -87 -228.5t-67 -197.5q-59 -193 -72 -312q-10 -84 -1.5 -121.5z" />
<glyph unicode="bx" horiz-adv-x="1636" d="M-94 74l370 1310q6 25 29 37.5t47 5.5q25 -8 37 -29.5t6 -45.5l-188 -662q33 33 63 58q74 57 148 79q76 23 141 0q90 -35 119 -135q0 -4 1 -6t1 -6q43 33 96 66.5t107.5 60.5t107.5 44t96 17q45 0 89 -24q29 -18 45 -44t25 -52.5t12.5 -51t5.5 -37.5q0 -10 1 -22t1 -25 l241 236q18 18 44 18t42 -18q18 -18 17.5 -44t-17.5 -44l-333 -326v-2q-4 -51 -7.5 -102t0.5 -94q4 -51 11.5 -74t15.5 -31q4 -4 11 -8t22 -4q88 0 211 151q25 31 45 60.5t37 52.5q18 27 30 51q12 23 36.5 30t47.5 -5t30 -37t-5 -47q0 -2 -9.5 -17.5t-25.5 -41t-39.5 -58.5 t-50.5 -65q-160 -197 -307 -197q-76 0 -123 51q-41 43 -52.5 110.5t-9.5 149.5l-297 -293q-20 -16 -43 -16q-27 0 -45 18q-16 18 -16 44t18 42l394 387q4 43 5 84t-3 76q-2 14 -4 30.5t-8.5 32t-18.5 26t-35 10.5q-20 0 -68.5 -21.5t-106.5 -53.5t-116.5 -70t-99.5 -71 q-4 -16 -7 -29.5t-7 -29.5q-29 -100 -84.5 -191.5t-132.5 -162.5q-63 -57 -127 -88t-117 -31q-16 0 -37 4q-12 2 -33.5 13.5t-40 35t-27 64.5t6.5 104q4 27 25.5 40t46.5 7q27 -4 40 -25.5t7 -45.5q-6 -33 -5 -48.5t3 -19.5t3 -4t3 -2q16 -4 62 14.5t106 73.5 q66 57 112.5 134t69.5 161q16 59 15 95t-5 58q-12 39 -43 52q-33 10 -78 -4.5t-92 -55.5q-47 -37 -111.5 -116.5t-130.5 -227.5q-4 -6 -6 -10t-6 -8l-69 -248q-14 -45 -60 -45q-10 0 -16 2q-25 8 -37 29.5t-6 46.5z" />
<glyph unicode="cr" horiz-adv-x="1685" d="M-20 360q18 96 64 184.5t114 160.5q63 66 133.5 103.5t132.5 37.5q53 0 91 -34t52 -93q8 -31 6 -66t-12 -67q-25 -80 -86 -109q-23 -10 -47.5 -2t-34.5 31t-2 47.5t31 34.5q12 6 22.5 37.5t1.5 66.5q-4 23 -11 27t-11 4q-29 0 -76 -22.5t-102 -79.5q-55 -59 -92 -132 t-54 -151q-18 -98 25 -150q51 -61 178 -61q174 0 328 149q61 61 110.5 142.5t96.5 191.5q-35 20 -60 43q-68 61 -88 135q-18 70 2 134q16 47 51 78.5t78 35.5q86 6 137 -86q51 -94 35 -223l-6 -35q37 -4 77 5.5t87 27.5q37 16 69.5 34.5t55.5 35.5q27 18 51 36 q16 14 37.5 15.5t38.5 -10.5q16 -12 23.5 -32t-1.5 -40q-59 -172 -85.5 -287t-31.5 -185.5t3 -104t16 -46.5q6 -8 16.5 -14t32.5 -6q37 0 88.5 39t108.5 110q25 29 44 58.5t36 52.5q18 27 33 51q12 23 36.5 30t46.5 -5q23 -12 30 -37t-7 -47q0 -2 -9 -17.5t-25.5 -41 t-39 -57.5t-49.5 -64q-63 -78 -127 -130q-88 -65 -166 -65q-59 0 -95 23.5t-54 48.5q-68 94 -31 313q14 106 59 256q-25 -12 -57 -27q-133 -55 -246 -41q-35 -106 -95 -203.5t-138 -174.5q-92 -92 -197.5 -140.5t-218.5 -48.5q-186 0 -274 107q-27 33 -47.5 93t-1.5 156z M805 863.5q-2 -13.5 1 -32t15.5 -41t38.5 -47.5l10 -6q4 41 1 81t-21 75q-4 4 -7 8t-5 8l-4 4q-4 0 -11.5 -7t-13.5 -23q-2 -6 -4 -19.5z" />
<glyph unicode="cs" horiz-adv-x="1466" d="M-20 360q18 96 64 184.5t114 160.5q63 66 133.5 103.5t132.5 37.5q53 0 91 -34t52 -93q8 -31 6 -66t-12 -67q-25 -80 -86 -109q-23 -10 -47.5 -2t-34.5 31t-2 47.5t31 34.5q12 6 22.5 37.5t1.5 66.5q-4 23 -11 27t-11 4q-29 0 -76 -22.5t-102 -79.5q-55 -59 -92 -132 t-54 -151q-18 -98 25 -150q51 -61 178 -61q174 0 328 149q27 27 61.5 74t69.5 103.5t68.5 118t59 114.5t42 95t16.5 61q0 23 15.5 40t40.5 21q23 2 42 -12t23 -37q6 -27 36 -55.5t64 -59.5q31 -29 65 -59.5t61.5 -68.5t46 -84t18.5 -103q0 -125 -39 -202t-80 -118 q-49 -47 -112.5 -74.5t-131.5 -27.5q-41 0 -77.5 11.5t-65.5 31.5q-70 51 -70 135q0 27 17.5 44.5t44.5 17.5t44 -17.5t17 -44.5q0 -33 33 -44t57 -11q90 0 158 68q82 82 82 231q0 72 -45 123t-102 100l-58 49q-59 -137 -135 -269t-178 -234q-92 -92 -197.5 -140.5 t-218.5 -48.5q-186 0 -274 107q-27 33 -47.5 93t-1.5 156z" />
<glyph unicode="cx" horiz-adv-x="1736" d="M-20 360q18 96 64 184.5t114 160.5q63 66 133.5 103.5t132.5 37.5q53 0 91 -34t52 -93q8 -31 6 -66t-12 -67q-25 -80 -86 -109q-23 -10 -47.5 -2t-34.5 31t-2 47.5t31 34.5q12 6 22.5 37.5t1.5 66.5q-4 23 -11 27t-11 4q-29 0 -76 -22.5t-102 -79.5q-55 -59 -92 -132 t-54 -151q-18 -98 25 -150q51 -61 178 -61q174 0 328 149q59 59 112.5 148.5t111.5 178.5t126 161t156 96q74 20 139 -16q29 -18 45 -44t25.5 -52.5t12.5 -51t5 -37.5q0 -10 1 -22t1 -25l242 236q18 18 43.5 18t42.5 -18q18 -18 17 -44t-17 -44l-334 -326v-2q-4 -51 -7 -102 t1 -94q4 -51 11 -74t15 -31q4 -4 11.5 -8t21.5 -4q88 0 211 151q25 31 45.5 60.5t36.5 52.5q18 27 31 51q12 23 36.5 30t47.5 -5t30 -37t-6 -47q0 -2 -9 -17.5t-25.5 -41t-40 -58.5t-50.5 -65q-160 -197 -307 -197q-76 0 -123 51q-41 43 -52 110.5t-9 149.5l-297 -293 q-20 -16 -43 -16q-27 0 -45 18q-16 18 -16.5 44t18.5 42l393 387q4 43 5 84t-3 76q-4 51 -14 67.5t-17 20.5q-6 4 -15 7.5t-26 -1.5q-70 -23 -128 -91t-112.5 -152t-104.5 -168t-105 -139q-92 -92 -197.5 -140.5t-218.5 -48.5q-186 0 -274 107q-27 33 -47.5 93t-1.5 156z " />
<glyph unicode="cz" horiz-adv-x="1695" d="M-20 360q18 96 64 184.5t114 160.5q63 66 133.5 103.5t132.5 37.5q53 0 91 -34t52 -93q8 -31 6 -66t-12 -67q-25 -80 -86 -109q-23 -10 -47.5 -2t-34.5 31t-2 47.5t31 34.5q12 6 22.5 37.5t1.5 66.5q-4 23 -11 27t-11 4q-29 0 -76 -22.5t-102 -79.5q-55 -59 -92 -132 t-54 -151q-18 -98 25 -150q51 -61 178 -61q133 0 209 49t121 126t73.5 169t67.5 176q35 74 94.5 125t139.5 78q66 23 129 13.5t127 -25.5q39 -10 77.5 -17.5t76.5 -8.5t78 8t83 32q23 12 47.5 5t36.5 -30t5 -47t-30 -37q-37 -20 -79.5 -60t-89 -90t-92.5 -107.5t-91 -112.5 q-47 -59 -90 -111.5t-80 -93.5q57 -18 115.5 -33.5t118.5 -15.5q33 0 65.5 14t63 37t57.5 49.5t49 52.5q25 31 45.5 59.5t34.5 51.5t23 38l8 15q12 23 36.5 30t47.5 -5t30 -36t-6 -46q-2 -4 -34.5 -60.5t-90.5 -125.5q-168 -197 -329 -197q-84 0 -165 22.5t-149 44.5l-18 7 q-86 -74 -152 -74h-4q-59 0 -88 28.5t-33 63.5q-4 49 39 92q39 33 94 41q23 4 50.5 1t60.5 -13h2q47 47 97.5 109.5t105.5 130.5q51 63 101 125.5t102 115.5q-43 4 -83 12.5t-75 16.5q-55 14 -101.5 21.5t-86.5 -7.5q-115 -37 -160 -137q-45 -98 -84 -202.5t-99.5 -191.5 t-153.5 -142.5t-247 -55.5q-186 0 -274 107q-27 33 -47.5 93t-1.5 156z" />
<glyph unicode="dr" horiz-adv-x="1918" d="M-31 145q-25 90 11 220q29 102 85 192t134 162q74 68 147.5 98.5t132.5 16.5q8 -2 23.5 -8.5t31 -20.5t28.5 -35.5t18 -54.5q29 90 62.5 182t69.5 180t69.5 168t62.5 148q10 23 33.5 33t46.5 -1q25 -10 34 -34.5t-2 -47.5q-96 -221 -163.5 -397t-110.5 -317 q-59 -193 -72 -312q-10 -84 -2 -121.5t19 -52.5q4 -8 15 -15t34 -7q51 0 110.5 53t113.5 129t100.5 160t70.5 147q-35 20 -59 43q-68 61 -88 135q-18 70 2 134q16 47 51 78.5t78 35.5q86 6 137 -86q51 -94 35 -223l-6 -35q37 -4 76.5 5.5t86.5 27.5q37 16 70 34.5t55 35.5 q27 18 52 36q16 14 37.5 15.5t37.5 -10.5t23.5 -32t-0.5 -40q-59 -172 -86 -287t-32 -185.5t3 -104t17 -46.5q6 -8 16 -14t33 -6q37 0 88 39t108 110q25 29 44.5 58.5t35.5 52.5q18 27 33 51q12 23 36.5 30t47.5 -5t30 -37t-8 -47q0 -2 -9 -17.5t-25.5 -41t-39 -57.5 t-48.5 -64q-63 -78 -127 -130q-88 -65 -166 -65q-59 0 -95 23.5t-55 48.5q-68 94 -30 313q14 106 59 256q-25 -12 -57 -27q-133 -55 -246 -41q-14 -45 -43 -105t-68 -123.5t-86 -125t-98 -111t-106.5 -79t-108.5 -29.5q-63 0 -99 25.5t-55 52.5q-16 29 -26.5 62.5 t-12.5 78.5q-29 -37 -58.5 -67.5t-59.5 -57.5q-72 -59 -142 -80q-37 -12 -71 -12q-18 0 -34 3t-32 7q-43 16 -72.5 51t-44.5 84zM83.5 195.5q8.5 -56.5 43.5 -68.5q23 -8 64 3t96 56q45 39 108.5 119t128.5 227q0 2 4 7q4 20 9 34q-20 -10 -37 -4q-25 4 -39.5 25.5 t-7.5 46.5q6 33 5 48.5t-3 19.5q-4 6 -6 6q-16 4 -62.5 -13.5t-105.5 -72.5q-63 -59 -111.5 -136t-71.5 -161q-23 -80 -14.5 -136.5zM1038 863.5q-2 -13.5 1 -32t15.5 -41t39.5 -47.5l10 -6q4 41 1 81t-22 75q-4 4 -7 8t-5 8l-4 4q-4 0 -11 -7t-14 -23q-2 -6 -4 -19.5z" />
<glyph unicode="ds" horiz-adv-x="1699" d="M-31 143q-25 90 11 219q29 102 85 192.5t134 162.5q74 68 147.5 98.5t132.5 15.5q8 -2 23.5 -8t31 -20.5t28.5 -36t18 -53.5q29 90 62.5 182t69.5 180t69.5 168t62.5 148q10 23 33.5 33t46.5 -1q25 -10 34 -34.5t-2 -47.5q-96 -221 -163.5 -397t-110.5 -317 q-59 -193 -72 -312q-10 -84 -2 -121.5t19 -52.5q4 -8 15 -15t34 -7q41 0 95 46t110.5 117.5t111 157.5t96 167t67.5 143.5t26 89.5q0 23 15 40t40 21q23 2 42 -12.5t24 -36.5q6 -27 35.5 -55.5t64.5 -59.5q31 -29 64.5 -59.5t61 -68.5t46 -84t18.5 -103q0 -125 -38.5 -202 t-79.5 -118q-49 -47 -113 -74.5t-131 -27.5q-41 0 -78 11.5t-66 31.5q-70 51 -69 135q0 27 17.5 44.5t43.5 17.5q27 0 44.5 -17.5t17.5 -44.5q0 -33 32.5 -44t57.5 -11q90 0 158 67q82 82 81 232q0 72 -45 123t-102 100l-57 49q-27 -49 -63 -120.5t-82 -148.5t-98 -153.5 t-108.5 -138t-117 -99.5t-121.5 -38q-63 0 -99 25.5t-55 52.5q-16 29 -26.5 62.5t-12.5 78.5q-29 -37 -58.5 -67.5t-59.5 -57.5q-72 -59 -142 -80q-37 -12 -71 -12q-18 0 -34 3t-32 7q-43 16 -72.5 51t-44.5 84zM83.5 193.5q8.5 -56.5 43.5 -68.5q23 -8 63.5 3t96.5 56 q45 39 108.5 119t128.5 227q0 3 4 7q4 20 9 34q-20 -10 -37 -4q-25 4 -39.5 25.5t-7.5 46.5q6 33 5 48t-3 20q-4 6 -6 6q-16 4 -62.5 -13.5t-105.5 -72.5q-63 -59 -111.5 -136t-71.5 -161q-23 -80 -14.5 -136.5z" />
<glyph unicode="dx" horiz-adv-x="1970" d="M-31 145q-25 90 11 220q29 102 85 192t134 162q74 68 147.5 98.5t132.5 16.5q8 -2 23.5 -8.5t31 -20.5t28.5 -35.5t18 -54.5q29 90 62.5 182t69.5 180t69.5 168t62.5 148q10 23 33.5 33t46.5 -1q25 -10 34 -34.5t-2 -47.5q-96 -221 -163.5 -397t-110.5 -317 q-59 -193 -72 -312q-10 -84 -2 -121.5t19 -52.5q4 -8 15 -15t34 -7q55 0 111.5 55t115 138t118.5 180.5t124.5 180.5t133.5 138t142 55q45 0 88 -24q29 -18 45.5 -44t25.5 -52.5t12 -51t5 -37.5q0 -10 1 -22t1 -25l242 236q18 18 44 18t42 -18q18 -18 17.5 -44t-17.5 -44 l-334 -326v-2q-4 -51 -7 -102t1 -94q4 -51 11.5 -74t15.5 -31q4 -4 11 -8t22 -4q88 0 211 151q25 31 45 60.5t36 52.5q18 27 31 51q12 23 36.5 30t47.5 -5t30 -37t-5 -47q0 -2 -9.5 -17.5t-25.5 -41t-40 -58.5t-50 -65q-160 -197 -307 -197q-76 0 -123 51 q-41 43 -52.5 110.5t-9.5 149.5l-297 -293q-20 -16 -43 -16q-27 0 -45 18q-16 18 -16 44t18 42l394 387q4 43 5 84t-3 76q0 12 -2.5 28.5t-8.5 32t-16 25.5t-29 10q-51 0 -103 -55t-107.5 -138t-115 -180.5t-125 -180t-138 -138t-154.5 -55.5q-63 0 -99 25.5t-55 52.5 q-16 29 -26.5 62.5t-12.5 78.5q-29 -37 -58.5 -67.5t-59.5 -57.5q-72 -59 -142 -80q-37 -12 -71 -12q-18 0 -34 3t-32 7q-43 16 -72.5 51t-44.5 84zM83.5 195.5q8.5 -56.5 43.5 -68.5q23 -8 64 3t96 56q45 39 108.5 119t128.5 227q0 2 4 7q4 20 9 34q-20 -10 -37 -4 q-25 4 -39.5 25.5t-7.5 46.5q6 33 5 48.5t-3 19.5q-4 6 -6 6q-16 4 -62.5 -13.5t-105.5 -72.5q-63 -59 -111.5 -136t-71.5 -161q-23 -80 -14.5 -136.5z" />
<glyph unicode="dz" horiz-adv-x="1929" d="M-31 145q-25 90 11 220q29 102 85 192t134 162q74 68 147.5 98.5t132.5 16.5q8 -2 23.5 -8.5t31 -20.5t28.5 -35.5t18 -54.5q29 90 62.5 182t69.5 180t69.5 168t62.5 148q10 23 33.5 33t46.5 -1q25 -10 34 -34.5t-2 -47.5q-96 -221 -163.5 -397t-110.5 -317 q-59 -193 -72 -312q-10 -84 -2 -121.5t19 -52.5q4 -8 15 -15t34 -7q43 0 80 29.5t68.5 76.5t58 105.5t49 118t41 110.5t35.5 86q35 74 94 125t139 78q66 23 129.5 13.5t126.5 -25.5q39 -10 78 -17.5t77 -8.5t77.5 8t82.5 32q23 12 47.5 5t36.5 -30t5 -47t-29 -37 q-37 -20 -80 -60t-89 -90t-92 -107.5t-91 -112.5q-47 -59 -90.5 -111.5t-79.5 -93.5q57 -18 115.5 -33.5t117.5 -15.5q33 0 65.5 14t63.5 37t57.5 49.5t49.5 52.5q25 31 45 59.5t34.5 51.5t22.5 38l8 15q12 23 36.5 30t47.5 -5t30 -36t-5 -46q-2 -4 -35 -60.5t-90 -125.5 q-168 -197 -330 -197q-84 0 -165 22.5t-148 44.5l-19 7q-86 -74 -151 -74h-4q-59 0 -88 28.5t-33 63.5q-4 49 39 92q39 33 94 41q23 4 50.5 1t60.5 -13h2q47 47 97 109.5t105 130.5q51 63 101.5 125.5t101.5 115.5q-43 4 -83 12.5t-75 16.5q-55 14 -101 21.5t-87 -7.5 q-115 -37 -160 -137q-18 -41 -39.5 -101.5t-48 -127t-60.5 -133t-77 -119t-97.5 -85t-121.5 -32.5q-63 0 -99 25.5t-55 52.5q-16 29 -26.5 62.5t-12.5 78.5q-29 -37 -58.5 -67.5t-59.5 -57.5q-72 -59 -142 -80q-37 -12 -71 -12q-18 0 -34 3t-32 7q-43 16 -72.5 51t-44.5 84z M83.5 195.5q8.5 -56.5 43.5 -68.5q23 -8 64 3t96 56q45 39 108.5 119t128.5 227q0 2 4 7q4 20 9 34q-20 -10 -37 -4q-25 4 -39.5 25.5t-7.5 46.5q6 33 5 48.5t-3 19.5q-4 6 -6 6q-16 4 -62.5 -13.5t-105.5 -72.5q-63 -59 -111.5 -136t-71.5 -161q-23 -80 -14.5 -136.5z" />
<glyph unicode="er" horiz-adv-x="1687" d="M-18 360q18 94 63 181.5t115 158.5q59 61 128.5 100.5t129.5 45.5q55 6 96 -15.5t61 -68.5q23 -57 5.5 -136t-70.5 -159q-35 -51 -81 -94t-99 -74q-100 -61 -226 -72q27 -59 84.5 -79.5t116.5 -20.5q176 0 326 149q66 66 113 145t96 189q-35 20 -60 43q-68 61 -88 135 q-18 70 2 134q16 47 51 78.5t78 35.5q86 6 138 -86q51 -94 34 -223l-6 -35q37 -4 77 5.5t87 27.5q37 16 69.5 34.5t55.5 35.5q27 18 51 36q16 14 38 15.5t38 -10.5t23.5 -32t-1.5 -40q-59 -172 -85.5 -287t-31.5 -185.5t3 -104t16 -46.5q6 -8 16.5 -14t32.5 -6q37 0 88.5 39 t108.5 110q25 29 44 58.5t36 52.5q18 27 33 51q12 23 36.5 30t47.5 -5t29.5 -37t-7.5 -47q0 -2 -9 -17.5t-25.5 -41t-39 -57.5t-49.5 -64q-63 -78 -127 -130q-88 -65 -166 -65q-59 0 -95 23.5t-54 48.5q-68 94 -31 313q14 106 59 256q-25 -12 -57 -27q-133 -55 -246 -41 q-35 -106 -95 -203.5t-138 -174.5q-92 -92 -197.5 -140.5t-218.5 -48.5q-186 0 -274 107q-27 33 -47.5 93t-1.5 156zM104 350q92 10 171 58.5t133 128.5q39 57 51 106t2 72q-1 10 -21 10q-6 0 -10 -2q-29 -4 -79 -28.5t-103 -80.5q-53 -55 -90 -122.5t-54 -141.5zM807 863.5 q-2 -13.5 1 -32t15.5 -41t38.5 -47.5l10 -6q4 41 1 81t-21 75q-4 4 -7 8t-5 8l-4 4q-4 0 -11.5 -7t-13.5 -23q-2 -6 -4 -19.5z" />
<glyph unicode="es" horiz-adv-x="1468" d="M-18 360q18 94 63 181.5t115 158.5q59 61 128.5 100.5t129.5 45.5q55 6 96 -15.5t61 -68.5q23 -57 5.5 -136t-70.5 -159q-35 -51 -81 -94t-99 -74q-100 -61 -226 -72q27 -59 84.5 -79.5t116.5 -20.5q176 0 326 149q29 29 63.5 74t70.5 97.5t69.5 109.5t59.5 109.5 t41 98.5t15 77q0 23 15.5 40t40.5 21q23 2 42 -12t23 -37q6 -27 36 -55.5t64 -59.5q31 -29 65 -59.5t61.5 -68.5t46 -84t18.5 -103q0 -125 -39 -202t-80 -118q-49 -47 -112.5 -74.5t-131.5 -27.5q-41 0 -77.5 11.5t-65.5 31.5q-70 51 -70 135q0 27 17.5 44.5t44.5 17.5 t44 -17.5t17 -44.5q0 -33 33 -44t57 -11q90 0 158 68q82 82 82 231q0 72 -45 123t-102 100l-58 49q-59 -135 -135 -268t-178 -235q-92 -92 -197.5 -140.5t-218.5 -48.5q-186 0 -274 107q-27 33 -47.5 93t-1.5 156zM104 350q92 10 171 58.5t133 128.5q39 57 51 106t2 72 q-1 10 -21 10q-6 0 -10 -2q-29 -4 -79 -28.5t-103 -80.5q-53 -55 -90 -122.5t-54 -141.5z" />
<glyph unicode="ex" horiz-adv-x="1738" d="M-18 360q18 94 63 181.5t115 158.5q59 61 128.5 100.5t129.5 45.5q55 6 96 -15.5t61 -68.5q23 -57 5.5 -136t-70.5 -159q-35 -51 -81 -94t-99 -74q-100 -61 -226 -72q27 -59 84.5 -79.5t116.5 -20.5q176 0 326 149q37 37 75.5 95.5t79.5 124t86.5 132t94.5 120t104 87 t119 33.5q45 0 88 -24q29 -18 45 -44t25.5 -52.5t12.5 -51t5 -37.5q0 -10 1 -22t1 -25l242 236q18 18 43.5 18t42.5 -18q18 -18 17 -44t-17 -44l-334 -326v-2q-4 -51 -7 -102t1 -94q4 -51 11 -74t15 -31q4 -4 11.5 -8t21.5 -4q88 0 211 151q25 31 45.5 60.5t36.5 52.5 q18 27 31 51q12 23 36.5 30t47.5 -5t30 -37t-6 -47q0 -2 -9 -17.5t-25.5 -41t-40 -58.5t-50.5 -65q-160 -197 -307 -197q-76 0 -123 51q-41 43 -52 110.5t-9 149.5l-297 -293q-20 -16 -43 -16q-27 0 -45 18q-16 18 -16.5 44t18.5 42l393 387q4 43 5 84t-3 76q-2 12 -4 28.5 t-7 31t-15.5 24.5t-28.5 12q-37 0 -77 -31.5t-81 -81.5t-82 -112.5t-81 -124t-76.5 -116t-69.5 -86.5q-82 -86 -192.5 -137.5t-223.5 -51.5q-186 0 -274 107q-27 33 -47.5 93t-1.5 156zM104 350q92 10 171 58.5t133 128.5q39 57 51 106t2 72q-1 10 -21 10q-6 0 -10 -2 q-29 -4 -79 -28.5t-103 -80.5q-53 -55 -90 -122.5t-54 -141.5z" />
<glyph unicode="ez" horiz-adv-x="1697" d="M-18 360q18 94 63 181.5t115 158.5q59 61 128.5 100.5t129.5 45.5q55 6 96 -15.5t61 -68.5q23 -57 5.5 -136t-70.5 -159q-35 -51 -81 -94t-99 -74q-100 -61 -226 -72q27 -59 84.5 -79.5t116.5 -20.5q133 0 209 50t121 127t73.5 168t67.5 175q35 74 94.5 125t139.5 78 q66 23 129 13.5t127 -25.5q39 -10 77.5 -17.5t76.5 -8.5t78 8t83 32q23 12 47.5 5t36.5 -30t5 -47t-30 -37q-37 -20 -79.5 -60t-89 -90t-92.5 -107.5t-91 -112.5q-47 -59 -90 -111.5t-80 -93.5q57 -18 115.5 -33.5t118.5 -15.5q33 0 65.5 14t63 37t57.5 49.5t49 52.5 q25 31 45.5 59.5t34.5 51.5t23 38l8 15q12 23 36.5 30t47.5 -5t30 -36t-6 -46q-2 -4 -34.5 -60.5t-90.5 -125.5q-168 -197 -329 -197q-84 0 -165 22.5t-149 44.5l-18 7q-86 -74 -152 -74h-4q-59 0 -87.5 28.5t-33.5 63.5q-4 49 39 92q39 33 95 41q23 4 50 1t60 -13h2 q47 47 97.5 109.5t105.5 130.5q51 63 101 125.5t102 115.5q-43 4 -83 12.5t-75 16.5q-55 14 -101 21.5t-87 -7.5q-115 -37 -160 -137q-45 -98 -84 -202.5t-99.5 -191.5t-153.5 -142.5t-247 -55.5q-186 0 -274 107q-27 33 -47.5 93t-1.5 156zM104 350q92 10 171 58.5 t133 128.5q39 57 51 106t2 72q-1 10 -21 10q-6 0 -10 -2q-29 -4 -79 -28.5t-103 -80.5q-53 -55 -90 -122.5t-54 -141.5z" />
<glyph unicode="fr" horiz-adv-x="1865" d="M-129 -455q0 27 17.5 44.5t43.5 17.5q2 0 10.5 7t23 30.5t34.5 68.5t45 121q35 104 66.5 233.5t66.5 270.5h-129q-25 0 -43 18.5t-18 42.5q0 27 18.5 44.5t42.5 17.5h160q39 164 80 319.5t88 284.5q29 84 58.5 144.5t60.5 105.5q84 115 180 115q66 0 104 -52 q72 -90 45 -338q-8 -88 -20 -152.5t-12 -68.5q-6 -25 -28 -38t-46 -9q-25 6 -39 27.5t-8 46.5q0 2 12 63.5t21 143.5q6 70 5 115.5t-5.5 74.5t-10.5 42t-10 18q-2 4 -8 4q-35 0 -80 -64q-49 -70 -102 -219q-43 -119 -82 -264.5t-76 -298.5h477q25 0 43 -17.5t18 -44.5 q0 -25 -18 -43t-43 -18h-508q-39 -160 -74.5 -304.5t-74.5 -260.5q-43 -123 -86 -193q-59 -96 -138 -96q-25 0 -43 18.5t-18 42.5zM833.5 38.5q-12.5 20.5 0.5 49.5q2 6 14 40t29.5 82t38 106.5t40 114.5t36 103.5t26.5 75.5q-35 20 -60 43q-68 61 -88 135q-18 70 2 134 q16 47 51 78.5t78 35.5q86 6 138 -86q51 -94 35 -223l-7 -35q37 -4 77 5.5t87 27.5q37 16 70 34.5t55 35.5q27 18 51 36q16 14 38 15.5t38 -10.5t23.5 -32t-0.5 -40q-59 -172 -86 -287t-32 -185.5t3 -104t16 -46.5q6 -8 16.5 -14t32.5 -6q37 0 88.5 39t108.5 110 q25 29 44.5 58.5t35.5 52.5q18 27 33 51q12 23 36.5 30t47.5 -5t30 -37t-8 -47q0 -2 -9 -17.5t-25.5 -41t-39 -57.5t-49.5 -64q-63 -78 -127 -130q-88 -65 -166 -65q-59 0 -95 23.5t-54 48.5q-68 94 -31 313q14 106 60 256q-25 -12 -58 -27q-133 -55 -245 -41l-189 -528 q-10 -29 -33.5 -36t-44 2t-33 29.5zM985 863.5q-2 -13.5 1 -32t15.5 -41t38.5 -47.5l11 -6q4 41 1 81t-22 75q-4 4 -7 8t-5 8l-4 4q-4 0 -11.5 -7t-13.5 -23q-2 -6 -4 -19.5z" />
<glyph unicode="fs" horiz-adv-x="1759" d="M-129 -455q0 27 17.5 44.5t43.5 17.5q2 0 10.5 7t23 30.5t34.5 68.5t45 121q35 104 66.5 233.5t66.5 270.5h-129q-25 0 -43 18.5t-18 42.5q0 27 18.5 44.5t42.5 17.5h160q39 164 80 319.5t88 284.5q29 84 58.5 144.5t60.5 105.5q84 115 180 115q66 0 104 -52 q72 -90 45 -338q-8 -88 -20 -152.5t-12 -68.5q-6 -25 -28 -38t-46 -9q-25 6 -39 27.5t-8 46.5q0 2 12 63.5t21 143.5q6 70 5 115.5t-5.5 74.5t-10.5 42t-10 18q-2 4 -8 4q-35 0 -80 -64q-49 -70 -102 -219q-43 -119 -82 -264.5t-76 -298.5h477q25 0 43 -17.5t18 -44.5 q0 -25 -18 -43t-43 -18h-508q-39 -160 -74.5 -304.5t-74.5 -260.5q-43 -123 -86 -193q-59 -96 -138 -96q-25 0 -43 18.5t-18 42.5zM769 59q-5 25 9 45q16 23 53 79.5t83.5 129t96.5 154.5t91 155.5t67.5 133t26.5 86.5q0 23 15.5 40t39.5 21q23 2 42.5 -12t23.5 -37 q6 -27 35.5 -55.5t64.5 -59.5q31 -29 65 -59.5t61.5 -68.5t46 -84t18.5 -103q0 -125 -39 -202t-80 -118q-49 -47 -112.5 -74.5t-131.5 -27.5q-41 0 -78 11.5t-65 31.5q-70 51 -70 135q0 27 17.5 44.5t44.5 17.5t44 -17.5t17 -44.5q0 -33 33 -44t57 -11q90 0 158 68 q82 82 82 231q0 72 -45 123t-103 100l-57 49q-10 -25 -40 -78t-68.5 -121.5t-84 -143t-86 -139t-73.5 -114t-47 -63.5q-14 -23 -39 -27t-45 10q-23 14 -28 39z" />
<glyph unicode="hr" horiz-adv-x="1814" d="M-117 76q0 2 20.5 65.5t55.5 169t81 241.5t98 281.5t107.5 290t110.5 269.5q10 23 34 33t46 -1q25 -10 34 -34.5t-1 -47.5q-39 -90 -79 -190t-80 -205.5t-77.5 -211t-70.5 -204.5q76 106 141 179q121 133 211 133q37 0 58.5 -13.5t31.5 -27.5q35 -47 23.5 -123 t-39.5 -197q-6 -20 -11.5 -39.5t-9.5 -42.5q-31 -117 -39 -188q-4 -41 1.5 -66.5t39.5 -25.5q35 0 86.5 38t110.5 109q53 68 103.5 153t97.5 189q-35 20 -60 43q-68 61 -88 135q-18 70 2 134q16 47 51 78.5t78 35.5q86 6 137 -86q51 -94 35 -223l-6 -35q37 -4 77 5.5 t87 27.5q37 16 69.5 34.5t55.5 35.5q27 18 51 36q16 14 38 15.5t38 -10.5t23.5 -32t-1.5 -40q-59 -172 -85.5 -287t-31.5 -185.5t3 -104t16 -46.5q6 -8 16.5 -14t32.5 -6q37 0 88.5 39t108.5 110q25 29 44 58.5t36 52.5q18 27 33 51q12 23 36.5 30t46.5 -5q23 -12 30 -37 t-7 -47q0 -2 -9 -17.5t-25.5 -41t-39 -57.5t-49.5 -64q-63 -78 -127 -130q-88 -65 -166 -65q-59 0 -95 23.5t-54 48.5q-68 94 -31 313q14 106 59 256q-25 -12 -57 -27q-133 -55 -246 -41q-45 -104 -98 -198t-121 -180q-66 -80 -127 -127q-86 -68 -166 -68q-88 0 -131 55 q-25 31 -31 71t-1.5 88t15.5 103.5t25 114.5l23 84q10 45 19.5 82t13.5 68q4 23 5 36t1 19q-8 -2 -29.5 -14.5t-57.5 -48t-88 -100t-122 -171.5q-45 -66 -84 -129t-68.5 -113.5t-46.5 -82.5l-16 -31q-20 -33 -55 -33q-14 0 -23 6q-23 10 -33 30.5t-2 43.5zM934 863.5 q-2 -13.5 1 -32t15.5 -41t38.5 -47.5l10 -6q4 41 1 81t-21 75q-4 4 -7 8t-5 8l-4 4q-4 0 -11.5 -7t-13.5 -23q-2 -6 -4 -19.5z" />
<glyph unicode="hs" horiz-adv-x="1595" d="M-117 76q0 2 20.5 65.5t55.5 169t81 241.5t98 281.5t107.5 290t110.5 269.5q10 23 34 33t46 -1q25 -10 34 -34.5t-1 -47.5q-39 -90 -79 -190t-80 -205.5t-77.5 -211t-70.5 -204.5q76 106 141 179q121 133 211 133q37 0 58.5 -13.5t31.5 -27.5q35 -47 23.5 -123 t-39.5 -197q-6 -20 -11.5 -39.5t-9.5 -42.5q-31 -117 -39 -188q-4 -45 -1 -62.5t8 -21.5q4 -4 15 -6t19 -2q39 0 91.5 41t108.5 106.5t111.5 147.5t99.5 161.5t70.5 150.5t26.5 114q0 23 15.5 40t40.5 21q23 2 42 -12t23 -37q6 -27 36 -55.5t64 -59.5q31 -29 65 -59.5 t61.5 -68.5t46 -84t18.5 -103q0 -125 -39 -202t-80 -118q-49 -47 -112.5 -74.5t-131.5 -27.5q-41 0 -77.5 11.5t-65.5 31.5q-70 51 -70 135q0 27 17.5 44.5t44.5 17.5t44 -17.5t17 -44.5q0 -33 33 -44t57 -11q90 0 158 68q82 82 82 231q0 72 -45 123t-102 100l-58 49 q-37 -84 -82 -173t-97 -173t-113.5 -157.5t-133.5 -126.5q-86 -68 -166 -68q-88 0 -131 55q-25 31 -31 71t-1.5 88t15.5 103.5t25 114.5l23 84q10 45 19.5 82t13.5 68q4 23 5 36t1 19q-8 -2 -29.5 -14.5t-57.5 -48t-88 -100t-122 -171.5q-45 -66 -84 -129t-68.5 -113.5 t-46.5 -82.5l-16 -31q-20 -33 -55 -33q-14 0 -23 6q-23 10 -33 30.5t-2 43.5z" />
<glyph unicode="hx" horiz-adv-x="1865" d="M-117 76q0 2 20.5 65.5t55.5 169t81 241.5t98 281.5t107.5 290t110.5 269.5q10 23 34 33t46 -1q25 -10 34 -34.5t-1 -47.5q-39 -90 -79 -190t-80 -205.5t-77.5 -211t-70.5 -204.5q76 106 141 179q121 133 211 133q37 0 58.5 -13.5t31.5 -27.5q35 -47 23.5 -123 t-39.5 -197q-6 -20 -11.5 -39.5t-9.5 -42.5q-31 -117 -39 -188q-4 -45 -1 -62.5t8 -21.5q4 -4 15 -6t19 -2q37 0 77 28.5t80 73.5t79 101.5t74.5 113t65.5 105.5t52 80q145 203 269 237q74 20 139 -16q29 -18 45 -44t25.5 -52.5t12.5 -51t5 -37.5q0 -10 1 -22t1 -25l242 236 q18 18 43.5 18t42.5 -18q18 -18 17 -44t-17 -44l-334 -326v-2q-4 -51 -7 -102t1 -94q4 -51 11 -74t15 -31q4 -4 11.5 -8t21.5 -4q88 0 211 151q25 31 45.5 60.5t36.5 52.5q18 27 31 51q12 23 36.5 30t47.5 -5t30 -37t-6 -47q0 -2 -9 -17.5t-25.5 -41t-40 -58.5t-50.5 -65 q-160 -197 -307 -197q-76 0 -123 51q-41 43 -52 110.5t-9 149.5l-297 -293q-20 -16 -43 -16q-27 0 -45 18q-16 18 -16.5 44t18.5 42l393 387q4 43 5 84t-3 76q-4 51 -14 67.5t-17 20.5q-6 4 -15 7.5t-26 -1.5q-12 -4 -30.5 -13t-43 -30.5t-56 -56.5t-70.5 -90 q-27 -39 -59.5 -94.5t-71.5 -117.5t-84 -123.5t-94.5 -110t-104.5 -79t-115 -30.5q-88 0 -131 55q-25 31 -31 71t-1.5 88t15.5 103.5t25 114.5l23 84q10 45 19.5 82t13.5 68q4 23 5 36t1 19q-8 -2 -29.5 -14.5t-57.5 -48t-88 -100t-122 -171.5q-45 -66 -84 -129 t-68.5 -113.5t-46.5 -82.5l-16 -31q-20 -33 -55 -33q-14 0 -23 6q-23 10 -33 30.5t-2 43.5z" />
<glyph unicode="hz" horiz-adv-x="1824" d="M-117 76q0 2 20.5 65.5t55.5 169t81 241.5t98 281.5t107.5 290t110.5 269.5q10 23 34 33t46 -1q25 -10 34 -34.5t-1 -47.5q-39 -90 -79 -190t-80 -205.5t-77.5 -211t-70.5 -204.5q76 106 141 179q121 133 211 133q37 0 58.5 -13.5t31.5 -27.5q35 -47 23.5 -123 t-39.5 -197q-6 -20 -11.5 -39.5t-9.5 -42.5q-31 -117 -39 -188q-2 -14 -3 -30.5t2 -30t12.5 -22.5t29.5 -9q61 0 112.5 63.5t92.5 150.5t74 175t55 137q35 74 94.5 125t139.5 78q66 23 129 13.5t127 -25.5q39 -10 77.5 -17.5t76.5 -8.5t78 8t83 32q23 12 47.5 5t36.5 -30 t5 -47t-30 -37q-37 -20 -79.5 -60t-89 -90t-92.5 -107.5t-91 -112.5q-47 -59 -90 -111.5t-80 -93.5q57 -18 115.5 -33.5t118.5 -15.5q33 0 65.5 14t63 37t57.5 49.5t49 52.5q25 31 45.5 59.5t34.5 51.5t22 38l9 15q12 23 36.5 30t47.5 -5t30 -36t-6 -46q-2 -4 -34.5 -60.5 t-90.5 -125.5q-168 -197 -329 -197q-84 0 -165 22.5t-149 44.5l-18 7q-86 -74 -152 -74h-4q-59 0 -88 28.5t-33 63.5q-4 49 39 92q39 33 95 41q23 4 50 1t60 -13h2q47 47 97.5 109.5t105.5 130.5q51 63 101 125.5t102 115.5q-43 4 -83 12.5t-75 16.5q-55 14 -101 21.5 t-87 -7.5q-115 -37 -160 -137q-20 -45 -43 -106.5t-50.5 -128t-61.5 -131t-77 -117t-96 -84t-119 -31.5q-88 0 -131 55q-25 31 -31 71t-1.5 88t15.5 103.5t25 114.5l23 84q10 45 19.5 82t13.5 68q4 23 5 36t1 19q-8 -2 -29.5 -14.5t-57.5 -48t-88 -100t-122 -171.5 q-45 -66 -84 -129t-68.5 -113.5t-46.5 -82.5l-16 -31q-20 -33 -55 -33q-14 0 -23 6q-23 10 -33 30.5t-2 43.5z" />
<glyph unicode="ir" horiz-adv-x="1419" d="M-6 383q25 166 115 422q8 25 30.5 36t46.5 3q25 -10 36 -33t1 -47q-59 -172 -85.5 -287t-32 -185.5t3 -104t16.5 -46.5q6 -8 16.5 -14t32.5 -6q55 0 114.5 53t114 129t99.5 161t69 146q-35 20 -59 43q-68 61 -88 135q-18 70 2 134q16 47 51 78.5t78 35.5q86 6 137 -86 q51 -94 35 -223l-6 -35q37 -4 77 5.5t87 27.5q37 16 69.5 34.5t55.5 35.5q27 18 51 36q16 14 37.5 15.5t38.5 -10.5q16 -12 23 -32t-1 -40q-59 -172 -85.5 -287t-32 -185.5t3 -104t16.5 -46.5q6 -8 16 -14t33 -6q37 0 88 39t109 110q25 29 44 58.5t35 52.5q18 27 33 51 q12 23 37 30t47 -5q23 -12 30 -37t-7 -47q0 -2 -9.5 -17.5t-25.5 -41t-38.5 -57.5t-49.5 -64q-63 -78 -127 -130q-88 -65 -166 -65q-59 0 -95 23.5t-54 48.5q-68 94 -31 313q14 106 59 256q-25 -12 -57 -27q-133 -55 -246 -41q-14 -45 -43 -105t-67.5 -125t-86 -126 t-99.5 -109.5t-107.5 -78t-108.5 -29.5q-59 0 -95 23.5t-52 48.5q-70 96 -33 313zM162 1030q8 25 31.5 44.5t50.5 19.5q27 2 39 -14.5t4 -43.5t-32 -45t-50 -20q-25 -2 -38 15.5t-5 43.5zM539 863.5q-2 -13.5 1 -32t15 -41t39 -47.5l10 -6q4 41 1 81t-21 75q-4 4 -7.5 8 t-5.5 8l-4 4q-4 0 -11 -7t-13 -23q-2 -6 -4 -19.5z" />
<glyph unicode="is" horiz-adv-x="1200" d="M-6 383q25 166 115 422q8 25 30.5 36t46.5 3q25 -10 36 -33t1 -47q-59 -172 -85.5 -287t-32 -185.5t3 -104t16.5 -46.5q6 -8 16.5 -14t32.5 -6q47 0 103.5 47t112.5 118.5t108.5 158.5t93.5 167t65.5 142.5t24.5 87.5q0 23 15.5 40t39.5 21q23 2 42.5 -12t23.5 -37 q6 -27 35.5 -55.5t64.5 -59.5q31 -29 64.5 -59.5t61.5 -68.5t46.5 -84t18.5 -103q0 -125 -39 -202t-80 -118q-49 -47 -112.5 -74.5t-131.5 -27.5q-41 0 -78 11.5t-65 31.5q-70 51 -70 135q0 27 17.5 44.5t44.5 17.5t44 -17.5t17 -44.5q0 -33 33 -44t57 -11q90 0 158 68 q82 82 82 231q0 72 -45 123t-103 100l-57 49q-25 -47 -59.5 -117.5t-77.5 -148.5t-94.5 -154.5t-108.5 -138t-120.5 -100.5t-131.5 -39q-59 0 -95 23.5t-52 48.5q-70 96 -33 313zM162 1030q8 25 31.5 44.5t50.5 19.5q27 2 39 -14.5t4 -43.5t-32 -45t-50 -20q-25 -2 -38 15.5 t-5 43.5z" />
<glyph unicode="ix" horiz-adv-x="1470" d="M-6 383q25 166 115 422q8 25 30.5 36t46.5 3q25 -10 36 -33t1 -47q-59 -172 -85.5 -287t-32 -185.5t3 -104t16.5 -46.5q6 -8 16.5 -14t32.5 -6q41 0 81 27.5t80 72.5t77 100.5t71.5 110.5t64.5 105.5t54 85.5q145 203 268 237q74 20 140 -16q29 -18 45 -44t25.5 -52.5 t12.5 -51t5 -37.5q0 -10 1 -22t1 -25l241 236q18 18 44 18t42 -18q18 -18 17.5 -44t-17.5 -44l-333 -326v-2q-4 -51 -7.5 -102t0.5 -94q4 -51 11.5 -74t15.5 -31q4 -4 11.5 -8t21.5 -4q88 0 211 151q25 31 45 60.5t37 52.5q18 27 30 51q12 23 36.5 30t47.5 -5t30 -37t-5 -47 q0 -2 -9 -17.5t-25.5 -41t-40 -58.5t-50.5 -65q-160 -197 -307 -197q-76 0 -123 51q-41 43 -52 110.5t-9 149.5l-297 -293q-20 -16 -43 -16q-27 0 -45 18q-16 18 -16.5 44t18.5 42l393 387q4 43 5 84t-3 76q-4 51 -14.5 67.5t-16.5 20.5t-15 7.5t-26 -1.5q-12 -4 -30.5 -13 t-43 -30.5t-56.5 -56.5t-71 -90q-43 -59 -96 -153.5t-119.5 -183.5t-144.5 -153.5t-168 -64.5q-59 0 -95 23.5t-52 48.5q-70 96 -33 313zM162 1030q8 25 31.5 44.5t50.5 19.5q27 2 39 -14.5t4 -43.5t-32 -45t-50 -20q-25 -2 -38 15.5t-5 43.5z" />
<glyph unicode="iz" horiz-adv-x="1429" d="M-6 383q25 166 115 422q8 25 30.5 36t46.5 3q25 -10 36 -33t1 -47q-59 -172 -85.5 -287t-32 -185.5t3 -104t16.5 -46.5q6 -8 16.5 -14t32.5 -6q35 0 70 29.5t66.5 76.5t60 106.5t54.5 118t46.5 110.5t36.5 85q35 74 94.5 125t138.5 78q66 23 129.5 13.5t126.5 -25.5 q39 -10 78 -17.5t77 -8.5t78 8t83 32q23 12 47 5t37 -30q12 -23 5 -47t-30 -37q-37 -20 -80 -60t-89 -90t-92 -107.5t-91 -112.5q-47 -59 -90 -111.5t-80 -93.5q57 -18 115.5 -33.5t117.5 -15.5q33 0 66 14t63.5 37t57 49.5t49.5 52.5q25 31 45 59.5t34.5 51.5t23.5 38l8 15 q12 23 36 30t47 -5t30 -36t-5 -46q-2 -4 -35 -60.5t-90 -125.5q-168 -197 -330 -197q-84 0 -164.5 22.5t-148.5 44.5l-18 7q-86 -74 -152 -74h-4q-59 0 -88 28.5t-33 63.5q-4 49 39 92q39 33 94 41q23 4 50.5 1t60.5 -13h2q47 47 97 109.5t106 130.5q51 63 101 125.5 t101 115.5q-43 4 -82.5 12.5t-74.5 16.5q-55 14 -101.5 21.5t-87.5 -7.5q-115 -37 -159 -137q-20 -43 -43 -104.5t-51.5 -128t-63.5 -132t-78 -118t-95 -84t-116 -31.5q-59 0 -95 23.5t-52 48.5q-70 96 -33 313zM162 1030q8 25 31.5 44.5t50.5 19.5q27 2 39 -14.5t4 -43.5 t-32 -45t-50 -20q-25 -2 -38 15.5t-5 43.5z" />
<glyph unicode="kr" horiz-adv-x="1841" d="M-100 74l368 1310q8 25 29.5 38.5t46.5 4.5q25 -6 38 -28.5t5 -46.5l-170 -604q37 20 78 38q25 10 57.5 22.5t71.5 22t80 12.5t82 -5q123 -25 153 -140q8 -35 1 -84t-54 -104q-39 -43 -96.5 -78t-120.5 -57q39 -47 40 -103.5t-3 -101.5q0 -10 -1 -24.5t-1 -24.5 q61 0 135 55t144.5 133t128 161t83.5 140q-35 20 -59 43q-68 61 -88 135q-18 70 2 134q16 47 51 78.5t78 35.5q86 6 137 -86q51 -94 35 -223l-6 -35q37 -4 77 5.5t87 27.5q37 16 69.5 34.5t55.5 35.5q27 18 51 36q16 14 37.5 15.5t38.5 -10.5q16 -12 23 -32t-1 -40 q-59 -172 -86 -287t-32 -185.5t3.5 -104t16.5 -46.5q6 -8 16 -14t33 -6q37 0 88 39t109 110q25 29 44 58.5t35 52.5q18 27 33 51q12 23 37 30t47 -5q23 -12 30 -37t-7 -47q0 -2 -9.5 -17.5t-26 -41t-39 -57.5t-48.5 -64q-63 -78 -127 -130q-88 -65 -166 -65q-59 0 -95 23.5 t-55 48.5q-68 94 -30 313q14 106 59 256q-25 -12 -57 -27q-133 -55 -246 -41q-14 -43 -48 -102t-82 -122.5t-107.5 -126t-122 -112t-126 -80t-120.5 -30.5q-61 0 -92 37q-29 29 -30 67.5t3 79.5q4 35 3 68t-17 51q-10 10 -27.5 19.5t-52.5 13.5q-51 -4 -88 2 q-25 4 -41.5 22.5t-14.5 44.5q2 25 20.5 42.5t43.5 17.5q23 0 43 -1t39 -3q59 6 123 28q59 20 105 48t73 57t28 48t-4 28q-4 16 -14 29.5t-43 19.5q-45 8 -103.5 -5.5t-115.5 -39t-103 -57t-67 -58.5l-12 -14l-144 -502q-4 -20 -20 -32.5t-39 -12.5q-4 0 -8 1t-8 1 q-25 8 -37.5 29.5t-3.5 46.5zM963 863.5q-2 -13.5 1 -32t15 -41t39 -47.5l10 -6q4 41 1 81t-21 75q-4 4 -7.5 8t-5.5 8l-4 4q-4 0 -11 -7t-13 -23q-2 -6 -4 -19.5z" />
<glyph unicode="ks" horiz-adv-x="1542" d="M-100 74l368 1310q8 25 29.5 38.5t46.5 4.5q25 -6 38 -28.5t5 -46.5l-170 -604q37 20 78 38q25 10 57.5 22.5t71.5 22t80 12.5t82 -5q123 -25 153 -140q8 -35 1 -84t-54 -104q-39 -43 -96.5 -78t-120.5 -57q39 -47 40 -103.5t-3 -101.5q0 -10 -1 -24.5t-1 -24.5 q39 0 79 24.5t78.5 64.5t75.5 90t69 99.5t57.5 94.5t41.5 73q41 72 64.5 122t36 82t15.5 48.5t3 22.5q0 23 15.5 40t39.5 21q23 2 42.5 -12t23.5 -37q6 -27 35.5 -55.5t64.5 -59.5q31 -29 64.5 -59.5t61.5 -68.5t46.5 -84t18.5 -103q0 -125 -39 -202t-80 -118 q-49 -47 -112.5 -74.5t-131.5 -27.5q-41 0 -78 11.5t-65 31.5q-70 51 -70 135q0 27 17.5 44.5t44.5 17.5t44 -17.5t17 -44.5q0 -33 33 -44t57 -11q90 0 158 68q82 82 82 231q0 72 -45 123t-103 100l-57 49q-16 -35 -38.5 -82t-57.5 -108q-33 -57 -85.5 -143.5t-118 -167 t-143 -139t-161.5 -58.5q-61 0 -92 37q-29 29 -30 67.5t3 79.5q4 35 3 68t-17 51q-10 10 -27.5 19.5t-52.5 13.5q-51 -4 -88 2q-25 4 -41.5 22.5t-14.5 44.5q2 25 20.5 42.5t43.5 17.5q23 0 43 -1t39 -3q59 6 123 28q59 20 105 48t73 57t28 48t-4 28q-4 16 -14 29.5 t-43 19.5q-45 8 -103.5 -5.5t-115.5 -39t-103 -57t-67 -58.5l-12 -14l-144 -502q-4 -20 -20 -32.5t-39 -12.5q-4 0 -8 1t-8 1q-25 8 -37.5 29.5t-3.5 46.5z" />
<glyph unicode="kx" horiz-adv-x="1812" d="M-100 74l368 1310q8 25 29.5 38.5t46.5 4.5q25 -6 38 -28.5t5 -46.5l-170 -604q37 20 78 38q25 10 57.5 22.5t71.5 22t80 12.5t82 -5q123 -25 153 -140q8 -35 1 -84t-54 -104q-39 -43 -96.5 -78t-120.5 -57q39 -47 40 -103.5t-3 -101.5q0 -10 -1 -24.5t-1 -24.5 q74 10 135 66.5t115.5 133t100.5 158.5t89 144q145 203 268 237q74 20 140 -16q29 -18 45 -44t25.5 -52.5t12.5 -51t5 -37.5q0 -10 1 -22t1 -25l241 236q18 18 44 18t42 -18q18 -18 17.5 -44t-17.5 -44l-333 -326v-2q-4 -51 -7.5 -102t1.5 -94q4 -51 11 -74t15 -31 q4 -4 11.5 -8t21.5 -4q88 0 211 151q25 31 45 60.5t37 52.5q18 27 30 51q12 23 36.5 30t47.5 -5t30 -37t-5 -47q0 -2 -9 -17.5t-25.5 -41t-40 -58.5t-50.5 -65q-160 -197 -307 -197q-76 0 -123 51q-41 43 -52 110.5t-9 149.5l-297 -293q-20 -16 -43 -16q-27 0 -45 18 q-16 18 -16.5 44t18.5 42l393 387q4 43 5 84t-3 76q-4 51 -14.5 67.5t-16.5 20.5t-15 7.5t-26 -1.5q-12 -4 -30.5 -13t-43 -30.5t-56.5 -56.5t-71 -90q-27 -39 -60.5 -94.5t-72.5 -117.5t-85 -123.5t-97 -110t-107.5 -79t-117.5 -30.5t-92 37q-29 29 -30 67.5t3 79.5 q4 35 3 68t-17 51q-10 10 -27.5 19.5t-52.5 13.5q-51 -4 -88 2q-25 4 -41.5 22.5t-14.5 44.5q2 25 20.5 42.5t43.5 17.5q23 0 43 -1t39 -3q59 6 123 28q59 20 105 48t73 57t28 48t-4 28q-4 16 -14 29.5t-43 19.5q-45 8 -103.5 -5.5t-115.5 -39t-103 -57t-67 -58.5l-12 -14 l-144 -502q-4 -20 -20 -32.5t-39 -12.5q-4 0 -8 1t-8 1q-25 8 -37.5 29.5t-3.5 46.5z" />
<glyph unicode="kz" horiz-adv-x="1853" d="M-100 74l368 1310q8 25 29.5 38.5t46.5 4.5q25 -6 38 -28.5t5 -46.5l-170 -604q37 20 78 38q25 10 57.5 22.5t71.5 22t80 12.5t82 -5q123 -25 153 -140q8 -35 1 -84t-54 -104q-39 -43 -96.5 -78t-120.5 -57q39 -47 40 -103.5t-3 -101.5q0 -10 -1 -24.5t-1 -24.5 q72 0 137.5 59.5t120.5 143.5t98 174t72 149q35 74 94 125t139 78q66 23 129.5 13.5t126.5 -25.5q39 -10 78 -17.5t77 -8.5t78 8t83 32q23 12 47 5t37 -30q12 -23 5 -47t-30 -37q-37 -20 -80 -60t-89 -90t-92 -107.5t-91 -112.5q-47 -59 -90 -111.5t-80 -93.5 q57 -18 115.5 -33.5t117.5 -15.5q33 0 66 14t63.5 37t57 49.5t49.5 52.5q25 31 45 59.5t34.5 51.5t22.5 38l8 15q12 23 36.5 30t47.5 -5t30 -36t-5 -46q-2 -4 -35 -60.5t-90 -125.5q-168 -197 -330 -197q-84 0 -164.5 22.5t-148.5 44.5l-18 7q-86 -74 -152 -74h-4 q-59 0 -88 28.5t-33 63.5q-4 49 39 92q39 33 94 41q23 4 50.5 1t60.5 -13h2q47 47 97 109.5t106 130.5q51 63 101 125.5t101 115.5q-43 4 -83 12.5t-74 16.5q-55 14 -101.5 21.5t-87.5 -7.5q-115 -37 -160 -137q-35 -74 -85 -176.5t-117.5 -196.5t-152.5 -159.5t-185 -65.5 q-61 0 -92 37q-29 29 -30 67.5t3 79.5q4 35 3 68t-17 51q-10 10 -27.5 19.5t-52.5 13.5q-51 -4 -88 2q-25 4 -41.5 22.5t-14.5 44.5q2 25 20.5 42.5t43.5 17.5q23 0 43 -1t39 -3q59 6 123 28q59 20 105 48t73 57t28 48t-4 28q-4 16 -14 29.5t-43 19.5q-45 8 -103.5 -5.5 t-115.5 -39t-103 -57t-67 -58.5l-12 -14l-144 -502q-4 -20 -20 -32.5t-39 -12.5q-4 0 -8 1t-8 1q-25 8 -37.5 29.5t-3.5 46.5z" />
<glyph unicode="lr" horiz-adv-x="1417" d="M-17 294q9 142 78 372q31 96 67 195.5t73 193.5t73.5 180t67.5 158q10 23 33.5 33t48.5 -1q23 -10 32 -34.5t-1 -47.5q-190 -438 -275 -712q-59 -190 -71 -314q-10 -84 -2 -121.5t18 -52.5q4 -8 15.5 -15t33.5 -7q53 0 111.5 52t113 128t99.5 161t71 148q-35 20 -59 43 q-68 61 -88 135q-18 70 2 134q16 47 51 78.5t78 35.5q86 6 137 -86q51 -94 35 -223l-6 -35q37 -4 77 5.5t87 27.5q37 16 69.5 34.5t55.5 35.5q27 18 51 36q16 14 37.5 15.5t38.5 -10.5q16 -12 23 -32t-1 -40q-59 -172 -86 -287t-32 -185.5t3.5 -104t16.5 -46.5q6 -8 16 -14 t33 -6q37 0 88 39t109 110q25 29 44 58.5t35 52.5q18 27 33 51q12 23 37 30t47 -5q23 -12 30 -37t-7 -47q0 -2 -9.5 -17.5t-25.5 -41t-39 -57.5t-49 -64q-63 -78 -127 -130q-88 -65 -166 -65q-59 0 -95 23.5t-55 48.5q-68 94 -30 313q14 106 59 256q-25 -12 -57 -27 q-133 -55 -246 -41q-14 -45 -42 -105t-65.5 -123.5t-84 -125t-98.5 -111t-108.5 -79t-111.5 -29.5q-63 0 -99 25.5t-52 52.5q-49 76 -40 218zM537 863.5q-2 -13.5 1 -32t15 -41t39 -47.5l10 -6q4 41 1 81t-21 75q-4 4 -7.5 8t-5.5 8l-4 4q-4 0 -11 -7t-13 -23 q-2 -6 -4 -19.5z" />
<glyph unicode="ls" horiz-adv-x="1198" d="M-17 294q9 142 78 372q31 96 67 195.5t73 193.5t73.5 180t67.5 158q10 23 33.5 33t48.5 -1q23 -10 32 -34.5t-1 -47.5q-190 -438 -275 -712q-59 -190 -71 -314q-10 -84 -2 -121.5t18 -52.5q4 -8 15.5 -15t33.5 -7q55 0 112.5 52t110 124t95.5 147.5t69 122.5 q41 72 64.5 122t36 82t15.5 48.5t3 22.5q0 23 15.5 40t39.5 21q23 2 42.5 -12t23.5 -37q6 -27 35.5 -55.5t64.5 -59.5q31 -29 64.5 -59.5t61.5 -68.5t46.5 -84t18.5 -103q0 -125 -39 -202t-80 -118q-49 -47 -112.5 -74.5t-131.5 -27.5q-41 0 -78 11.5t-65 31.5 q-70 51 -70 135q0 27 17.5 44.5t44.5 17.5t44 -17.5t17 -44.5q0 -33 33 -44t57 -11q90 0 158 68q82 82 82 231q0 72 -45 123t-103 100l-57 49q-16 -35 -39 -82t-57 -108q-35 -59 -84 -145.5t-112.5 -167t-138.5 -138t-159 -57.5q-63 0 -99 25.5t-52 52.5q-49 76 -40 218z " />
<glyph unicode="lx" horiz-adv-x="1468" d="M-17 294q9 142 78 372q31 96 67 195.5t73 193.5t73.5 180t67.5 158q10 23 33.5 33t48.5 -1q23 -10 32 -34.5t-1 -47.5q-190 -438 -275 -712q-59 -190 -71 -314q-10 -84 -2 -121.5t18 -52.5q4 -8 15.5 -15t33.5 -7q63 0 125.5 60.5t118 143.5t102.5 166.5t80 131.5 q145 203 268 237q74 20 140 -16q29 -18 45 -44t25 -52.5t12.5 -51t5.5 -37.5q0 -10 1 -22t1 -25l241 236q18 18 44 18t42 -18q18 -18 17.5 -44t-17.5 -44l-333 -326v-2q-4 -51 -7.5 -102t0.5 -94q4 -51 11.5 -74t15.5 -31q4 -4 11 -8t22 -4q88 0 211 151q25 31 45 60.5 t37 52.5q18 27 30 51q12 23 36.5 30t47.5 -5t30 -37t-5 -47q0 -2 -9 -17.5t-25.5 -41t-40 -58.5t-50.5 -65q-160 -197 -307 -197q-76 0 -123 51q-41 43 -52.5 110.5t-8.5 149.5l-297 -293q-20 -16 -43 -16q-27 0 -46 18q-16 18 -16 44t19 42l393 387q4 43 5 84t-3 76 q-4 51 -14.5 67.5t-16.5 20.5t-15 7.5t-26 -1.5q-12 -4 -30.5 -13t-43 -30.5t-56.5 -56.5t-71 -90q-29 -39 -61.5 -94.5t-71.5 -117.5t-83 -123.5t-93 -110t-103.5 -79t-113.5 -30.5q-63 0 -99 25.5t-52 52.5q-49 76 -40 218z" />
<glyph unicode="lz" horiz-adv-x="1427" d="M-17 294q9 142 78 372q31 96 67 195.5t73 193.5t73.5 180t67.5 158q10 23 33.5 33t48.5 -1q23 -10 32 -34.5t-1 -47.5q-190 -438 -275 -712q-59 -190 -71 -314q-10 -84 -2 -121.5t18 -52.5q4 -8 15.5 -15t33.5 -7q41 0 78 29.5t68.5 76.5t58.5 105.5t50.5 118t41.5 110.5 t35 86q35 74 94 125t139 78q66 23 129.5 13.5t126.5 -25.5q39 -10 78 -17.5t77 -8.5t78 8t83 32q23 12 47 5t37 -30q12 -23 5 -47t-30 -37q-37 -20 -80 -60t-89 -90t-92 -107.5t-91 -112.5q-47 -59 -90 -111.5t-80 -93.5q57 -18 115.5 -33.5t117.5 -15.5q33 0 66 14t63.5 37 t57 49.5t49.5 52.5q25 31 45 59.5t34.5 51.5t22.5 38l8 15q12 23 36.5 30t47.5 -5t30 -36t-5 -46q-2 -4 -35 -60.5t-90 -125.5q-168 -197 -330 -197q-84 0 -164.5 22.5t-148.5 44.5l-18 7q-86 -74 -152 -74h-4q-59 0 -88 28.5t-33 63.5q-4 49 39 92q39 33 94 41q23 4 50.5 1 t60.5 -13h2q47 47 97 109.5t106 130.5q51 63 101 125.5t101 115.5q-43 4 -83 12.5t-74 16.5q-55 14 -101.5 21.5t-87.5 -7.5q-115 -37 -160 -137q-20 -41 -42.5 -102.5t-52 -128t-64.5 -132t-78 -118t-94 -85t-113 -32.5q-63 0 -99 25.5t-52 52.5q-49 76 -40 218z" />
<glyph unicode="mr" horiz-adv-x="2320" d="M-121 76q0 2 20.5 62.5t54.5 159.5t79 230t96 275q8 23 31.5 34t46.5 3q25 -10 36 -33t1 -47l-76 -215q35 49 68.5 90t62.5 76q63 68 113.5 100.5t97.5 32.5q25 0 44 -11.5t36 -29.5q10 -14 18 -39t11.5 -68t-1 -108.5t-22.5 -163.5l20 29q53 82 102.5 146.5t92.5 111.5 q63 68 113.5 100.5t97.5 32.5q37 0 58.5 -13.5t33.5 -27.5q35 -47 23.5 -123t-41.5 -197l-21 -82q-14 -59 -24.5 -105t-14.5 -83q-2 -12 -3 -28.5t2 -31t12.5 -23.5t29.5 -9q39 0 91.5 41t107.5 109.5t107.5 156.5t89.5 182q-35 20 -60 43q-68 61 -88 135q-18 70 2 134 q16 47 51 78.5t78 35.5q86 6 137 -86q51 -94 35 -223l-6 -35q37 -4 77 5.5t87 27.5q37 16 69.5 34.5t55.5 35.5q27 18 51 36q16 14 37.5 15.5t38.5 -10.5q16 -12 23 -32t-1 -40q-59 -172 -85.5 -287t-32 -185.5t3 -104t16.5 -46.5q6 -8 16.5 -14t32.5 -6q37 0 88 39t109 110 q25 29 44 58.5t36 52.5q18 27 32 51q12 23 37 30t47 -5q23 -12 30 -37t-7 -47q0 -2 -9.5 -17.5t-25.5 -41t-38.5 -57.5t-49.5 -64q-63 -78 -127 -130q-88 -65 -166 -65q-59 0 -95 23.5t-54 48.5q-68 94 -31 313q14 106 59 256q-25 -12 -57 -27q-133 -55 -246 -41 q-27 -66 -77 -164t-117.5 -189t-148.5 -155.5t-167 -64.5t-131 55q-23 31 -30 71t-2.5 88t16.5 103.5t26 114.5l21 84q10 45 19.5 82t15.5 68q4 23 4 35v20q-8 -2 -28.5 -14.5t-56.5 -48t-88 -100t-124 -171.5q-43 -66 -83 -129t-68.5 -113.5t-45.5 -82.5l-18 -31 q-10 -23 -32.5 -31t-45.5 2t-33 31.5t-2 44.5q4 12 12.5 45t19.5 78t23.5 99t22.5 114q14 74 20.5 126t8.5 88t1 57.5t-3 31.5q-12 -6 -35 -22.5t-58.5 -53.5t-84 -98.5t-111.5 -155.5q-43 -66 -83 -129t-68.5 -113.5t-45.5 -82.5l-18 -31q-8 -16 -22.5 -24.5t-30.5 -8.5 q-12 0 -25 6q-23 10 -33 30.5t-2 43.5zM1440 863.5q-2 -13.5 1 -32t15 -41t39 -47.5l10 -6q4 41 1 81t-21 75q-4 4 -7 8t-5 8l-5 4q-4 0 -11 -7t-13 -23q-2 -6 -4 -19.5z" />
<glyph unicode="ms" horiz-adv-x="2101" d="M-121 76q0 2 20.5 62.5t54.5 159.5t79 230t96 275q8 23 31.5 34t46.5 3q25 -10 36 -33t1 -47l-76 -215q35 49 68.5 90t62.5 76q63 68 113.5 100.5t97.5 32.5q25 0 44 -11.5t36 -29.5q10 -14 18 -39t11.5 -68t-1 -108.5t-22.5 -163.5l20 29q53 82 102.5 146.5t92.5 111.5 q63 68 113.5 100.5t97.5 32.5q37 0 58.5 -13.5t33.5 -27.5q35 -47 23.5 -123t-41.5 -197l-21 -82q-14 -59 -24.5 -105t-14.5 -83q-2 -12 -3 -28.5t2 -31t12.5 -23.5t29.5 -9q51 0 109.5 54t113 127t97.5 147.5t67 117.5q41 72 64.5 122t36 82t15.5 48.5t3 22.5q0 23 15.5 40 t39.5 21q23 2 42.5 -12t23.5 -37q6 -27 35.5 -55.5t64.5 -59.5q31 -29 65 -59.5t61.5 -68.5t46 -84t18.5 -103q0 -125 -39 -202t-80 -118q-49 -47 -112.5 -74.5t-131.5 -27.5q-41 0 -77.5 11.5t-65.5 31.5q-70 51 -70 135q0 27 17.5 44.5t44.5 17.5t44 -17.5t17 -44.5 q0 -33 33 -44t57 -11q90 0 158 68q82 82 82 231q0 72 -45 123t-103 100l-57 49q-16 -35 -38.5 -82t-57.5 -108q-31 -59 -81 -145.5t-114.5 -167t-140.5 -138t-158 -57.5q-86 0 -131 55q-23 31 -30 71t-2.5 88t16.5 103.5t26 114.5l21 84q10 45 19.5 82t15.5 68q4 23 4 35v20 q-8 -2 -28.5 -14.5t-56.5 -48t-88 -100t-124 -171.5q-43 -66 -83 -129t-68.5 -113.5t-45.5 -82.5l-18 -31q-10 -23 -32.5 -31t-45.5 2t-33 31.5t-2 44.5q4 12 12.5 45t19.5 78t23.5 99t22.5 114q14 74 20.5 126t8.5 88t1 57.5t-3 31.5q-12 -6 -35 -22.5t-58.5 -53.5 t-84 -98.5t-111.5 -155.5q-43 -66 -83 -129t-68.5 -113.5t-45.5 -82.5l-18 -31q-8 -16 -22.5 -24.5t-30.5 -8.5q-12 0 -25 6q-23 10 -33 30.5t-2 43.5z" />
<glyph unicode="mx" horiz-adv-x="2371" d="M-121 76q0 2 20.5 62.5t54.5 159.5t79 230t96 275q8 23 31.5 34t46.5 3q25 -10 36 -33t1 -47l-76 -215q35 49 68.5 90t62.5 76q63 68 113.5 100.5t97.5 32.5q25 0 44 -11.5t36 -29.5q10 -14 18 -39t11.5 -68t-1 -108.5t-22.5 -163.5l20 29q53 82 102.5 146.5t92.5 111.5 q63 68 113.5 100.5t97.5 32.5q37 0 58.5 -13.5t33.5 -27.5q35 -47 23.5 -123t-41.5 -197l-21 -82q-14 -59 -24.5 -105t-14.5 -83q-2 -12 -3 -28.5t2 -31t12.5 -23.5t29.5 -9q59 0 121 60.5t118 143.5t104 166.5t83 131.5q145 203 269 237q74 20 139 -16q29 -18 45 -44 t25.5 -52.5t12.5 -51t5 -37.5q0 -10 1 -22t1 -25l242 236q18 18 43.5 18t42.5 -18q18 -18 17 -44t-17 -44l-334 -326v-2q-4 -51 -7 -102t1 -94q4 -51 11 -74t15 -31q4 -4 11.5 -8t21.5 -4q88 0 211 151q25 31 45 60.5t37 52.5q18 27 31 51q12 23 36.5 30t47.5 -5t29.5 -37 t-5.5 -47q0 -2 -9 -17.5t-25.5 -41t-40 -58.5t-50.5 -65q-160 -197 -307 -197q-76 0 -123 51q-41 43 -52 110.5t-9 149.5l-297 -293q-20 -16 -43 -16q-27 0 -45 18q-16 18 -16.5 44t18.5 42l393 387q4 43 5 84t-3 76q-4 51 -14.5 67.5t-16.5 20.5t-15 7.5t-26 -1.5 q-12 -4 -30.5 -13t-43 -30.5t-56.5 -56.5t-70 -90q-27 -39 -60 -96.5t-71.5 -119t-82.5 -121.5t-93.5 -109.5t-104.5 -79t-115 -29.5q-86 0 -131 55q-23 31 -30 71t-2.5 88t16.5 103.5t26 114.5l21 84q10 45 19.5 82t15.5 68q4 23 4 35v20q-8 -2 -28.5 -14.5t-56.5 -48 t-88 -100t-124 -171.5q-43 -66 -83 -129t-68.5 -113.5t-45.5 -82.5l-18 -31q-10 -23 -32.5 -31t-45.5 2t-33 31.5t-2 44.5q4 12 12.5 45t19.5 78t23.5 99t22.5 114q14 74 20.5 126t8.5 88t1 57.5t-3 31.5q-12 -6 -35 -22.5t-58.5 -53.5t-84 -98.5t-111.5 -155.5 q-43 -66 -83 -129t-68.5 -113.5t-45.5 -82.5l-18 -31q-8 -16 -22.5 -24.5t-30.5 -8.5q-12 0 -25 6q-23 10 -33 30.5t-2 43.5z" />
<glyph unicode="mz" horiz-adv-x="2330" d="M-121 76q0 2 20.5 62.5t54.5 159.5t79 230t96 275q8 23 31.5 34t46.5 3q25 -10 36 -33t1 -47l-76 -215q35 49 68.5 90t62.5 76q63 68 113.5 100.5t97.5 32.5q25 0 44 -11.5t36 -29.5q10 -14 18 -39t11.5 -68t-1 -108.5t-22.5 -163.5l20 29q53 82 102.5 146.5t92.5 111.5 q63 68 113.5 100.5t97.5 32.5q37 0 58.5 -13.5t33.5 -27.5q35 -47 23.5 -123t-41.5 -197l-21 -82q-14 -59 -24.5 -105t-14.5 -83q-2 -12 -3 -28.5t2 -31t12.5 -23.5t29.5 -9q37 0 72 29.5t66.5 76.5t60.5 105.5t53.5 118t44 110.5t35.5 86q35 74 94.5 125t138.5 78 q66 23 129.5 13.5t126.5 -25.5q39 -10 78 -17.5t77 -8.5t78 8t83 32q23 12 47.5 5t36.5 -30t5 -47t-30 -37q-37 -20 -80 -60t-89 -90t-92 -107.5t-91 -112.5q-47 -59 -90 -111.5t-80 -93.5q57 -18 115.5 -33.5t118.5 -15.5q33 0 65.5 14t63 37t57.5 49.5t49 52.5 q25 31 45.5 59.5t34.5 51.5t22 38l9 15q12 23 36.5 30t47.5 -5t29.5 -36t-5.5 -46q-2 -4 -34.5 -60.5t-90.5 -125.5q-168 -197 -329 -197q-84 0 -165 22.5t-149 44.5l-18 7q-86 -74 -152 -74h-4q-59 0 -88 28.5t-33 63.5q-4 49 39 92q39 33 94 41q23 4 50.5 1t60.5 -13h2 q47 47 97 109.5t106 130.5q51 63 101 125.5t102 115.5q-43 4 -83 12.5t-75 16.5q-55 14 -101.5 21.5t-87.5 -7.5q-115 -37 -159 -137q-31 -66 -68 -167t-89 -197.5t-121.5 -165t-166.5 -68.5q-86 0 -131 55q-23 31 -30 71t-2.5 88t16.5 103.5t26 114.5l21 84q10 45 19.5 82 t15.5 68q4 23 4 35v20q-8 -2 -28.5 -14.5t-56.5 -48t-88 -100t-124 -171.5q-43 -66 -83 -129t-68.5 -113.5t-45.5 -82.5l-18 -31q-10 -23 -32.5 -31t-45.5 2t-33 31.5t-2 44.5q4 12 12.5 45t19.5 78t23.5 99t22.5 114q14 74 20.5 126t8.5 88t1 57.5t-3 31.5 q-12 -6 -35 -22.5t-58.5 -53.5t-84 -98.5t-111.5 -155.5q-43 -66 -83 -129t-68.5 -113.5t-45.5 -82.5l-18 -31q-8 -16 -22.5 -24.5t-30.5 -8.5q-12 0 -25 6q-23 10 -33 30.5t-2 43.5z" />
<glyph unicode="nr" horiz-adv-x="1812" d="M-119 78l19 60q20 61 54 160t79 230t96 275q10 23 32.5 35t47.5 2q23 -10 35 -33t2 -45q-20 -57 -40 -110.5t-36 -106.5q35 49 67.5 90t63.5 76q121 133 211 133q37 0 58.5 -13.5t31.5 -27.5q35 -47 23.5 -123t-39.5 -197q-6 -20 -11.5 -39.5t-9.5 -42.5 q-31 -117 -39 -188q-2 -14 -3 -30.5t2 -30t12.5 -22.5t29.5 -9q49 0 107.5 53t115 130t103.5 161t72 145q-35 20 -60 43q-68 61 -88 135q-18 70 2 134q16 47 51 78.5t78 35.5q86 6 137 -86q51 -94 35 -223l-6 -35q37 -4 77 5.5t87 27.5q37 16 69.5 34.5t55.5 35.5 q27 18 51 36q16 14 37.5 15.5t38.5 -10.5q16 -12 23.5 -32t-1.5 -40q-59 -172 -85.5 -287t-31.5 -185.5t3 -104t16 -46.5q6 -8 16.5 -14t32.5 -6q37 0 88 39t109 110q25 29 44 58.5t36 52.5q18 27 32 51q12 23 37 30t47 -5q23 -12 30 -37t-7 -47q0 -2 -9 -17.5t-25.5 -41 t-39 -57.5t-49.5 -64q-63 -78 -127 -130q-88 -65 -166 -65q-59 0 -95 23.5t-54 48.5q-68 94 -31 313q14 106 59 256q-25 -12 -57 -27q-133 -55 -246 -41q-20 -68 -73.5 -166t-125 -188t-153.5 -154.5t-160 -64.5q-88 0 -131 55q-25 31 -31 71t-1.5 88t15.5 103.5t25 114.5 l23 84q10 45 19.5 82t13.5 68q4 23 5 36t1 19q-8 -2 -29.5 -14.5t-57.5 -48t-88 -100t-122 -171.5q-45 -66 -84 -129t-68.5 -113.5t-46.5 -82.5l-16 -31q-20 -33 -55 -33q-12 0 -25 6q-23 10 -32 31.5t-1 44.5zM932 863.5q-2 -13.5 1 -32t15.5 -41t38.5 -47.5l10 -6 q4 41 1 81t-21 75q-4 4 -7 8t-5 8l-4 4q-4 0 -11.5 -7t-13.5 -23q-2 -6 -4 -19.5z" />
<glyph unicode="ns" horiz-adv-x="1593" d="M-119 78l19 60q20 61 54 160t79 230t96 275q10 23 32.5 35t47.5 2q23 -10 35 -33t2 -45q-20 -57 -40 -110.5t-36 -106.5q35 49 67.5 90t63.5 76q121 133 211 133q37 0 58.5 -13.5t31.5 -27.5q35 -47 23.5 -123t-39.5 -197q-6 -20 -11.5 -39.5t-9.5 -42.5 q-31 -117 -39 -188q-2 -14 -3 -30.5t2 -30t12.5 -22.5t29.5 -9q49 0 105.5 51t111 123t99.5 147.5t73 124.5q41 72 64.5 122t36 82t15.5 48.5t3 22.5q0 23 15.5 40t39.5 21q23 2 42.5 -12t23.5 -37q6 -27 36 -55.5t64 -59.5q31 -29 65 -59.5t61.5 -68.5t46 -84t18.5 -103 q0 -125 -39 -202t-80 -118q-49 -47 -112.5 -74.5t-131.5 -27.5q-41 0 -77.5 11.5t-65.5 31.5q-70 51 -70 135q0 27 17.5 44.5t44.5 17.5t44 -17.5t17 -44.5q0 -33 33 -44t57 -11q90 0 158 68q82 82 82 231q0 72 -45 123t-102 100l-58 49q-16 -35 -38.5 -82t-57.5 -108 q-33 -57 -84 -143.5t-115.5 -167t-140.5 -139t-156 -58.5q-88 0 -131 55q-25 31 -31 71t-1.5 88t15.5 103.5t25 114.5l23 84q10 45 19.5 82t13.5 68q4 23 5 36t1 19q-8 -2 -29.5 -14.5t-57.5 -48t-88 -100t-122 -171.5q-45 -66 -84 -129t-68.5 -113.5t-46.5 -82.5l-16 -31 q-20 -33 -55 -33q-12 0 -25 6q-23 10 -32 31.5t-1 44.5z" />
<glyph unicode="nx" horiz-adv-x="1863" d="M-119 78l19 60q20 61 54 160t79 230t96 275q10 23 32.5 35t47.5 2q23 -10 35 -33t2 -45q-20 -57 -40 -110.5t-36 -106.5q35 49 67.5 90t63.5 76q121 133 211 133q37 0 58.5 -13.5t31.5 -27.5q35 -47 23.5 -123t-39.5 -197q-6 -20 -11.5 -39.5t-9.5 -42.5 q-31 -117 -39 -188q-2 -14 -3 -30.5t2 -30t12.5 -22.5t29.5 -9q35 0 75 28.5t80 73.5t79 102.5t74.5 113t66.5 104.5t53 80q145 203 269 237q74 20 139 -16q29 -18 45 -44t25.5 -52.5t12.5 -51t5 -37.5q0 -10 1 -22t1 -25l242 236q18 18 43.5 18t42.5 -18q18 -18 17 -44 t-17 -44l-334 -326v-2q-4 -51 -7 -102t1 -94q4 -51 11 -74t15 -31q4 -4 11.5 -8t21.5 -4q88 0 211 151q25 31 45.5 60.5t36.5 52.5q18 27 31 51q12 23 36.5 30t47.5 -5t30 -37t-6 -47q0 -2 -9 -17.5t-25.5 -41t-40 -58.5t-50.5 -65q-160 -197 -307 -197q-76 0 -123 51 q-41 43 -52 110.5t-9 149.5l-297 -293q-20 -16 -43 -16q-27 0 -45 18q-16 18 -16.5 44t18.5 42l393 387q4 43 5 84t-3 76q-4 51 -14.5 67.5t-16.5 20.5t-15 7.5t-26 -1.5q-12 -4 -30.5 -13t-43 -30.5t-56 -56.5t-70.5 -90q-41 -57 -95.5 -150.5t-121 -183.5t-145.5 -155.5 t-167 -65.5t-131 55q-25 31 -31 71t-1.5 88t15.5 103.5t25 114.5l23 84q10 45 19.5 82t13.5 68q4 23 5 36t1 19q-8 -2 -29.5 -14.5t-57.5 -48t-88 -100t-122 -171.5q-45 -66 -84 -129t-68.5 -113.5t-46.5 -82.5l-16 -31q-20 -33 -55 -33q-12 0 -25 6q-23 10 -32 31.5 t-1 44.5z" />
<glyph unicode="nz" horiz-adv-x="1822" d="M-119 78l19 60q20 61 54 160t79 230t96 275q10 23 32.5 35t47.5 2q23 -10 35 -33t2 -45q-20 -57 -40 -110.5t-36 -106.5q35 49 67.5 90t63.5 76q121 133 211 133q37 0 58.5 -13.5t31.5 -27.5q35 -47 23.5 -123t-39.5 -197q-6 -20 -11.5 -39.5t-9.5 -42.5 q-31 -117 -39 -188q-2 -14 -3 -30.5t2 -30t12.5 -22.5t29.5 -9q39 0 75 29.5t67.5 76.5t60.5 106.5t52.5 118t43 110.5t35.5 85q35 74 94.5 125t139.5 78q66 23 129 13.5t127 -25.5q39 -10 77.5 -17.5t76.5 -8.5t78 8t83 32q23 12 47.5 5t36.5 -30t5 -47t-30 -37 q-37 -20 -80 -60t-89 -90t-92 -107.5t-91 -112.5q-47 -59 -90 -111.5t-80 -93.5q57 -18 115.5 -33.5t118.5 -15.5q33 0 65.5 14t63 37t57.5 49.5t49 52.5q25 31 45.5 59.5t34.5 51.5t22 38l9 15q12 23 36.5 30t47.5 -5t30 -36t-6 -46q-2 -4 -34.5 -60.5t-90.5 -125.5 q-168 -197 -329 -197q-84 0 -165 22.5t-149 44.5l-18 7q-86 -74 -152 -74h-4q-59 0 -88 28.5t-33 63.5q-4 49 39 92q39 33 94 41q23 4 50.5 1t60.5 -13h2q47 47 97.5 109.5t105.5 130.5q51 63 101 125.5t102 115.5q-43 4 -83 12.5t-75 16.5q-55 14 -101.5 21.5t-86.5 -7.5 q-115 -37 -160 -137q-20 -45 -44 -106.5t-51.5 -128t-62.5 -131t-78 -117t-95 -84t-116 -31.5q-88 0 -131 55q-25 31 -31 71t-1.5 88t15.5 103.5t25 114.5l23 84q10 45 19.5 82t13.5 68q4 23 5 36t1 19q-8 -2 -29.5 -14.5t-57.5 -48t-88 -100t-122 -171.5q-45 -66 -84 -129 t-68.5 -113.5t-46.5 -82.5l-16 -31q-20 -33 -55 -33q-12 0 -25 6q-23 10 -32 31.5t-1 44.5z" />
<glyph unicode="ox" horiz-adv-x="1738" d="M-37 260q0 68 22.5 143.5t63.5 143.5q37 66 88 106q41 35 78 43q8 20 14 29q74 121 189 121q102 0 160 -109q41 -86 40 -207q0 -131 -43 -243q53 20 97.5 65t85.5 102.5t81 121t85 121t97 101.5t118 62q74 20 139 -16q29 -18 45 -44t25.5 -52.5t12.5 -51t5 -37.5 q0 -10 1 -22t1 -25l242 236q18 18 43.5 18t42.5 -18q18 -18 17 -44t-17 -44l-334 -326v-2q-4 -51 -7 -102t1 -94q4 -51 11 -74t15 -31q4 -4 11.5 -8t21.5 -4q88 0 211 151q25 31 45.5 60.5t36.5 52.5q18 27 31 51q12 23 36.5 30t47.5 -5t30 -37t-6 -47q0 -2 -9 -17.5 t-25.5 -41t-40 -58.5t-50.5 -65q-160 -197 -307 -197q-76 0 -123 51q-41 43 -52 110.5t-9 149.5l-297 -293q-20 -16 -43 -16q-27 0 -45 18q-16 18 -16.5 44t18.5 42l393 387q4 43 5 84t-3 76q-4 51 -14 67.5t-17 20.5q-6 4 -15 7.5t-26 -1.5q-70 -23 -116.5 -69.5 t-86.5 -106t-80 -124t-90 -123t-121 -103.5t-171 -65q-47 -61 -103 -101q-84 -53 -182 -53q-80 0 -128 25.5t-70 54.5q-59 70 -60 182zM86 260q0 -23 6 -51.5t23 -50.5q33 -37 106 -37q76 0 135 49q-68 27 -118 94q-33 45 -50.5 104.5t-17.5 125.5v16l-16 -27 q-31 -53 -49.5 -112.5t-18.5 -110.5zM293 494q0 -96 45 -158q35 -49 100 -62q29 55 43.5 122t14.5 134q0 82 -21.5 137.5t-56.5 55.5q-29 0 -54.5 -24.5t-41.5 -65.5q-3 -9 -11 -25q-8 -25 -13 -53.5t-5 -60.5z" />
<glyph unicode="oz" horiz-adv-x="1779" d="M-37 260q0 68 22.5 143.5t63.5 143.5q37 66 88 106q41 35 78 43q8 20 14 29q74 121 189 121q102 0 160 -109q41 -86 40 -207q0 -131 -43 -243q43 14 82 56t77 98.5t77 120t82 121.5t91 103t108 64q66 23 129 13.5t127 -25.5q39 -10 77.5 -17.5t76.5 -8.5t78 8t83 32 q23 12 47.5 5t36.5 -30t5 -47t-30 -37q-37 -20 -80 -60t-89 -90t-92 -107.5t-91 -112.5q-47 -59 -90 -111.5t-80 -93.5q57 -18 115.5 -33.5t118.5 -15.5q33 0 65.5 14t63 37t57.5 49.5t49 52.5q25 31 45.5 59.5t34.5 51.5t23 38l8 15q12 23 36.5 30t47.5 -5t30 -36t-6 -46 q-2 -4 -34.5 -60.5t-90.5 -125.5q-168 -197 -329 -197q-84 0 -165 22.5t-149 44.5l-18 7q-86 -74 -152 -74h-4q-59 0 -88 28.5t-33 63.5q-4 49 39 92q39 33 94 41q23 4 50.5 1t60.5 -13h2q47 47 97.5 109.5t105.5 130.5q51 63 101 125.5t102 115.5q-43 4 -83 12.5t-75 16.5 q-55 14 -101.5 21.5t-87.5 -7.5q-70 -23 -114.5 -67.5t-81.5 -101t-70 -118t-80 -119t-112.5 -104.5t-165.5 -71q-47 -61 -103 -101q-84 -53 -182 -53q-80 0 -128 25.5t-70 54.5q-59 70 -60 182zM86 260q0 -23 6 -51.5t23 -50.5q33 -37 106 -37q76 0 135 49q-68 27 -118 94 q-33 45 -50.5 104.5t-17.5 125.5v16l-16 -27q-31 -53 -49.5 -112.5t-18.5 -110.5zM293 494q0 -96 45 -158q35 -49 100 -62q29 55 43.5 122t14.5 134q0 82 -21.5 137.5t-56.5 55.5q-29 0 -54.5 -24.5t-41.5 -65.5q-3 -9 -11 -25q-8 -25 -13 -53.5t-5 -60.5z" />
<glyph unicode="qr" horiz-adv-x="1757" d="M-86 -10q-8 25 4 46t37 30q25 6 47.5 -5.5t28.5 -33.5q4 -4 20.5 -11.5t67.5 -13.5q45 -4 98 -5t111 1q78 0 154.5 -1t144.5 -11q39 -6 69.5 -16.5t55.5 -22.5q66 -39 84 -103q8 -25 -4 -46t-37 -29t-46.5 4t-29.5 37t-43 37t-70 18q-59 10 -132 10h-144q-70 -2 -130.5 0 t-113.5 8q-14 2 -38.5 6.5t-51.5 15.5t-50.5 31.5t-31.5 53.5zM-37 260q0 68 22.5 143.5t63.5 143.5q37 66 88 106q41 35 78 43q8 20 14 29q74 121 189 121q102 0 160 -109q41 -86 40 -207q0 -131 -43 -243q55 16 105.5 39.5t94.5 60.5t81 90t68 133q-35 20 -60 43 q-68 61 -88 135q-18 70 2 134q16 47 51 78.5t78 35.5q86 6 137 -86q51 -94 35 -223l-6 -35q37 -4 77 5.5t87 27.5q37 16 69.5 34.5t55.5 35.5q27 18 51 36q16 14 38 15.5t38 -10.5t23.5 -32t-1.5 -40q-59 -172 -85.5 -287t-31.5 -185.5t3 -104t16 -46.5q6 -8 16.5 -14 t32.5 -6q37 0 88.5 39t108.5 110q25 29 44 58.5t36 52.5q18 27 33 51q12 23 36.5 30t46.5 -5q23 -12 30 -37t-7 -47q0 -2 -9 -17.5t-25.5 -41t-39 -57.5t-49.5 -64q-63 -78 -127 -130q-88 -65 -166 -65q-59 0 -95 23.5t-54 48.5q-68 94 -31 313q14 106 59 256 q-25 -12 -57 -27q-133 -55 -246 -41q-29 -88 -81 -161.5t-121.5 -129t-153.5 -89t-176 -39.5q-47 -61 -103 -101q-84 -53 -182 -53q-80 0 -128 25.5t-70 54.5q-59 70 -60 182zM86 260q0 -23 6 -51.5t23 -50.5q33 -37 106 -37q76 0 135 49q-68 27 -118 94q-33 45 -50.5 104.5 t-17.5 125.5v16l-16 -27q-31 -53 -49.5 -112.5t-18.5 -110.5zM293 494q0 -96 45 -158q35 -49 100 -62q29 55 43.5 122t14.5 134q0 82 -21.5 137.5t-56.5 55.5q-29 0 -54.5 -24.5t-41.5 -65.5q-3 -9 -11 -25q-8 -25 -13 -53.5t-5 -60.5zM891 863.5q-2 -13.5 1 -32t15.5 -41 t38.5 -47.5l10 -6q4 41 1 81t-21 75q-4 4 -7 8t-5 8l-4 4q-4 0 -11.5 -7t-13.5 -23q-2 -6 -4 -19.5z" />
<glyph unicode="qs" horiz-adv-x="1550" d="M-86 -10q-8 25 4 46t37 30q25 6 47.5 -5.5t28.5 -33.5q4 -4 20.5 -11.5t67.5 -13.5q45 -4 98 -5t111 1q78 0 154.5 -1t144.5 -11q39 -6 69.5 -16.5t55.5 -22.5q66 -39 84 -103q8 -25 -4 -46t-37 -29t-46.5 4t-29.5 37t-43 37t-70 18q-59 10 -132 10h-144q-70 -2 -130.5 0 t-113.5 8q-14 2 -38.5 6.5t-51.5 15.5t-50.5 31.5t-31.5 53.5zM-37 260q0 68 22.5 143.5t63.5 143.5q37 66 88 106q41 35 78 43q8 20 14 29q74 121 189 121q102 0 160 -109q41 -86 40 -207q0 -131 -43 -243q49 0 102.5 34.5t103.5 90t96.5 121t80 128t54 111.5t20.5 70 q0 23 15.5 40t39.5 21q23 2 42.5 -12t23.5 -37q6 -27 36 -55.5t64 -59.5q31 -29 65 -59.5t61.5 -68.5t46 -84t18.5 -103q0 -125 -39 -202t-80 -118q-49 -47 -112.5 -74.5t-131.5 -27.5q-41 0 -77.5 11.5t-65.5 31.5q-70 51 -70 135q0 27 17.5 44.5t44.5 17.5t44 -17.5 t17 -44.5q0 -33 33 -44t57 -11q90 0 158 68q82 82 82 231q0 72 -45 123t-102 100l-58 49q-53 -123 -117.5 -223t-140.5 -172t-164 -110.5t-188 -38.5q-47 -61 -103 -101q-84 -53 -182 -53q-80 0 -128 25.5t-70 54.5q-59 70 -60 182zM86 260q0 -23 6 -51.5t23 -50.5 q33 -37 106 -37q76 0 135 49q-68 27 -118 94q-33 45 -50.5 104.5t-17.5 125.5v16l-16 -27q-31 -53 -49.5 -112.5t-18.5 -110.5zM293 494q0 -96 45 -158q35 -49 100 -62q29 55 43.5 122t14.5 134q0 82 -21.5 137.5t-56.5 55.5q-29 0 -54.5 -24.5t-41.5 -65.5q-3 -9 -11 -25 q-8 -25 -13 -53.5t-5 -60.5z" />
<glyph unicode="qx" horiz-adv-x="1820" d="M-86 -10q-8 25 4 46t37 30q25 6 47.5 -5.5t28.5 -33.5q4 -4 20.5 -11.5t67.5 -13.5q45 -4 98 -5t111 1q78 0 154.5 -1t144.5 -11q39 -6 69.5 -16.5t55.5 -22.5q66 -39 84 -103q8 -25 -4 -46t-37 -29t-46.5 4t-29.5 37t-43 37t-70 18q-59 10 -132 10h-144q-70 -2 -130.5 0 t-113.5 8q-14 2 -38.5 6.5t-51.5 15.5t-50.5 31.5t-31.5 53.5zM-37 260q0 68 22.5 143.5t63.5 143.5q37 66 88 106q41 35 78 43q8 20 14 29q74 121 189 121q102 0 160 -109q41 -86 40 -207q0 -131 -43 -243q70 18 122.5 51t95.5 76t80.5 96t78.5 113q145 203 269 237 q74 20 139 -16q29 -18 45 -44t25.5 -52.5t12.5 -51t5 -37.5q0 -10 1 -22t1 -25l242 236q18 18 43.5 18t42.5 -18q18 -18 17 -44t-17 -44l-334 -326v-2q-4 -51 -7 -102t1 -94q4 -51 11 -74t15 -31q4 -4 11.5 -8t21.5 -4q88 0 211 151q25 31 45.5 60.5t36.5 52.5q18 27 31 51 q12 23 36.5 30t47.5 -5t30 -37t-6 -47q0 -2 -9 -17.5t-25.5 -41t-40 -58.5t-50.5 -65q-160 -197 -307 -197q-76 0 -123 51q-41 43 -52 110.5t-9 149.5l-297 -293q-20 -16 -43 -16q-27 0 -45 18q-16 18 -16.5 44t18.5 42l393 387q4 43 5 84t-3 76q-4 51 -14.5 67.5 t-16.5 20.5t-15 7.5t-26 -1.5q-12 -4 -30.5 -13t-43 -30.5t-56 -56.5t-70.5 -90q-57 -86 -108.5 -153.5t-112 -118t-138.5 -83t-188 -46.5q-47 -61 -103 -101q-84 -53 -182 -53q-80 0 -128 25.5t-70 54.5q-59 70 -60 182zM86 260q0 -23 6 -51.5t23 -50.5q33 -37 106 -37 q76 0 135 49q-68 27 -118 94q-33 45 -50.5 104.5t-17.5 125.5v16l-16 -27q-31 -53 -49.5 -112.5t-18.5 -110.5zM293 494q0 -96 45 -158q35 -49 100 -62q29 55 43.5 122t14.5 134q0 82 -21.5 137.5t-56.5 55.5q-29 0 -54.5 -24.5t-41.5 -65.5q-3 -9 -11 -25q-8 -25 -13 -53.5 t-5 -60.5z" />
<glyph unicode="qz" horiz-adv-x="1779" d="M-86 -10q-8 25 4 46t37 30q25 6 47.5 -5.5t28.5 -33.5q4 -4 20.5 -11.5t67.5 -13.5q45 -4 98 -5t111 1q78 0 154.5 -1t144.5 -11q39 -6 69.5 -16.5t55.5 -22.5q66 -39 84 -103q8 -25 -4 -46t-37 -29t-46.5 4t-29.5 37t-43 37t-70 18q-59 10 -132 10h-144q-70 -2 -130.5 0 t-113.5 8q-14 2 -38.5 6.5t-51.5 15.5t-50.5 31.5t-31.5 53.5zM-37 260q0 68 22.5 143.5t63.5 143.5q37 66 88 106q41 35 78 43q8 20 14 29q74 121 189 121q102 0 160 -109q41 -86 40 -207q0 -131 -43 -243q55 10 96.5 45t73 84t58 109.5t55.5 121.5q35 74 94.5 125 t139.5 78q66 23 129 13.5t127 -25.5q39 -10 77.5 -17.5t76.5 -8.5t78 8t83 32q23 12 47.5 5t36.5 -30t5 -47t-30 -37q-37 -20 -80 -60t-89 -90t-92 -107.5t-91 -112.5q-47 -59 -90 -111.5t-80 -93.5q57 -18 115.5 -33.5t118.5 -15.5q33 0 65.5 14t63 37t57.5 49.5t49 52.5 q25 31 45.5 59.5t34.5 51.5t23 38l8 15q12 23 36.5 30t47.5 -5t30 -36t-6 -46q-2 -4 -34.5 -60.5t-90.5 -125.5q-168 -197 -329 -197q-84 0 -165 22.5t-149 44.5l-18 7q-86 -74 -152 -74h-4q-59 0 -88 28.5t-33 63.5q-4 49 39 92q39 33 94 41q23 4 50.5 1t60.5 -13h2 q47 47 97.5 109.5t105.5 130.5q51 63 101 125.5t102 115.5q-43 4 -83 12.5t-75 16.5q-55 14 -101.5 21.5t-87.5 -7.5q-115 -37 -159 -137q-43 -94 -74 -166t-76 -126t-117.5 -91t-197.5 -61q-47 -61 -103 -101q-84 -53 -182 -53q-80 0 -128 25.5t-70 54.5q-59 70 -60 182z M86 260q0 -23 6 -51.5t23 -50.5q33 -37 106 -37q76 0 135 49q-68 27 -118 94q-33 45 -50.5 104.5t-17.5 125.5v16l-16 -27q-31 -53 -49.5 -112.5t-18.5 -110.5zM293 494q0 -96 45 -158q35 -49 100 -62q29 55 43.5 122t14.5 134q0 82 -21.5 137.5t-56.5 55.5 q-29 0 -54.5 -24.5t-41.5 -65.5q-3 -9 -11 -25q-8 -25 -13 -53.5t-5 -60.5z" />
<glyph unicode="rs" horiz-adv-x="1648" d="M-61 791q-18 70 2 133q16 47 51 78.5t78 35.5q86 6 137 -86q51 -94 35 -223l-6 -35q37 -4 76.5 5.5t86.5 27.5q37 16 70 34.5t55 35.5q27 18 51 37q16 14 38 15t38 -11t23.5 -32t-0.5 -40q-59 -172 -86 -286.5t-32 -185.5t3 -104.5t16 -46.5q6 -8 16.5 -14t33.5 -6 q37 0 88 39t108 110q55 66 100.5 141.5t90.5 155.5q41 72 64.5 122t35.5 82t15 48.5t3 22.5q0 23 15.5 40t40.5 21q23 2 42 -12t23 -37q6 -27 36 -55.5t65 -59.5q31 -29 64.5 -59.5t61 -68.5t46 -84t18.5 -103q0 -125 -39 -202t-80 -118q-49 -47 -112.5 -74.5t-130.5 -27.5 q-41 0 -78 11.5t-66 31.5q-70 51 -69 135q0 27 17 44.5t44 17.5t44.5 -17.5t17.5 -44.5q0 -33 32.5 -44t57.5 -11q90 0 157 68q82 82 82 231q0 72 -45 123t-102 100l-58 49q-16 -35 -38.5 -82t-57.5 -108q-45 -78 -90 -157t-110 -156q-27 -33 -59 -67t-68.5 -62.5t-78.5 -47 t-87 -18.5q-59 0 -95 23.5t-55 48.5q-68 94 -31 313q14 106 60 256q-25 -12 -58 -27q-133 -55 -245 -41q-4 -14 -9.5 -27.5t-11.5 -27.5q-20 -47 -41.5 -88t-40 -71.5t-31 -48t-14.5 -19.5q-14 -23 -38.5 -27t-45.5 12q-23 16 -26.5 40t12.5 46l10 16q10 17 27.5 45t37 64.5 t38.5 79.5l18 45q-35 20 -59 43q-68 61 -88 136zM53 865.5q-2 -13.5 1 -32t15.5 -41t39.5 -47.5l10 -6q4 41 1 81t-22 75q-4 4 -7 8t-5 8l-4 4q-4 0 -11.5 -7t-13.5 -23q-2 -6 -4 -19.5z" />
<glyph unicode="rx" horiz-adv-x="1918" d="M-61 788q-18 70 2 134q16 47 51 78.5t78 35.5q86 6 137 -86q51 -94 35 -223l-6 -35q37 -4 76.5 5.5t86.5 27.5q37 16 70 34.5t55 35.5q27 18 51 36q16 14 38 15.5t38 -10.5t23.5 -32t-0.5 -40q-59 -172 -86 -287t-32 -185.5t3 -104t16 -46.5q6 -8 16.5 -14t33.5 -6 q37 0 88 39t108 110q66 78 115 169t115 184q145 203 268 237q74 20 139 -16q29 -18 45.5 -44t25.5 -52.5t12 -51t5 -37.5q0 -10 1 -22t1 -25l242 236q18 18 44 18t42 -18q18 -18 17 -44t-17 -44l-334 -326v-2q-4 -51 -7 -102t1 -94q4 -51 11 -74t16 -31q4 -4 11 -8t21 -4 q88 0 211 151q25 31 45.5 60.5t36.5 52.5q18 27 31 51q12 23 36.5 30t47.5 -5t30 -37t-5 -47q0 -2 -9.5 -17.5t-26 -41t-40 -58.5t-49.5 -65q-160 -197 -308 -197q-76 0 -122 51q-41 43 -52.5 110.5t-9.5 149.5l-297 -293q-20 -16 -43 -16q-27 0 -45 18q-16 18 -16 44t18 42 l393 387q4 43 5 84t-3 76q-4 51 -14 67.5t-16 20.5t-15.5 7.5t-25.5 -1.5q-12 -4 -30.5 -13t-43.5 -30.5t-56.5 -56.5t-70.5 -90q-61 -86 -111.5 -178t-121.5 -182q-63 -78 -127 -130q-88 -66 -166 -65q-59 0 -95 23.5t-55 48.5q-68 94 -31 313q14 106 60 256 q-25 -12 -58 -27q-133 -55 -245 -41q-4 -14 -9.5 -27.5t-11.5 -27.5q-20 -47 -41.5 -88t-40 -71.5t-31 -48t-14.5 -19.5q-14 -23 -38.5 -27t-45.5 12q-23 16 -26.5 40t12.5 46l10 16q10 17 27.5 45t37 64.5t38.5 79.5l18 45q-35 20 -59 43q-68 61 -88 135zM53 863.5 q-2 -13.5 1 -32t15.5 -41t39.5 -47.5l10 -6q4 41 1 81t-22 75q-4 4 -7 8t-5 8l-4 4q-4 0 -11.5 -7t-13.5 -23q-2 -6 -4 -19.5z" />
<glyph unicode="sr" horiz-adv-x="1619" d="M-56.5 317.5q-4.5 24.5 9.5 44.5q2 2 40 62.5t85 142.5q41 72 64.5 122t35.5 82t15.5 48.5t3.5 22.5q0 23 15 40t40 21q23 2 42 -12t23 -37q6 -27 36 -55.5t65 -59.5q31 -29 64.5 -59.5t61 -68.5t46 -84t18.5 -103q0 -125 -39 -202t-80 -118q-49 -47 -112 -74.5 t-131 -27.5q-41 0 -78 11.5t-66 31.5q-70 51 -69 135q0 27 17.5 44.5t43.5 17.5q27 0 44.5 -17.5t17.5 -44.5q0 -33 32.5 -44t57.5 -11q90 0 157 68q82 82 82 231q0 72 -45 123t-102 100l-57 49q-16 -35 -39 -82t-58 -108q-47 -86 -86 -146.5t-43 -64.5q-14 -23 -38.5 -27 t-45.5 11q-23 14 -27.5 38.5zM587.5 38.5q-12.5 20.5 0.5 49.5q2 6 14 40t29.5 82t38 106.5t40 114.5t36 103.5t26.5 75.5q-35 20 -59 43q-68 61 -88 135q-18 70 2 134q16 47 51 78.5t78 35.5q86 6 137 -86q51 -94 35 -223l-6 -35q37 -4 76.5 5.5t86.5 27.5q37 16 70 34.5 t55 35.5q27 18 52 36q16 14 37.5 15.5t37.5 -10.5t23.5 -32t-0.5 -40q-59 -172 -86 -287t-32 -185.5t3 -104t17 -46.5q6 -8 16 -14t33 -6q37 0 88 39t108 110q25 29 44.5 58.5t35.5 52.5q18 27 33 51q12 23 36.5 30t47.5 -5t30 -37t-8 -47q0 -2 -9 -17.5t-25.5 -41 t-39 -57.5t-48.5 -64q-63 -78 -127 -130q-88 -65 -166 -65q-59 0 -95 23.5t-55 48.5q-68 94 -31 313q14 106 60 256q-25 -12 -57 -27q-133 -55 -246 -41l-189 -528q-10 -29 -33.5 -36t-44 2t-33 29.5zM739 863.5q-2 -13.5 1 -32t15.5 -41t39.5 -47.5l10 -6q4 41 1 81t-22 75 q-4 4 -7 8t-5 8l-4 4q-4 0 -11 -7t-14 -23q-2 -6 -4 -19.5z" />
<glyph unicode="sx" horiz-adv-x="1523" d="M-56.5 317.5q-4.5 24.5 9.5 44.5q2 2 40 62.5t85 142.5q41 72 64.5 122t35.5 82t15.5 48.5t3.5 22.5q0 23 15 40t40 21q23 2 42 -12t23 -37q6 -27 36 -55.5t65 -59.5q25 -23 51.5 -46t50.5 -52q41 35 98.5 75t120 73.5t125 56t113.5 22.5q45 0 88 -24q29 -18 45 -44 t25.5 -52.5t12.5 -51t5 -37.5q0 -10 1 -22t1 -25l242 236q18 18 43.5 18t42.5 -18q18 -18 17 -44t-17 -44l-334 -326v-2q-4 -51 -7 -102t1 -94q4 -51 11 -74t15 -31q4 -4 11.5 -8t21.5 -4q88 0 211 151q25 31 45.5 60.5t36.5 52.5q18 27 31 51q12 23 36.5 30t47.5 -5t30 -37 t-6 -47q0 -2 -9 -17.5t-25.5 -41t-40 -58.5t-50.5 -65q-160 -197 -307 -197q-76 0 -123 51q-41 43 -52 110.5t-9 149.5l-297 -293q-20 -16 -43 -16q-27 0 -45 18q-16 18 -16.5 44t18.5 42l393 387q4 43 5 84t-3 76q-2 14 -4 30.5t-8 32t-18.5 26t-34.5 10.5 q-20 0 -66.5 -19.5t-102 -50.5t-112.5 -68t-100 -69q10 -27 17 -55.5t7 -61.5q0 -125 -39 -202t-80 -118q-49 -47 -112 -74.5t-131 -27.5q-41 0 -78 11.5t-66 31.5q-70 51 -69 135q0 27 17.5 44.5t43.5 17.5q27 0 44.5 -17.5t17.5 -44.5q0 -33 32.5 -44t57.5 -11 q90 0 157 68q82 82 82 231q0 72 -45 123t-102 100l-57 49q-16 -35 -39 -82t-58 -108q-47 -86 -86 -146.5t-43 -64.5q-14 -23 -38.5 -27t-45.5 11q-23 14 -27.5 38.5z" />
<glyph unicode="tr" horiz-adv-x="1415" d="M-20.5 294q10.5 142 79.5 372q29 90 61 180t66 180l-65 -14h-12q-23 0 -39.5 13t-20.5 36q-4 25 9.5 46t37.5 26l146 30q27 63 51 120.5t47 109.5q10 23 33.5 33t46.5 -1q25 -10 34 -34.5t-1 -47.5l-66 -151l260 53q25 4 46.5 -10t27.5 -39q4 -25 -10.5 -46.5 t-38.5 -25.5l-340 -69q-49 -123 -87 -228.5t-67 -197.5q-59 -193 -72 -312q-10 -84 -1.5 -121.5t18.5 -52.5q4 -8 15.5 -15t33.5 -7q57 0 117.5 56t115 134t97.5 161t65 138q-35 20 -59 43q-68 61 -88 135q-18 70 2 134q16 47 51 78.5t78 35.5q86 6 137 -86q51 -94 35 -223 l-6 -35q37 -4 77 5.5t87 27.5q37 16 69.5 34.5t55.5 35.5q27 18 51 36q16 14 37.5 15.5t38.5 -10.5q16 -12 23 -32t-1 -40q-59 -172 -86 -287t-32 -185.5t3.5 -104t16.5 -46.5q6 -8 16 -14t33 -6q37 0 88 39t109 110q25 29 44 58.5t35 52.5q18 27 33 51q12 23 37 30t47 -5 q23 -12 30 -37t-7 -47q0 -2 -9.5 -17.5t-26 -41t-39 -57.5t-48.5 -64q-63 -78 -127 -130q-88 -65 -166 -65q-59 0 -95 23.5t-55 48.5q-68 94 -30 313q14 106 59 256q-25 -12 -57 -27q-133 -55 -246 -41q-14 -45 -42 -105t-65.5 -123.5t-84 -125t-97.5 -111t-107.5 -79 t-113.5 -29.5q-63 0 -99 25.5t-55 52.5q-49 76 -38.5 218zM534.5 863.5q-2.5 -13.5 1 -32t15.5 -41t39 -47.5l10 -6q4 41 1 81t-21 75q-4 4 -7.5 8t-5.5 8l-4 4q-4 0 -11 -7t-13 -23q-2 -6 -4.5 -19.5z" />
<glyph unicode="ts" horiz-adv-x="1196" d="M-20.5 294q10.5 142 79.5 372q29 90 61 180t66 180l-65 -14h-12q-23 0 -39.5 13t-20.5 36q-4 25 9.5 46t37.5 26l146 30q27 63 51 120.5t47 109.5q10 23 33.5 33t46.5 -1q25 -10 34 -34.5t-1 -47.5l-66 -151l260 53q25 4 46.5 -10t27.5 -39q4 -25 -10.5 -46.5 t-38.5 -25.5l-340 -69q-49 -123 -87 -228.5t-67 -197.5q-59 -193 -72 -312q-10 -84 -1.5 -121.5t18.5 -52.5q4 -8 15.5 -15t33.5 -7q55 0 113.5 53t111 127t95.5 148.5t67 117.5q41 72 64.5 122t36 82t15.5 48.5t3 22.5q0 23 15.5 40t39.5 21q23 2 42.5 -12t23.5 -37 q6 -27 35.5 -55.5t64.5 -59.5q31 -29 64.5 -59.5t61.5 -68.5t46.5 -84t18.5 -103q0 -125 -39 -202t-80 -118q-49 -47 -112.5 -74.5t-131.5 -27.5q-41 0 -78 11.5t-65 31.5q-70 51 -70 135q0 27 17.5 44.5t43.5 17.5q27 0 44.5 -17.5t17.5 -44.5q0 -33 32.5 -44t57.5 -11 q90 0 158 68q82 82 82 231q0 72 -45 123t-103 100l-57 49q-16 -35 -39 -82t-57 -108q-33 -57 -83.5 -144.5t-113.5 -168t-139 -138t-158 -57.5q-63 0 -99 25.5t-55 52.5q-49 76 -38.5 218z" />
<glyph unicode="tx" horiz-adv-x="1466" d="M-20.5 294q10.5 142 79.5 372q29 90 61 180t66 180l-65 -14h-12q-23 0 -39.5 13t-20.5 36q-4 25 9.5 46t37.5 26l146 30q27 63 51 120.5t47 109.5q10 23 33.5 33t46.5 -1q25 -10 34 -34.5t-1 -47.5l-66 -151l260 53q25 4 46.5 -10t27.5 -39q4 -25 -10.5 -46.5 t-38.5 -25.5l-340 -69q-49 -123 -87 -228.5t-67 -197.5q-59 -193 -72 -312q-10 -84 -1.5 -121.5t18.5 -52.5q4 -8 15.5 -15t33.5 -7q57 0 118.5 60.5t118 143.5t105.5 166.5t84 131.5q145 203 268 237q74 20 140 -16q29 -18 45 -44t25 -52.5t12.5 -51t5.5 -37.5q0 -10 1 -22 t1 -25l241 236q18 18 44 18t42 -18q18 -18 17.5 -44t-17.5 -44l-333 -326v-2q-4 -51 -7.5 -102t0.5 -94q4 -51 11.5 -74t15.5 -31q4 -4 11 -8t22 -4q88 0 211 151q25 31 45 60.5t37 52.5q18 27 30 51q12 23 36.5 30t47.5 -5t30 -37t-5 -47q0 -2 -9.5 -17.5t-25.5 -41 t-39.5 -58.5t-50.5 -65q-160 -197 -307 -197q-76 0 -123 51q-41 43 -52.5 110.5t-9.5 149.5l-296 -293q-20 -16 -44 -16q-27 0 -45 18q-16 18 -16 44t18 42l394 387q4 43 5 84t-3 76q-4 51 -14.5 67.5t-16.5 20.5t-15.5 7.5t-25.5 -1.5q-12 -4 -30.5 -13t-43 -30.5 t-56.5 -56.5t-71 -90q-27 -39 -59.5 -96.5t-71.5 -119t-83 -121.5t-93 -109.5t-104.5 -79t-114.5 -29.5q-63 0 -99 25.5t-55 52.5q-49 76 -38.5 218z" />
<glyph unicode="tz" horiz-adv-x="1425" d="M-20.5 294q10.5 142 79.5 372q29 90 61 180t66 180l-65 -14h-12q-23 0 -39.5 13t-20.5 36q-4 25 9.5 46t37.5 26l146 30q27 63 51 120.5t47 109.5q10 23 33.5 33t46.5 -1q25 -10 34 -34.5t-1 -47.5l-66 -151l260 53q25 4 46.5 -10t27.5 -39q4 -25 -10.5 -46.5 t-38.5 -25.5l-340 -69q-49 -123 -87 -228.5t-67 -197.5q-59 -193 -72 -312q-10 -84 -1.5 -121.5t18.5 -52.5q4 -8 15.5 -15t33.5 -7q35 0 69.5 29.5t66.5 76.5t60.5 105.5t53 118t45 110.5t37.5 86q35 74 94 125t139 78q66 23 129.5 13.5t126.5 -25.5q39 -10 78 -17.5 t77 -8.5t78 8t83 32q23 12 47 5t37 -30q12 -23 5 -47t-30 -37q-37 -20 -80 -60t-89 -90t-92 -107.5t-91 -112.5q-47 -59 -90 -111.5t-80 -93.5q57 -18 115.5 -33.5t117.5 -15.5q33 0 66 14t63.5 37t57 49.5t49.5 52.5q25 31 45 59.5t34.5 51.5t22.5 38l8 15q12 23 36.5 30 t47.5 -5t30 -36t-5 -46q-2 -4 -35 -60.5t-90 -125.5q-168 -197 -330 -197q-84 0 -164.5 22.5t-148.5 44.5l-18 7q-86 -74 -152 -74h-4q-59 0 -88 28.5t-33 63.5q-4 49 39 92q39 33 94 41q23 4 50.5 1t60.5 -13h2q47 47 97 109.5t106 130.5q51 63 101 125.5t101 115.5 q-43 4 -83 12.5t-74 16.5q-55 14 -101.5 21.5t-87.5 -7.5q-115 -37 -160 -137q-18 -41 -40.5 -101.5t-51 -127t-63.5 -133t-78 -119t-95 -85t-116 -32.5q-63 0 -99 25.5t-55 52.5q-49 76 -38.5 218z" />
<glyph unicode="ur" horiz-adv-x="1863" d="M-8 383q14 86 41.5 190.5t72.5 231.5q8 25 31 36t47 3q25 -10 36 -33t1 -47q-59 -172 -85.5 -287t-32 -184.5t3 -104t18.5 -47.5q4 -8 14.5 -14t32.5 -6q35 0 82 38t94 107q23 29 39 58.5t29 52.5q14 27 26 51q4 8 9 12q31 158 104 365q8 25 30.5 36t47.5 3 q25 -10 36 -33t1 -47q-59 -172 -86 -287t-32 -184.5t3 -104t18 -47.5q4 -8 14.5 -14t33.5 -6q37 0 88 39t110 110q53 61 98.5 139t98.5 201q-35 20 -60 43q-68 61 -88 135q-18 70 2 134q16 47 51 78.5t78 35.5q86 6 138 -86q51 -94 34 -223l-6 -35q37 -4 77 5.5t87 27.5 q37 16 70 34.5t55 35.5q27 18 51 36q16 14 38 15.5t38 -10.5t23.5 -32t-0.5 -40q-59 -172 -86 -287t-32 -185.5t3 -104t16 -46.5q6 -8 16.5 -14t32.5 -6q37 0 88.5 39t108.5 110q25 29 44.5 58.5t35.5 52.5q18 27 33 51q12 23 36.5 30t47.5 -5t30 -37t-8 -47q0 -2 -9 -17.5 t-25.5 -41t-39 -57.5t-49.5 -64q-63 -78 -127 -130q-88 -65 -166 -65q-59 0 -95 23.5t-54 48.5q-68 94 -31 313q14 106 60 256q-25 -12 -58 -27q-133 -55 -246 -41q-14 -43 -40.5 -102t-64.5 -122.5t-85 -126t-99.5 -112t-108.5 -80t-111 -30.5q-59 0 -95.5 23.5t-52.5 48.5 q-31 41 -39 104q-133 -176 -262 -176q-59 0 -95 23.5t-52 48.5q-70 96 -33 313zM983 863.5q-2 -13.5 1 -32t15.5 -41t38.5 -47.5l11 -6q4 41 1 81t-22 75q-4 4 -7 8t-5 8l-4 4q-4 0 -11.5 -7t-13.5 -23q-2 -6 -4 -19.5z" />
<glyph unicode="us" horiz-adv-x="1644" d="M-8 383q14 86 41.5 190.5t72.5 231.5q8 25 31 36t47 3q25 -10 36 -33t1 -47q-59 -172 -85.5 -287t-32 -184.5t3 -104t18.5 -47.5q4 -8 14.5 -14t32.5 -6q35 0 82 38t94 107q23 29 39 58.5t29 52.5q14 27 26 51q4 8 9 12q31 158 104 365q8 25 30.5 36t47.5 3 q25 -10 36 -33t1 -47q-59 -172 -86 -287t-32 -184.5t3 -104t18 -47.5q4 -8 14.5 -14t33.5 -6q37 0 88 39t110 110q43 53 94.5 136t94.5 161q41 72 64.5 122t35.5 82t15 48.5t3 22.5q0 23 15.5 40t40.5 21q23 2 42 -12t23 -37q6 -27 36 -55.5t65 -59.5q31 -29 64.5 -59.5 t61 -68.5t46 -84t18.5 -103q0 -125 -39 -202t-80 -118q-49 -47 -112 -74.5t-131 -27.5q-41 0 -78 11.5t-66 31.5q-70 51 -69 135q0 27 17 44.5t44 17.5t44 -17.5t17 -44.5q0 -33 33 -44t58 -11q90 0 157 68q82 82 82 231q0 72 -45 123t-102 100l-58 49q-16 -35 -38.5 -82 t-57.5 -108q-43 -78 -89 -157t-112 -156q-66 -80 -127 -127q-86 -68 -165 -68q-59 0 -95.5 23.5t-52.5 48.5q-31 41 -39 104q-133 -176 -262 -176q-59 0 -95 23.5t-52 48.5q-70 96 -33 313z" />
<glyph unicode="ux" horiz-adv-x="1914" d="M-8 383q14 86 41.5 190.5t72.5 231.5q8 25 31 36t47 3q25 -10 36 -33t1 -47q-59 -172 -85.5 -287t-32 -184.5t3 -104t18.5 -47.5q4 -8 14.5 -14t32.5 -6q35 0 82 38t94 107q23 29 39 58.5t29 52.5q14 27 26 51q4 8 9 12q31 158 104 365q8 25 30.5 36t47.5 3 q25 -10 36 -33t1 -47q-59 -172 -86 -287t-32 -184.5t3 -104t18 -47.5q4 -8 14.5 -14t33.5 -6q39 0 79.5 29.5t81.5 76.5t80 104.5t74 113t62.5 103.5t48.5 75q145 203 268 237q74 20 139 -16q29 -18 45.5 -44t25.5 -52.5t12 -51t5 -37.5q0 -10 1 -22t1 -25l242 236 q18 18 43.5 18t42.5 -18q18 -18 17 -44t-17 -44l-334 -326v-2q-4 -51 -7 -102t1 -94q4 -51 11 -74t16 -31q4 -4 11 -8t21 -4q88 0 211 151q25 31 45.5 60.5t36.5 52.5q18 27 31 51q12 23 36.5 30t47.5 -5t30 -37t-6 -47q0 -2 -9 -17.5t-25.5 -41t-40 -58.5t-50.5 -65 q-160 -197 -307 -197q-76 0 -123 51q-41 43 -52 110.5t-9 149.5l-297 -293q-20 -16 -43 -16q-27 0 -45 18q-16 18 -16 44t18 42l393 387q4 43 5 84t-3 76q-4 51 -14 67.5t-16 20.5t-15.5 7.5t-25.5 -1.5q-12 -4 -31 -13t-43.5 -30.5t-56 -56.5t-70.5 -90 q-59 -86 -109.5 -177t-124.5 -183q-66 -80 -127 -127q-86 -68 -165 -68q-59 0 -95.5 23.5t-52.5 48.5q-31 41 -39 104q-133 -176 -262 -176q-59 0 -95 23.5t-52 48.5q-70 96 -33 313z" />
<glyph unicode="uz" horiz-adv-x="1873" d="M-8 383q14 86 41.5 190.5t72.5 231.5q8 25 31 36t47 3q25 -10 36 -33t1 -47q-59 -172 -85.5 -287t-32 -184.5t3 -104t18.5 -47.5q4 -8 14.5 -14t32.5 -6q35 0 82 38t94 107q23 29 39 58.5t29 52.5q14 27 26 51q4 8 9 12q31 158 104 365q8 25 30.5 36t47.5 3 q25 -10 36 -33t1 -47q-59 -172 -86 -287t-32 -184.5t3 -104t18 -47.5q4 -8 14.5 -14t33.5 -6q39 0 74.5 29.5t67.5 76.5t59.5 105.5t51 117t43 110.5t35.5 87q35 74 94.5 125t139.5 78q66 23 129 13.5t127 -25.5q39 -10 78 -17.5t76.5 -8.5t77.5 8t83 32q23 12 47.5 5 t36.5 -30t5 -47t-29 -37q-37 -20 -80 -60t-89 -90t-92.5 -107.5t-91.5 -112.5q-47 -59 -90 -111.5t-80 -93.5q57 -18 115.5 -33.5t118.5 -15.5q33 0 65.5 14t63.5 37t57.5 49.5t48.5 52.5q25 31 45.5 59.5t35 51.5t22.5 38l8 15q12 23 36.5 30t47.5 -5t30 -36t-6 -46 q-2 -4 -34.5 -60.5t-89.5 -125.5q-168 -197 -330 -197q-84 0 -165 22.5t-149 44.5l-18 7q-86 -74 -152 -74h-4q-59 0 -87.5 28.5t-32.5 63.5q-4 49 38 92q39 33 95 41q23 4 50 1t60 -13h2q47 47 97.5 109.5t105.5 130.5q51 63 101.5 125.5t101.5 115.5q-43 4 -83 12.5 t-75 16.5q-55 14 -101 21.5t-87 -7.5q-115 -37 -160 -137q-18 -41 -42 -101.5t-52.5 -127t-64.5 -132t-79 -119t-95 -86t-111 -32.5t-95.5 23.5t-52.5 48.5q-31 41 -39 104q-133 -176 -262 -176q-59 0 -95 23.5t-52 48.5q-70 96 -33 313z" />
<glyph unicode="vr" horiz-adv-x="1685" d="M-8 383q25 166 114 422q8 25 31 36t47 3q23 -10 35 -33t2 -47q-59 -172 -85.5 -287t-32 -184.5t3 -104t16.5 -47.5q6 -8 16.5 -14t32.5 -6q33 0 93.5 47t121.5 139q33 47 61.5 104.5t47 119t21.5 121t-17 110.5q-10 25 1 47t34 33q25 10 47 -0.5t32 -34.5q47 -123 4 -293 q-39 -143 -129 -274q-72 -102 -149 -168q-90 -74 -168 -74q-59 0 -95 23.5t-52 48.5q-70 96 -33 313zM655 88q2 6 14.5 40t30 82t38 106.5t40 114.5t35.5 103.5t27 75.5q-35 20 -60 43q-68 61 -88 135q-18 70 2 134q16 47 51 78.5t78 35.5q86 6 138 -86q51 -94 34 -223 l-6 -35q37 -4 77 5.5t87 27.5q37 16 69.5 34.5t55.5 35.5q27 18 51 36q16 14 38 15.5t38 -10.5t23.5 -32t-1.5 -40q-59 -172 -85.5 -287t-31.5 -185.5t3 -104t16 -46.5q6 -8 16.5 -14t32.5 -6q37 0 88.5 39t108.5 110q25 29 44 58.5t36 52.5q18 27 33 51q12 23 36.5 30 t47.5 -5t29.5 -37t-7.5 -47q0 -2 -9 -17.5t-25.5 -41t-39 -57.5t-49.5 -64q-63 -78 -127 -130q-88 -65 -166 -65q-59 0 -95 23.5t-54 48.5q-68 94 -31 313q14 106 59 256q-25 -12 -57 -27q-133 -55 -246 -41l-188 -528q-10 -29 -33.5 -36t-44 2t-33 29.5t-0.5 49.5z M807 863.5q-2 -13.5 1 -32t15.5 -41t38.5 -47.5l10 -6q4 41 1 81t-21 75q-4 4 -7 8t-5 8l-4 4q-4 0 -11.5 -7t-13.5 -23q-2 -6 -4 -19.5z" />
<glyph unicode="wr" horiz-adv-x="2138" d="M-8 383q27 166 114 422q8 25 31 36t47 3q25 -10 36 -33t3 -47q-61 -172 -86.5 -287t-32 -184.5t2 -104t18.5 -47.5q4 -8 14.5 -14t32.5 -6q35 0 82 38t96 107q20 29 38 58.5t30 52.5q14 27 24 51l11 14q31 154 104 363q8 25 30.5 36t47.5 3q23 -10 35 -33t2 -47 q-59 -172 -86 -287t-32 -184.5t3 -104t16 -47.5q6 -8 16.5 -14t33.5 -6q33 0 93 47t122 139q33 47 61.5 104.5t47 119t21.5 121t-18 110.5q-10 25 1.5 47t33.5 33q25 10 47.5 0t32.5 -35q47 -123 4 -293q-39 -143 -129 -274q-72 -102 -149 -168q-90 -74 -168 -74 q-59 0 -95 23.5t-53 48.5q-29 39 -41 106q-129 -178 -262 -178q-59 0 -95 23.5t-52 48.5q-70 100 -33 313zM1106 38.5q-12 20.5 0 49.5q2 6 14.5 40t29.5 82t37.5 106.5t40 114.5t36 103.5t26.5 75.5q-35 20 -59 43q-68 61 -88 135q-18 70 2 134q16 47 51 78.5t78 35.5 q86 6 137 -86q51 -94 35 -223l-6 -35q37 -4 76.5 5.5t87.5 27.5q37 16 69.5 34.5t55.5 35.5q27 18 51 36q16 14 37.5 15.5t37.5 -10.5t23.5 -32t-0.5 -40q-59 -172 -86 -287t-32 -185.5t3.5 -104t16.5 -46.5q6 -8 16 -14t33 -6q37 0 88 39t108 110q25 29 44.5 58.5 t35.5 52.5q18 27 33 51q12 23 37 30t47 -5q23 -12 30 -37t-7 -47q0 -2 -9.5 -17.5t-26 -41t-39 -57.5t-48.5 -64q-63 -78 -127 -130q-88 -65 -166 -65q-59 0 -95 23.5t-55 48.5q-68 94 -30 313q14 106 59 256q-25 -12 -57 -27q-133 -55 -246 -41l-188 -528q-10 -29 -34 -36 t-44.5 2t-32.5 29.5zM1257.5 863.5q-2.5 -13.5 1 -32t15.5 -41t39 -47.5l10 -6q4 41 1 81t-21 75q-4 4 -7.5 8t-5.5 8l-4 4q-4 0 -11 -7t-13 -23q-2 -6 -4.5 -19.5z" />
<glyph unicode="xr" horiz-adv-x="2062" d="M-2 389q-8 25 4 47q2 4 33 59.5t82 127.5q145 203 268 237q74 20 139 -16q29 -18 45.5 -44t25.5 -52.5t12 -51t5 -37.5q0 -10 1 -22t1 -25l242 236q18 18 44 18t42 -18q18 -18 17 -44t-17 -44l-334 -326v-2q-4 -51 -7 -102t1 -94q0 -12 2 -33t8 -39.5t17.5 -31.5 t32.5 -13q55 0 136 48t162.5 121.5t152.5 160t101 161.5q-35 20 -59 43q-68 61 -88 135q-18 70 2 134q16 47 51 78.5t78 35.5q86 6 137 -86q51 -94 35 -223l-6 -35q37 -4 77 5.5t87 27.5q37 16 69.5 34.5t55.5 35.5q27 18 51 36q16 14 37.5 15.5t38.5 -10.5q16 -12 23 -32 t-1 -40q-59 -172 -85.5 -287t-32 -185.5t3 -104t16.5 -46.5q6 -8 16.5 -14t32.5 -6q37 0 88 39t109 110q25 29 44 58.5t36 52.5q18 27 32 51q12 23 37 30t47 -5q23 -12 30 -37t-7 -47q0 -2 -9.5 -17.5t-25.5 -41t-38.5 -57.5t-49.5 -64q-63 -78 -127 -130q-88 -65 -166 -65 q-59 0 -95 23.5t-54 48.5q-68 94 -31 313q14 106 59 256q-25 -12 -57 -27q-133 -55 -246 -41q-37 -86 -111.5 -187t-169 -187t-196.5 -143.5t-190 -57.5q-76 0 -123 51q-41 43 -52.5 110.5t-9.5 149.5l-297 -293q-20 -16 -43 -16q-27 0 -45 18q-16 18 -16 44t18 42l393 387 q4 43 5.5 84t-3.5 76q-4 51 -14 67.5t-16 20.5t-15.5 7.5t-25.5 -1.5q-12 -4 -30.5 -13t-43.5 -30.5t-56.5 -56.5t-70.5 -90q-47 -66 -75.5 -119t-30.5 -53q-10 -23 -35 -31t-47 4q-23 10 -31 35zM1182 863.5q-2 -13.5 1 -32t15 -41t39 -47.5l10 -6q4 41 1 81t-21 75 q-4 4 -7 8l-6 8l-4 4q-4 0 -11 -7t-13 -23q-2 -6 -4 -19.5z" />
<glyph unicode="xs" horiz-adv-x="1699" d="M-2 389q-8 25 4 47q2 4 33 59.5t82 127.5q145 203 268 237q74 20 139 -16q29 -18 45.5 -44t25.5 -52.5t12 -51t5 -37.5q0 -10 1 -22t1 -25l242 236q18 18 44 18t42 -18q18 -18 17 -44t-17 -44l-334 -326v-2q-4 -51 -7 -102t1 -94q4 -51 11.5 -74t15.5 -31q4 -4 11 -8 t22 -4q88 0 210 151q53 68 98.5 141.5t92.5 155.5q41 72 64.5 122t36 82t15.5 48.5t3 22.5q0 23 15 40t40 21q23 2 42 -12t24 -37q6 -27 35.5 -55.5t64.5 -59.5q31 -29 64.5 -59.5t61 -68.5t46 -84t18.5 -103q0 -125 -38.5 -202t-79.5 -118q-49 -47 -112.5 -74.5 t-131.5 -27.5q-41 0 -78 11.5t-66 31.5q-70 51 -69 135q0 27 17.5 44.5t43.5 17.5q27 0 44.5 -17.5t17.5 -44.5q0 -33 32.5 -44t57.5 -11q90 0 158 68q82 82 81 231q0 72 -45 123t-102 100l-57 49q-16 -35 -39 -82t-58 -108q-45 -80 -91 -158t-109 -155q-160 -197 -307 -197 q-76 0 -123 51q-41 43 -52.5 110.5t-9.5 149.5l-297 -293q-20 -16 -43 -16q-27 0 -45 18q-16 18 -16 44t18 42l393 387q4 43 5.5 84t-3.5 76q-4 51 -14 67.5t-16 20.5t-15.5 7.5t-25.5 -1.5q-12 -4 -30.5 -13t-43.5 -30.5t-56.5 -56.5t-70.5 -90q-47 -66 -75.5 -119 t-30.5 -53q-10 -23 -35 -31t-47 4q-23 10 -31 35z" />
<glyph unicode="xx" horiz-adv-x="1970" d="M-2 389q-8 25 4 47q2 4 33 59.5t82 127.5q145 203 268 237q74 20 139 -16q29 -18 45.5 -44t25.5 -52.5t12 -51t5 -37.5q0 -10 1 -22t1 -25l242 236q18 18 44 18t42 -18q18 -18 17 -44t-17 -44l-334 -326v-2q-4 -51 -7 -102t1 -94q4 -51 11.5 -74t15.5 -31q4 -4 11 -8 t22 -4q88 0 210 151q66 80 116 171t114 182q145 203 268 237q74 20 139 -16q29 -18 45.5 -44t25.5 -52.5t12 -51t5 -37.5q0 -10 1 -22t1 -25l242 236q18 18 44 18t42 -18q18 -18 17.5 -44t-17.5 -44l-334 -326v-2q-4 -51 -7 -102t1 -94q4 -51 11.5 -74t15.5 -31q4 -4 11 -8 t22 -4q88 0 211 151q25 31 45 60.5t36 52.5q18 27 31 51q12 23 36.5 30t47.5 -5t30 -37t-5 -47q0 -2 -9.5 -17.5t-25.5 -41t-40 -58.5t-50 -65q-160 -197 -307 -197q-76 0 -123 51q-41 43 -52.5 110.5t-9.5 149.5l-297 -293q-20 -16 -43 -16q-27 0 -45 18q-16 18 -16 44 t18 42l394 387q4 43 5 84t-3 76q-4 51 -14.5 67.5t-16.5 20.5t-15.5 7.5t-25.5 -1.5q-66 -20 -123 -86.5t-110.5 -149.5t-102.5 -169t-98 -145q-160 -197 -307 -197q-76 0 -123 51q-41 43 -52.5 110.5t-9.5 149.5l-297 -293q-20 -16 -43 -16q-27 0 -45 18q-16 18 -16 44 t18 42l393 387q4 43 5.5 84t-3.5 76q-4 51 -14 67.5t-16 20.5t-15.5 7.5t-25.5 -1.5q-12 -4 -30.5 -13t-43.5 -30.5t-56.5 -56.5t-70.5 -90q-47 -66 -75.5 -119t-30.5 -53q-10 -23 -35 -31t-47 4q-23 10 -31 35z" />
<glyph unicode="xz" horiz-adv-x="1990" d="M-2 389q-8 25 4 47q2 4 33 59.5t82 127.5q145 203 268 237q74 20 139 -16q29 -18 45.5 -44t25.5 -52.5t12 -51t5 -37.5q0 -10 1 -22t1 -25l242 236q18 18 44 18t42 -18q18 -18 17 -44t-17 -44l-334 -326v-2q-4 -51 -7 -102t1 -94q4 -51 11.5 -74t15.5 -31q4 -4 11 -8 t22 -4q41 0 81.5 29.5t80.5 75.5t77 104.5t68.5 118t57.5 111.5t42 89q35 74 94.5 125t139.5 78q66 23 129 13.5t127 -25.5q39 -10 77.5 -17.5t76.5 -8.5t78 8t83 32q23 12 47.5 5t36.5 -30t5 -47t-30 -37q-37 -20 -80 -60t-89 -90t-92 -107.5t-91 -112.5 q-47 -59 -90 -111.5t-80 -93.5q57 -18 115.5 -33.5t118.5 -15.5q33 0 65.5 14t63 37t57.5 49.5t49 52.5q25 31 45.5 59.5t34.5 51.5t22 38l9 15q12 23 36.5 30t47.5 -5t29.5 -36t-5.5 -46q-2 -4 -34.5 -60.5t-90.5 -125.5q-168 -197 -329 -197q-84 0 -165 22.5t-149 44.5 l-18 7q-86 -74 -152 -74h-4q-59 0 -88 28.5t-33 63.5q-4 49 39 92q39 33 94 41q23 4 50.5 1t60.5 -13h2q47 47 97.5 109.5t105.5 130.5q51 63 101 125.5t102 115.5q-43 4 -83 12.5t-75 16.5q-55 14 -101.5 21.5t-87.5 -7.5q-115 -37 -159 -137q-23 -47 -50.5 -109.5 t-63.5 -129t-79 -132t-93 -116t-108.5 -82t-125.5 -31.5q-76 0 -123 51q-41 43 -52.5 110.5t-9.5 149.5l-297 -293q-20 -16 -43 -16q-27 0 -45 18q-16 18 -16 44t18 42l393 387q4 43 5.5 84t-3.5 76q-4 51 -14 67.5t-16 20.5t-15.5 7.5t-25.5 -1.5q-12 -4 -30.5 -13 t-43.5 -30.5t-56.5 -56.5t-70.5 -90q-47 -66 -75.5 -119t-30.5 -53q-10 -23 -35 -31t-47 4q-23 10 -31 35z" />
<glyph unicode="zr" horiz-adv-x="2021" d="M-14 498.5q2 74.5 37 148.5t94 125t139 78q66 23 129.5 13.5t126.5 -25.5q39 -10 78 -17.5t77 -8.5t77.5 8t82.5 32q23 12 47.5 5t36.5 -30t5 -47t-29 -37q-37 -20 -80 -60t-89 -90t-92 -107.5t-91 -112.5q-47 -59 -90.5 -111.5t-79.5 -93.5q57 -18 115.5 -33.5 t117.5 -15.5q72 0 161 49t172 123t149.5 160t93.5 159q-35 20 -60 43q-68 61 -88 135q-18 70 2 134q16 47 51 78.5t78 35.5q86 6 137 -86q51 -94 35 -223l-6 -35q37 -4 77 5.5t87 27.5q37 16 69.5 34.5t55.5 35.5q27 18 51 36q16 14 37.5 15.5t38.5 -10.5q16 -12 23 -32 t-1 -40q-59 -172 -85.5 -287t-32 -185.5t3 -104t16.5 -46.5q6 -8 16.5 -14t32.5 -6q37 0 88 39t109 110q25 29 44 58.5t36 52.5q18 27 32 51q12 23 37 30t47 -5q23 -12 30 -37t-7 -47q0 -2 -9.5 -17.5t-25.5 -41t-38.5 -57.5t-49.5 -64q-63 -78 -127 -130q-88 -65 -166 -65 q-59 0 -95 23.5t-54 48.5q-68 94 -31 313q14 106 59 256q-25 -12 -57 -27q-133 -55 -246 -41q-35 -92 -105.5 -193.5t-164.5 -186.5t-202.5 -140t-217.5 -55q-84 0 -165 22.5t-148 44.5l-19 7q-86 -74 -151 -74h-4q-59 0 -88 28.5t-33 63.5q-4 49 39 92q39 33 94 41 q23 4 50.5 1t59.5 -13h3q47 47 97 109.5t105 130.5q51 63 101.5 125.5t101.5 115.5q-43 4 -83 12.5t-75 16.5q-55 14 -101 21.5t-87 -7.5q-115 -37 -160 -137q-14 -31 -19 -58.5t-7.5 -49t0 -37t4.5 -21.5q10 -23 0.5 -46.5t-33.5 -33.5q-23 -10 -46.5 0t-33.5 33 q-16 41 -14 115.5zM1141 863.5q-2 -13.5 1 -32t15 -41t39 -47.5l10 -6q4 41 1 81t-21 75q-4 4 -7 8t-5 8l-5 4q-4 0 -11 -7t-13 -23q-2 -6 -4 -19.5z" />
<glyph unicode="zs" horiz-adv-x="1658" d="M-14 498.5q2 74.5 37 148.5t94 125t139 78q66 23 129.5 13.5t126.5 -25.5q39 -10 78 -17.5t77 -8.5t77.5 8t82.5 32q23 12 47.5 5t36.5 -30t5 -47t-29 -37q-37 -20 -80 -60t-89 -90t-92 -107.5t-91 -112.5q-47 -59 -90.5 -111.5t-79.5 -93.5q57 -18 115.5 -33.5 t117.5 -15.5q33 0 65.5 14t63.5 37t57.5 49.5t49.5 52.5q14 18 29.5 40t37 54.5t50 81t71.5 119.5q41 72 64.5 122t36 82t15.5 48.5t3 22.5q0 23 15 40t40 21q23 2 42 -12t24 -37q6 -27 35.5 -55.5t64.5 -59.5q31 -29 64.5 -59.5t61.5 -68.5t46 -84t18 -103 q0 -125 -38.5 -202t-79.5 -118q-49 -47 -112.5 -74.5t-131.5 -27.5q-41 0 -78 11.5t-65 31.5q-70 51 -70 135q0 27 17.5 44.5t43.5 17.5q27 0 44.5 -17.5t17.5 -44.5q0 -33 32.5 -44t57.5 -11q90 0 158 68q82 82 82 231q0 72 -45.5 123t-102.5 100l-57 49 q-16 -41 -54 -111.5t-83.5 -147.5t-89.5 -144.5t-70 -99.5q-168 -197 -330 -197q-84 0 -165 22.5t-148 44.5l-19 7q-86 -74 -151 -74h-4q-59 0 -88 28.5t-33 63.5q-4 49 39 92q39 33 94 41q23 4 50.5 1t59.5 -13h3q47 47 97 109.5t105 130.5q51 63 101.5 125.5t101.5 115.5 q-43 4 -83 12.5t-75 16.5q-55 14 -101 21.5t-87 -7.5q-115 -37 -160 -137q-14 -31 -19 -58.5t-7.5 -49t0 -37t4.5 -21.5q10 -23 0.5 -46.5t-33.5 -33.5q-23 -10 -46.5 0t-33.5 33q-16 41 -14 115.5z" />
<glyph unicode="zx" horiz-adv-x="1929" d="M-14 498.5q2 74.5 37 148.5t94 125t139 78q66 23 129.5 13.5t126.5 -25.5q39 -10 78 -17.5t77 -8.5t77.5 8t82.5 32q23 12 47.5 5t36.5 -30t5 -47t-29 -37q-37 -20 -80 -60t-89 -90t-92 -107.5t-91 -112.5q-47 -59 -90.5 -111.5t-79.5 -93.5q57 -18 115.5 -33.5 t117.5 -15.5q33 0 65.5 14t63.5 37t57.5 49.5t49.5 52.5q66 78 114.5 170.5t112.5 180.5q145 203 268 237q74 20 139 -16q29 -18 45.5 -44t25.5 -52.5t12 -51t5 -37.5q0 -10 1.5 -22t1.5 -25l241 236q18 18 44 18t42 -18q18 -18 17.5 -44t-17.5 -44l-334 -326v-2 q-4 -51 -7 -102t1 -94q4 -51 11.5 -74t15.5 -31q4 -4 11 -8t22 -4q88 0 211 151q25 31 45 60.5t36 52.5q18 27 31 51q12 23 36.5 30t47.5 -5t30 -37t-5 -47q0 -2 -9.5 -17.5t-25.5 -41t-40 -58.5t-50 -65q-160 -197 -307 -197q-76 0 -123 51q-41 43 -52.5 110.5t-9.5 149.5 l-297 -293q-20 -16 -43 -16q-27 0 -45 18q-16 18 -16 44t18 42l394 387q4 43 5 84t-3 76q-4 51 -14.5 67.5t-16.5 20.5t-15.5 7.5t-25.5 -1.5q-12 -4 -30.5 -13t-43 -30.5t-56.5 -56.5t-71 -90q-59 -86 -110.5 -180t-122.5 -180q-168 -197 -330 -197q-84 0 -165 22.5 t-148 44.5l-19 7q-86 -74 -151 -74h-4q-59 0 -88 28.5t-33 63.5q-4 49 39 92q39 33 94 41q23 4 50.5 1t59.5 -13h3q47 47 97 109.5t105 130.5q51 63 101.5 125.5t101.5 115.5q-43 4 -83 12.5t-75 16.5q-55 14 -101 21.5t-87 -7.5q-115 -37 -160 -137q-14 -31 -19 -58.5 t-7.5 -49t0 -37t4.5 -21.5q10 -23 0.5 -46.5t-33.5 -33.5q-23 -10 -46.5 0t-33.5 33q-16 41 -14 115.5z" />
<glyph unicode="zz" horiz-adv-x="1888" d="M-14 498.5q2 74.5 37 148.5t94 125t139 78q66 23 129.5 13.5t126.5 -25.5q39 -10 78 -17.5t77 -8.5t77.5 8t82.5 32q23 12 47.5 5t36.5 -30t5 -47t-29 -37q-37 -20 -80 -60t-89 -90t-92 -107.5t-91 -112.5q-47 -59 -90.5 -111.5t-79.5 -93.5q57 -18 115.5 -33.5 t117.5 -15.5q72 0 123 27.5t86 73.5t57.5 103.5t39 116t30.5 112.5t33 95q35 74 94 125t139 78q66 23 129.5 13.5t126.5 -25.5q39 -10 78 -17.5t77 -8.5t78 8t83 32q23 12 47 5t36 -30t5 -47t-29 -37q-37 -20 -80 -60t-89 -90t-92 -107.5t-91 -112.5q-47 -59 -90 -111.5 t-80 -93.5q57 -18 115.5 -33.5t117.5 -15.5q33 0 65.5 14t63.5 37t57.5 49.5t49.5 52.5q25 31 45 59.5t34.5 51.5t22.5 38l8 15q12 23 36.5 30t47.5 -5t30 -36t-5 -46q-2 -4 -35 -60.5t-90 -125.5q-168 -197 -330 -197q-84 0 -165 22.5t-148 44.5l-19 7q-86 -74 -151 -74h-4 q-59 0 -88 28.5t-33 63.5q-4 49 39 92q39 33 94 41q23 4 50.5 1t60.5 -13h2q47 47 97 109.5t105 130.5q51 63 101.5 125.5t101.5 115.5q-43 4 -83 12.5t-75 16.5q-55 14 -101 21.5t-87 -7.5q-115 -37 -160 -137q-25 -55 -45 -120.5t-44.5 -133.5t-55.5 -129t-76 -110.5 t-108.5 -78t-151.5 -28.5q-84 0 -165 22.5t-148 44.5l-19 7q-86 -74 -151 -74h-4q-59 0 -88 28.5t-33 63.5q-4 49 39 92q39 33 94 41q23 4 50.5 1t59.5 -13h3q47 47 97 109.5t105 130.5q51 63 101.5 125.5t101.5 115.5q-43 4 -83 12.5t-75 16.5q-55 14 -101 21.5t-87 -7.5 q-115 -37 -160 -137q-14 -31 -19 -58.5t-7.5 -49t0 -37t4.5 -21.5q10 -23 0.5 -46.5t-33.5 -33.5q-23 -10 -46.5 0t-33.5 33q-16 41 -14 115.5z" />
<glyph unicode="&#xfb00;" horiz-adv-x="1411" d="M-129 -455q0 27 17.5 44.5t43.5 17.5q2 0 10.5 7t23 30.5t34.5 68.5t45 121q35 104 66.5 233.5t66.5 270.5h-129q-25 0 -43 18.5t-18 42.5q0 27 18.5 44.5t42.5 17.5h160q39 164 80 319.5t88 284.5q29 84 58.5 144.5t60.5 105.5q84 115 180 115q66 0 104 -52 q72 -90 45 -338q-8 -88 -20 -152.5t-12 -68.5q-6 -25 -28 -38t-46 -9q-25 6 -39 27.5t-8 46.5q0 2 12 63.5t21 143.5q6 70 5 115.5t-5.5 74.5t-10.5 42t-10 18q-2 4 -8 4q-35 0 -80 -64q-49 -70 -102 -219q-43 -119 -82 -264.5t-76 -298.5h477q4 0 8 -1t8 -1v2 q39 164 80 319.5t88 284.5q29 84 58.5 144.5t60.5 105.5q84 115 180 115q66 0 105 -52q72 -90 45 -338q-8 -88 -20.5 -152.5t-12.5 -68.5q-6 -25 -27.5 -38t-46.5 -9q-25 6 -39 27.5t-8 46.5q0 2 12.5 63.5t20.5 143.5q6 70 5 115.5t-5 74.5t-10 42t-10 18q-2 4 -9 4 q-35 0 -79 -64q-49 -70 -103 -219q-43 -119 -82 -264.5t-76 -298.5h478q25 0 43 -17.5t18 -44.5q0 -25 -18.5 -43t-42.5 -18h-508q-39 -160 -75 -304.5t-75 -260.5q-43 -123 -86 -193q-59 -96 -137 -96q-25 0 -43 18.5t-18 42.5q0 27 17 44.5t44 17.5q2 0 10 7t22.5 30.5 t35 68.5t45.5 121q35 104 66.5 233.5t66.5 270.5h-494q-39 -160 -74.5 -304.5t-74.5 -260.5q-43 -123 -86 -193q-59 -96 -138 -96q-25 0 -43 18.5t-18 42.5z" />
<glyph horiz-adv-x="0" />
<glyph unicode="&#xd;" horiz-adv-x="512" />
<glyph horiz-adv-x="0" />
<glyph horiz-adv-x="0" />
<glyph unicode=" "  horiz-adv-x="512" />
<glyph unicode="&#x09;" horiz-adv-x="512" />
<glyph unicode="&#xa0;" horiz-adv-x="512" />
<glyph unicode="!" horiz-adv-x="684" d="M176 59q8 25 31.5 44.5t50.5 19.5q27 2 39 -14t4 -43t-31.5 -45.5t-50.5 -20.5q-25 -2 -38 15.5t-5 43.5zM256 314q-6 24 10 46q10 14 34 92t55.5 188t64.5 234.5t60.5 233.5t46 183.5t20.5 84.5q4 27 24.5 41.5t44.5 12.5q40 -7 50 -44q6 -14 2 -28q0 -4 -18.5 -79 t-47.5 -185.5t-63.5 -240.5t-67.5 -247t-59.5 -203t-40.5 -108q-16 -23 -40 -29t-46 10q-23 14 -29 38z" />
<glyph unicode="&#x22;" horiz-adv-x="567" d="M102 1243q-4 27 11.5 46.5t40.5 25.5q39 4 59 -27q4 -6 7 -11t3 -15q2 -6 6 -54.5t6.5 -112t0 -127t-12.5 -100.5q-8 -27 -29.5 -39t-46.5 -4t-38 30t-5 46q8 25 9.5 76t0.5 104.5t-5.5 99.5t-6.5 62zM328 1243q-4 27 11 46.5t40 25.5q39 4 59 -27q4 -6 7.5 -11t3.5 -15 q2 -6 6 -54.5t6 -112t0 -127t-12 -100.5q-8 -27 -30 -39t-46 -4q-25 8 -38 30t-5 46q8 25 9 76t0 104.5t-5 99.5t-6 62z" />
<glyph unicode="#" horiz-adv-x="890" d="M70 694q8 25 29.5 38t45.5 5q8 -4 23.5 -5t38.5 -3q10 41 20.5 82t20.5 82q-47 2 -83 4t-52 8q-27 8 -39.5 29.5t-3.5 46.5q8 25 29.5 38t45.5 5q12 -4 48 -7t86 -3q23 94 38 161.5t17 77.5q4 27 24.5 41.5t44.5 12.5q39 -6 50 -43q6 -14 2 -29l-52 -221h93.5t91.5 2 q23 94 37 160.5t16 76.5q4 27 24.5 41.5t45.5 12.5q39 -6 49 -43q6 -14 2 -29q-2 -4 -14.5 -63.5t-34.5 -151.5q45 4 57 6q27 4 46.5 -11.5t25.5 -39.5q4 -39 -27 -60q-6 -4 -11 -7t-16 -3q-4 -2 -32.5 -3t-73.5 -3q-10 -41 -20.5 -84t-20.5 -84q51 2 85 4t44 4 q27 4 46.5 -11t25.5 -40q4 -39 -27 -59q-6 -4 -11 -7.5t-16 -3.5q-4 -2 -55 -4t-125 -6q-29 -111 -54.5 -192.5t-39.5 -104.5q-16 -23 -39.5 -29t-46.5 11q-23 14 -29 37.5t11 46.5q10 14 29.5 76.5t41.5 152.5q-47 -2 -92 -2h-88q-29 -109 -54.5 -189.5t-39.5 -103.5 q-16 -23 -40 -29t-46 11q-23 14 -29 37.5t10 46.5q10 14 30 77.5t44 155.5q-23 2 -38 3t-25 5q-27 8 -39.5 30t-3.5 46zM332 727h182l43 168q-45 -2 -91 -3t-93 -1z" />
<glyph unicode="$" horiz-adv-x="1136" d="M49 252q-16 88 19 197q8 23 30.5 35t46.5 3q25 -8 37.5 -30.5t1.5 -46.5q-47 -145 27 -226q43 -51 125 -69l162 602q-47 39 -91.5 78t-78.5 84q-23 29 -35 57.5t-21 56.5q-16 66 7 135q35 115 147 197q47 35 105.5 60.5t119.5 39.5l39 7l19 71q6 25 28.5 37t46.5 6 q25 -6 37.5 -28.5t5.5 -47.5l-10 -36q125 -16 189 -93q18 -20 33.5 -50.5t22.5 -72.5t1 -96.5t-31 -122.5q-10 -23 -32.5 -34t-47.5 0q-23 8 -34 31.5t-3 45.5q10 27 18.5 56.5t9.5 58.5t-5 56.5t-25 48.5q-41 47 -129 51l-147 -551q49 -41 95 -84t81 -94q49 -70 61 -146 q16 -88 -14 -176q-33 -100 -118 -171t-207 -95q-53 -12 -107 -12l-18 -72q-14 -47 -60 -47q-4 0 -8 1t-8 1q-25 8 -37 29.5t-6 46.5l14 53q-117 29 -186 104q-57 68 -70 152zM391 1023q6 -34 35 -71q20 -27 48 -52.5t58 -51.5l121 452q-41 -12 -82 -30.5t-75.5 -45t-61 -59 t-39.5 -71.5q-10 -37 -4 -71zM463 109q10 0 22.5 2t24.5 4q88 18 149.5 67t83.5 117q20 59 12.5 110.5t-42.5 104.5q-23 31 -50.5 59.5t-60.5 57.5z" />
<glyph unicode="%" horiz-adv-x="593" d="M65 46q-6 24 11 46q10 14 36.5 103.5t62.5 214.5t75 269t70.5 268t53 210t23.5 96q4 27 24.5 41.5t45.5 12.5q39 -6 49 -43q6 -14 2 -29q0 -4 -12 -54.5t-32.5 -130t-48.5 -182t-56.5 -211t-57 -214t-54.5 -192.5t-46.5 -147.5t-30.5 -76.5q-16 -23 -39.5 -29t-46.5 10 q-23 14 -29 38zM72 1245q8 25 31.5 44.5t50.5 19.5q27 2 39 -14.5t4 -43.5t-32 -45t-50 -20q-25 -2 -38.5 15.5t-4.5 43.5zM401 59q8 25 32 44.5t50 19.5q27 2 39 -14t4 -43t-31.5 -45.5t-50.5 -20.5q-25 -2 -38 15.5t-5 43.5z" />
<glyph unicode="&#x26;" horiz-adv-x="1720" d="M6 270q-14 51 4 125q16 59 49 111.5t78 93.5q43 39 85 56.5t77 9.5q6 -2 18.5 -8.5t22.5 -19.5t15 -36.5t-3 -60.5q-8 -33 -43 -27q-14 4 -22 15.5t-4 25.5q4 18 3 26.5t-1 12.5l-4 4q-10 4 -36 -7t-61 -44q-76 -70 -104 -170q-12 -47 -8 -79t24 -40q14 -4 37 2t55 35 q25 20 62 66.5t76 132.5q10 29 43 18q12 -6 18 -18.5t2 -24.5q-23 -90 -21.5 -138t13.5 -65q6 -10 20 -10q47 0 117 86q23 29 39 53.5t23 34.5l77 217q4 14 17.5 20.5t27.5 2.5q14 -6 20.5 -19.5t0.5 -25.5l-43 -125q20 29 39.5 52t36.5 42q70 78 121 78q23 0 35 -8.5 t18 -16.5q20 -27 13 -69.5t-23 -112.5q-4 -12 -6.5 -23.5t-6.5 -23.5q-10 -35 -14 -60.5t-8 -48.5q-4 -27 -1 -36t5 -13q8 -4 20 -4q43 0 113 86q29 35 46 63.5t17 30.5l7 8q16 45 44.5 84t63.5 72q43 39 85 56.5t77 9.5q10 -4 31.5 -17.5t25.5 -50.5q35 104 77 207.5 t77 181.5q14 33 45 19q33 -14 18 -48q-53 -127 -93 -228t-64 -183q-35 -113 -41 -178q-6 -47 -1 -70t9 -31q4 -4 9 -8t20 -4q45 0 114 86q14 16 24.5 32.5t20.5 31.5q8 14 19 28q8 14 21.5 18.5t25.5 -3.5q14 -8 18 -21.5t-4 -26.5q-2 -4 -21.5 -34.5t-47.5 -69.5 q-41 -47 -74 -74q-53 -37 -96 -37q-35 0 -56.5 14.5t-32.5 28.5q-10 16 -16 36t-6 46q-33 -45 -68 -71q-37 -31 -82 -45q-18 -8 -40 -9q-18 0 -37 7q-53 20 -68 77l-4 13q-33 -39 -61 -60q-49 -37 -95 -37q-53 0 -75 31q-29 35 -21 91.5t25 125.5l12 47q6 27 11 48.5t7 37.5 q4 12 4 20.5v12.5q-4 -2 -16 -9t-32.5 -27.5t-50.5 -57.5t-71 -98q-27 -37 -49 -74t-38.5 -65.5t-25.5 -46.5l-9 -19q-13 -19 -33 -19q-4 0 -7 1t-8 1q-29 14 -18 45v2q0 2 2 5q-6 -6 -18 -15q-49 -37 -97 -37q-49 0 -75 37q-27 29 -29 84q-14 -20 -30.5 -36.5t-33.5 -30.5 q-41 -33 -81 -45q-43 -14 -78 -2q-51 18 -68 77zM1135 298q4 -32 24 -40q14 -4 36.5 2t55.5 35q25 20 62 66.5t76 132.5l2 2l4 20q-8 -6 -21 -2q-14 4 -22.5 15.5t-3.5 25.5q4 18 3 26.5t-3 12.5q0 4 -2 4q-10 4 -37 -7t-60 -44q-37 -35 -64.5 -79t-41.5 -91q-12 -47 -8 -79 z" />
<glyph unicode="'" horiz-adv-x="292" d="M82 1243q-4 27 11.5 46.5t39.5 25.5q40 4 60 -27q4 -6 7 -11t3 -15q2 -6 6 -54.5t6 -112t0 -127t-12 -100.5q-8 -27 -29.5 -39t-46.5 -4t-38 30t-5 46q8 25 9 76t0 104.5t-5 99.5t-6 62z" />
<glyph unicode="(" horiz-adv-x="817" d="M57 193q2 71 13 149q23 152 70.5 308.5t119.5 293.5q104 211 229 321.5t254 110.5q27 0 44.5 -18.5t17.5 -42.5q0 -27 -17.5 -44.5t-44.5 -17.5q-88 0 -188 -96q-98 -94 -186 -268q-66 -129 -112 -275.5t-64 -287.5q-20 -141 -7 -250t54 -166q49 -66 145 -51 q27 4 47.5 -10.5t24.5 -41.5q4 -25 -11.5 -45t-39.5 -24q-31 -6 -58 -6q-80 0 -130 33.5t-79 72.5q-59 82 -76 221q-8 63 -6 134z" />
<glyph unicode=")" horiz-adv-x="817" d="M12 -207q0 27 17.5 44.5t44.5 17.5q88 0 188 96q98 94 187 268q66 129 111.5 275.5t64.5 287.5q20 141 6.5 250t-53.5 166q-49 66 -146 51q-27 -4 -47 10.5t-25 40.5q-4 25 11.5 45.5t40.5 24.5q31 6 57 6q80 0 130 -33.5t79 -72.5q59 -82 76 -221q8 -63 6 -134t-12 -149 q-23 -152 -71 -308.5t-120 -293.5q-104 -211 -229 -321.5t-254 -110.5q-27 0 -44.5 18.5t-17.5 42.5z" />
<glyph unicode="*" horiz-adv-x="823" d="M0 354q6 80 45 209q16 51 34.5 101.5t37.5 101.5l-37 -8h-6q-29 0 -33 26q-4 14 3 26.5t24 16.5l82 17q14 35 28.5 67.5t26.5 61.5q4 14 17.5 19t27.5 -1t19 -19.5t-1 -25.5l-39 -86l148 29q29 6 43 -27q4 -33 -29 -41l-192 -37q-29 -72 -49.5 -131t-34.5 -112 q-18 -53 -28.5 -96.5t-14.5 -77.5q-4 -47 0 -67.5t8 -31.5q4 -4 10 -9t19 -5q23 0 51 23.5t59 62.5q14 16 24.5 33.5t20.5 29.5q8 14 19 27q0 2 1 2t1 2q12 31 30 62q10 18 22.5 33.5t27.5 25.5q20 20 43 25q4 4 4 8t4 8q41 70 106 70q29 0 51.5 -16.5t38.5 -45.5 q23 -45 23 -117q0 -35 -5 -70.5t-20 -66.5q41 10 88 39q31 20 43 33q8 8 15 16q10 10 24.5 11.5t24.5 -9.5q10 -10 12 -24.5t-8 -24.5q-2 -2 -20.5 -19.5t-49 -39t-73.5 -40t-95 -20.5q-25 -35 -57 -55q-47 -31 -102 -31q-47 0 -74 14.5t-39 30.5q-23 23 -29 60 q-18 -23 -34.5 -38t-32.5 -30q-53 -37 -94 -37q-35 0 -55.5 13.5t-30.5 29.5q-29 45 -23 125zM334 334q0 -12 4 -28.5t12 -29.5q23 -23 62 -22q43 0 75 29q-35 16 -65 53q-39 51 -39 129v10l-8 -14q-18 -29 -29.5 -64t-11.5 -63zM451 465q0 -55 26 -86q23 -31 58 -37 q31 63 30 145q0 47 -12 78t-31 31q-16 0 -30.5 -14.5t-24.5 -36.5q0 -9 -4 -15q-4 -14 -8 -30.5t-4 -34.5z" />
<glyph unicode="+" horiz-adv-x="550" d="M37 674q8 25 29.5 38t46.5 5q35 -10 102 -10l-10 118q-4 27 11 46.5t40 25.5q39 4 59 -27q4 -6 7.5 -11t3.5 -15q2 -6 5 -44t5 -91q41 2 73.5 4t45.5 6q27 4 46 -11.5t25 -39.5q4 -39 -26 -60q-6 -4 -11.5 -7t-15.5 -3q-6 -2 -44 -5t-91 -7q0 -41 -3 -77t-9 -58 q-8 -27 -30 -39.5t-46 -3.5q-25 8 -38 29.5t-5 45.5q4 16 6 42t4 59q-41 2 -77 4t-60 10q-27 8 -39 29.5t-4 46.5z" />
<glyph unicode="," horiz-adv-x="438" d="M52.5 -270.5q2.5 24.5 25.5 41.5q82 59 126 130.5t40 114.5q-2 12 -5 15.5t-8 5.5q-23 12 -29.5 36.5t5.5 47.5t35.5 30t46.5 -6q72 -37 76 -120q6 -86 -56 -185q-61 -96 -159 -170q-17 -12 -35 -12q-33 0 -49 27q-16 20 -13.5 44.5z" />
<glyph unicode="-" horiz-adv-x="634" d="M76 510q8 25 29.5 38t46.5 5t76 -10t104 0t99 5t63 7q27 4 46 -11.5t25 -39.5q5 -40 -26 -60q-6 -4 -11.5 -7t-15.5 -3q-6 -2 -54 -6t-111.5 -6t-127 0t-100.5 12q-27 8 -39 29.5t-4 46.5z" />
<glyph unicode="." horiz-adv-x="260" d="M70 59q8 25 31.5 44.5t50.5 19.5q27 2 39 -14t4 -43t-32 -45.5t-50 -20.5q-25 -2 -38.5 15.5t-4.5 43.5z" />
<glyph unicode="/" horiz-adv-x="634" d="M159.5 46q-5.5 24 10.5 46q10 14 36.5 103.5t62.5 214.5t75 269t70.5 268t53 210t24.5 96q4 27 24.5 41.5t44.5 12.5q39 -6 49 -43q6 -14 2 -29q0 -4 -12 -54.5t-32.5 -130t-48 -182t-56.5 -211t-57.5 -214t-54 -192.5t-46 -147.5t-31.5 -76.5q-16 -23 -39.5 -29 t-46.5 10q-23 14 -28.5 38z" />
<glyph unicode="0" horiz-adv-x="1189" d="M81 351.5q-3 58.5 2 114.5t15 105q23 125 72 252t117 242q53 86 110.5 154.5t116.5 117.5q145 115 291 109q147 -8 230 -124.5t83 -317.5q0 -78 -12 -160t-37 -166q-25 -86 -60.5 -167t-78.5 -153q-104 -172 -235.5 -265t-278.5 -101h-21q-53 0 -95 12t-72.5 32.5t-52 45 t-36.5 49.5q-29 49 -42 105.5t-16 115zM204 344q5 -92 40 -149q51 -86 166 -80q76 4 141 36.5t117.5 78.5t92 98.5t64.5 93.5q78 131 124 285.5t46 296.5q0 147 -51 233q-47 80 -145 86h-11q-96 0 -196 -82q-106 -86 -199 -240q-66 -109 -109.5 -227.5t-64 -228 t-15.5 -201.5z" />
<glyph unicode="1" horiz-adv-x="1015" d="M10 53q0 25 17.5 43.5t44.5 18.5l336 2q8 25 25.5 80t40 128.5t49 163t55.5 183.5q45 154 74.5 264.5t48 186t27.5 121.5t13 71q-20 -8 -52 -25.5t-75 -52.5q-20 -16 -44.5 -12t-41.5 24q-16 20 -13 45t24 41q41 29 76.5 51.5t68.5 36.5q82 37 131 13q47 -23 51 -80 q0 -10 -2 -39t-17.5 -103.5t-51 -212t-101.5 -364.5q-25 -80 -47 -158t-43.5 -146.5t-38 -123.5t-28.5 -92l354 2q27 0 44 -18.5t17 -43.5q0 -27 -17 -44t-44 -17l-819 -4q-27 0 -44.5 17.5t-17.5 43.5z" />
<glyph unicode="2" horiz-adv-x="1232" d="M38 70.5q5 19.5 21 31.5q217 170 401.5 341t319.5 325q94 109 149.5 191.5t83 144t36 101.5t6.5 63q-2 33 -33 45q-31 14 -81 10t-112 -25q-78 -27 -168 -77t-186 -121q-23 -16 -46 -12t-40 24q-16 20 -13 45t25 41q213 160 390 217q176 57 280 10q96 -43 107 -147 q8 -115 -78 -277q-39 -70 -95.5 -148.5t-132.5 -164.5q-117 -133 -268 -278.5t-332 -292.5l646 2q27 0 44 -17.5t17 -44.5t-17.5 -44t-43.5 -17l-820 -4q-43 0 -59 41q-6 18 -1 37.5z" />
<glyph unicode="3" horiz-adv-x="1075" d="M25 94q6 25 28.5 38t46.5 5q162 -41 305.5 -7t237.5 136q57 63 78.5 132t-0.5 128q-37 113 -213 138q-20 4 -33.5 17t-17.5 32q-4 20 4 37.5t26 27.5q141 82 218 154t112 123q41 55 55.5 104t-0.5 84q-14 35 -46.5 50.5t-63.5 21.5q-117 25 -305 -23q-25 -6 -46.5 7.5 t-27.5 37.5q-8 25 5 46.5t38 27.5q215 55 360 25q76 -17 123 -52q53 -37 78 -94q53 -137 -69 -307q-43 -61 -106.5 -120.5t-145.5 -117.5q82 -37 119.5 -88t52.5 -88q33 -92 4 -194.5t-109 -190.5q-111 -119 -274 -166q-86 -27 -187 -26q-102 0 -202 26q-25 8 -38.5 30 t-6.5 46z" />
<glyph unicode="4" horiz-adv-x="1110" d="M53 709q-49 135 103 323q74 88 193.5 189.5t285.5 214.5q23 14 46.5 10t39.5 -27q14 -23 9 -46t-25 -40q-160 -109 -274 -203t-179 -176q-111 -131 -84 -202q29 -72 192 -101q74 -14 169.5 -16t207.5 6q47 176 97.5 370.5t91.5 381.5q6 25 27.5 38t45.5 9 q25 -6 38.5 -27.5t9.5 -46.5q-39 -176 -85.5 -360.5t-93.5 -352.5q23 -2 38.5 -17t19.5 -38q4 -27 -12.5 -45t-41.5 -23q-10 -2 -19 -3t-19 -1q-31 -104 -56.5 -194t-45 -155.5t-31 -102.5t-11.5 -39q-6 -20 -22.5 -31.5t-36.5 -11.5q-4 0 -9.5 1t-9.5 1q-25 8 -36 30.5 t-5 47.5q0 2 11.5 35.5t29 92t41 139.5t49.5 177q-33 -2 -64.5 -3t-64.5 -1q-90 0 -175 9t-154.5 31.5t-119.5 60.5t-71 96z" />
<glyph unicode="5" horiz-adv-x="1169" d="M37 94q4 25 25.5 38t46.5 9q254 -55 444 6q98 33 154.5 82.5t85.5 89.5q51 74 56 154t-36 141q-53 78 -163.5 102.5t-262.5 -9.5q-53 -10 -80 34q-14 23 -14 59t16 97q12 47 28.5 98.5t31.5 89.5q8 25 24.5 68t36 89t37.5 84t31 52q35 43 145 58q37 4 83 7t101 3 q45 0 88 -1t77 -3t54.5 -3t22.5 -1q27 -2 43 -20.5t14 -45.5q-2 -25 -21.5 -42t-43.5 -15l-19 1q-18 1 -48.5 3t-70.5 3t-83 1q-70 0 -116 -3t-73.5 -7t-41 -8.5t-17.5 -6.5q-10 -16 -39 -82.5t-64 -160.5q-29 -80 -45 -132.5t-22 -82.5q156 25 280 -11q143 -41 213 -145 q63 -96 58 -215q-6 -117 -78 -219q-51 -76 -129 -131.5t-176 -87.5q-115 -39 -256 -39q-113 0 -250 28q-27 6 -40 28t-7 46z" />
<glyph unicode="6" horiz-adv-x="1198" d="M66 342q6 43 18 94q0 6 2 8q41 184 101.5 337t138.5 276q72 115 156.5 195.5t179.5 131.5q55 29 112 45.5t117 20.5q117 6 223 -37q25 -10 35 -33.5t0 -46.5q-10 -25 -32.5 -35t-47.5 0q-172 70 -350 -24q-123 -63 -224.5 -191.5t-179.5 -314.5l11 6q127 90 276 90 q156 0 248 -98q41 -43 61.5 -101.5t22.5 -125.5q2 -88 -33 -183q-16 -47 -41.5 -90t-58.5 -82q-74 -84 -168 -129q-104 -53 -225 -59h-25q-92 0 -156 31q-82 35 -118 102q-55 86 -43 213zM188 330q-10 -84 25 -137q49 -80 188 -74q57 2 105.5 17.5t86.5 36t65.5 45 t48.5 48.5q51 59 78.5 130t25.5 141q0 23 -7 57.5t-28.5 67t-63.5 56t-112 23.5h-2q-61 0 -114.5 -20.5t-97.5 -54t-80 -75.5t-60 -85q-47 -90 -58 -176z" />
<glyph unicode="7" horiz-adv-x="997" d="M53 63q18 178 197 445q76 115 165 226.5t173 213.5q53 68 102 129.5t86 112.5q35 47 49.5 72.5t18.5 37.5q-10 4 -35 9.5t-70 9.5t-100 6t-123 2q-57 0 -111.5 -2t-96.5 -3t-68 -3l-25 -2q-25 -4 -44 13.5t-21 41.5q-2 27 15 45.5t42 20.5q2 0 31.5 2t78 4t108.5 4t124 2 q78 0 138.5 -3t107.5 -11q57 -8 107.5 -27t64.5 -68q8 -33 -4.5 -72.5t-48 -95t-94 -130t-138.5 -173.5q-82 -100 -169 -209.5t-161 -220.5q-82 -123 -126 -219t-50 -170q-4 -23 -21.5 -39t-39.5 -16h-6q-27 4 -43.5 23.5t-12.5 43.5z" />
<glyph unicode="8" horiz-adv-x="1251" d="M71 319.5q7 98.5 66 196.5q80 133 211 213q16 10 33.5 18.5t36.5 18.5q-33 27 -53 61q-45 78 -33 177q10 92 61 180q70 117 185 188q126 82 276 78q154 -2 246 -92q84 -84 84 -211q0 -82 -36 -161t-101 -144q-63 -59 -140 -97q18 -10 39 -30q47 -43 71.5 -102.5 t24.5 -125.5q0 -90 -40.5 -175t-116.5 -154q-80 -74 -183 -113q-115 -47 -245 -49h-21q-113 0 -194 35q-92 41 -133 114q-45 76 -38 174.5zM194.5 319.5q-8.5 -65.5 18.5 -112.5q57 -92 240 -88q68 2 122 14t97 30.5t75.5 41.5t55.5 43q55 51 86 114.5t31 124.5 q0 92 -67 146.5t-185 58.5h-27q-72 -2 -134.5 -24.5t-112.5 -56t-88 -74.5t-62 -82q-41 -70 -49.5 -135.5zM453.5 993q-7.5 -61 17.5 -104t74 -57.5t96 -16.5h27q111 4 182.5 40t110.5 75q47 47 73.5 103.5t26.5 113.5q0 84 -54.5 131t-154.5 49h-8q-61 0 -114.5 -18.5 t-96.5 -47t-77 -66.5t-56 -75q-39 -66 -46.5 -127z" />
<glyph unicode="9" horiz-adv-x="1196" d="M49 70.5q-10 23.5 0 46.5q10 25 32.5 35t47.5 0q172 -70 350 24q123 63 224.5 191.5t179.5 314.5l-11 -6q-127 -90 -276 -90q-156 0 -248 98q-41 43 -61.5 101.5t-22.5 125.5q-2 88 33 183q16 47 42 90t58 82q74 84 168 129q104 53 226 59h24q90 0 156 -31 q82 -35 119 -102q55 -86 43 -213q-6 -43 -19 -94q0 -6 -2 -8q-41 -184 -101.5 -337t-138.5 -276q-72 -115 -156.5 -195.5t-178.5 -131.5q-55 -29 -112.5 -45.5t-117.5 -20.5q-117 -6 -223 37q-25 10 -35 33.5zM387 913q0 -23 7 -57.5t28.5 -67t63.5 -56t112 -23.5h2 q61 0 114.5 20.5t97.5 54t80 75.5t60 85q47 90 58 176q10 84 -25 137q-49 80 -188 74q-117 -6 -192 -53t-113 -94q-51 -59 -79 -130t-26 -141z" />
<glyph unicode=":" horiz-adv-x="425" d="M147 59q8 25 32 44.5t50 19.5q27 2 39 -14t4 -43t-31.5 -45.5t-50.5 -20.5q-25 -2 -38 15.5t-5 43.5zM147 879q8 25 32 44t50 19q27 2 39 -14t4 -43t-31.5 -45.5t-50.5 -20.5q-25 -2 -38 15.5t-5 44.5z" />
<glyph unicode=";" horiz-adv-x="350" d="M22 -270.5q3 24.5 25 41.5q82 59 126 130.5t40 114.5q-2 12 -5 15.5t-7 5.5q-23 12 -30 36.5t5 47.5t36 30t46 -6q72 -37 76 -120q6 -86 -55 -185q-61 -96 -160 -170q-17 -12 -35 -12q-33 0 -49 27q-16 20 -13 44.5zM117 879q8 25 31.5 44t50.5 19q27 2 39 -14t4 -43 t-32 -45.5t-50 -20.5q-25 -2 -38 15.5t-5 44.5z" />
<glyph unicode="&#x3c;" horiz-adv-x="727" d="M37 860q4 12 14 29.5t41 46.5t86 71t148 103q47 31 92 59.5t81 51t57 35.5l22 14q14 8 30 8q35 0 54 -31q14 -23 8 -46t-29 -38l-21 -12q-20 -12 -51.5 -31.5t-73.5 -46t-87 -55.5q-68 -45 -114 -78t-75 -55.5t-42 -35.5t-19 -20q6 -12 33.5 -53t107.5 -127l53.5 -53.5 t46.5 -44.5q23 -23 47 -43q20 -16 21.5 -42t-14.5 -46q-16 -18 -42 -19.5t-46 15.5l-15 13q-16 13 -39.5 35.5t-52 51.5t-59.5 62q-37 39 -66 72.5t-49 62.5q-61 90 -47 147z" />
<glyph unicode="=" horiz-adv-x="653" d="M84 510q8 25 29.5 38t46.5 5t76 -10t104 0t99 5t63 7q27 4 46 -11.5t25 -39.5q5 -40 -26 -60q-6 -4 -11.5 -7t-15.5 -3q-6 -2 -54 -6t-111.5 -6t-127 0t-100.5 12q-27 8 -39 29.5t-4 46.5zM84 797q8 25 29.5 38t46.5 5t76 -10.5t104 -0.5t99 5.5t63 7.5q27 4 46 -11.5 t25 -39.5q5 -40 -26 -60q-6 -4 -11.5 -7t-15.5 -3q-6 -2 -54 -6t-111.5 -6t-127 0t-100.5 12q-27 8 -39 29.5t-4 46.5z" />
<glyph unicode="&#x3e;" horiz-adv-x="729" d="M60 470.5q6 23.5 28 37.5l20 11q21 11 53 31.5t73.5 47.5t87.5 55q68 45 113.5 78t74.5 55.5t42 36t19 19.5q-6 12 -33.5 53t-107.5 127q-29 29 -55.5 53.5t-46.5 44.5q-25 23 -45 43q-20 16 -21.5 42t14.5 46q16 18 42 19.5t47 -15.5l15 -13q15 -13 38.5 -35.5t52 -51 t59.5 -61.5q37 -39 66 -73t49 -63q61 -90 47 -147q-4 -12 -14 -29.5t-41 -46t-86 -70.5t-148 -104q-47 -31 -92 -59.5t-80.5 -51t-56.5 -36.5l-22 -13q-14 -8 -31 -8q-35 0 -53 31q-14 23 -8 46.5z" />
<glyph unicode="?" horiz-adv-x="960" d="M305 59q8 25 31.5 44.5t50.5 19.5q27 2 39 -14t4 -43t-31.5 -45.5t-50.5 -20.5q-25 -2 -38 15.5t-5 43.5zM335 346q-1 25 15 45q100 121 174 222.5t126 184.5t84 147.5t50 111.5q23 59 32 103t9 74t-6 47t-14 24q-25 23 -90 -5q-45 -18 -94.5 -58t-96.5 -93 q-16 -20 -41.5 -21.5t-44.5 15.5q-20 16 -21 41.5t15 44.5q121 135 236 184q43 18 78.5 22.5t62.5 -0.5t45.5 -15.5t30.5 -20.5q23 -18 42 -55t21 -103q0 -98 -49 -227q-55 -147 -171 -324.5t-286 -378.5q-18 -20 -47 -20q-23 0 -39 14q-20 16 -21 41z" />
<glyph unicode="@" horiz-adv-x="995" d="M8 270q-14 51 4 125q35 119 125 203q43 39 85 56.5t75 9.5q6 -2 18.5 -8.5t23.5 -19.5t15 -37t-4 -60q-2 -14 -14 -22.5t-27 -4.5q-14 4 -22 16.5t-4 24.5q4 20 3 27.5t-1 11.5l-4 4q-10 2 -36 -8t-61 -41q-35 -35 -62.5 -79t-39.5 -91q-14 -45 -10 -77t26 -38 q29 -14 88 33q29 23 64 68t74 129q10 29 43 18q12 -4 19 -16.5t3 -24.5q-25 -88 -23.5 -137t13.5 -66q8 -8 20 -8q23 0 51.5 21.5t63.5 62.5q27 33 43 59.5t21 32.5q6 29 15 61.5t19 71.5q16 51 35 102.5t39 104.5l-39 -10h-6q-27 0 -33 29q-4 14 4.5 25t22.5 16l82 18 q16 35 30.5 67.5t24.5 61.5q14 33 47 18q14 -4 19.5 -18t-0.5 -27l-37 -86l147 29q14 4 26.5 -5t16.5 -22q2 -14 -6 -26.5t-22 -14.5l-195 -41q-57 -141 -86 -241q-35 -113 -41 -178q-6 -47 -1 -68.5t9 -30.5q4 -4 9.5 -8t19.5 -4q43 0 110 84q27 31 48 64q10 14 18 28 q6 14 20.5 17.5t26.5 -2.5q12 -8 16.5 -21.5t-4.5 -26.5q0 -2 -19.5 -33.5t-49.5 -70.5q-18 -23 -35.5 -40t-36.5 -32q-49 -37 -94 -37q-37 0 -57.5 13.5t-30.5 29.5q-16 25 -23 66q-37 -43 -71 -72q-54 -37 -97 -37q-47 0 -75 35q-25 35 -27 86q-29 -37 -66 -67 q-39 -33 -79 -45q-39 -14 -78 -2q-49 18 -66 75z" />
<glyph unicode="A" horiz-adv-x="1449" d="M4 47q0 25 17.5 43.5t44.5 18.5q72 0 147 51q78 47 166 151l-35 -4h-6q-23 0 -40 15.5t-22 37.5q-4 27 12.5 46.5t41.5 23.5l155 19q51 72 102.5 157.5t104.5 186.5q70 131 128.5 258t99.5 227t64.5 161.5t23.5 63.5q10 23 31.5 34t43.5 3q23 -6 35 -27.5t8 -44.5 q0 -2 -11 -56t-26.5 -145t-31 -213t-23.5 -257q-4 -77 -7 -147q-2 -42 -2 -82q0 -27 1 -54l227 27q25 4 44.5 -12.5t23.5 -41.5q4 -27 -11.5 -46t-41.5 -23l-238 -29q12 -201 52 -352.5t110 -251.5q111 -154 285 -174q68 -8 130 -8q44 0 85 4q98 10 178 34.5t140.5 58.5 t101 63.5t60.5 50.5l21 22q16 20 41 22t45 -14t22.5 -41.5t-13.5 -44.5q-4 -4 -56.5 -55t-156.5 -109q-61 -33 -126 -56t-132 -38q-51 -10 -104.5 -15t-106.5 -5q-35 0 -72 2t-74 6q-231 31 -368 227q-127 182 -170 508q-4 37 -7.5 74t-7.5 78l-352 -43l-82 -103 q-100 -113 -192 -174q-107 -69 -212 -69h-3q-27 0 -44.5 17t-17.5 44zM647 467l256 31q-1 30 -1 60q0 44 2 90q3 76 7 159q4 47 8.5 93t8.5 89q-29 -61 -60.5 -124.5t-66.5 -129.5q-39 -74 -77 -141.5t-77 -126.5z" />
<glyph unicode="B" horiz-adv-x="2596" d="M3 933q-1 28 7 58.5t27.5 64.5t56.5 68q59 59 154.5 111.5t224.5 101.5q119 43 257 79t290 61q152 29 299 42t287 15q150 0 273.5 -14.5t221.5 -42.5q117 -39 187 -93q82 -70 100 -157q6 -29 6 -59q0 -56 -22 -115q-35 -86 -115 -164q-23 -25 -51.5 -46.5t-59.5 -41.5 q127 -20 209 -96q53 -51 75 -120q12 -40 12 -81q0 -31 -7 -64q-12 -59 -41 -112.5t-70 -100.5q-74 -80 -190 -139q-86 -41 -182.5 -63.5t-190.5 -22.5q-18 0 -36.5 1t-34.5 3q-125 12 -199 66q-92 61 -92 170q0 27 17.5 44t43.5 17q25 0 43.5 -17.5t18.5 -43.5 q0 -33 22.5 -54.5t52 -34t59.5 -18.5t46 -8q31 -3 63 -3q63 0 129 12q100 20 185 63q35 16 71.5 40.5t69.5 57.5t58.5 75t35.5 95q4 20 4 39q0 63 -47 110q-63 58 -184 68q-23 2 -47 2q-105 0 -238 -33l-37 -8q-25 -6 -46 7.5t-27 35.5q-8 25 5 47.5t38 28.5l37 10 q137 37 235 88t159.5 109.5t87.5 118.5q17 40 17 77q0 18 -4 35q-8 47 -57 86q-49 41 -146 70q-84 27 -197.5 39t-246.5 12t-280.5 -13.5t-299.5 -39.5q-152 -27 -285.5 -61.5t-245.5 -75.5t-196 -87.5t-133 -93.5q-49 -49 -52 -79.5t1 -40.5q8 -25 -5 -47.5t-38 -28.5 q-23 -8 -45.5 5t-30.5 38q-6 20 -7 48zM1122 59q0 92 21.5 211t54.5 244t72 246t71.5 218t56 159.5t27.5 70.5q10 25 32.5 36t47.5 1q23 -10 34 -33.5t1 -46.5q-2 -2 -23.5 -61.5t-54 -153.5t-70.5 -213t-71 -240.5t-54.5 -236.5t-21.5 -201q0 -25 -17.5 -43t-43.5 -18 q-25 0 -43.5 18.5t-18.5 42.5z" />
<glyph unicode="C" horiz-adv-x="1247" d="M14 82q-12 65 -12 134q0 107 29 222q63 248 188 464t299 378q76 72 155 124t156 87q115 51 212 52q39 0 75 -9q133 -31 182 -158q28 -69 28 -160q0 -71 -17 -155q-6 -25 -26.5 -39t-47.5 -8q-25 4 -38 25.5t-9 45.5q8 41 13 93q2 20 2 40q0 31 -5 61q-8 48 -32.5 85 t-75.5 49q-22 5 -46 5q-72 0 -165 -40q-139 -59 -277 -188q-160 -150 -276.5 -351.5t-175.5 -430.5q-26 -100 -26 -193q0 -53 8 -103q24 -138 110 -249q98 -125 259 -192.5t359 -67.5q387 0 681 41t480 84q100 23 178 45t132 41q63 20 108 39q25 10 48.5 0.5t33.5 -33.5 q10 -23 0 -46.5t-33 -33.5q-4 -2 -114.5 -43t-319.5 -88q-307 -70 -603 -99.5t-591 -29.5q-209 4 -397.5 74.5t-317.5 232.5q-98 127 -131 295z" />
<glyph unicode="D" horiz-adv-x="2531" d="M4 950q-2 27 8.5 57.5t35 65.5t67.5 72q63 53 158.5 103t213 93t254 79t279.5 59q150 23 294 32q65 4 127 4q76 0 148 -6q299 -18 498 -120q168 -89 252 -230q76 -131 76 -302q0 -30 -2 -62q-10 -98 -33 -187.5t-62 -169.5q-68 -145 -182 -250q-98 -92 -213 -141 t-225 -49h-19q-127 6 -201.5 75.5t-74.5 182.5q0 27 17.5 44t43.5 17q25 0 43.5 -17t18.5 -44q0 -41 16.5 -67.5t40 -41t51 -20.5t49.5 -6h16q83 0 173 38q98 42 180 120q37 33 75 81t71.5 112.5t58 147t33.5 185.5q2 28 2 55q0 286 -262 420q-84 43 -191.5 69.5 t-234.5 36.5q-71 5 -147 5q-61 1 -123 -3q-142 -8 -296 -32q-133 -20 -261 -53t-238.5 -73t-199.5 -86t-144 -93q-10 -10 -23.5 -22.5t-25 -27t-16.5 -30t-1 -29.5q8 -25 -4 -47.5t-37 -30.5q-23 -8 -45.5 4.5t-30.5 34.5q-6 20 -8 47zM1122 59q0 92 21.5 211t54.5 244 t72 246t71.5 218t56 159.5t27.5 70.5q10 25 32.5 36t47.5 1q23 -10 34 -33.5t1 -46.5q-2 -2 -23.5 -61.5t-54 -153.5t-70.5 -213t-71 -240.5t-54.5 -236.5t-21.5 -201q0 -25 -17.5 -43t-43.5 -18q-25 0 -43.5 18.5t-18.5 42.5z" />
<glyph unicode="E" horiz-adv-x="1247" d="M-147 279q0 25 14 57.5t59 62.5q20 12 46 23.5t61 21.5q63 246 188 461t297 375q76 72 155 124t156 87q115 51 212 52q39 0 75 -9q133 -31 182 -158q28 -69 28 -160q0 -71 -17 -155q-6 -25 -26.5 -39t-47.5 -8q-25 4 -38 25.5t-9 45.5q8 41 13 93q2 20 2 40q0 31 -5 61 q-8 48 -32.5 85t-75.5 49q-22 5 -46 5q-72 0 -165 -40q-139 -59 -277 -188q-147 -139 -258 -321.5t-176 -393.5q55 10 113.5 16.5t117.5 12.5q53 6 100.5 12t88.5 12q39 6 58.5 11.5t27.5 9.5q14 41 57 41q25 0 43.5 -18.5t18.5 -43.5q0 -16 -10.5 -40.5t-51.5 -45.5 q-27 -16 -86 -28q-47 -10 -107.5 -17.5t-125.5 -13.5q-72 -8 -143.5 -17.5t-133.5 -21.5q-11 -65 -10 -127q0 -69 13 -133q26 -121 104 -221q98 -125 259 -192.5t359 -67.5q387 0 681 41t480 84q100 23 178 45t132 41q63 20 108 39q25 10 48.5 0.5t33.5 -33.5 q10 -23 0 -46.5t-33 -33.5q-4 -2 -114.5 -43t-319.5 -88q-307 -70 -603 -99.5t-591 -29.5q-209 4 -397.5 74.5t-317.5 232.5q-98 127 -131 295q-12 65 -12 135q0 42 4 86q-31 -16 -31 -24q0 -27 -17 -44.5t-44 -17.5q-25 0 -43 17.5t-18 44.5z" />
<glyph unicode="F" horiz-adv-x="1433" d="M12 973q8 47 72 106q129 117 461 242q147 53 318 105.5t362 99.5q180 43 352 75.5t315 51.5q142 17 243 16q131 0 194 -27q51 -23 62 -53t11 -47q0 -27 -18.5 -44t-42.5 -17q-23 0 -39 13t-21 36q-6 2 -23 7t-51 8q-26 2 -63 2h-26q-56 -1 -136 -9q-127 -12 -286.5 -38.5 t-333.5 -67.5q-53 -12 -106.5 -24.5t-106.5 -27.5q-10 -29 -30.5 -80t-46 -119.5t-55.5 -151.5t-61 -171l-41 -121l119 13q53 6 100.5 12t88.5 12t59 12.5t27 10.5q14 39 57 39q25 0 43 -17.5t18 -44.5q0 -16 -10 -40.5t-49 -45.5q-16 -8 -37.5 -15t-50.5 -14 q-47 -10 -107.5 -17t-125.5 -13q-43 -4 -87.5 -9.5t-87.5 -11.5q-59 -193 -88.5 -331t-29.5 -218q0 -27 -18.5 -44t-43.5 -17q-27 0 -44 17.5t-17 43.5q0 84 26.5 214t79.5 309q-4 0 -6 -1t-6 -1q-70 -18 -91.5 -35t-21.5 -21q0 -27 -18.5 -44t-42.5 -17q-27 0 -44.5 17.5 t-17.5 43.5q0 25 13.5 57.5t58.5 63.5q25 16 57.5 29.5t75.5 23.5q20 4 41 9.5t43 9.5q14 43 29.5 89t32.5 93q47 133 89 248t72 192q-266 -76 -472.5 -157.5t-313.5 -155.5q-57 -41 -71.5 -63.5t-12.5 -28.5q10 -25 -2 -47.5t-35 -30.5q-8 -4 -20 -4q-43 0 -60 41 q-6 18 -6 41q0 18 4 39z" />
<glyph unicode="G" horiz-adv-x="1345" d="M-6 337q-1 20 -1 41q0 122 40 271q55 199 172 381q102 164 239 287q63 59 129 103t129 73q68 29 128 39q28 5 54 5q30 0 58 -7q23 -6 55.5 -23.5t59 -57.5t37.5 -107q3 -20 3 -45q0 -54 -16 -126q-4 -25 -25.5 -39t-45.5 -8q-27 4 -40.5 25.5t-6.5 48.5q6 33 10 66.5 t0 63.5t-18.5 52.5t-43.5 28.5q-15 4 -34 4q-51 0 -125 -33q-109 -49 -226 -153q-39 -35 -90 -91.5t-103 -133t-100.5 -173t-80.5 -213.5q-37 -130 -37 -235v-21q4 -112 51 -174q43 -57 123 -57q305 0 563 367q178 250 303 626q20 78 38.5 145.5t39.5 123.5q10 23 31.5 34 t44.5 2q25 -8 37 -29.5t6 -43.5q-16 -68 -36 -133.5t-42 -130.5q-16 -66 -31.5 -137.5t-32.5 -145.5q-43 -188 -91 -390t-111 -378q-23 -61 -45.5 -113.5t-44.5 -99.5q6 -2 13 -3t13 -5q121 -35 263.5 -72t297 -68.5t319.5 -52t330 -20.5q106 0 210 11t199 29.5t180 40 t155 44.5q74 23 134 45t103 41q51 20 93 39q23 10 47.5 2t34.5 -31t1.5 -47.5t-30.5 -34.5q-4 -4 -98.5 -44t-249.5 -87q-72 -23 -160 -46.5t-188.5 -42t-209 -30.5t-221.5 -12q-305 0 -675 76q-160 33 -304.5 70.5t-263.5 72.5l-57 14q-90 -137 -205 -190q-90 -41 -165 -41 h-13q-80 2 -133 53q-41 41 -52 99q-3 18 -3 36q0 39 16 80q29 70 92 109q70 45 164 45q82 -2 242 -47q25 47 48 101t46 120q37 102 68.5 215t60.5 229l-68 -100q-141 -197 -297 -301q-176 -117 -366 -117q-139 0 -221 107q-66 86 -74 224zM407 -339q3 -21 17 -34 q21 -21 61 -21h9q47 3 106 32q68 33 127 112q-57 14 -100 22.5t-72 10.5h-2q-51 0 -88 -20.5t-53 -57.5q-8 -23 -5 -44z" />
<glyph unicode="H" horiz-adv-x="1900" d="M2 482.5q0 111.5 29 238.5q29 123 83 237.5t126 206.5q96 127 217 197q120 69 247 69q16 0 33 -1q127 -10 197 -117t71 -313q0 -16 -1 -33q-4 -168 -50 -392l533 58q41 123 98 238.5t129 220.5q70 100 143.5 179t153.5 136q174 129 356 129q27 0 44.5 -17.5t17.5 -43.5 q0 -25 -17.5 -43.5t-44.5 -18.5q-135 0 -278 -101.5t-272 -289.5q-59 -86 -107.5 -180t-87.5 -193h2q25 2 44.5 -13t23.5 -42q2 -25 -13.5 -44.5t-42.5 -23.5l-57 -6q-45 -152 -61 -303q-4 -44 -4 -96q0 -34 2 -72q4 -94 36.5 -181t100 -155.5t188.5 -91.5q76 -14 151 -14 q192 0 371 92q45 25 81 49.5t60.5 44t37.5 32.5l14 13q16 18 42 19t44 -15t19 -41.5t-15 -44.5q0 -2 -15.5 -17t-44 -39t-69.5 -52.5t-92 -55.5q-121 -63 -260 -92q-88 -16 -172 -16q-43 0 -86 4t-86 12q-63 10 -116.5 34t-100.5 58q-86 66 -140 170q-25 47 -40 102.5 t-25 117.5q-8 57 -8 119.5t4 127.5q6 68 19 136.5t32 140.5l-520 -57q-18 -72 -36 -136.5t-33 -115t-27.5 -86t-16.5 -50.5q-4 -23 -20.5 -38t-40.5 -15q-25 0 -43.5 18.5t-18.5 43.5v4q0 8 4 20l10 26q9 27 22 73.5t31.5 107.5t37.5 133l-185 -18q-2 -2 -6 -2q-23 0 -40 16 t-21 39q-4 27 12 45t43 23l227 24l4 21q25 113 37.5 210t14.5 179q1 21 1 42q0 69 -10 123q-14 70 -41 111q-35 53 -104 60q-12 1 -23 1q-53 0 -101 -16q-58 -18 -107.5 -50t-89 -72t-70.5 -78q-63 -84 -110.5 -186.5t-73.5 -213.5q-27 -109 -28 -204v-8q0 -90 23 -154 q8 -25 -3 -47.5t-35 -30.5q-23 -10 -45.5 1t-32.5 36q-29 86 -29 197.5z" />
<glyph unicode="I" horiz-adv-x="1433" d="M12 973q8 47 72 106q129 117 461 242q147 53 318 105.5t362 99.5q180 43 352 75.5t315 51.5q142 17 243 16q131 0 194 -27q51 -23 62 -53t11 -47q0 -27 -18.5 -44t-42.5 -17q-23 0 -39 13t-21 36q-6 2 -23 7t-51 8q-26 2 -63 2h-26q-56 -1 -136 -9q-127 -12 -286.5 -38.5 t-333.5 -67.5q-53 -12 -106.5 -24.5t-106.5 -27.5q-10 -29 -30.5 -80t-46 -119.5t-55.5 -151.5t-61 -171q-174 -496 -198 -731l30 4q53 6 100.5 12.5t88.5 12.5t59.5 12t26.5 10q14 39 57 39q25 0 43.5 -17.5t18.5 -43.5q0 -16 -10.5 -41t-49.5 -45q-16 -8 -37.5 -15.5 t-50.5 -13.5q-47 -10 -107.5 -17.5t-125.5 -13.5l-92 -10q-4 -2 -17 -2q-57 -6 -111.5 -15.5t-101.5 -21.5q-70 -18 -91 -34.5t-21 -20.5q0 -27 -18.5 -44.5t-43.5 -17.5q-27 0 -44 17.5t-17 44.5q0 25 13 57.5t58 63.5q25 16 58 29.5t76 23.5q88 23 184 35q18 244 207 784 q47 133 89 248t72 192q-266 -76 -472.5 -157.5t-313.5 -155.5q-57 -41 -71.5 -63.5t-12.5 -28.5q10 -25 -2 -47.5t-35 -30.5q-8 -4 -20 -4q-43 0 -60 41q-6 18 -6 41q0 18 4 39z" />
<glyph unicode="J" horiz-adv-x="1376" d="M8 -68q-1 16 -1 31q0 65 13 129q17 80 50 146q39 82 98 131q68 55 149 55q25 0 43.5 -18.5t18.5 -43.5q0 -27 -18.5 -44t-43.5 -17q-27 0 -49 -12.5t-38.5 -29.5t-29 -37.5t-20.5 -37.5q-25 -49 -38 -112q-11 -56 -11 -111v-17q2 -65 18.5 -126.5t53.5 -106.5 q64 -81 172 -81q41 0 88 12q115 25 207 120t163.5 228t124 287.5t89.5 302.5q31 125 53 246.5t37.5 228t26 190.5t14.5 135q-162 -41 -309.5 -87t-271.5 -92t-221 -92t-159 -89q-57 -41 -71.5 -64.5t-12.5 -27.5q10 -25 -1 -47.5t-36 -32.5q-6 -2 -20 -2q-18 0 -34.5 10 t-23.5 31q-5 17 -5 38q0 19 3 41q9 48 72 107q61 57 176 117.5t283 122.5q147 55 319 107.5t361 99.5q180 43 352 75.5t315 49.5q148 17 251 17q128 0 188 -26q49 -23 60 -54.5t11 -47.5q0 -25 -17 -42t-44 -17q-23 0 -39 13t-20 36q-6 2 -23.5 7t-51.5 8q-25 2 -63 2h-26 q-54 -1 -135 -9q-127 -12 -286 -39t-335 -68l-59 -14q-4 -37 -12.5 -121t-25 -199.5t-41 -255t-61.5 -286.5q-98 -399 -239 -647q-186 -326 -437 -381q-59 -12 -110 -13q-59 0 -115 17q-96 31 -158 110q-45 55 -69.5 132t-28.5 165z" />
<glyph unicode="K" horiz-adv-x="1703" d="M2 472q0 112 29 237q29 123 83 238.5t126 207.5q98 129 217 197q117 67 239 67q20 0 41 -2q129 -10 197 -114q70 -107 71 -314q0 -16 -1 -33q-2 -70 -10.5 -148.5t-24.5 -166.5q135 45 271 133t247 205q123 129 179 257q40 92 40 168q0 30 -6 58q-6 25 7 46.5t38 27.5 t46 -7t28 -38q10 -43 10 -89q0 -94 -42 -198q-63 -156 -210 -309q-96 -102 -210 -183t-232 -139q20 -12 40.5 -29.5t41.5 -37.5q66 -63 128 -149.5t128 -182.5q72 -106 146.5 -208.5t160.5 -184.5q176 -176 356 -176q223 0 430 119q39 23 68.5 44t52.5 37q25 20 43 39 q16 18 42 19t44 -17q18 -16 19 -41.5t-17 -44.5q-2 -4 -50 -46t-136 -95q-117 -66 -242 -101.5t-254 -35.5q-229 0 -442 211q-92 88 -170 194.5t-152 216.5q-63 92 -122.5 174t-119.5 140q-70 68 -116 80q-30 8 -53 8q-12 0 -21 -2q-18 -84 -38.5 -159t-38 -135t-31 -101 t-19.5 -58q-4 -23 -21.5 -38t-39.5 -15q-25 0 -43.5 17.5t-18.5 43.5v4q0 8 4 21l14 40q13 40 33.5 106.5t44 154.5t43.5 186q23 113 36.5 210.5t15.5 179.5q1 21 1 42q0 67 -10 121q-14 70 -41 111q-35 55 -104 61q-12 1 -24 1q-53 0 -100 -15q-58 -18 -107.5 -50t-89 -73 t-70.5 -80q-63 -82 -110.5 -185t-75.5 -214q-25 -106 -26 -202v-7q0 -91 23 -156q8 -25 -3 -47t-35 -32q-23 -8 -45.5 3t-32.5 35q-29 86 -29 198z" />
<glyph unicode="L" horiz-adv-x="2107" d="M14 295q100 315 418 416q137 45 293 53t324 12q68 0 137 2t137 6q10 39 21.5 77t23.5 73q41 123 83 211t93 151q113 137 268 203q72 29 142 39q32 5 63 5q36 0 70 -7q70 -14 118 -52t64 -98q9 -30 9 -69v-7q-1 -44 -22.5 -102.5t-69.5 -129t-132 -154.5 q-174 -176 -471 -232q-41 -10 -82 -15t-82 -9q-14 -53 -26.5 -106.5t-24.5 -106.5q-35 -147 -74 -293t-88 -271q-14 -37 -26 -63q156 -45 310.5 -85t310 -70.5t312 -49t314.5 -18.5q104 0 207.5 11t199 29.5t180.5 40t152 42.5q74 23 135.5 45t105.5 39.5t69 29.5l24 11 q23 10 47.5 1.5t34.5 -30.5q10 -23 2 -47.5t-31 -34.5q-4 -2 -98 -42t-250 -89q-72 -23 -161 -45.5t-188 -41t-208.5 -30.5t-220.5 -12q-158 2 -327 20.5t-338 49t-332.5 72.5t-307.5 91l-30 -45q-80 -104 -170 -145q-86 -41 -165 -41h-14q-84 4 -133 53q-41 41 -52 99 q-3 18 -3 36q0 39 16 78q29 72 93 111q68 43 163 43q41 0 98.5 -12.5t133.5 -30.5q59 125 103 287.5t85 334.5l43 176q-121 -6 -241 -6q-160 -4 -307.5 -11t-270.5 -48q-133 -43 -215 -125t-125 -213q-8 -25 -30.5 -36t-47.5 -3q-23 8 -35 30.5t-4 47.5zM684 -295 q-8 -20 -8 -36q0 -25 18 -44q20 -20 58 -20q6 1 12 1q47 4 106 29q37 16 68 45t59 68q-57 16 -100 24.5t-70 8.5h-2q-109 0 -141 -76zM1454 795q150 18 281 65t233 150q76 76 116 135t56 101q15 38 16 64q0 22 -4 42q-10 31 -36.5 45t-53.5 18q-10 4 -22.5 4h-24.5 q-86 0 -188.5 -48t-186.5 -152q-59 -72 -104 -182.5t-82 -241.5z" />
<glyph unicode="M" horiz-adv-x="3047" d="M4 482.5q0 111.5 31 238.5q29 123 82 237.5t125 206.5q100 131 219 199q114 67 244 67q17 0 34 -1q63 -4 113.5 -34t85.5 -81q70 -110 70 -315v-33q-2 -41 -5.5 -83t-9.5 -89l19 34q166 322 327 500q187 207 366 208q26 0 52 -5q31 -6 64.5 -20.5t67.5 -45t63.5 -79 t52.5 -121.5q29 -90 37 -201l31 37q92 106 180 190t170 140q161 107 286 107q36 0 68 -9q84 -23 123 -105q29 -59 29 -168q-2 -90 -20.5 -201.5t-43.5 -234.5q-18 -90 -35.5 -184t-30 -189.5t-16.5 -187.5q-1 -26 -1 -52q0 -64 7 -124q20 -186 105.5 -294.5t247.5 -156.5 q134 -39 266 -39q191 0 377 82q57 27 103 55.5t78 53.5t50 40l17 15q16 18 41.5 18.5t44.5 -16.5q18 -18 18 -43.5t-16 -44.5q-2 -2 -21.5 -19.5t-55.5 -45t-87 -59t-117 -62.5q-156 -72 -319 -90q-56 -6 -115 -6q-150 0 -299 43q-213 63 -322 217q-98 135 -119 340 q-7 66 -7 134q0 27 1 55q4 97 16.5 195.5t31 197t36.5 192.5q23 119 41.5 225.5t20.5 188.5q0 51 -6.5 79.5t-15.5 44t-20 20.5t-18 7q-17 4 -37 4q-55 0 -126 -33q-97 -45 -213 -149q-78 -72 -161 -164t-163 -199q-2 -68 -9 -137t-18 -139q-16 -88 -36.5 -168t-45.5 -150 q-59 -152 -127 -219q-51 -47 -95 -49h-17q-32 0 -51 6q-23 8 -50.5 34t-33.5 87q-1 10 -1 22q0 57 25 138q49 166 185 387q35 59 73.5 116.5t79.5 114.5q0 188 -37 318q-49 162 -151 178q-16 3 -32 3q-124 0 -275 -167q-152 -166 -310 -471q-68 -133 -124 -261t-97 -230.5 t-63.5 -166t-22.5 -65.5q-6 -23 -25.5 -34t-42.5 -7t-37 20.5t-14 39.5v4q0 14 2 20l14 40q15 40 34.5 107.5t43 155.5t43.5 185q51 229 54 389v25q-1 78 -11 140q-12 70 -40 111q-35 53 -103 60q-12 1 -23 1q-53 0 -101 -16q-58 -18 -107 -50t-89 -72t-71 -78 q-63 -84 -111.5 -186.5t-74.5 -213.5q-27 -106 -27 -202.5t23 -163.5q10 -25 -2.5 -47.5t-34.5 -30.5q-25 -10 -47.5 2t-30.5 35q-31 86 -31 197.5zM1685 143q3 -10 5 -12q10 -4 20 4t14 12q25 25 50.5 70t48 106.5t41 135t32.5 155.5q4 12 5.5 25.5t3.5 26.5 q-59 -94 -105.5 -182.5t-75.5 -161.5q-16 -41 -25 -76t-13 -64t-1 -39z" />
<glyph unicode="N" horiz-adv-x="2138" d="M4 476.5q0 111.5 31 236.5q29 123 82 237.5t125 208.5q96 127 217 197q117 67 239 67q20 0 41 -2q129 -10 197 -114q72 -110 72 -317v-32q-2 -59 -9.5 -126.5t-19.5 -143.5q37 68 77 137.5t81 135.5q88 141 172 246.5t164 176.5q168 148 318 148q39 0 77 -10 q88 -23 125 -105q26 -59 26 -159v-7q-2 -90 -20.5 -201.5t-42.5 -234.5q-18 -90 -35.5 -184t-30 -189.5t-16.5 -187.5q-1 -26 -1 -52q0 -64 7 -124q20 -186 106.5 -296t245.5 -157q136 -39 267 -39q195 0 380 86q57 27 103.5 54.5t77 51t46.5 38.5l17 16q16 18 42 19.5 t44 -17.5q18 -18 18.5 -44t-16.5 -42q-2 -2 -21.5 -20.5t-54 -45t-87 -59.5t-117.5 -63q-156 -72 -320 -90q-55 -7 -112 -7q-152 0 -301 43q-209 61 -322 218q-96 135 -117 339q-7 66 -7 134q0 27 1 55q4 98 16.5 197.5t30 197.5t35.5 191q23 119 42 226t19 187q0 51 -6 81 t-15 45.5t-20.5 19.5t-17.5 6q-22 6 -45 6q-106 0 -238 -117q-74 -66 -151.5 -165t-161.5 -230q-80 -127 -150.5 -261t-127 -252t-95.5 -209t-57 -134q-10 -23 -32.5 -33t-45.5 0q-23 8 -34 30.5t-3 47.5l14 40q13 40 33.5 107.5t44 155.5t43.5 184q25 113 37.5 210.5 t16.5 179.5v26q0 175 -51 250q-37 57 -103 59q-17 2 -33 2q-49 0 -93 -14q-58 -18 -107 -50t-88 -73t-70 -80q-66 -84 -113 -186t-73 -213q-27 -106 -27 -201.5t23 -165.5q10 -23 -2.5 -45t-34.5 -32q-25 -8 -47.5 3t-30.5 36q-31 86 -31 197.5z" />
<glyph unicode="O" horiz-adv-x="2121" d="M5 1103q3 23 26 40q199 147 430 243.5t471 131.5q116 16 224 17h15q100 0 195 -13q207 -31 363 -125q168 -104 239 -273q50 -116 51 -252q0 -75 -16 -155q-18 -104 -55 -200.5t-90 -182.5q-55 -88 -123 -156.5t-146 -114.5q-131 -75 -274 -75q-94 0 -182 30 q-109 41 -183 105q-74 63 -112 149q-46 101 -46 220q0 68 15 141q27 129 94.5 250t165.5 217q111 104 233 156q100 42 201 42q22 0 43 -2q25 -2 42.5 -20.5t12.5 -44.5q-2 -25 -20 -42.5t-45 -14.5q-15 1 -31 1q-81 0 -163 -35q-98 -42 -187 -128q-86 -84 -144.5 -188.5 t-80.5 -215.5q-10 -52 -14 -118v-17q0 -57 20 -115q22 -66 78.5 -126t161.5 -97q70 -25 140 -25q108 0 214 60q63 37 120.5 96.5t103.5 133t80 159.5t50 180q14 72 14 137q0 102 -34 188q-56 140 -197 228q-129 80 -315 106q-87 12 -181 13q-106 0 -219 -16 q-225 -33 -443 -122t-405 -229q-20 -16 -44.5 -12t-41.5 25q-14 23 -11 46z" />
<glyph unicode="P" horiz-adv-x="2269" d="M11 994q9 52 69 114q109 109 369 207q119 47 257 86t289 69q154 31 304.5 50.5t289.5 23.5q56 2 108 2q239 0 400 -45q115 -35 187 -88q84 -68 104 -156q9 -41 9 -91v-10q-1 -56 -26.5 -118.5t-82 -130t-154.5 -135.5q-117 -82 -280.5 -150.5t-354.5 -115.5h-14 q-23 0 -39 12t-21 33q-6 25 7.5 47.5t37.5 28.5q166 41 321 102.5t269 138.5q112 78 172 169q42 64 42 133q0 29 -7 59q-25 104 -205 153q-86 25 -200 35q-81 7 -172 7q-37 0 -75 -1q-134 -4 -284.5 -22.5t-310.5 -50.5q-150 -31 -285 -69t-246.5 -81t-194.5 -89t-126 -91 q-41 -37 -40 -66q0 -6 1 -12q8 -25 -4 -47.5t-37 -28.5q-25 -8 -47.5 4.5t-28.5 36.5q-5 18 -5 42q0 20 4 45zM1124 59q0 92 21.5 211t54.5 244t72 246t71.5 218t56 159.5t27.5 70.5q10 25 33 36t47 1q23 -10 34 -33.5t1 -46.5q-2 -2 -23.5 -61.5t-54 -153.5t-70.5 -213 t-71 -240.5t-54.5 -236.5t-21.5 -201q0 -25 -17 -43t-44 -18q-25 0 -43.5 18.5t-18.5 42.5z" />
<glyph unicode="Q" horiz-adv-x="1341" d="M25 737q31 152 102.5 296.5t171.5 258.5q111 129 235 192q108 55 215 55q16 0 33 -1q154 -10 260 -90q100 -76 146 -199q41 -111 41 -251t-45 -293q-37 -129 -99.5 -246t-140.5 -211l49 -66q82 -104 166 -206.5t178 -184.5q199 -178 394 -178q49 0 115.5 13.5t143 42 t158.5 76.5t162 116q20 16 45 14t41 -20q16 -20 14 -46t-20 -42q-80 -68 -169 -121.5t-181 -89.5q-80 -31 -160 -48.5t-149 -17.5q-242 0 -476 209q-100 88 -187 193.5t-171 216.5q-20 23 -39 51q-176 -158 -371 -158q-82 0 -153 27q-217 76 -293 286q-38 104 -38 226 q0 93 22 196zM128 581q-2 -22 -2 -45q0 -59 14 -120q18 -84 71 -159t164 -114q53 -20 103 -20q8 0 16 1q57 3 108 20.5t96 47t82 64.5q-86 106 -168 179t-159 73q-27 0 -44.5 17.5t-17.5 43.5q0 25 17.5 43.5t44.5 18.5q135 0 286 -146q33 -31 64 -65.5t63 -73.5 q66 82 117 182.5t82 210.5q39 133 41 254v13q0 113 -33 200q-74 193 -299 211h-20q-90 0 -182.5 -52t-180.5 -153q-90 -104 -153.5 -234t-92.5 -265q-10 -51 -17 -132z" />
<glyph unicode="R" horiz-adv-x="1585" d="M2 952v10q0 25 7 55q9 36 34 77t68 84q86 88 239 170q72 35 151 66.5t163 55.5q86 25 171 40.5t162 21.5q43 3 83 3q124 0 225 -28q111 -31 181 -96t93 -164q9 -43 9 -92v-10q-1 -55 -26.5 -118.5t-81 -130.5t-153.5 -134q-84 -59 -190.5 -110.5t-229.5 -92.5 q37 -27 70 -59q66 -63 128 -149.5t128 -182.5q72 -104 146.5 -207.5t158.5 -185.5q178 -176 358 -176q221 0 431 118q39 23 67.5 45.5t50.5 38.5q23 20 43 37q18 18 44 19t44 -17q18 -16 18.5 -41.5t-16.5 -44.5q-4 -4 -51 -46t-135 -93q-117 -68 -242 -103.5t-254 -35.5 q-227 0 -444 211q-90 88 -168 194.5t-154 216.5q-61 92 -120.5 174t-118.5 140q-35 35 -63.5 53t-52 26.5t-42 8.5t-33.5 -2q-4 0 -5 -1t-5 -1q-25 -6 -46 7t-28 38q-6 25 6.5 46t36.5 27q4 2 13 2q164 41 316.5 103.5t265 140.5t170.5 169q41 64 41 131q0 29 -7 59 q-27 125 -188 172q-82 22 -187 22q-33 -1 -71 -3q-150 -10 -316 -58q-160 -47 -291 -115t-208 -145q-31 -31 -57 -74q-17 -29 -16 -59q0 -14 3 -29q8 -23 -4 -45.5t-37 -30.5q-25 -6 -47.5 6t-28.5 37t-8 55zM317 49q0 90 21.5 209t54.5 244t71 246.5t71.5 219t56 160 t26.5 70.5q10 23 32.5 34t47.5 1q23 -10 34 -32.5t1 -47.5q0 -2 -22.5 -60.5t-54 -152.5t-69.5 -213t-71 -240.5t-54.5 -236.5t-21.5 -201q0 -27 -18.5 -44t-42.5 -17q-27 0 -44.5 17.5t-17.5 43.5z" />
<glyph unicode="S" horiz-adv-x="2875" d="M-2 926q49 170 238 256q152 70 405 82q63 3 129 3q55 0 113 -2q127 -5 261 -16.5t271 -28t275 -32.5l284 -35q96 180 293 287q90 47 190.5 72.5t200.5 27.5h24q120 0 208 -36q98 -40 137 -113q20 -39 20 -82q0 -19 -4 -39q-12 -63 -59 -125q-66 -86 -209 -123 q-59 -14 -135 -22q-60 -6 -131 -5h-39q-96 0 -199.5 7.5t-218.5 19.5q-5 -23 -6 -46q0 -30 10 -58q16 -50 53 -101t94.5 -105.5t131.5 -117.5q78 -66 150.5 -132.5t121.5 -144.5q57 -88 70 -174q3 -24 3 -48q0 -75 -32 -152q-66 -150 -201 -254q-121 -98 -290 -148 q-154 -47 -310 -47q-86 0 -168 13.5t-153 41.5q-209 82 -297 250q-47 92 -49 203q-1 13 -1 26q0 100 40 216q8 25 30.5 36t46.5 3q23 -8 35 -31t4 -47q-34 -102 -34 -181q1 -22 3 -42q12 -94 53.5 -158t101 -101.5t110.5 -58.5q121 -47 266 -48h7q142 0 280 42 q150 47 256 132t155 202q24 55 24 107q0 11 -1 21q-6 62 -51 130q-43 66 -110.5 128t-139.5 124q-74 63 -144.5 128.5t-117.5 137.5q-29 41 -45.5 82t-20.5 84q-3 23 -3 45q0 29 5 57q-61 6 -124.5 13.5t-129.5 17.5q-170 20 -345 40.5t-339 30.5q-115 7 -223 6 q-44 0 -88 -1q-148 -4 -264.5 -31t-195.5 -80t-105 -141q-8 -25 -31 -37t-45 -4q-25 8 -37 29.5t-4 46.5zM2109 1139q98 -10 188.5 -15.5t172.5 -5.5h7q332 0 409 101q18 25 31.5 56.5t-1.5 57.5q-18 41 -90 63q-66 21 -151 21h-15q-72 -2 -149.5 -19.5t-151 -51t-138 -86 t-112.5 -121.5z" />
<glyph unicode="T" horiz-adv-x="1220" d="M12 973q8 47 72 106q129 117 461 242q147 53 318 105.5t362 99.5q180 43 352 75.5t315 51.5q142 17 243 16q131 0 194 -27q51 -23 62 -53t11 -47q0 -27 -18.5 -44t-42.5 -17q-23 0 -39 13t-21 36q-6 2 -23 7t-51 8q-26 2 -63 2h-26q-56 -1 -136 -9q-127 -12 -286.5 -38.5 t-333.5 -67.5q-53 -12 -106.5 -24.5t-106.5 -27.5q-10 -29 -30.5 -80t-46 -119.5t-55.5 -151.5t-61 -171q-100 -289 -151 -491.5t-51 -307.5q0 -27 -18.5 -44t-43.5 -17q-27 0 -44 17.5t-17 43.5q0 238 209 840q47 133 89 248t72 192q-266 -76 -472.5 -157.5t-313.5 -155.5 q-57 -41 -71.5 -63.5t-12.5 -28.5q10 -25 -2 -47.5t-35 -30.5q-8 -4 -20 -4q-43 0 -60 41q-6 18 -6 41q0 18 4 39z" />
<glyph unicode="U" horiz-adv-x="2949" d="M6 649q-1 11 -1 23q0 222 224 395q96 74 230.5 138.5t308.5 119.5q143 45 309 83t353 67q190 29 344.5 44t257.5 21q20 2 37.5 -9t23.5 -32q8 -18 2 -37.5t-22 -31.5q-100 -76 -182.5 -206t-129.5 -296q-47 -160 -51 -314v-29q0 -135 33 -241q78 -225 287 -225 q100 0 221 93t248 267q2 29 4 55.5t6 55.5q16 135 49 272t76 254q47 123 94 197q57 92 125 114q23 7 41 7t32 -8q26 -15 37 -25q31 -34 31 -105q0 -47 -14 -110q-31 -125 -107 -299q-53 -119 -117.5 -233.5t-136.5 -215.5q-2 -30 -2 -59q0 -81 13 -150q23 -141 82 -176 q23 -14 28.5 -38.5t-8.5 -47.5q-18 -28 -53 -28q-16 0 -31 8q-111 68 -141 264l-8 72q-53 -61 -106.5 -111.5t-106.5 -85.5q-133 -90 -256 -90q-147 0 -250 80t-154 229q-23 69 -33 147q-7 55 -7 118q0 25 1 51q6 170 55 342q27 86 62 166.5t78 152.5q23 35 44 64.5t44 58.5 q-94 -8 -219 -23.5t-265.5 -39t-289 -56.5t-291.5 -78q-328 -104 -500 -237q-176 -139 -177 -304q0 -7 1 -14q0 -25 -16.5 -43t-42.5 -20q-27 -2 -45.5 15.5t-18.5 43.5zM2654 723q45 82 84 164t68 160q23 53 37 101t20 89q8 34 8 61q-20 -18 -52 -70t-71 -155 q-29 -78 -53 -168t-41 -182z" />
<glyph unicode="V" horiz-adv-x="2940" d="M6 649q-1 11 -1 23q0 222 224 395q96 74 230.5 138.5t308.5 119.5q143 45 309 83t353 67q190 29 344.5 44t257.5 21q20 2 37.5 -9t23.5 -32q8 -18 2 -37.5t-22 -31.5q-100 -76 -182.5 -206t-129.5 -296q-47 -160 -51 -314v-29q0 -135 33 -241q78 -225 287 -225 q111 0 237 98q59 47 118.5 111.5t117.5 146.5q51 76 97 159t83 168t63.5 167t38.5 153q10 57 10.5 93t-4.5 55q-4 12 -8 24.5t-14 16.5q-25 8 -36 31.5t-1 46.5q8 25 30.5 36t47.5 0q29 -10 58.5 -37.5t43.5 -93.5q7 -33 7 -72q0 -54 -13 -120q-12 -78 -41 -167t-68.5 -179 t-89 -180.5t-104.5 -169.5q-127 -182 -262 -287q-157 -123 -311 -123q-147 0 -250 80t-154 229q-23 69 -33 147q-7 55 -7 118q0 25 1 51q6 170 55 342q27 86 62 166.5t78 152.5q23 35 44 64.5t44 58.5q-94 -8 -219 -23.5t-265.5 -39t-289 -56.5t-291.5 -78 q-328 -104 -500 -237q-176 -139 -177 -304q0 -7 1 -14q0 -25 -16.5 -43t-42.5 -20q-27 -2 -45.5 15.5t-18.5 43.5z" />
<glyph unicode="W" horiz-adv-x="3760" d="M8 649q-1 11 -1 23q0 222 224 395q96 74 230.5 138.5t308.5 119.5q143 45 309 83t353 67q190 29 344.5 44t257.5 21q20 2 37.5 -9t23.5 -32q8 -18 2 -37.5t-22 -31.5q-104 -78 -177 -200t-113 -261.5t-48 -282.5q-2 -36 -2 -70q0 -103 18 -194q6 -37 20.5 -84t39 -92 t61.5 -81t90 -48q25 -6 50 -6q32 0 62 9q56 17 107 52t94 78t74 78q33 39 68 86q-23 94 -27 200q-1 30 -1 60q0 75 7 151q6 59 17.5 115.5t27.5 103.5q37 106 92 158q49 49 107 49q27 0 55 -10q14 -4 31.5 -14t33 -29.5t27 -50.5t15.5 -74q1 -12 0 -25q0 -94 -39 -219 q-33 -111 -89.5 -224t-125.5 -218l6 -20q12 -39 29.5 -79t44 -76t61.5 -60.5t80 -32.5q28 -5 56 -5q95 0 196 60q131 78 254 242q82 111 143.5 238.5t93.5 256.5q32 121 32 224v18q-3 111 -40 188q-10 23 -2 47.5t31 34.5t47.5 2t34.5 -30q51 -106 51 -242v-13 q0 -120 -35 -259q-35 -141 -101.5 -279.5t-156.5 -257.5q-66 -88 -137.5 -156.5t-145.5 -113.5q-141 -83 -275 -83q-34 0 -67 5q-119 23 -200 119q-55 66 -88 153l-17 -18q-117 -139 -237 -207q-103 -55 -197 -55q-20 0 -38.5 3t-39.5 7q-121 31 -200 145q-70 98 -101 254 q-21 102 -21 215q1 41 3 83q10 159 55 313q45 158 127 290q37 59 76 107q-94 -8 -219 -23.5t-264.5 -39t-289 -56.5t-292.5 -78q-328 -104 -500 -237q-176 -139 -177 -304q0 -7 1 -14q0 -25 -16.5 -43t-42.5 -20q-27 -2 -45.5 15.5t-18.5 43.5zM2514 692v-18q0 -52 5 -103 q41 72 74 148t55 147q33 106 33 183v16q-2 16 -6 36.5t-19 24.5q-2 0 -4 1t-6 1q-10 0 -27 -14q-29 -27 -57.5 -99.5t-40.5 -201.5q-6 -61 -7 -121z" />
<glyph unicode="X" horiz-adv-x="1482" d="M-1 716.5q-7 24.5 5 47.5q0 2 15.5 30.5t43 76t65.5 107.5t85 126q254 360 467 420q42 12 81 12q72 0 136 -39q115 -72 164 -321q10 -47 17 -96.5t12 -102.5l489 436q18 16 44 15t42 -19q16 -20 15 -46t-19 -42l-557 -498l10 -135q10 -152 24.5 -308.5t44 -294.5 t80 -244.5t132.5 -159.5q113 -72 323 -77h34q200 0 476 54q115 25 218.5 52.5t181 51t124 39t48.5 15.5q23 10 46 -1t31 -36q10 -23 -1 -46.5t-35 -31.5q-4 -2 -52.5 -18.5t-128.5 -41t-184 -52t-223 -52.5q-141 -29 -265 -43t-231 -14q-279 0 -428 98q-102 66 -170 195 q-55 109 -92 268q-35 147 -50.5 311t-25.5 328l-4 41l-780 -701q-16 -14 -41 -14q-12 0 -24.5 5t-20.5 16q-16 18 -15.5 43.5t19.5 42.5l852 761q-8 78 -16.5 148t-20.5 131q-37 197 -109 240q-35 21 -73 21q-22 0 -45 -7q-84 -23 -185.5 -118t-214.5 -255 q-43 -61 -79.5 -120.5t-63.5 -104.5t-42 -73l-15 -29q-12 -23 -37 -30t-47 5q-23 10 -30 34.5z" />
<glyph unicode="Y" horiz-adv-x="1370" d="M2 621q6 170 55 342q27 86 62 166.5t78 152.5q47 78 101 139.5t116 106.5q20 16 44.5 12t41.5 -24q16 -20 12 -45t-25 -41q-102 -76 -183 -206t-128 -296q-47 -160 -52 -314q-1 -17 -1 -34q0 -132 35 -236q74 -225 284 -225q88 0 165 44t143.5 117.5t123 172t104.5 207 t89 221t78 215.5q31 86 58.5 161.5t53.5 135.5q10 23 34 33t46 -1q23 -10 34 -32.5t1 -44.5q-35 -98 -69.5 -239.5t-69.5 -301.5q-41 -188 -90 -390t-113 -378q-23 -61 -45 -113.5t-45 -99.5q16 -4 27 -8q121 -35 263 -72t296.5 -68.5t319.5 -52t333 -20.5q104 0 207.5 11 t200 29.5t181.5 40t152 44.5q150 47 240 86t92 39q23 10 46.5 2t35.5 -31q10 -23 1 -47.5t-32 -34.5q-2 -2 -27.5 -13.5t-70.5 -29.5t-108.5 -40.5t-139.5 -47.5q-72 -23 -161 -46.5t-189 -42t-208.5 -30.5t-219.5 -12q-307 0 -678 76q-160 33 -304 70.5t-263 72.5l-57 14 q-90 -137 -203 -190q-96 -41 -173 -41h-7q-80 2 -134 53q-41 41 -51 99q-3 17 -3 34q0 41 16 82q27 66 92 109q70 45 164 45q43 -2 103 -13.5t138 -33.5q25 47 48.5 101t45.5 120q35 96 65 199.5t56 214.5q-16 -31 -32.5 -62t-32.5 -59q-106 -174 -221 -264 q-139 -113 -306 -113q-145 0 -247.5 80t-153.5 229q-23 70 -33 147q-7 56 -7 118q0 25 1 51zM429 -339q3 -21 17 -34q21 -21 61 -21h9q48 3 107 32q70 33 129 112q-57 14 -101.5 22.5t-72.5 10.5h-3q-51 0 -87.5 -20.5t-51.5 -57.5q-10 -23 -7 -44z" />
<glyph unicode="Z" horiz-adv-x="2031" d="M4 684q4 63 22.5 154.5t65.5 195.5q37 78 86 147.5t111 127.5q141 131 348 200q73 25 147 29l54 2q47 0 96 -5q76 -7 152.5 -24.5t154.5 -35.5q104 -25 209.5 -46.5t216.5 -23.5h17q102 -1 208 21q114 24 238 92q23 12 46.5 5t35.5 -30t6 -47.5t-29 -36.5 q-102 -55 -212.5 -157.5t-227.5 -231.5t-237.5 -277.5t-239.5 -298.5q-139 -176 -269.5 -336.5t-254.5 -289.5q31 -6 62.5 -12.5t63.5 -10.5q160 -29 342.5 -60.5t370 -58t369.5 -44t338 -17.5q242 0 438.5 38t325.5 79q72 23 126 43t95 37q45 20 82 36q23 12 47 5t37 -29 q10 -23 3 -47.5t-30 -36.5q-4 -2 -88 -40t-233 -85q-68 -20 -155 -42t-188.5 -40t-218 -29.5t-241.5 -11.5q-160 0 -345.5 17.5t-376 44t-374.5 59.5t-344 61l-213 37q-45 -41 -85 -74.5t-79 -58.5q-137 -90 -239 -90q-98 0 -162 51q-31 25 -46.5 58.5t-15.5 70.5 q0 39 17.5 77t51.5 68.5t85 49t117 18.5q47 0 128 -10t187 -29l19.5 19.5l19.5 19.5q125 129 259 293t278 346q168 211 335.5 415t329.5 357q-74 -10 -144 -10h-24q-82 2 -160.5 12.5t-153.5 27.5t-147 34q-76 18 -146 34q-70 15 -136 22q-47 5 -91 5q-19 0 -39 -1 q-64 -3 -124 -23q-334 -109 -473 -412q-37 -80 -55 -160q-17 -79 -21 -147q-1 -25 -1 -47q0 -39 4 -72q7 -51 17 -78q10 -23 0 -46t-32 -34q-25 -10 -48.5 0.5t-33.5 32.5q-17 46 -25 112q-6 45 -5 94q0 24 1 48zM137 -332q0 -20 17 -35q28 -22 79 -22h5q92 0 245 125 q-66 10 -116.5 16t-81.5 6q-78 0 -113 -30.5t-35 -59.5z" />
<glyph unicode="[" horiz-adv-x="1175" d="M74 -172q-2 33 1 83t15 126q16 92 44 203.5t63 234.5q37 123 76.5 235.5t78.5 207.5q47 113 88 182t76 104q86 76 352 101q45 4 87 6t75 3t52.5 1h21.5q27 0 44 -18.5t17 -43.5q0 -27 -18.5 -44t-42.5 -17q-2 0 -69.5 -1t-155.5 -9q-76 -6 -127.5 -16.5t-83 -20.5 t-47 -18.5t-21.5 -14.5q-12 -10 -44 -58t-87 -175q-37 -88 -76 -196t-74 -224q-35 -117 -61.5 -224.5t-42.5 -195.5q-10 -61 -14 -101t-5 -66t1 -38t2 -14q2 -2 15 -8.5t44 -10.5t83 -6t132 4q47 4 93 9.5t81 9.5q41 6 76 12q27 4 47.5 -10.5t24.5 -40.5q4 -25 -10.5 -45.5 t-39.5 -24.5q-2 0 -25.5 -4t-60 -9t-85 -10t-99.5 -10q-31 -2 -59.5 -3t-55.5 -1t-49 1t-45 3q-123 12 -166 70q-10 12 -17 30.5t-9 51.5z" />
<glyph unicode="]" horiz-adv-x="1177" d="M12 -264q0 27 18.5 44t43.5 17h20q19 0 49.5 1t71.5 3t84 6q76 6 127 16.5t83 21t47 18.5t22 14q12 10 43.5 58.5t87.5 175.5q37 88 75.5 195.5t73.5 223.5q35 117 61.5 224.5t43.5 195.5q20 121 19 167t-3 52q-4 2 -17.5 7.5t-44 10.5t-82 7t-130.5 -4q-49 -4 -94.5 -9 t-80.5 -10q-41 -6 -75 -12q-27 -4 -47.5 10.5t-24.5 40.5q-4 25 10.5 45.5t38.5 24.5q2 0 25.5 4t60.5 9t85 10.5t99 9.5q31 2 60 3t55 1q27 0 49.5 -1t44.5 -3q123 -12 166 -70q8 -12 16.5 -30.5t10.5 -51.5t-1 -83t-16 -126q-16 -92 -43.5 -203.5t-62.5 -234.5 q-37 -123 -77 -235.5t-79 -206.5q-47 -113 -88 -182.5t-75 -104.5q-86 -76 -353 -100q-47 -4 -89 -6.5t-73.5 -3.5t-51 -1h-21.5q-27 0 -44.5 18.5t-17.5 43.5z" />
<glyph unicode="_" horiz-adv-x="743" d="M80 -266q8 25 29.5 38t46.5 5t91 -10.5t140 0t135.5 5.5t77.5 7q27 4 46.5 -11.5t25.5 -39.5q4 -40 -27 -60q-6 -4 -11 -7t-16 -3q-4 0 -35.5 -3t-78.5 -5t-102.5 -4t-109.5 -2t-99.5 3t-69.5 11q-27 8 -39 29.5t-4 46.5z" />
<glyph unicode="`" horiz-adv-x="446" d="M60.5 1310q2.5 23 25.5 40q20 16 45 13t41 -24q14 -20 41 -42.5t56.5 -42t55 -35t40.5 -21.5q23 -12 29.5 -36.5t-3.5 -47.5q-20 -33 -55 -33q-14 0 -29 9q-6 2 -34.5 18t-64.5 39.5t-73 54.5t-61 62q-16 23 -13.5 46z" />
<glyph unicode="a" horiz-adv-x="972" d="M-33 145q-10 38 -10 82q0 62 20 138q29 102 85.5 192t134.5 162q73 69 147 99q50 21 94 21q20 0 39 -5q12 -4 32.5 -14.5t38.5 -33.5q20 -24 28 -65q3 -15 3 -33q0 -31 -10 -72q-4 -25 -25.5 -39t-45.5 -8q-25 4 -39.5 25.5t-7.5 46.5q6 33 5 48.5t-3 19.5q-4 6 -7 6 q-3 1 -7 1q-18 0 -55 -14q-46 -18 -105 -73q-63 -59 -111.5 -136t-71.5 -161q-17 -58 -16 -104q0 -16 2 -32q8 -56 43 -69q10 -3 22 -3q17 0 41 6q40 11 97 56q45 39 108.5 119t128.5 227q10 23 31.5 32t44.5 1q23 -10 34 -30.5t5 -42.5q-40 -150 -40 -236q0 -89 24 -119 q4 -6 12 -11t24 -5q37 0 89.5 39t111.5 110q51 61 83 111.5t32 52.5q12 23 36.5 29t47.5 -6q23 -14 29 -38t-7 -46q0 -2 -10 -17.5t-26.5 -41t-40 -57.5t-50.5 -64q-33 -41 -65.5 -73t-63.5 -57q-88 -65 -166 -65q-86 0 -133 63q-43 55 -49 150q-27 -35 -55.5 -64.5 t-57.5 -54.5q-72 -59 -141 -80q-39 -13 -74 -13q-33 0 -63 11q-43 16 -72.5 51t-44.5 84z" />
<glyph unicode="b" horiz-adv-x="794" d="M-94 74l370 1310q6 25 29 37.5t47 5.5q25 -8 37 -29.5t6 -45.5l-188 -662q33 33 63 58q74 57 148 79q38 12 73 11.5t68 -11.5q90 -35 119 -135q13 -41 13 -89q0 -60 -21 -130q-29 -100 -84.5 -191.5t-132.5 -162.5q-63 -57 -127 -88t-117 -31q-16 0 -37 4 q-12 2 -33.5 13.5t-40 35t-26.5 64.5q-3 15 -4 33q0 31 10 71q4 27 25.5 40t46.5 7q27 -4 40 -25.5t7 -45.5q-6 -33 -5 -48.5t3 -19.5t3 -4t3 -2q3 -1 7 -1q18 0 55 16q46 18 106 73q66 57 112.5 134t69.5 161q15 56 15 91q0 34 -5 62q-12 39 -43 52q-13 4 -29 4 q-22 -1 -49 -9q-45 -14 -92 -55q-47 -37 -111.5 -116.5t-130.5 -227.5q-4 -6 -6 -10t-6 -8l-69 -248q-14 -45 -60 -45q-10 0 -16 2q-25 8 -37 29.5t-6 46.5z" />
<glyph unicode="c" horiz-adv-x="751" d="M-20 360q18 96 64 184.5t114 160.5q63 66 133.5 103.5t132.5 37.5q53 0 91 -34t52 -93q6 -25 6 -52v-14q-2 -35 -12 -67q-25 -80 -86 -109q-23 -10 -47.5 -2t-34.5 31t-2 47.5t31 34.5q12 6 22 38q6 17 6 34q0 15 -4 32q-4 23 -11 27t-11 4q-29 0 -76 -22.5t-102 -79.5 q-55 -59 -92 -132t-54 -151q-5 -29 -5 -54q0 -60 30 -96q51 -61 178 -61q174 0 328 149q29 29 50 56.5t38 50.5q18 25 31 49q12 23 36.5 31t47.5 -4t29.5 -36t-5.5 -46q0 -2 -9 -18.5t-26.5 -42t-44 -58.5t-59.5 -65q-92 -92 -197.5 -140.5t-218.5 -48.5q-186 0 -274 107 q-27 33 -47 93q-11 31 -11 72q0 38 9 84z" />
<glyph unicode="d" horiz-adv-x="985" d="M-31 145q-10 37 -10 80q0 63 21 140q29 102 85 192t134 162q73 69 147 99q50 21 94 21q20 0 39 -5q8 -2 23.5 -8.5t31 -20.5t28.5 -35.5t18 -54.5q29 90 62.5 182t69.5 180t69.5 168t62.5 148q10 23 33.5 33t46.5 -1q25 -10 34 -34.5t-2 -47.5q-96 -221 -163.5 -397 t-110.5 -317q-59 -193 -72 -312q-6 -47 -6 -79q0 -26 4 -42q8 -38 19 -53q4 -8 15 -15t34 -7q37 0 88 39t108 110q25 29 44.5 58.5t35.5 52.5q18 27 33 51q12 23 36.5 30t47.5 -5t29 -37t-6 -47q0 -2 -9.5 -17.5t-26 -41t-39 -57.5t-48.5 -64q-63 -78 -127 -130 q-87 -65 -164 -65h-2q-63 0 -99 25.5t-55 52.5q-16 29 -26.5 62.5t-12.5 78.5q-29 -37 -58.5 -67.5t-59.5 -57.5q-72 -59 -142 -80q-37 -12 -71 -12q-18 0 -34 3t-32 7q-43 16 -72.5 51t-44.5 84zM84 196q8 -56 43 -69q10 -3 23 -3q18 0 41 6q41 11 96 56q45 39 108.5 119 t128.5 227q0 2 4 7q4 20 9 34q-20 -10 -37 -4q-25 4 -39.5 25.5t-7.5 46.5q6 33 5 48.5t-3 19.5q-4 6 -6 6q-3 1 -7 1q-18 0 -56 -14q-46 -18 -105 -73q-63 -59 -111.5 -136t-71.5 -161q-17 -58 -17 -104q1 -17 3 -32z" />
<glyph unicode="e" horiz-adv-x="753" d="M-18 360q18 94 63 181.5t115 158.5q59 61 128.5 100.5t129.5 45.5q12 1 23 1q41 -1 73 -17q41 -22 61 -68q13 -32 14 -72q-1 -30 -9 -64q-18 -79 -70 -159q-35 -51 -81 -94t-99 -74q-100 -61 -226 -72q27 -59 84.5 -79.5t116.5 -20.5q176 0 326 149q29 29 51.5 56.5 t38.5 50.5q18 25 31 49q12 23 36.5 31t47.5 -4t29.5 -36t-5.5 -46q0 -2 -9 -18.5t-26.5 -42t-44 -58.5t-59.5 -65q-92 -92 -197.5 -140.5t-218.5 -48.5q-186 0 -274 107q-27 33 -47 93q-11 31 -11 72q0 38 9 84zM104 350q92 10 171 58.5t133 128.5q39 57 51 106q7 27 7 46 q0 16 -5 26q-1 10 -21 10q-6 0 -10 -2q-29 -4 -79 -28.5t-103 -80.5q-53 -55 -90 -122.5t-54 -141.5z" />
<glyph unicode="f" horiz-adv-x="790" d="M-129 -455q0 27 17.5 44.5t43.5 17.5q2 0 10.5 7t23 30.5t34.5 68.5t45 121q35 104 66.5 233.5t66.5 270.5h-129q-25 0 -43 18.5t-18 42.5q0 27 18.5 44.5t42.5 17.5h160q39 164 80 319.5t88 284.5q29 84 58.5 144.5t60.5 105.5q84 115 180 115q66 0 104 -52 q52 -65 52 -214q0 -56 -7 -124q-8 -88 -20 -152.5t-12 -68.5q-6 -25 -28 -38t-46 -9q-25 6 -39 27.5t-8 46.5q0 2 12 63.5t21 143.5q5 60 5 102v13q-1 46 -5.5 75t-10.5 42t-10 18q-2 4 -8 4q-35 0 -80 -64q-49 -70 -102 -219q-43 -119 -82 -264.5t-76 -298.5h477 q25 0 43 -17.5t18 -44.5q0 -25 -18 -43t-43 -18h-508q-39 -160 -74.5 -304.5t-74.5 -260.5q-43 -123 -86 -193q-59 -96 -138 -96q-25 0 -43 18.5t-18 42.5z" />
<glyph unicode="g" horiz-adv-x="745" d="M-35 145q-11 41 -11 86q0 62 21 134q29 102 84.5 192t133.5 162q76 68 149 99q51 20 94 20q19 0 37 -4q12 -4 33.5 -14.5t40 -34t27.5 -64.5q3 -15 3 -33q0 -31 -10 -72q-4 -25 -25.5 -39t-45.5 -8q-27 4 -40.5 25.5t-6.5 46.5q6 33 5 48.5t-3 19.5q-4 6 -7 6q-3 1 -7 1 q-18 0 -55 -14q-46 -18 -106 -73q-66 -59 -112.5 -136t-69.5 -161q-17 -58 -17 -104q0 -17 3 -32q8 -57 43 -69q11 -5 26 -5q16 0 37 6q41 11 97 58q45 37 107.5 117t127.5 227q10 23 31.5 32t44.5 3q23 -8 34 -29.5t7 -43.5q-16 -66 -35.5 -143t-43.5 -158.5t-51.5 -164.5 t-58.5 -159q-63 -164 -133 -258q-94 -125 -192 -125q-27 0 -44.5 18.5t-17.5 42.5q0 27 17.5 44.5t44.5 17.5q37 0 92 74q59 82 121 231q23 53 42 111.5t38 117.5l-26.5 -26.5t-27.5 -22.5q-74 -61 -141 -82q-38 -12 -72.5 -12t-64.5 12q-88 31 -117 135z" />
<glyph unicode="h" horiz-adv-x="880" d="M-117 76q0 2 20.5 65.5t55.5 169t81 241.5t98 281.5t107.5 290t110.5 269.5q10 23 34 33t46 -1q25 -10 34 -34.5t-1 -47.5q-39 -90 -79 -190t-80 -205.5t-77.5 -211t-70.5 -204.5q76 106 141 179q121 133 211 133q37 0 58.5 -13.5t31.5 -27.5q26 -35 26 -87q0 -17 -2 -36 q-12 -76 -40 -197q-6 -20 -11.5 -39.5t-9.5 -42.5q-31 -117 -39 -188q-4 -45 -1 -62.5t8 -21.5q4 -4 15 -6t19 -2q35 0 86.5 38t110.5 109q49 61 81 112.5t32 53.5q12 23 36.5 29t47.5 -6t28.5 -37t-6.5 -47q0 -2 -9 -17.5t-25.5 -41t-39 -57.5t-49.5 -64q-66 -80 -127 -127 q-86 -68 -166 -68q-88 0 -131 55q-25 31 -31 71q-3 23 -3 48q0 19 2 40q4 48 15 103.5t25 114.5l23 84q10 45 19.5 82t13.5 68q4 23 5 36t1 19q-8 -2 -29.5 -14.5t-57.5 -48t-88 -100t-122 -171.5q-45 -66 -84 -129t-68.5 -113.5t-46.5 -82.5l-16 -31q-20 -33 -55 -33 q-14 0 -23 6q-23 10 -33 30.5t-2 43.5z" />
<glyph unicode="i" horiz-adv-x="485" d="M-6 383q25 166 115 422q8 25 30.5 36t46.5 3q25 -10 36 -33t1 -47q-59 -172 -85 -287t-32 -185q-2 -28 -3 -50q-1 -34 5 -54q8 -34 17 -47q6 -8 16.5 -14t32.5 -6q37 0 88 38t109 109q25 31 44 60.5t36 52.5q18 27 32 51q12 23 37 30t47 -5q23 -12 30 -37t-5 -47 q0 -2 -10.5 -17.5t-26.5 -41t-38.5 -57.5t-49.5 -64q-63 -78 -127 -130q-88 -65 -166 -65q-59 0 -95 23.5t-52 48.5q-46 63 -46 177q0 61 13 136zM162 1030q8 25 31.5 44.5t50.5 19.5q27 2 39 -14.5t4 -43.5t-32 -45t-50 -20q-25 -2 -38 15.5t-5 43.5z" />
<glyph unicode="j" horiz-adv-x="307" d="M-434 -455q0 27 17.5 44.5t43.5 17.5q16 0 31.5 11t28.5 24q45 45 86 125q78 147 157 411q33 113 60.5 221.5t47 194.5t30 139t10.5 55q4 25 25.5 39.5t46.5 10.5t39 -25.5t10 -46.5q0 -2 -10.5 -56.5t-31 -141.5t-48 -198.5t-60.5 -226.5q-41 -137 -84 -245.5 t-84 -188.5q-119 -225 -254 -225q-27 0 -44 18.5t-17 42.5zM121 1030q8 25 31.5 44.5t50.5 19.5q27 2 39 -14.5t4 -43.5t-32 -45t-50 -20q-25 -2 -38 15.5t-5 43.5z" />
<glyph unicode="k" horiz-adv-x="827" d="M-100 74l368 1310q8 25 29.5 38.5t46.5 4.5q25 -6 38 -28.5t5 -46.5l-170 -604q37 20 78 38q25 10 57.5 22.5t71.5 22t80 12.5q11 1 22 1l60 -6q123 -25 153 -140q4 -19 4 -41q0 -20 -3 -43q-7 -49 -54 -104q-39 -43 -96.5 -78t-120.5 -57q39 -47 40 -103v-23 q0 -43 -3 -79q0 -10 -1 -24.5t-1 -24.5q41 0 96 39t115 110q25 31 44 60.5t36 52.5q18 27 32 51q12 23 36.5 30t47.5 -5t30 -37t-7 -47q0 -2 -9.5 -17.5t-25.5 -41t-39.5 -58.5t-50.5 -65q-160 -195 -305 -195q-61 0 -92 37q-29 29 -30 67v16q0 31 3 64q3 28 3 55v13 q-1 33 -17 51q-10 10 -27.5 19.5t-52.5 13.5q-20 -2 -39 -2q-27 0 -49 4q-25 4 -41.5 22.5t-14.5 44.5q2 25 20.5 42.5t43.5 17.5q23 0 43 -1t39 -3q59 6 123 28q59 20 105 48t73 57t28 48t-4 28q-4 16 -14 29.5t-43 19.5q-17 3 -35 3q-30 0 -68 -8q-58 -14 -115.5 -39.5 t-103.5 -57t-67 -58.5l-12 -14l-144 -502q-4 -20 -20 -32.5t-39 -12.5q-4 0 -8 1t-8 1q-25 8 -37.5 29.5t-3.5 46.5z" />
<glyph unicode="l" horiz-adv-x="483" d="M-17 294q9 142 78 372q31 96 67 195.5t73 193.5t73.5 180t67.5 158q10 23 33.5 33t48.5 -1q23 -10 32 -34.5t-1 -47.5q-190 -438 -275 -712q-59 -190 -71 -314q-6 -47 -5 -79q0 -26 3 -42q8 -38 18 -53q4 -8 15.5 -15t33.5 -7q37 0 88 39t109 110q25 31 45 59.5t35.5 51 t23.5 37.5l8 16q12 23 37 29t47 -6q23 -12 30 -37t-7 -47q0 -2 -9.5 -17.5t-25.5 -41t-38.5 -57.5t-49.5 -64q-66 -80 -127 -127q-86 -68 -166 -68q-63 0 -99 25.5t-52 52.5q-41 64 -41 176q0 20 1 42z" />
<glyph unicode="m" horiz-adv-x="1386" d="M-121 76q0 2 20.5 62.5t54.5 159.5t79 230t96 275q8 23 31.5 34t46.5 3q25 -10 36 -33t1 -47l-76 -215q35 49 68.5 90t62.5 76q63 68 113.5 100.5t97.5 32.5q25 0 44 -11.5t36 -29.5q10 -14 18 -39t12 -68q2 -19 1 -42q-1 -30 -3 -66q-4 -66 -22 -164l20 29 q53 82 102.5 146.5t92.5 111.5q63 68 113.5 100.5t97.5 32.5q37 0 58.5 -13.5t33.5 -27.5q26 -35 26 -87q0 -17 -2 -36q-12 -76 -42 -197l-21 -82q-14 -59 -24.5 -105t-14.5 -83q-4 -45 0 -62.5t8 -21.5t14.5 -6t18.5 -2q37 0 88.5 38t108.5 109q25 31 44 60.5t36 52.5 q18 27 32 51q12 23 37 30t47 -5q23 -12 30 -37t-5 -47q-2 -2 -11 -17.5t-25.5 -41t-39 -57.5t-49.5 -64q-63 -78 -127 -130q-87 -65 -164 -65h-2q-86 0 -131 55q-23 31 -30 71q-4 24 -4 52q0 18 2 36q4 48 16 103.5t26 114.5l21 84q10 45 19.5 82t15.5 68q4 23 4 35v20 q-8 -2 -28.5 -14.5t-56.5 -48t-88 -100t-124 -171.5q-43 -66 -83 -129t-68.5 -113.5t-45.5 -82.5l-18 -31q-10 -23 -32.5 -31t-45.5 2t-33 31.5t-2 44.5q4 12 12.5 45t19.5 78t23.5 99t22.5 114q14 74 20.5 126t8.5 88t1 57.5t-3 31.5q-12 -6 -35 -22.5t-58.5 -53.5 t-84 -98.5t-111.5 -155.5q-43 -66 -83 -129t-68.5 -113.5t-45.5 -82.5l-18 -31q-8 -16 -22.5 -24.5t-30.5 -8.5q-12 0 -25 6q-23 10 -33 30.5t-2 43.5z" />
<glyph unicode="n" horiz-adv-x="878" d="M-119 78l19 60q20 61 54 160t79 230t96 275q10 23 32.5 35t47.5 2q23 -10 35 -33t2 -45q-20 -57 -40 -110.5t-36 -106.5q35 49 67.5 90t63.5 76q121 133 211 133q37 0 58.5 -13.5t31.5 -27.5q26 -35 26 -87q0 -17 -2 -36q-12 -76 -40 -197q-6 -20 -11.5 -39.5t-9.5 -42.5 q-31 -117 -39 -188q-4 -45 -1 -62.5t7 -21.5t15.5 -6t19.5 -2q35 0 87.5 39t109.5 110q25 31 45 59.5t35.5 51t23.5 37.5l9 16q12 23 36.5 29t47.5 -6t28.5 -37t-6.5 -47q0 -2 -9 -17.5t-25.5 -41t-39 -57.5t-49.5 -64q-66 -80 -127 -127q-86 -68 -166 -68q-88 0 -131 55 q-25 31 -31 71q-3 23 -3 48q0 19 2 40q4 48 15 103.5t25 114.5l23 84q10 45 19.5 82t13.5 68q4 23 5 36t1 19q-8 -2 -29.5 -14.5t-57.5 -48t-88 -100t-122 -171.5q-45 -66 -84 -129t-68.5 -113.5t-46.5 -82.5l-16 -31q-20 -33 -55 -33q-12 0 -25 6q-23 10 -32 31.5t-1 44.5z " />
<glyph unicode="o" d="M-37 260q0 68 22.5 143.5t63.5 143.5q37 66 88 106q41 35 78 43q8 20 14 29q74 121 189 121q102 0 160 -109q40 -84 40 -201v-6q0 -131 -43 -243q80 23 154 69q49 33 77 59.5t28 28.5q16 18 41.5 19.5t44.5 -14.5q20 -16 21 -42t-15 -45q-4 -4 -35 -34.5t-86 -67.5 t-131 -69.5t-168 -38.5q-47 -61 -103 -101q-84 -53 -182 -53q-80 0 -128 25.5t-70 54.5q-59 70 -60 182zM86 260q0 -23 6 -51.5t23 -50.5q33 -37 106 -37q76 0 135 49q-68 27 -118 94q-33 45 -50.5 104.5t-17.5 125.5v16l-16 -27q-31 -53 -49.5 -112.5t-18.5 -110.5z M293 494q0 -96 45 -158q35 -49 100 -62q29 55 43.5 122t14.5 134q0 82 -21.5 137.5t-56.5 55.5q-29 0 -54.5 -24.5t-41.5 -65.5q-3 -9 -11 -25q-8 -25 -13 -53.5t-5 -60.5z" />
<glyph unicode="p" horiz-adv-x="761" d="M-248 -438l348 1231q6 25 29 37t47 6q25 -8 37 -30t6 -46l-18 -66l27.5 27.5t29.5 26.5q74 57 148 79q38 11 73 11t68 -11q90 -35 119 -135q13 -41 13 -87q0 -61 -22 -132q-29 -100 -84 -191.5t-133 -162.5q-63 -57 -126.5 -88t-116.5 -31q-16 0 -37 4q-12 2 -33 12.5 t-39 33t-28 61.5q-4 19 -4 43q0 25 5 55l-190 -680q-14 -45 -59 -45q-10 0 -17 2q-25 8 -37 29.5t-6 46.5zM72 238q16 32 47 32q8 0 18 -2q27 -4 40 -25.5t7 -45.5q-6 -33 -5 -48.5t3 -19.5t3 -4t3 -2q3 -1 7 -1q17 0 55 16q47 18 106 73q66 57 113 134t70 161q15 56 15 91 q0 34 -5 62q-12 39 -43 52q-13 4 -29 4q-22 0 -49 -9q-45 -14 -92 -55q-47 -37 -111.5 -116.5t-130.5 -227.5q-4 -8 -8 -12z" />
<glyph unicode="q" d="M-86 -10q-8 25 4 46t37 30q25 6 47.5 -5.5t28.5 -33.5q4 -4 20.5 -11.5t67.5 -13.5q45 -4 98 -5h36q36 0 75 1q78 0 154.5 -1t144.5 -11q39 -6 69.5 -16.5t55.5 -22.5q66 -39 84 -103q8 -25 -4 -46t-37 -29t-46.5 4t-29.5 37t-43 37t-70 18q-59 10 -132 10h-144 q-35 -1 -67.5 -1t-62.5 1q-61 2 -114 8q-14 2 -38.5 6.5t-51.5 15.5t-50.5 31.5t-31.5 53.5zM-37 260q0 68 22.5 143.5t63.5 143.5q37 66 88 106q41 35 78 43q8 20 14 29q74 121 189 121q102 0 160 -109q40 -84 40 -201v-6q0 -131 -43 -243q80 23 154 69q49 33 77 59.5 t28 28.5q16 18 41.5 19.5t44.5 -14.5q20 -16 21 -42t-15 -45q-4 -4 -35 -34.5t-86 -67.5t-131 -69.5t-168 -38.5q-47 -61 -103 -101q-84 -53 -182 -53q-80 0 -128 25.5t-70 54.5q-59 70 -60 182zM86 260q0 -23 6 -51.5t23 -50.5q33 -37 106 -37q76 0 135 49q-68 27 -118 94 q-33 45 -50.5 104.5t-17.5 125.5v16l-16 -27q-31 -53 -49.5 -112.5t-18.5 -110.5zM293 494q0 -96 45 -158q35 -49 100 -62q29 55 43.5 122t14.5 134q0 82 -21.5 137.5t-56.5 55.5q-29 0 -54.5 -24.5t-41.5 -65.5q-3 -9 -11 -25q-8 -25 -13 -53.5t-5 -60.5z" />
<glyph unicode="r" horiz-adv-x="933" d="M-61 788q-9 33 -9 65q0 35 11 69q16 47 51 78.5t78 35.5h10q79 0 127 -86q39 -72 39 -163q0 -29 -4 -60l-6 -35q11 -1 22 -1q26 1 54 7q40 10 87 27q37 16 70 34.5t55 35.5q27 18 51 36q16 14 38 15.5t38 -10.5t23.5 -32t-0.5 -40q-59 -172 -86 -287t-32 -185 q-2 -27 -2 -49q0 -35 5 -55q8 -34 16 -47q6 -8 16.5 -14t33.5 -6q37 0 88 39t108 110q25 29 44.5 58.5t35.5 52.5q18 27 33 51q12 23 36.5 30t47.5 -5t30 -37t-8 -47q0 -2 -9 -17.5t-25.5 -41t-39 -57.5t-48.5 -64q-63 -78 -127 -130q-88 -65 -166 -65q-59 0 -95 23.5 t-55 48.5q-44 61 -44 174q0 62 13 139q14 106 60 256q-25 -12 -58 -27q-106 -44 -199 -44q-24 0 -46 3q-4 -14 -9.5 -27.5t-11.5 -27.5q-20 -47 -41.5 -88t-40 -71.5t-31 -48t-14.5 -19.5q-14 -23 -38.5 -27t-45.5 12q-23 16 -26.5 40t12.5 46l10 16q10 17 27.5 45t37 64.5 t38.5 79.5l18 45q-35 20 -59 43q-68 61 -88 135zM53 863.5q-2 -13.5 1 -32t15.5 -41t39.5 -47.5l10 -6q2 23 2 47q0 17 -1 34q-3 40 -22 75q-4 4 -7 8t-5 8l-4 4q-4 0 -11.5 -7t-13.5 -23q-2 -6 -4 -19.5z" />
<glyph unicode="s" horiz-adv-x="714" d="M-56.5 317.5q-4.5 24.5 9.5 44.5q2 2 40 62.5t85 142.5q41 72 64.5 122t35.5 82t15.5 48.5t3.5 22.5q0 23 15 40t40 21q23 2 42 -12t23 -37q6 -27 36 -55.5t65 -59.5q31 -29 64.5 -59.5t61 -68.5t46 -84t18.5 -103q0 -125 -39 -202t-80 -118q-49 -47 -112 -74.5 t-131 -27.5q-41 0 -78 11.5t-66 31.5q-69 50 -69 133q0 29 17.5 46.5t43.5 17.5q27 0 44.5 -17.5t17.5 -44.5q0 -33 32.5 -44t57.5 -11q90 0 157 68q82 82 82 231q0 72 -45 123t-102 100l-57 49q-16 -35 -39 -82t-58 -108q-47 -86 -86 -146.5t-43 -64.5q-14 -23 -38.5 -27 t-45.5 11q-23 14 -27.5 38.5z" />
<glyph unicode="t" horiz-adv-x="481" d="M-20 294q10 142 79 372q29 90 61 180t66 180l-65 -14h-12q-23 0 -39.5 13t-20.5 36q-4 25 9.5 46t37.5 26l146 30q27 63 51 120.5t47 109.5q10 23 33.5 33t46.5 -1q25 -10 34 -34.5t-1 -47.5l-66 -151l260 53q25 4 46.5 -10t27.5 -39q4 -25 -10.5 -46.5t-38.5 -25.5 l-340 -69q-49 -123 -87 -228.5t-67 -197.5q-59 -193 -72 -312q-5 -45 -5 -77q-1 -26 3 -44q8 -38 19 -53q4 -8 15.5 -15t33.5 -7q37 0 88 39t109 110q25 29 44 58.5t36 52.5q18 27 32 51q12 23 37 30t47 -5q23 -12 29 -37t-6 -47q0 -2 -9.5 -17.5t-25.5 -41t-38.5 -57.5 t-49.5 -64q-63 -78 -127 -130q-87 -65 -164 -65h-2q-63 0 -99 25.5t-55 52.5q-40 63 -40 170q0 23 2 48z" />
<glyph unicode="u" horiz-adv-x="929" d="M-8 383q14 86 41.5 190.5t72.5 231.5q8 25 31 36t47 3q25 -10 36 -33t1 -47q-59 -172 -85 -287t-32 -185q-2 -27 -3 -49q-1 -35 5 -55q8 -34 19 -47q4 -8 14.5 -14t32.5 -6q35 0 82 38t94 107q23 29 39 58.5t29 52.5q14 27 26 51q4 8 9 12q31 158 104 365q8 25 30.5 36 t47.5 3q25 -10 36 -33t1 -47q-59 -172 -86 -287t-32 -185q-2 -27 -2 -48q0 -34 5 -56q8 -34 18 -47q4 -8 14.5 -14t33.5 -6q37 0 88 39t110 110q25 31 45.5 59.5t34.5 51t23 37.5l8 16q14 23 37.5 29t46.5 -6t30 -37t-6 -47q0 -2 -10 -17.5t-26.5 -41t-39 -57.5t-49.5 -64 q-66 -80 -127 -127q-86 -68 -165 -68q-59 0 -95.5 23.5t-52.5 48.5q-31 41 -39 104q-133 -176 -262 -176q-59 0 -95 23.5t-52 48.5q-46 63 -46 177q0 61 13 136z" />
<glyph unicode="v" horiz-adv-x="704" d="M-8 383q25 166 114 422q8 25 31 36t47 3q23 -10 35 -33t2 -47q-59 -172 -85 -287t-32 -185q-2 -27 -3 -49q-1 -35 5 -55q8 -34 17 -47q6 -8 16.5 -14t32.5 -6q33 0 93.5 47t121.5 139q33 47 61.5 104.5t47 119t21.5 121.5v15q0 51 -17 95q-10 25 1 47t34 33 q25 10 47 -0.5t32 -34.5q25 -64 24 -141q0 -70 -20 -152q-39 -143 -129 -274q-72 -102 -149 -168q-90 -74 -168 -74q-59 0 -95 23.5t-52 48.5q-46 63 -46 177q0 61 13 136z" />
<glyph unicode="w" horiz-adv-x="1155" d="M-8 383q27 166 114 422q8 25 31 36t47 3q25 -10 36 -33t3 -47q-61 -172 -87 -287t-32 -185q-3 -30 -3 -53q-1 -31 5 -51q8 -34 19 -47q4 -8 14.5 -14t32.5 -6q35 0 82 38t96 107q20 29 38 58.5t30 52.5q14 27 24 51l11 14q31 154 104 363q8 25 30.5 36t47.5 3 q23 -10 35 -33t2 -47q-59 -172 -86 -287t-32 -185q-2 -27 -2 -48q0 -34 5 -56q8 -34 16 -47q6 -8 16.5 -14t33.5 -6q33 0 93 47t122 139q33 47 61.5 104.5t47 119t21.5 121.5v14q0 51 -18 96q-10 25 1.5 47t33.5 33q25 10 47.5 0t32.5 -35q25 -64 24 -141q0 -70 -20 -152 q-39 -143 -129 -274q-72 -102 -149 -168q-90 -74 -168 -74q-59 0 -95 23.5t-53 48.5q-29 39 -41 106q-129 -178 -262 -178q-59 0 -95 23.5t-52 48.5q-46 65 -46 179q0 60 13 134z" />
<glyph unicode="x" horiz-adv-x="985" d="M-2 389q-8 25 4 47q2 4 33 59.5t82 127.5q145 203 268 237q26 7 52 7q46 0 87 -23q29 -18 45.5 -44t25.5 -52.5t12 -51t5 -37.5q0 -10 1 -22t1 -25l242 236q18 18 44 18t42 -18q18 -18 17 -44t-17 -44l-334 -326v-2q-4 -51 -7 -102q-1 -22 -1 -42q0 -27 2 -52 q4 -51 11.5 -74t15.5 -31q4 -4 11 -8t22 -4q88 0 210 151q25 31 45.5 60.5t36.5 52.5q18 27 31 51q12 23 36.5 30t47.5 -5t30 -37t-5 -47q0 -2 -9.5 -17.5t-26 -41t-40 -58.5t-49.5 -65q-160 -197 -307 -197q-76 0 -123 51q-41 43 -53 111q-10 58 -9 125v24l-297 -293 q-20 -16 -43 -16q-27 0 -45 18q-16 18 -16 44t18 42l393 387q3 43 5 84q0 9 1 19q0 30 -4 57q-4 51 -14 67.5t-16 20.5t-15.5 7.5t-25.5 -1.5q-12 -4 -30.5 -13t-43.5 -30.5t-56.5 -56.5t-70.5 -90q-47 -66 -75.5 -119t-30.5 -53q-10 -23 -35 -31t-47 4q-23 10 -31 35z" />
<glyph unicode="y" horiz-adv-x="751" d="M-10 383q27 166 114 422q10 25 33 36t47 3q23 -10 34 -33t3 -47q-59 -172 -85.5 -287t-33.5 -185q-2 -31 -2 -55q0 -31 4 -49q9 -34 19 -47q6 -8 16.5 -14t32.5 -6q35 0 81 38t95 107q20 29 37.5 58.5t30.5 52.5q14 27 26 51l7 12q18 74 32.5 136.5t23.5 108.5t14 73 l5 28q4 27 25.5 41.5t46.5 10.5q27 -4 40 -25.5t9 -46.5q0 -2 -10 -56.5t-29.5 -141.5t-47.5 -198.5t-62 -226.5q-41 -137 -83 -245.5t-85 -188.5q-119 -225 -254 -225q-25 0 -43.5 18.5t-18.5 42.5q0 27 18.5 44.5t43.5 17.5q16 0 32.5 11t28.5 24q43 47 84 125 q66 119 127 311q-90 -80 -174 -80q-59 0 -95 23.5t-54 48.5q-45 62 -45 179q0 60 12 134z" />
<glyph unicode="z" horiz-adv-x="944" d="M-14 498q2 74 37 149q35 74 94 125t139 78q47 16 92 16q20 0 38 -2q64 -10 126 -26q39 -10 78 -17.5t77 -8.5h8q33 0 69 8q40 9 83 32q23 12 47.5 5t36.5 -30t5 -47t-29 -37q-37 -20 -80 -60t-89 -90t-92 -107.5t-91 -112.5q-47 -59 -90.5 -111.5t-79.5 -93.5 q57 -18 115.5 -33.5t117.5 -15.5q33 0 65.5 14t63.5 37t57.5 49.5t49.5 52.5q25 31 45 59.5t34.5 51.5t22.5 38l8 15q12 23 36.5 30t47.5 -5t30 -36t-5 -46q-2 -4 -35 -60.5t-90 -125.5q-168 -197 -330 -197q-84 0 -165 22.5t-148 44.5l-19 7q-86 -74 -151 -74h-4 q-59 0 -88 28.5t-33 63.5v8q0 44 39 84q39 33 94 41q23 4 50.5 1t59.5 -13h3q47 47 97 109.5t105 130.5q51 63 101.5 125.5t101.5 115.5q-43 4 -83 12.5t-75 16.5q-55 13 -101 21q-15 2 -30 3q-30 0 -57 -10q-115 -37 -160 -137q-14 -31 -19 -58.5t-7.5 -49t0 -37t4.5 -21.5 q10 -23 0.5 -46.5t-33.5 -33.5q-23 -10 -46.5 0t-33.5 33q-14 36 -14 99v16z" />
<glyph unicode="{" horiz-adv-x="866" d="M31 -137q-2 59 42 124.5t101 135.5q29 35 55.5 70.5t44.5 66.5q14 27 17.5 41t3.5 18l-21 17q-16 10 -31.5 22.5t-29.5 26.5q-33 33 -36 60.5t3 46.5q10 37 41 63.5t66 50.5q63 49 88.5 83t5.5 87q-37 98 -24.5 196.5t75.5 188.5q33 47 75 86t89 67.5t96 44t96 15.5h5 q25 -2 43 -19t16 -44q0 -25 -17.5 -42.5t-43.5 -17.5h-3q-53 0 -127.5 -41t-128.5 -118q-16 -23 -29.5 -51.5t-20.5 -63.5t-5 -74t19 -82q45 -111 -19 -200q-23 -35 -55.5 -63t-63.5 -50q-10 -8 -26.5 -20.5t-26.5 -22.5q23 -18 39 -29q20 -14 35.5 -27.5t23.5 -29.5 q18 -39 13.5 -80t-26 -83t-54.5 -84t-68 -85q-25 -31 -46 -59.5t-38 -55.5q-20 -31 -25 -45t-5 -18q4 -4 32.5 -11.5t104.5 -0.5q25 2 48 5t42 7q23 4 41 8q25 6 46 -7t28 -38q6 -25 -7.5 -46.5t-37.5 -27.5q-2 0 -43 -9t-97 -13q-20 -4 -38.5 -4h-36.5q-104 0 -156 39 q-45 37 -49 92z" />
<glyph unicode="|" horiz-adv-x="305" d="M88 1237q-4 27 11.5 46.5t39.5 25.5q40 4 60 -27q4 -6 7 -11t3 -16q0 -4 2 -69.5t4 -171t3 -240.5t3 -278.5t2 -281.5t-1 -252t-4 -191.5t-9 -96.5q-8 -27 -29.5 -39t-46.5 -4t-38 30t-5 46q4 12 6 83t3 178.5t1 240.5t-1 272.5t-2 271.5t-3 237.5t-3 172t-3 74.5z" />
<glyph unicode="}" horiz-adv-x="866" d="M16 -205q0 25 17.5 42.5t44.5 17.5h2q53 0 128 41t128 118q14 23 28.5 51.5t21.5 63.5t5 74t-18 82q-45 111 18 200q23 35 55.5 62.5t63.5 50.5q10 8 26.5 20.5t26.5 22.5q-23 18 -39 29q-20 14 -35.5 27.5t-23.5 29.5q-18 39 -13 80t26.5 83t54 84t67.5 85 q25 31 46.5 59.5t37.5 55.5q20 31 25.5 45t5.5 18q-4 4 -33 11t-104 1q-55 -6 -91 -12q-23 -4 -41 -8q-25 -6 -46 7t-27 38t7 46t38 28q2 0 43 9t96 13q20 4 38.5 4h37.5q104 0 155 -39q45 -37 50 -92q2 -59 -42 -124.5t-102 -135.5q-29 -35 -55.5 -70.5t-44.5 -66.5 q-14 -27 -17.5 -41t-3.5 -19l21 -16q16 -10 31.5 -22.5t29.5 -26.5q33 -33 36 -60.5t-3 -46.5q-10 -37 -41 -63.5t-65 -50.5q-66 -49 -91.5 -84t-3.5 -86q37 -98 25 -196.5t-76 -188.5q-33 -47 -75 -86t-89 -68t-96 -44t-96 -15h-4q-25 2 -43.5 19t-16.5 44z" />
<glyph unicode="~" horiz-adv-x="1370" d="M92 508q10 66 29.5 120t52.5 95q63 82 160 106q104 31 219 -14q113 -45 182 -139q29 -37 70 -65.5t86 -46t90 -21.5t80 8q98 33 98 190q0 25 17.5 43.5t44.5 18.5q25 0 43 -18.5t18 -43.5q0 -80 -19.5 -134t-47 -90t-59.5 -55.5t-56 -27.5q-43 -14 -99 -14q-76 0 -155 31 q-61 25 -115.5 64.5t-91.5 86.5q-53 68 -129 98.5t-143 12.5q-129 -35 -152 -221q-4 -25 -24.5 -41.5t-45.5 -12.5t-41 23.5t-12 46.5z" />
<glyph unicode="&#xa1;" horiz-adv-x="647" d="M27 -434q0 4 18 78.5t47 185.5t63.5 241t67.5 246.5t59.5 202.5t41.5 109q16 23 39.5 29t46.5 -11q23 -14 28.5 -37.5t-10.5 -46.5q-10 -14 -33.5 -92t-55.5 -187.5t-64.5 -234.5t-60.5 -233.5t-47.5 -183t-19.5 -85.5q-4 -27 -24.5 -41t-44.5 -12q-39 6 -49 43 q-6 14 -2 29zM393 858q8 27 32 45.5t50 20.5q25 2 38 -15.5t5 -44.5q-8 -25 -31.5 -44t-50.5 -19q-27 -2 -39 14t-4 43z" />
<glyph unicode="&#xa3;" horiz-adv-x="1144" d="M47 569q-2 25 14.5 44.5t42.5 23.5q14 0 35 2q16 2 39 3t51 5q27 82 53.5 160t53 147.5t49.5 126t41 93.5q111 238 289 262q129 16 264 -82q47 -35 76.5 -64.5t29.5 -32.5q16 -18 15.5 -43.5t-21.5 -42.5q-20 -16 -44.5 -14t-41.5 23q-14 14 -41.5 39.5t-62.5 48t-76 37 t-82 8.5q-113 -16 -192 -191q-31 -66 -80 -191.5t-97 -273.5q68 6 144 11.5t152.5 11.5t147.5 10t130 6q25 2 44 -15t19 -42q2 -27 -15 -45.5t-44 -20.5q-63 -2 -141 -7t-161 -10t-164 -11t-150 -13q-35 -113 -51.5 -187.5t-22.5 -120.5t-5 -68.5t3 -28.5q4 -4 19.5 -8 t48 -8.5t87 -5.5t134.5 4q49 2 96 7t83 8t58 6l23 3q25 4 44 -11.5t23 -39.5q4 -27 -11 -46.5t-40 -23.5q-2 0 -25.5 -3t-61.5 -7t-87 -9t-102 -7q-33 -2 -60.5 -2h-52.5q-70 0 -116 5t-76.5 13t-48 19.5t-27.5 21.5q-29 29 -34 81t11 144q14 100 60 252q-72 -6 -78 -6h-6 q-23 0 -40.5 15.5t-21.5 39.5z" />
<glyph unicode="&#xa8;" horiz-adv-x="653" d="M143 1214q8 25 32 44.5t50 19.5q27 2 39 -14t4 -43t-31.5 -45.5t-50.5 -20.5q-25 -2 -38 15.5t-5 43.5zM389 1214q8 25 31.5 44.5t50.5 19.5q27 2 39 -14t4 -43t-31.5 -45.5t-50.5 -20.5q-25 -2 -38 15.5t-5 43.5z" />
<glyph unicode="&#xad;" horiz-adv-x="634" d="M76 510q8 25 29.5 38t46.5 5t76 -10t104 0t99 5t63 7q27 4 46 -11.5t25 -39.5q5 -40 -26 -60q-6 -4 -11.5 -7t-15.5 -3q-6 -2 -54 -6t-111.5 -6t-127 0t-100.5 12q-27 8 -39 29.5t-4 46.5z" />
<glyph unicode="&#xaf;" horiz-adv-x="702" d="M111 1493q8 25 29.5 38t45.5 5q25 -8 76 -10t104.5 0t99.5 5t62 7q27 4 46.5 -11.5t25.5 -39.5q4 -40 -27 -60q-6 -4 -11 -7t-15 -3q-6 -2 -54.5 -6t-112 -6t-127 0t-99.5 12q-27 8 -39.5 29.5t-3.5 46.5z" />
<glyph unicode="&#xb4;" horiz-adv-x="446" d="M54 1161.5q7 24.5 30 36.5q14 6 40 21.5t55.5 35t56 42t40.5 42.5q16 20 41 23.5t45 -12.5q23 -16 26 -40t-13 -46q-25 -31 -62 -62t-72.5 -54.5t-64.5 -39.5t-35 -18q-14 -9 -28 -9q-35 0 -56 33q-10 23 -3 47.5z" />
<glyph unicode="&#xb7;" horiz-adv-x="317" d="M100 649q8 25 32 44.5t50 19.5q27 2 39 -14.5t4 -43.5t-31.5 -45t-50.5 -20q-25 -2 -38 15.5t-5 43.5z" />
<glyph unicode="&#xb8;" horiz-adv-x="518" d="M94 -430q4 25 24.5 40t45.5 11q33 -4 58.5 1t43 15.5t27.5 22.5t14 21q16 27 18.5 52t-10.5 42q-27 35 -108 16q-31 -8 -60 16q-25 27 -14 60l57 201q8 25 31 37t47 6q23 -8 36 -30t5 -46l-33 -115q10 -2 20.5 -3t20.5 -5q61 -14 99 -66q37 -49 33 -114q-2 -57 -35 -115 q-41 -63 -105 -94q-53 -27 -116 -27h-23.5t-24.5 4q-25 4 -40 23.5t-11 46.5z" />
<glyph unicode="&#xbf;" horiz-adv-x="851" d="M4 -221q0 98 49 227q55 147 171 324.5t286 378.5q18 20 47 20q23 0 39 -14q20 -16 21 -41t-15 -45q-102 -121 -175 -222.5t-125 -184.5t-84 -147.5t-50 -111.5q-23 -59 -32 -103t-9 -74t6 -47.5t14 -23.5q25 -23 91 4q45 18 94 58.5t96 93.5q16 20 42 21.5t44 -15.5 q20 -16 21.5 -41.5t-15.5 -44.5q-121 -135 -235 -184q-43 -18 -79 -22.5t-62.5 0.5t-45 15.5t-30.5 20.5q-23 18 -42.5 55t-21.5 103zM522 954q8 27 32 45.5t50 20.5q25 2 38 -15.5t5 -43.5q-8 -25 -31.5 -44.5t-50.5 -19.5q-27 -2 -39 14t-4 43z" />
<glyph unicode="&#xc0;" horiz-adv-x="1449" d="M4 47q0 25 17.5 43.5t44.5 18.5q72 0 147 51q78 47 166 151l-35 -4h-6q-23 0 -40 15.5t-22 37.5q-4 27 12.5 46.5t41.5 23.5l155 19q51 72 102.5 157.5t104.5 186.5q70 131 128.5 258t99.5 227t64.5 161.5t23.5 63.5q10 23 31.5 34t43.5 3q23 -6 35 -27.5t8 -44.5 q0 -2 -11 -56t-26.5 -145t-31 -213t-23.5 -257q-4 -76 -7 -146.5t-1 -136.5l227 27q25 4 44.5 -12.5t23.5 -41.5q4 -27 -11.5 -46t-41.5 -23l-238 -29q12 -201 52 -352.5t110 -251.5q111 -154 285 -174q117 -14 215 -4t178 34.5t140.5 58.5t101 63.5t60.5 50.5l21 22 q16 20 41 22t45 -14t22.5 -41.5t-13.5 -44.5q-4 -4 -56.5 -55t-156.5 -109q-61 -33 -126 -56t-132 -38q-51 -10 -104.5 -15t-106.5 -5q-35 0 -72 2t-74 6q-231 31 -368 227q-127 182 -170 508q-4 37 -7.5 74t-7.5 78l-352 -43l-82 -103q-100 -113 -192 -174 q-109 -70 -215 -69q-27 0 -44.5 17t-17.5 44zM647 467l256 31q-2 74 1 150.5t7 158.5q4 47 8.5 93t8.5 89q-29 -61 -60.5 -124.5t-66.5 -129.5q-39 -74 -77 -141.5t-77 -126.5zM810 1881.5q3 23.5 26 39.5q20 16 44.5 13t41.5 -23q14 -20 40.5 -43t56.5 -42.5t55.5 -34.5 t39.5 -22q23 -12 30 -36.5t-3 -46.5q-21 -33 -56 -33q-14 0 -28 8q-6 2 -35 18.5t-64.5 40t-72.5 54t-62 61.5q-16 23 -13 46.5z" />
<glyph unicode="&#xc1;" horiz-adv-x="1449" d="M4 47q0 25 17.5 43.5t44.5 18.5q72 0 147 51q78 47 166 151l-35 -4h-6q-23 0 -40 15.5t-22 37.5q-4 27 12.5 46.5t41.5 23.5l155 19q51 72 102.5 157.5t104.5 186.5q70 131 128.5 258t99.5 227t64.5 161.5t23.5 63.5q10 23 31.5 34t43.5 3q23 -6 35 -27.5t8 -44.5 q0 -2 -11 -56t-26.5 -145t-31 -213t-23.5 -257q-4 -76 -7 -146.5t-1 -136.5l227 27q25 4 44.5 -12.5t23.5 -41.5q4 -27 -11.5 -46t-41.5 -23l-238 -29q12 -201 52 -352.5t110 -251.5q111 -154 285 -174q117 -14 215 -4t178 34.5t140.5 58.5t101 63.5t60.5 50.5l21 22 q16 20 41 22t45 -14t22.5 -41.5t-13.5 -44.5q-4 -4 -56.5 -55t-156.5 -109q-61 -33 -126 -56t-132 -38q-51 -10 -104.5 -15t-106.5 -5q-35 0 -72 2t-74 6q-231 31 -368 227q-127 182 -170 508q-4 37 -7.5 74t-7.5 78l-352 -43l-82 -103q-100 -113 -192 -174 q-109 -70 -215 -69q-27 0 -44.5 17t-17.5 44zM647 467l256 31q-2 74 1 150.5t7 158.5q4 47 8.5 93t8.5 89q-29 -61 -60.5 -124.5t-66.5 -129.5q-39 -74 -77 -141.5t-77 -126.5zM1029 1728.5q7 24.5 30 36.5q14 6 39.5 21.5t55.5 35t56.5 42t40.5 43.5q16 20 41 23t45 -13 q23 -16 26 -40t-13 -46q-25 -31 -62 -61.5t-72.5 -54t-64.5 -40t-35 -18.5q-15 -8 -29 -8q-35 0 -55 32q-10 23 -3 47.5z" />
<glyph unicode="&#xc2;" horiz-adv-x="1449" d="M4 47q0 25 17.5 43.5t44.5 18.5q72 0 147 51q78 47 166 151l-35 -4h-6q-23 0 -40 15.5t-22 37.5q-4 27 12.5 46.5t41.5 23.5l155 19q51 72 102.5 157.5t104.5 186.5q70 131 128.5 258t99.5 227t64.5 161.5t23.5 63.5q10 23 31.5 34t43.5 3q23 -6 35 -27.5t8 -44.5 q0 -2 -11 -56t-26.5 -145t-31 -213t-23.5 -257q-4 -76 -7 -146.5t-1 -136.5l227 27q25 4 44.5 -12.5t23.5 -41.5q4 -27 -11.5 -46t-41.5 -23l-238 -29q12 -201 52 -352.5t110 -251.5q111 -154 285 -174q117 -14 215 -4t178 34.5t140.5 58.5t101 63.5t60.5 50.5l21 22 q16 20 41 22t45 -14t22.5 -41.5t-13.5 -44.5q-4 -4 -56.5 -55t-156.5 -109q-61 -33 -126 -56t-132 -38q-51 -10 -104.5 -15t-106.5 -5q-35 0 -72 2t-74 6q-231 31 -368 227q-127 182 -170 508q-4 37 -7.5 74t-7.5 78l-352 -43l-82 -103q-100 -113 -192 -174 q-109 -70 -215 -69q-27 0 -44.5 17t-17.5 44zM647 467l256 31q-2 74 1 150.5t7 158.5q4 47 8.5 93t8.5 89q-29 -61 -60.5 -124.5t-66.5 -129.5q-39 -74 -77 -141.5t-77 -126.5zM851 1704q-3 25 13 45q2 2 23.5 28.5t52.5 61.5q53 55 91 79t71 21q35 -2 68.5 -28.5 t78.5 -85.5q27 -35 45.5 -62.5t18.5 -29.5q14 -23 8 -47.5t-29 -36.5q-16 -11 -30 -11q-35 0 -54 31q-6 10 -14 23q-6 10 -15.5 22t-19.5 29q-25 33 -40 49t-23 23q-10 -6 -27.5 -21.5t-46.5 -48.5q-27 -29 -43 -49.5t-18 -22.5q-16 -20 -40 -23t-47 13q-20 16 -23 41z" />
<glyph unicode="&#xc3;" horiz-adv-x="1449" d="M4 47q0 25 17.5 43.5t44.5 18.5q72 0 147 51q78 47 166 151l-35 -4h-6q-23 0 -40 15.5t-22 37.5q-4 27 12.5 46.5t41.5 23.5l155 19q51 72 102.5 157.5t104.5 186.5q70 131 128.5 258t99.5 227t64.5 161.5t23.5 63.5q10 23 31.5 34t43.5 3q23 -6 35 -27.5t8 -44.5 q0 -2 -11 -56t-26.5 -145t-31 -213t-23.5 -257q-4 -76 -7 -146.5t-1 -136.5l227 27q25 4 44.5 -12.5t23.5 -41.5q4 -27 -11.5 -46t-41.5 -23l-238 -29q12 -201 52 -352.5t110 -251.5q111 -154 285 -174q117 -14 215 -4t178 34.5t140.5 58.5t101 63.5t60.5 50.5l21 22 q16 20 41 22t45 -14t22.5 -41.5t-13.5 -44.5q-4 -4 -56.5 -55t-156.5 -109q-61 -33 -126 -56t-132 -38q-51 -10 -104.5 -15t-106.5 -5q-35 0 -72 2t-74 6q-231 31 -368 227q-127 182 -170 508q-4 37 -7.5 74t-7.5 78l-352 -43l-82 -103q-100 -113 -192 -174 q-109 -70 -215 -69q-27 0 -44.5 17t-17.5 44zM647 467l256 31q-2 74 1 150.5t7 158.5q4 47 8.5 93t8.5 89q-29 -61 -60.5 -124.5t-66.5 -129.5q-39 -74 -77 -141.5t-77 -126.5zM815 1735q10 72 46 119t93 63q61 16 124 -7.5t106 -78.5q20 -29 58 -44t63 -5q27 10 26 61 q0 27 17.5 44.5t44.5 17.5q25 0 43 -17.5t18 -44.5q0 -66 -29 -112q-29 -47 -82 -66q-22 -8 -57 -8q-20 0 -41.5 3t-44.5 13q-76 29 -115 84q-18 25 -45.5 36t-52.5 5q-27 -6 -36 -30.5t-13 -49.5t-24.5 -41t-45.5 -12t-41 23.5t-12 46.5z" />
<glyph unicode="&#xc4;" horiz-adv-x="1449" d="M4 47q0 25 17.5 43.5t44.5 18.5q72 0 147 51q78 47 166 151l-35 -4h-6q-23 0 -40 15.5t-22 37.5q-4 27 12.5 46.5t41.5 23.5l155 19q51 72 102.5 157.5t104.5 186.5q70 131 128.5 258t99.5 227t64.5 161.5t23.5 63.5q10 23 31.5 34t43.5 3q23 -6 35 -27.5t8 -44.5 q0 -2 -11 -56t-26.5 -145t-31 -213t-23.5 -257q-4 -76 -7 -146.5t-1 -136.5l227 27q25 4 44.5 -12.5t23.5 -41.5q4 -27 -11.5 -46t-41.5 -23l-238 -29q12 -201 52 -352.5t110 -251.5q111 -154 285 -174q117 -14 215 -4t178 34.5t140.5 58.5t101 63.5t60.5 50.5l21 22 q16 20 41 22t45 -14t22.5 -41.5t-13.5 -44.5q-4 -4 -56.5 -55t-156.5 -109q-61 -33 -126 -56t-132 -38q-51 -10 -104.5 -15t-106.5 -5q-35 0 -72 2t-74 6q-231 31 -368 227q-127 182 -170 508q-4 37 -7.5 74t-7.5 78l-352 -43l-82 -103q-100 -113 -192 -174 q-109 -70 -215 -69q-27 0 -44.5 17t-17.5 44zM647 467l256 31q-2 74 1 150.5t7 158.5q4 47 8.5 93t8.5 89q-29 -61 -60.5 -124.5t-66.5 -129.5q-39 -74 -77 -141.5t-77 -126.5zM928 1716q8 25 31.5 44.5t50.5 19.5q27 2 39 -14.5t4 -43.5t-32 -45t-50 -20q-25 -2 -38 15.5 t-5 43.5zM1174 1716q8 25 31.5 44.5t49.5 19.5q27 2 39 -14.5t4 -43.5t-31.5 -45t-49.5 -20q-25 -2 -38.5 15.5t-4.5 43.5z" />
<glyph unicode="&#xc5;" horiz-adv-x="1449" d="M4 47q0 25 17.5 43.5t44.5 18.5q72 0 147 51q78 47 166 151l-35 -4h-6q-23 0 -40 15.5t-22 37.5q-4 27 12.5 46.5t41.5 23.5l155 19q51 72 102.5 157.5t104.5 186.5q70 131 128.5 258t99.5 227t64.5 161.5t23.5 63.5q10 23 31.5 34t43.5 3q23 -6 35 -27.5t8 -44.5 q0 -2 -11 -56t-26.5 -145t-31 -213t-23.5 -257q-4 -76 -7 -146.5t-1 -136.5l227 27q25 4 44.5 -12.5t23.5 -41.5q4 -27 -11.5 -46t-41.5 -23l-238 -29q12 -201 52 -352.5t110 -251.5q111 -154 285 -174q117 -14 215 -4t178 34.5t140.5 58.5t101 63.5t60.5 50.5l21 22 q16 20 41 22t45 -14t22.5 -41.5t-13.5 -44.5q-4 -4 -56.5 -55t-156.5 -109q-61 -33 -126 -56t-132 -38q-51 -10 -104.5 -15t-106.5 -5q-35 0 -72 2t-74 6q-231 31 -368 227q-127 182 -170 508q-4 37 -7.5 74t-7.5 78l-352 -43l-82 -103q-100 -113 -192 -174 q-109 -70 -215 -69q-27 0 -44.5 17t-17.5 44zM647 467l256 31q-2 74 1 150.5t7 158.5q4 47 8.5 93t8.5 89q-29 -61 -60.5 -124.5t-66.5 -129.5q-39 -74 -77 -141.5t-77 -126.5zM888 1891.5q5 50.5 25 97.5q49 106 162 135q111 29 185 -51q47 -49 61 -123t-8 -146 q-20 -66 -66.5 -108.5t-111.5 -59.5q-12 -2 -26 -3t-24 -1q-72 0 -123 42t-69 120q-10 47 -5 97.5zM1010 1874q-2 -29 4 -53q18 -78 94 -64q41 10 60.5 36t27.5 48q12 39 5 81t-30 67q-18 18 -45 18q-14 0 -22 -2q-31 -8 -51.5 -29.5t-30.5 -47t-12 -54.5z" />
<glyph unicode="&#xc6;" horiz-adv-x="2177" d="M4 47q0 25 17.5 43.5t44.5 18.5q72 0 147 51q78 47 166 151l-35 -4h-6q-23 0 -40 15.5t-22 37.5q-4 27 12.5 46.5t41.5 23.5l155 19q51 72 102.5 157.5t104.5 186.5q70 131 128.5 258t99.5 227t64.5 161.5t23.5 63.5q10 23 31.5 34t43.5 3q23 -6 35 -27.5t8 -44.5 q0 -2 -11 -56t-26.5 -145t-31 -213t-23.5 -257q-4 -41 -6 -78t-2 -74q72 186 179.5 346t242.5 289q76 72 154.5 124t156.5 87q162 72 287 43q133 -31 182 -158q49 -123 10 -315q-6 -25 -26.5 -39t-46.5 -8q-25 4 -38 25.5t-9 45.5q8 41 13 93.5t-3 100.5t-32.5 85t-76.5 49 q-86 18 -211 -35q-139 -59 -276 -188q-141 -131 -246.5 -301t-171.5 -367l549 60q25 4 44 -12.5t24 -41.5q4 -27 -11.5 -46t-42.5 -23l-602 -66q-37 -154 -12.5 -288t108.5 -242q98 -125 259 -192.5t360 -67.5q387 0 681 41t480 84q100 23 178 45t131 41q63 20 109 39 q25 10 48.5 0.5t33.5 -33.5q10 -23 0 -46.5t-33 -33.5q-4 -2 -114.5 -43t-319.5 -88q-307 -70 -603 -99.5t-591 -29.5q-209 4 -397.5 74.5t-317.5 232.5q-47 61 -76.5 131t-48 145.5t-28 154.5t-15.5 157l-352 -43l-82 -103q-100 -113 -192 -174q-109 -70 -215 -69 q-27 0 -44.5 17t-17.5 44zM647 467l256 31q-2 74 1 150.5t7 158.5q4 47 8.5 93t8.5 89q-29 -61 -60.5 -124.5t-66.5 -129.5q-39 -74 -77 -141.5t-77 -126.5z" />
<glyph unicode="&#xc7;" horiz-adv-x="1247" d="M14 82q-31 166 17 356q63 248 188 464t299 378q76 72 155 124t156 87q162 72 287 43q133 -31 182 -158q49 -123 11 -315q-6 -25 -26.5 -39t-47.5 -8q-25 4 -38 25.5t-9 45.5q8 41 13 93.5t-3 100.5t-32.5 85t-75.5 49q-86 18 -211 -35q-139 -59 -277 -188 q-160 -150 -276.5 -351.5t-175.5 -430.5q-41 -158 -17.5 -296.5t109.5 -248.5q98 -125 259 -192.5t359 -67.5q387 0 681 41t480 84q100 23 178 45t132 41q63 20 108 39q25 10 48.5 0.5t33.5 -33.5q10 -23 0 -46.5t-33 -33.5q-4 -2 -114.5 -43t-319.5 -88 q-307 -70 -603 -99.5t-591 -29.5q-23 0 -44 1t-44 3l-20 -76q10 -2 20 -3t21 -5q61 -14 98 -66q37 -49 33 -114q-2 -57 -35 -115q-41 -63 -105 -94q-53 -27 -116 -27h-23.5t-23.5 4q-25 4 -40.5 23.5t-11.5 46.5q4 25 24.5 40t45.5 11q33 -4 58.5 1t43 15.5t27.5 22.5t14 21 q16 27 18.5 52t-9.5 42q-27 35 -109 16q-31 -8 -59 16q-25 27 -15 60l41 145q-147 29 -278 97.5t-226 189.5q-98 127 -131 295z" />
<glyph unicode="&#xc8;" horiz-adv-x="1247" d="M-147 279q0 25 14 57.5t59 62.5q20 12 46 23.5t61 21.5q63 246 188 461t297 375q76 72 155 124t156 87q162 72 287 43q133 -31 182 -158q49 -123 11 -315q-6 -25 -26.5 -39t-47.5 -8q-25 4 -38 25.5t-9 45.5q8 41 13 93.5t-3 100.5t-32.5 85t-75.5 49q-86 18 -211 -35 q-139 -59 -277 -188q-147 -139 -258 -321.5t-176 -393.5q55 10 113.5 16.5t117.5 12.5q53 6 100.5 12t88.5 12q39 6 58.5 11.5t27.5 9.5q14 41 57 41q25 0 43.5 -18.5t18.5 -43.5q0 -16 -10.5 -40.5t-51.5 -45.5q-27 -16 -86 -28q-47 -10 -107.5 -17.5t-125.5 -13.5 q-72 -8 -143.5 -17.5t-133.5 -21.5q-23 -139 3 -260t104 -221q98 -125 259 -192.5t359 -67.5q387 0 681 41t480 84q100 23 178 45t132 41q63 20 108 39q25 10 48.5 0.5t33.5 -33.5q10 -23 0 -46.5t-33 -33.5q-4 -2 -114.5 -43t-319.5 -88q-307 -70 -603 -99.5t-591 -29.5 q-209 4 -397.5 74.5t-317.5 232.5q-98 127 -131 295q-20 104 -8 221q-31 -16 -31 -24q0 -27 -17 -44.5t-44 -17.5q-25 0 -43 17.5t-18 44.5zM765 1881.5q3 23.5 26 39.5q20 16 44.5 13t41.5 -23q14 -20 40.5 -43t56.5 -42.5t55.5 -34.5t39.5 -22q23 -12 30 -36.5t-3 -46.5 q-21 -33 -56 -33q-14 0 -28 8q-6 2 -35 18.5t-64.5 40t-72.5 54t-62 61.5q-16 23 -13 46.5z" />
<glyph unicode="&#xc9;" horiz-adv-x="1247" d="M-147 279q0 25 14 57.5t59 62.5q20 12 46 23.5t61 21.5q63 246 188 461t297 375q76 72 155 124t156 87q162 72 287 43q133 -31 182 -158q49 -123 11 -315q-6 -25 -26.5 -39t-47.5 -8q-25 4 -38 25.5t-9 45.5q8 41 13 93.5t-3 100.5t-32.5 85t-75.5 49q-86 18 -211 -35 q-139 -59 -277 -188q-147 -139 -258 -321.5t-176 -393.5q55 10 113.5 16.5t117.5 12.5q53 6 100.5 12t88.5 12q39 6 58.5 11.5t27.5 9.5q14 41 57 41q25 0 43.5 -18.5t18.5 -43.5q0 -16 -10.5 -40.5t-51.5 -45.5q-27 -16 -86 -28q-47 -10 -107.5 -17.5t-125.5 -13.5 q-72 -8 -143.5 -17.5t-133.5 -21.5q-23 -139 3 -260t104 -221q98 -125 259 -192.5t359 -67.5q387 0 681 41t480 84q100 23 178 45t132 41q63 20 108 39q25 10 48.5 0.5t33.5 -33.5q10 -23 0 -46.5t-33 -33.5q-4 -2 -114.5 -43t-319.5 -88q-307 -70 -603 -99.5t-591 -29.5 q-209 4 -397.5 74.5t-317.5 232.5q-98 127 -131 295q-20 104 -8 221q-31 -16 -31 -24q0 -27 -17 -44.5t-44 -17.5q-25 0 -43 17.5t-18 44.5zM984 1728.5q7 24.5 30 36.5q14 6 39.5 21.5t55.5 35t56.5 42t40.5 43.5q16 20 41 23t45 -13q23 -16 26 -40t-13 -46 q-25 -31 -62 -61.5t-72.5 -54t-64.5 -40t-35 -18.5q-15 -8 -29 -8q-35 0 -55 32q-10 23 -3 47.5z" />
<glyph unicode="&#xca;" horiz-adv-x="1247" d="M-147 279q0 25 14 57.5t59 62.5q20 12 46 23.5t61 21.5q63 246 188 461t297 375q76 72 155 124t156 87q162 72 287 43q133 -31 182 -158q49 -123 11 -315q-6 -25 -26.5 -39t-47.5 -8q-25 4 -38 25.5t-9 45.5q8 41 13 93.5t-3 100.5t-32.5 85t-75.5 49q-86 18 -211 -35 q-139 -59 -277 -188q-147 -139 -258 -321.5t-176 -393.5q55 10 113.5 16.5t117.5 12.5q53 6 100.5 12t88.5 12q39 6 58.5 11.5t27.5 9.5q14 41 57 41q25 0 43.5 -18.5t18.5 -43.5q0 -16 -10.5 -40.5t-51.5 -45.5q-27 -16 -86 -28q-47 -10 -107.5 -17.5t-125.5 -13.5 q-72 -8 -143.5 -17.5t-133.5 -21.5q-23 -139 3 -260t104 -221q98 -125 259 -192.5t359 -67.5q387 0 681 41t480 84q100 23 178 45t132 41q63 20 108 39q25 10 48.5 0.5t33.5 -33.5q10 -23 0 -46.5t-33 -33.5q-4 -2 -114.5 -43t-319.5 -88q-307 -70 -603 -99.5t-591 -29.5 q-209 4 -397.5 74.5t-317.5 232.5q-98 127 -131 295q-20 104 -8 221q-31 -16 -31 -24q0 -27 -17 -44.5t-44 -17.5q-25 0 -43 17.5t-18 44.5zM806 1704q-3 25 13 45q2 2 23.5 28.5t52.5 61.5q53 55 91 79t71 21q35 -2 68.5 -28.5t78.5 -85.5q27 -35 45.5 -62.5t18.5 -29.5 q14 -23 8 -47.5t-29 -36.5q-16 -11 -30 -11q-35 0 -54 31q-6 10 -14 23q-6 10 -15.5 22t-19.5 29q-25 33 -40 49t-23 23q-10 -6 -27.5 -21.5t-46.5 -48.5q-27 -29 -43 -49.5t-19 -22.5q-16 -20 -39.5 -23t-46.5 13q-20 16 -23 41z" />
<glyph unicode="&#xcb;" horiz-adv-x="1247" d="M-147 279q0 25 14 57.5t59 62.5q20 12 46 23.5t61 21.5q63 246 188 461t297 375q76 72 155 124t156 87q162 72 287 43q133 -31 182 -158q49 -123 11 -315q-6 -25 -26.5 -39t-47.5 -8q-25 4 -38 25.5t-9 45.5q8 41 13 93.5t-3 100.5t-32.5 85t-75.5 49q-86 18 -211 -35 q-139 -59 -277 -188q-147 -139 -258 -321.5t-176 -393.5q55 10 113.5 16.5t117.5 12.5q53 6 100.5 12t88.5 12q39 6 58.5 11.5t27.5 9.5q14 41 57 41q25 0 43.5 -18.5t18.5 -43.5q0 -16 -10.5 -40.5t-51.5 -45.5q-27 -16 -86 -28q-47 -10 -107.5 -17.5t-125.5 -13.5 q-72 -8 -143.5 -17.5t-133.5 -21.5q-23 -139 3 -260t104 -221q98 -125 259 -192.5t359 -67.5q387 0 681 41t480 84q100 23 178 45t132 41q63 20 108 39q25 10 48.5 0.5t33.5 -33.5q10 -23 0 -46.5t-33 -33.5q-4 -2 -114.5 -43t-319.5 -88q-307 -70 -603 -99.5t-591 -29.5 q-209 4 -397.5 74.5t-317.5 232.5q-98 127 -131 295q-20 104 -8 221q-31 -16 -31 -24q0 -27 -17 -44.5t-44 -17.5q-25 0 -43 17.5t-18 44.5zM883 1716q8 25 31.5 44.5t50.5 19.5q27 2 39 -14.5t4 -43.5t-32 -45t-50 -20q-25 -2 -38.5 15.5t-4.5 43.5zM1128 1716 q8 25 32 44.5t50 19.5q27 2 39 -14.5t4 -43.5t-31.5 -45t-50.5 -20q-25 -2 -38 15.5t-5 43.5z" />
<glyph unicode="&#xcc;" horiz-adv-x="1433" d="M12 973q8 47 72 106q129 117 461 242q147 53 318 105.5t362 99.5q180 43 352 75.5t315 51.5q324 38 437 -11q51 -23 62 -53t11 -47q0 -27 -18.5 -44t-42.5 -17q-23 0 -39 13t-21 36q-6 2 -23 7t-51 8t-89.5 2t-135.5 -9q-127 -12 -286.5 -38.5t-333.5 -67.5 q-53 -12 -106.5 -24.5t-106.5 -27.5q-10 -29 -30.5 -80t-46 -119.5t-55.5 -151.5t-61 -171q-174 -496 -198 -731l30 4q53 6 100.5 12.5t88.5 12.5t59.5 12t26.5 10q14 39 57 39q25 0 43.5 -17.5t18.5 -43.5q0 -16 -10.5 -41t-49.5 -45q-16 -8 -37.5 -15.5t-50.5 -13.5 q-47 -10 -107.5 -17.5t-125.5 -13.5l-92 -10q-4 -2 -17 -2q-57 -6 -111.5 -15.5t-101.5 -21.5q-70 -18 -91 -34.5t-21 -20.5q0 -27 -18.5 -44.5t-43.5 -17.5q-27 0 -44 17.5t-17 44.5q0 25 13 57.5t58 63.5q25 16 58 29.5t76 23.5q88 23 184 35q18 244 207 784 q47 133 89 248t72 192q-266 -76 -472.5 -157.5t-313.5 -155.5q-57 -41 -71.5 -63.5t-12.5 -28.5q10 -25 -2 -47.5t-35 -30.5q-8 -4 -20 -4q-43 0 -60 41q-10 33 -2 80zM794 1881.5q3 23.5 25 39.5q20 16 45 13t41 -23q14 -20 41 -43t56.5 -42.5t55 -34.5t40.5 -22 q23 -12 30 -36.5t-4 -46.5q-20 -33 -55 -33q-14 0 -29 8q-6 2 -34.5 18.5t-64.5 40t-73 54t-61 61.5q-16 23 -13 46.5z" />
<glyph unicode="&#xcd;" horiz-adv-x="1433" d="M12 973q8 47 72 106q129 117 461 242q147 53 318 105.5t362 99.5q180 43 352 75.5t315 51.5q324 38 437 -11q51 -23 62 -53t11 -47q0 -27 -18.5 -44t-42.5 -17q-23 0 -39 13t-21 36q-6 2 -23 7t-51 8t-89.5 2t-135.5 -9q-127 -12 -286.5 -38.5t-333.5 -67.5 q-53 -12 -106.5 -24.5t-106.5 -27.5q-10 -29 -30.5 -80t-46 -119.5t-55.5 -151.5t-61 -171q-174 -496 -198 -731l30 4q53 6 100.5 12.5t88.5 12.5t59.5 12t26.5 10q14 39 57 39q25 0 43.5 -17.5t18.5 -43.5q0 -16 -10.5 -41t-49.5 -45q-16 -8 -37.5 -15.5t-50.5 -13.5 q-47 -10 -107.5 -17.5t-125.5 -13.5l-92 -10q-4 -2 -17 -2q-57 -6 -111.5 -15.5t-101.5 -21.5q-70 -18 -91 -34.5t-21 -20.5q0 -27 -18.5 -44.5t-43.5 -17.5q-27 0 -44 17.5t-17 44.5q0 25 13 57.5t58 63.5q25 16 58 29.5t76 23.5q88 23 184 35q18 244 207 784 q47 133 89 248t72 192q-266 -76 -472.5 -157.5t-313.5 -155.5q-57 -41 -71.5 -63.5t-12.5 -28.5q10 -25 -2 -47.5t-35 -30.5q-8 -4 -20 -4q-43 0 -60 41q-10 33 -2 80zM1013 1728.5q7 24.5 29 36.5q14 6 40 21.5t55.5 35t56.5 42t41 43.5q16 20 40.5 23t45.5 -13 q23 -16 26 -40t-14 -46q-25 -31 -61.5 -61.5t-72.5 -54t-64.5 -40t-34.5 -18.5q-15 -8 -29 -8q-35 0 -55 32q-10 23 -3 47.5z" />
<glyph unicode="&#xce;" horiz-adv-x="1433" d="M12 973q8 47 72 106q129 117 461 242q147 53 318 105.5t362 99.5q180 43 352 75.5t315 51.5q324 38 437 -11q51 -23 62 -53t11 -47q0 -27 -18.5 -44t-42.5 -17q-23 0 -39 13t-21 36q-6 2 -23 7t-51 8t-89.5 2t-135.5 -9q-127 -12 -286.5 -38.5t-333.5 -67.5 q-53 -12 -106.5 -24.5t-106.5 -27.5q-10 -29 -30.5 -80t-46 -119.5t-55.5 -151.5t-61 -171q-174 -496 -198 -731l30 4q53 6 100.5 12.5t88.5 12.5t59.5 12t26.5 10q14 39 57 39q25 0 43.5 -17.5t18.5 -43.5q0 -16 -10.5 -41t-49.5 -45q-16 -8 -37.5 -15.5t-50.5 -13.5 q-47 -10 -107.5 -17.5t-125.5 -13.5l-92 -10q-4 -2 -17 -2q-57 -6 -111.5 -15.5t-101.5 -21.5q-70 -18 -91 -34.5t-21 -20.5q0 -27 -18.5 -44.5t-43.5 -17.5q-27 0 -44 17.5t-17 44.5q0 25 13 57.5t58 63.5q25 16 58 29.5t76 23.5q88 23 184 35q18 244 207 784 q47 133 89 248t72 192q-266 -76 -472.5 -157.5t-313.5 -155.5q-57 -41 -71.5 -63.5t-12.5 -28.5q10 -25 -2 -47.5t-35 -30.5q-8 -4 -20 -4q-43 0 -60 41q-10 33 -2 80zM834.5 1704q-3.5 25 13.5 45q2 2 23.5 28.5t52.5 61.5q53 55 91 79t70 21q35 -2 69 -28.5t79 -85.5 q27 -35 45 -62.5t18 -29.5q14 -23 8 -47.5t-28 -36.5q-17 -11 -31 -11q-35 0 -53 31q-6 10 -14 23q-6 10 -15.5 22t-19.5 29q-25 33 -40.5 49t-23.5 23q-10 -6 -27.5 -21.5t-45.5 -48.5q-27 -29 -43.5 -49.5t-18.5 -22.5q-16 -20 -39.5 -23t-46.5 13q-20 16 -23.5 41z" />
<glyph unicode="&#xcf;" horiz-adv-x="1433" d="M12 973q8 47 72 106q129 117 461 242q147 53 318 105.5t362 99.5q180 43 352 75.5t315 51.5q324 38 437 -11q51 -23 62 -53t11 -47q0 -27 -18.5 -44t-42.5 -17q-23 0 -39 13t-21 36q-6 2 -23 7t-51 8t-89.5 2t-135.5 -9q-127 -12 -286.5 -38.5t-333.5 -67.5 q-53 -12 -106.5 -24.5t-106.5 -27.5q-10 -29 -30.5 -80t-46 -119.5t-55.5 -151.5t-61 -171q-174 -496 -198 -731l30 4q53 6 100.5 12.5t88.5 12.5t59.5 12t26.5 10q14 39 57 39q25 0 43.5 -17.5t18.5 -43.5q0 -16 -10.5 -41t-49.5 -45q-16 -8 -37.5 -15.5t-50.5 -13.5 q-47 -10 -107.5 -17.5t-125.5 -13.5l-92 -10q-4 -2 -17 -2q-57 -6 -111.5 -15.5t-101.5 -21.5q-70 -18 -91 -34.5t-21 -20.5q0 -27 -18.5 -44.5t-43.5 -17.5q-27 0 -44 17.5t-17 44.5q0 25 13 57.5t58 63.5q25 16 58 29.5t76 23.5q88 23 184 35q18 244 207 784 q47 133 89 248t72 192q-266 -76 -472.5 -157.5t-313.5 -155.5q-57 -41 -71.5 -63.5t-12.5 -28.5q10 -25 -2 -47.5t-35 -30.5q-8 -4 -20 -4q-43 0 -60 41q-10 33 -2 80zM911 1716q8 25 32 44.5t50 19.5q27 2 39 -14.5t4 -43.5t-31.5 -45t-50.5 -20q-25 -2 -38 15.5t-5 43.5z M1157 1716q8 25 31.5 44.5t50.5 19.5q27 2 39 -14.5t4 -43.5t-31.5 -45t-50.5 -20q-25 -2 -38 15.5t-5 43.5z" />
<glyph unicode="&#xd0;" horiz-adv-x="2531" d="M4 950q-2 27 8.5 57.5t35 65.5t67.5 72q63 53 158.5 103t213 93t254 79t279.5 59q150 23 294 32t275 -2q299 -18 498 -120q168 -89 252 -230q90 -154 74 -364q-10 -98 -33 -187.5t-62 -169.5q-68 -145 -182 -250q-98 -92 -213 -141t-225 -49h-19q-127 6 -201.5 75.5 t-74.5 182.5q0 27 17.5 44t43.5 17q25 0 43.5 -17t18.5 -44q0 -41 16.5 -67.5t40 -41t51 -20.5t49.5 -6q90 -4 188.5 38t180.5 120q37 33 75 81t71.5 112.5t58 147t33.5 185.5q27 328 -260 475q-84 43 -191.5 69.5t-234.5 36t-269.5 2t-296.5 -31.5q-133 -20 -261 -53 t-238.5 -73t-199.5 -86t-144 -93q-10 -10 -23.5 -22.5t-25 -27t-16.5 -30t-1 -29.5q8 -25 -4 -47.5t-37 -30.5q-23 -8 -45.5 4.5t-30.5 34.5q-6 20 -8 47zM1024 510q8 25 29.5 38t46.5 5q16 -6 43.5 -8t62.5 -2q33 121 70 237.5t68.5 208.5t54 151.5t26.5 67.5q10 25 33 36 t47 1q23 -10 34 -33.5t1 -46.5q-2 -2 -22.5 -56t-50 -140t-65.5 -196.5t-69 -227.5q39 4 68 5t41 5q27 4 46 -11.5t25 -39.5q5 -40 -26 -60q-6 -4 -11.5 -7t-15.5 -3q-8 -2 -54 -6t-106 -6q-25 -104 -40 -197.5t-15 -165.5q0 -25 -17.5 -43t-43.5 -18q-25 0 -43.5 18.5 t-18.5 42.5q0 74 14.5 167t39.5 194q-33 2 -61 5t-48 9q-27 8 -39 29.5t-4 46.5z" />
<glyph unicode="&#xd1;" horiz-adv-x="2138" d="M4 476.5q0 111.5 31 236.5q29 123 82 237.5t125 208.5q96 127 217 197q137 78 280 65q129 -10 197 -114q78 -119 72 -349q-2 -59 -9.5 -126.5t-19.5 -143.5q37 68 77 137.5t81 135.5q88 141 172 246.5t164 176.5q211 186 395 138q88 -23 125 -105q27 -61 26 -166 q-2 -90 -20.5 -201.5t-42.5 -234.5q-18 -90 -35.5 -184t-30 -189.5t-16.5 -187.5t6 -176q20 -186 106.5 -296t245.5 -157q338 -96 647 47q57 27 103.5 54.5t77 51t46.5 38.5l17 16q16 18 42 19.5t44 -17.5q18 -18 18.5 -44t-16.5 -42q-2 -2 -21.5 -20.5t-54 -45t-87 -59.5 t-117.5 -63q-156 -72 -320 -90q-55 -7 -112 -7q-152 0 -301 43q-209 61 -322 218q-96 135 -117 339q-10 92 -6 189.5t16.5 197t30 197.5t35.5 191q23 119 42 226t19 187q0 51 -6 81t-15 45.5t-20.5 19.5t-17.5 6q-123 31 -283 -111q-74 -66 -151.5 -165t-161.5 -230 q-80 -127 -150.5 -261t-127 -252t-95.5 -209t-57 -134q-10 -23 -32.5 -33t-45.5 0q-23 8 -34 30.5t-3 47.5l14 40q13 40 33.5 107.5t44 155.5t43.5 184q25 113 37.5 210.5t16.5 179.5q4 195 -51 276q-37 57 -103 59q-68 6 -126 -12t-107 -50t-88 -73t-70 -80 q-66 -84 -113 -186t-73 -213q-27 -106 -27 -201.5t23 -165.5q10 -23 -2.5 -45t-34.5 -32q-25 -8 -47.5 3t-30.5 36q-31 86 -31 197.5zM1524 1735q10 72 46 119t93 63q61 16 123.5 -7.5t105.5 -78.5q20 -29 58.5 -44t62.5 -5q27 10 27 61q0 27 17.5 44.5t43.5 17.5 q25 0 43.5 -17.5t18.5 -44.5q0 -66 -29 -112q-29 -47 -82 -66q-22 -8 -57 -8q-20 0 -42 3t-44 13q-76 29 -115 84q-18 25 -46 36t-52 5q-27 -6 -36 -30.5t-13 -49.5t-24.5 -41t-45.5 -12t-41 23.5t-12 46.5z" />
<glyph unicode="&#xd2;" horiz-adv-x="2121" d="M5 1103q3 23 26 40q199 147 430 243.5t471 131.5q117 16 224.5 17t209.5 -13q207 -31 363 -125q168 -104 239 -273q78 -180 35 -407q-18 -104 -55 -200.5t-90 -182.5q-55 -88 -123 -156.5t-146 -114.5q-131 -75 -274 -75q-94 0 -182 30q-109 41 -183 105q-74 63 -112 149 q-72 158 -31 361q27 129 94.5 250t165.5 217q111 104 232.5 155.5t244.5 40.5q25 -2 42.5 -20.5t12.5 -44.5q-2 -25 -20 -42.5t-45 -14.5q-96 8 -193.5 -34t-187.5 -128q-86 -84 -144.5 -188.5t-80.5 -215.5q-10 -51 -13.5 -117.5t19 -133t79 -126t161.5 -96.5 q180 -63 354 35q63 37 120.5 96.5t103.5 133t80 159.5t50 180q35 186 -20.5 325.5t-196.5 227.5q-129 80 -315.5 106.5t-399.5 -3.5q-225 -33 -443 -122t-405 -229q-20 -16 -44.5 -12t-41.5 25q-14 23 -11 46zM1183 1881.5q3 23.5 25 39.5q20 16 45 13t41 -23q14 -20 41 -43 t56.5 -42.5t55.5 -34.5t40 -22q23 -12 30 -36.5t-4 -46.5q-20 -33 -55 -33q-14 0 -28 8q-6 2 -35 18.5t-65 40t-72.5 54t-61.5 61.5q-16 23 -13 46.5z" />
<glyph unicode="&#xd3;" horiz-adv-x="2121" d="M5 1103q3 23 26 40q199 147 430 243.5t471 131.5q117 16 224.5 17t209.5 -13q207 -31 363 -125q168 -104 239 -273q78 -180 35 -407q-18 -104 -55 -200.5t-90 -182.5q-55 -88 -123 -156.5t-146 -114.5q-131 -75 -274 -75q-94 0 -182 30q-109 41 -183 105q-74 63 -112 149 q-72 158 -31 361q27 129 94.5 250t165.5 217q111 104 232.5 155.5t244.5 40.5q25 -2 42.5 -20.5t12.5 -44.5q-2 -25 -20 -42.5t-45 -14.5q-96 8 -193.5 -34t-187.5 -128q-86 -84 -144.5 -188.5t-80.5 -215.5q-10 -51 -13.5 -117.5t19 -133t79 -126t161.5 -96.5 q180 -63 354 35q63 37 120.5 96.5t103.5 133t80 159.5t50 180q35 186 -20.5 325.5t-196.5 227.5q-129 80 -315.5 106.5t-399.5 -3.5q-225 -33 -443 -122t-405 -229q-20 -16 -44.5 -12t-41.5 25q-14 23 -11 46zM1402 1728.5q7 24.5 30 36.5q14 6 39.5 21.5t55 35t56.5 42 t41 43.5q16 20 41 23t45 -13q23 -16 26 -40t-14 -46q-25 -31 -61.5 -61.5t-72.5 -54t-64.5 -40t-34.5 -18.5q-15 -8 -29 -8q-35 0 -55 32q-10 23 -3 47.5z" />
<glyph unicode="&#xd4;" horiz-adv-x="2121" d="M5 1103q3 23 26 40q199 147 430 243.5t471 131.5q117 16 224.5 17t209.5 -13q207 -31 363 -125q168 -104 239 -273q78 -180 35 -407q-18 -104 -55 -200.5t-90 -182.5q-55 -88 -123 -156.5t-146 -114.5q-131 -75 -274 -75q-94 0 -182 30q-109 41 -183 105q-74 63 -112 149 q-72 158 -31 361q27 129 94.5 250t165.5 217q111 104 232.5 155.5t244.5 40.5q25 -2 42.5 -20.5t12.5 -44.5q-2 -25 -20 -42.5t-45 -14.5q-96 8 -193.5 -34t-187.5 -128q-86 -84 -144.5 -188.5t-80.5 -215.5q-10 -51 -13.5 -117.5t19 -133t79 -126t161.5 -96.5 q180 -63 354 35q63 37 120.5 96.5t103.5 133t80 159.5t50 180q35 186 -20.5 325.5t-196.5 227.5q-129 80 -315.5 106.5t-399.5 -3.5q-225 -33 -443 -122t-405 -229q-20 -16 -44.5 -12t-41.5 25q-14 23 -11 46zM1224 1704q-3 25 13 45q2 2 23.5 28.5t52.5 61.5q53 55 91 79 t71 21q35 -2 68.5 -28.5t78.5 -85.5q27 -35 45.5 -62.5t18.5 -29.5q14 -23 8 -47.5t-29 -36.5q-17 -11 -31 -11q-35 0 -53 31q-6 10 -14 23q-6 10 -15.5 22t-19.5 29q-25 33 -40 49t-24 23q-10 -6 -27.5 -21.5t-45.5 -48.5q-27 -29 -43.5 -49.5t-18.5 -22.5 q-16 -20 -39.5 -23t-46.5 13q-20 16 -23 41z" />
<glyph unicode="&#xd5;" horiz-adv-x="2121" d="M5 1103q3 23 26 40q199 147 430 243.5t471 131.5q117 16 224.5 17t209.5 -13q207 -31 363 -125q168 -104 239 -273q78 -180 35 -407q-18 -104 -55 -200.5t-90 -182.5q-55 -88 -123 -156.5t-146 -114.5q-131 -75 -274 -75q-94 0 -182 30q-109 41 -183 105q-74 63 -112 149 q-72 158 -31 361q27 129 94.5 250t165.5 217q111 104 232.5 155.5t244.5 40.5q25 -2 42.5 -20.5t12.5 -44.5q-2 -25 -20 -42.5t-45 -14.5q-96 8 -193.5 -34t-187.5 -128q-86 -84 -144.5 -188.5t-80.5 -215.5q-10 -51 -13.5 -117.5t19 -133t79 -126t161.5 -96.5 q180 -63 354 35q63 37 120.5 96.5t103.5 133t80 159.5t50 180q35 186 -20.5 325.5t-196.5 227.5q-129 80 -315.5 106.5t-399.5 -3.5q-225 -33 -443 -122t-405 -229q-20 -16 -44.5 -12t-41.5 25q-14 23 -11 46zM1188 1735q10 72 46 119t93 63q61 16 123.5 -7.5t105.5 -78.5 q20 -29 58.5 -44t62.5 -5q27 10 27 61q0 27 17.5 44.5t43.5 17.5q25 0 43.5 -17.5t18.5 -44.5q0 -66 -29 -112q-29 -47 -82 -66q-22 -8 -57 -8q-20 0 -42 3t-44 13q-76 29 -115 84q-18 25 -46 36t-52 5q-27 -6 -36 -30.5t-13 -49.5t-24.5 -41t-45.5 -12t-41 23.5t-12 46.5z " />
<glyph unicode="&#xd6;" horiz-adv-x="2121" d="M5 1103q3 23 26 40q199 147 430 243.5t471 131.5q117 16 224.5 17t209.5 -13q207 -31 363 -125q168 -104 239 -273q78 -180 35 -407q-18 -104 -55 -200.5t-90 -182.5q-55 -88 -123 -156.5t-146 -114.5q-131 -75 -274 -75q-94 0 -182 30q-109 41 -183 105q-74 63 -112 149 q-72 158 -31 361q27 129 94.5 250t165.5 217q111 104 232.5 155.5t244.5 40.5q25 -2 42.5 -20.5t12.5 -44.5q-2 -25 -20 -42.5t-45 -14.5q-96 8 -193.5 -34t-187.5 -128q-86 -84 -144.5 -188.5t-80.5 -215.5q-10 -51 -13.5 -117.5t19 -133t79 -126t161.5 -96.5 q180 -63 354 35q63 37 120.5 96.5t103.5 133t80 159.5t50 180q35 186 -20.5 325.5t-196.5 227.5q-129 80 -315.5 106.5t-399.5 -3.5q-225 -33 -443 -122t-405 -229q-20 -16 -44.5 -12t-41.5 25q-14 23 -11 46zM1300 1716q8 25 32 44.5t50 19.5q27 2 39 -14.5t4 -43.5 t-31.5 -45t-50.5 -20q-25 -2 -38 15.5t-5 43.5zM1546 1716q8 25 32 44.5t50 19.5q27 2 39 -14.5t4 -43.5t-31.5 -45t-50.5 -20q-25 -2 -38 15.5t-5 43.5z" />
<glyph unicode="&#xd8;" horiz-adv-x="2121" d="M5 1103q3 23 26 40q199 147 430 243.5t471 131.5q117 16 224.5 17t209.5 -13q207 -31 363 -125q31 -20 59.5 -42t52.5 -46l70 86q16 23 39.5 25.5t46.5 -9.5q33 -23 26 -59q0 -16 -12 -27q-2 -4 -26.5 -33.5t-65.5 -77.5q27 -41 49 -90q78 -180 35 -407 q-18 -104 -55 -200.5t-90 -182.5q-55 -88 -123 -156.5t-146 -114.5q-131 -75 -274 -75q-94 0 -182 30q-92 33 -166 91q-39 -41 -64.5 -68t-36.5 -33q-25 -14 -49 -8t-37 29q-14 23 -8 47t29 37q6 4 27.5 25.5t54.5 56.5q-27 37 -45 77q-72 158 -31 361q27 129 94.5 250 t165.5 217q111 104 232.5 155.5t244.5 40.5q25 -2 42.5 -20.5t12.5 -44.5q-2 -25 -20 -42.5t-45 -14.5q-96 8 -193.5 -34t-187.5 -128q-86 -84 -144.5 -188.5t-80.5 -215.5q-6 -33 -11.5 -71.5t-2 -80.5t15.5 -85t37 -82q80 92 185 213t215 249t213 249.5t181 213.5 q-20 23 -43.5 41.5t-52.5 36.5q-129 80 -315.5 106.5t-399.5 -3.5q-225 -33 -443 -122t-405 -229q-20 -16 -44.5 -12t-41.5 25q-14 23 -11 46zM1049 199q25 -18 55.5 -35t69.5 -29q180 -63 354 35q63 37 120.5 96.5t103.5 133t80 159.5t50 180q39 217 -45 375 q-80 -94 -182.5 -215t-210 -246t-211 -243.5t-184.5 -210.5z" />
</font>
</defs>
</svg>
