<?xml version="1.0" encoding="utf-8"?>
<!-- Generator: Adobe Illustrator 24.3.0, SVG Export Plug-In . SVG Version: 6.00 Build 0)  -->
<svg version="1.1" id="Layer_1" xmlns="http://www.w3.org/2000/svg" xmlns:xlink="http://www.w3.org/1999/xlink" x="0px" y="0px"
	 viewBox="0 0 429.9 337.3" style="enable-background:new 0 0 429.9 337.3;" xml:space="preserve">
<style type="text/css">
	.st0{fill:#798E29;}
	.st1{fill:#677B28;}
	.st2{fill:#9DBA2C;}
	.st3{enable-background:new    ;}
	.st4{fill:#FFFFFF;}
	.st5{fill:#169BD8;}
	.st6{fill:#7F9929;}
</style>
<polygon class="st0" points="343,314.7 429.9,314.7 399.9,272.4 429.9,230.2 343,230.2 343,272.4 "/>
<polygon class="st1" points="343,314.7 389.9,284.7 389.9,210.2 343,210.2 343,252.4 "/>
<polygon class="st0" points="86.8,314.7 0,314.7 30,272.4 0,230.2 86.8,230.2 86.8,272.4 "/>
<polygon class="st1" points="86.8,314.7 40,284.7 40,210.2 86.8,210.2 "/>
<path class="st2" d="M383.6,168.6c0,93.1-75.5,168.6-168.6,168.6S46.3,261.8,46.3,168.6S121.8,0,214.9,0
	C308.1,0,383.6,75.5,383.6,168.6L383.6,168.6z"/>
<g class="st3">
	<path class="st4" d="M107.7,76.5c5,3.9,5.5,9.9,1.3,15.1l-4.6,5.7L88,84.3l4.6-5.7C96.7,73.3,102.7,72.5,107.7,76.5z M106.1,89.5
		c2.7-3.5,2.3-7-1.1-9.7s-7-2.4-9.7,1.1l-1.8,2.3l10.8,8.6L106.1,89.5z"/>
</g>
<g class="st3">
	<path class="st4" d="M120.7,78.4l-3,2.9l-11.6-11.8l3-2.9l1.8,1.8c-0.5-1.9,0-4,1.6-5.6l3.1,3.1l-0.8,0.8c-1.8,1.7-2.2,3.5,0.1,5.8
		L120.7,78.4z"/>
</g>
<g class="st3">
	<path class="st4" d="M138.3,63.5l-3.3,2.6l-1.3-1.7c0,1.8-0.8,3.6-2.5,4.9c-3,2.4-6.8,2.1-9.6-1.5l-6-7.7l3.3-2.6l5.7,7.2
		c1.6,2.1,3.7,2.3,5.4,1c1.8-1.4,2-3.4,0.4-5.5l-5.7-7.2l3.3-2.6L138.3,63.5z"/>
</g>
<g class="st3">
	<path class="st4" d="M141.1,42.1c3.7-2.1,8.2-0.9,10.8,3.6s1.4,9.1-2.3,11.3c-2.3,1.3-4.5,1.1-6.1,0.5l5.1,8.9l-3.6,2.1l-12.2-21.3
		l3.6-2.1l1.2,2.1C137.8,45.5,138.8,43.4,141.1,42.1z M141.9,45.9c-2,1.1-2.9,3.7-1.4,6.4s4.3,3.2,6.2,2.1c2-1.1,2.9-3.8,1.4-6.5
		C146.6,45.2,143.9,44.8,141.9,45.9z"/>
</g>
<g class="st3">
	<path class="st4" d="M158,34c2.5-1,4.6-0.5,6.1,0.4l-0.9-2.2l3.9-1.6l6.1,15.5l-3.9,1.6l-0.9-2.3c-0.4,1.7-1.7,3.6-4.1,4.5
		c-3.9,1.5-8.3-0.4-10.2-5.3C152.2,39.9,154.1,35.5,158,34z M160.4,37c-2.1,0.8-3.5,3.2-2.3,6.1c1.2,2.9,3.8,3.8,5.9,3
		c2.1-0.8,3.5-3.2,2.3-6.2C165.1,37,162.5,36.2,160.4,37z"/>
</g>
<g class="st3">
	<path class="st4" d="M170.8,23.9l4-1.1l6,21.4l-4,1.1L170.8,23.9z"/>
</g>
<g class="st3">
	<path class="st4" d="M203.2,36.3l-8.3,0.9l-0.9,4.1l-4.4,0.5l5.1-21.6l4.8-0.5l9.8,19.9l-4.4,0.5L203.2,36.3z M197.7,24.7l-2,9
		l6-0.7L197.7,24.7z"/>
</g>
<g class="st3">
	<path class="st4" d="M217.9,40.1c-4.2-0.1-7-2.6-7.1-5.7l4.2,0.1c0.1,1.3,1.3,2.2,3,2.3c1.6,0,2.6-0.7,2.6-1.7
		c0.1-3-9.4-1.3-9.2-7.4c0.1-2.8,2.6-4.9,6.7-4.8c4,0.1,6.4,2.3,6.6,5.6l-4-0.1c-0.1-1.3-1.1-2.2-2.7-2.2c-1.6,0-2.4,0.6-2.4,1.5
		c-0.1,3,9.2,1.3,9.2,7.4C224.5,38,221.9,40.2,217.9,40.1z"/>
</g>
<g class="st3">
	<path class="st4" d="M233.5,41.3c-4.1-0.6-6.7-3.4-6.4-6.5l4.2,0.6c0,1.3,1,2.4,2.7,2.6c1.6,0.2,2.6-0.4,2.8-1.3
		c0.4-2.9-9.2-2.3-8.3-8.4c0.4-2.7,3.1-4.6,7.2-4c4,0.5,6.1,3,5.9,6.3l-4-0.5c0.1-1.3-0.8-2.3-2.5-2.5c-1.5-0.2-2.4,0.3-2.6,1.3
		c-0.4,3,9,2.4,8.3,8.4C240.3,40.1,237.5,41.9,233.5,41.3z"/>
</g>
<g class="st3">
	<path class="st4" d="M249.8,44.6c-4.6-1.3-7.3-5.4-5.9-10.5c1.4-5.1,5.9-7.3,10.5-6.1c4.6,1.3,7.4,5.4,6,10.5
		C259.1,43.6,254.5,45.9,249.8,44.6z M250.8,41.1c2.1,0.6,4.6-0.4,5.5-3.6c0.9-3.2-0.7-5.3-2.9-5.9c-2.1-0.6-4.5,0.4-5.4,3.6
		C247.2,38.4,248.6,40.5,250.8,41.1z"/>
</g>
<g class="st3">
	<path class="st4" d="M273.6,34.8c3.8,1.6,5.5,4.7,4.9,8.5l-4.2-1.8c0.1-1.5-0.6-2.7-2.2-3.4c-2.2-0.9-4.3,0.1-5.5,3.1
		s-0.5,5.2,1.6,6.1c1.6,0.7,2.9,0.4,4-0.8l4.2,1.8c-2.2,2.9-5.7,4-9.5,2.4c-4.4-1.9-6.3-6.3-4.2-11.1
		C264.8,34.6,269.2,32.9,273.6,34.8z"/>
</g>
<g class="st3">
	<path class="st4" d="M284.3,40l3.7,2l-7.9,14.6l-3.7-2L284.3,40z M286,35.9c0.7-1.2,2.1-1.7,3.4-0.9c1.3,0.7,1.8,2.2,1.1,3.4
		c-0.7,1.2-2.1,1.6-3.4,0.9C285.8,38.6,285.4,37.1,286,35.9z"/>
</g>
<g class="st3">
	<path class="st4" d="M298.3,47.9c2.2,1.5,3,3.6,3.1,5.3l1.3-2l3.5,2.4l-9.3,13.8l-3.5-2.4l1.4-2c-1.6,0.6-3.9,0.6-6.1-0.9
		c-3.5-2.4-4.3-7.1-1.4-11.4C290.1,46.4,294.8,45.5,298.3,47.9z M297.1,51.6c-1.9-1.3-4.6-1.1-6.3,1.5s-1,5.3,0.8,6.6
		c1.9,1.3,4.6,1,6.4-1.6S299,52.9,297.1,51.6z"/>
</g>
<g class="st3">
	<path class="st4" d="M308.5,60.1l-1.5-1.3l2.2-2.6l1.5,1.3l2.7-3.1l3.2,2.8l-2.7,3.1l2.8,2.4l-2.2,2.6l-2.8-2.4l-5.2,6.1
		c-0.7,0.8-0.7,1.5,0.3,2.4l1.5,1.3l-2.3,2.7l-2-1.7c-2.4-2.1-3.2-4.5-0.7-7.4L308.5,60.1z"/>
</g>
<g class="st3">
	<path class="st4" d="M319.6,65.3l3,3l-11.7,11.8l-3-3L319.6,65.3z M322.4,61.9c1-1,2.5-1,3.6,0.1c1,1,1.1,2.6,0.1,3.6
		s-2.5,1-3.6-0.1S321.4,62.8,322.4,61.9z"/>
</g>
<g class="st3">
	<path class="st4" d="M318,88.4c-3.1-3.7-2.8-8.6,1.2-12s9-2.6,12.1,1.1s2.9,8.7-1.1,12.1C326.1,93,321.1,92.1,318,88.4z
		 M320.8,86.1c1.4,1.7,4,2.3,6.6,0.2c2.6-2.1,2.5-4.7,1-6.4s-3.9-2.2-6.5-0.1C319.4,81.8,319.4,84.4,320.8,86.1z"/>
</g>
<g class="st3">
	<path class="st4" d="M339.1,101.9c2.3-1.4,2.7-3.4,1.5-5.3s-3.2-2.4-5.5-1l-7.8,4.9l-2.2-3.6l14.1-8.8l2.2,3.6l-1.8,1.1
		c1.8,0.2,3.5,1.2,4.6,3c2.1,3.3,1.4,7-2.5,9.4l-8.3,5.2l-2.2-3.6L339.1,101.9z"/>
</g>
<path class="st4" d="M214.9,283.5c-59.6,0-107.8-48.3-107.8-107.9S155.4,67.8,215,67.8s107.8,48.3,107.8,107.9l0,0
	C322.7,235.2,274.5,283.4,214.9,283.5z"/>
<path class="st4" d="M214.9,80.4c52.6,0,95.2,42.6,95.2,95.2s-42.6,95.2-95.2,95.2s-95.2-42.6-95.2-95.2l0,0
	C119.8,123.1,162.4,80.5,214.9,80.4L214.9,80.4 M214.9,55.2c-66.5,0-120.5,53.9-120.5,120.5s53.9,120.5,120.5,120.5
	c66.5,0,120.5-53.9,120.5-120.5S281.5,55.2,214.9,55.2z"/>
<path class="st5" d="M223.2,143.9c-3.2-3.2-6.6-6.6-9.6-10.1c-2.8,3.2-5.8,6.1-8.8,9.1c-0.7,0.7-1.3,1.5-1.7,2.5
	c-0.7,1.4-0.9,3-0.6,4.6v0.5c0.3,0.9,0.7,1.7,1.2,2.4c0.1,0.1,0.2,0.3,0.2,0.4c2,2.4,6.6,6.9,9.2,9.4l15.4,16l4.6,4.9
	c3.8,3.9,7.2,8.2,10.2,12.8l0,0c0.4,0.6,0.9,1.1,1.6,1.3h0.3c0.8-0.1,1.4-0.6,1.6-1.4l0,0c1-3.2,1.5-6.6,1.5-9.9
	c-0.1-7.8-2.6-15.4-7.1-21.7c-5.3-7.4-11.4-14.3-18.1-20.6L223.2,143.9z"/>
<path class="st5" d="M227.4,195.5c-3.8-4.6-7.5-8.9-13.3-15.1c-4.9,5.6-9.4,9.9-13.1,14.3c-6.5,7.1-6.1,18.1,1,24.7
	c7.1,6.5,18.1,6.1,24.7-1c5.6-6,6.2-15.1,1.5-21.8C228,196.2,227.7,195.8,227.4,195.5z"/>
<path class="st5" d="M204.9,172.8c0.4-0.5,0.4-1.2,0-1.7l-11.3-11.6l-2.4-2.3c-2,2.3-3.8,4.7-5.5,7.1c-2.7,4-4.8,8.4-6,13l0,0
	c-1.4,5.3-1.2,10.9,0.4,16.2l0.2,0.5c0.3,0.6,0.6,1.1,1,1.6l0,0c0,0,1.3,2.1,2.5,2.2h0.4c0.4-0.1,0.7-0.4,0.9-0.7
	c1.1-2.2,2.4-4.3,4-6.3l4.1-5l0,0L204.9,172.8z"/>
<path class="st5" d="M214,80.2c-52.9,0-95.8,42.8-95.8,95.7s42.8,95.8,95.7,95.8s95.8-42.8,95.8-95.7l0,0l0,0
	C309.7,123.1,266.9,80.2,214,80.2z M213.5,236.7c-27.9,0-50.4-22.6-50.5-50.5c0-23.7,15.8-39.4,29.7-53.3
	c9.3-9.3,18.1-18.1,20.8-28.1c2.6,10,11.5,18.8,20.8,28.1c14,13.9,29.8,29.7,29.8,53.3C264,214.1,241.3,236.7,213.5,236.7
	L213.5,236.7z"/>
<path class="st6" d="M39.3,200.2c0,0,72.9,33.6,175.6,33.6s175.6-33.6,175.6-33.6v85.5c0,0-71.5,33.6-175.6,33.6
	S39.3,285.6,39.3,285.6V200.2z"/>
<g class="st3">
	<path class="st4" d="M83.2,244.4l3.9,1.1L81.4,265l-3.9-1.1L83.2,244.4z"/>
</g>
<g class="st3">
	<path class="st4" d="M98.7,260.4c0.6-2.5-0.4-4.2-2.5-4.7c-2.1-0.6-3.9,0.4-4.5,2.9l-2.2,8.6l-3.9-1l4-15.6l3.9,1l-0.5,1.9
		c1.4-1.1,3.3-1.5,5.3-1c3.6,0.9,5.6,4,4.5,8.3l-2.4,9.1l-3.9-1L98.7,260.4z"/>
</g>
<g class="st3">
	<path class="st4" d="M114.3,256.4c2.1,0.4,3.9,1.8,4.6,3.5l1.6-7.5l4,0.9l-4.5,21l-4-0.9l0.5-2.3c-1.2,1.2-3.3,2-5.7,1.5
		c-4-0.9-6.5-4.8-5.4-9.7S110.2,255.5,114.3,256.4z M114.5,260.1c-2.1-0.5-4.5,0.7-5.1,3.7s1,5.1,3.1,5.6c2.2,0.5,4.5-0.8,5.2-3.7
		C118.3,262.6,116.7,260.6,114.5,260.1z"/>
</g>
<g class="st3">
	<path class="st4" d="M127.2,259.4l4,0.7l-2.9,15.7l-4-0.7L127.2,259.4z M127.5,255.1c0.2-1.3,1.5-2.1,2.9-1.9
		c1.4,0.3,2.3,1.5,2,2.8c-0.2,1.3-1.5,2.1-2.9,1.9C128.1,257.6,127.3,256.4,127.5,255.1z"/>
</g>
<g class="st3">
	<path class="st4" d="M137.6,261.2l2.1,12.8l5.9-11.5l4.3,0.7l-8.4,14.9l-4.9-0.8l-3.3-16.8L137.6,261.2z"/>
</g>
<g class="st3">
	<path class="st4" d="M152.1,263.4l4,0.5l-2.1,15.9l-4-0.5L152.1,263.4z M152.2,259.1c0.2-1.3,1.3-2.2,2.8-2
		c1.4,0.2,2.3,1.4,2.2,2.7c-0.2,1.3-1.4,2.2-2.8,2C153,261.6,152.1,260.5,152.2,259.1z"/>
</g>
<g class="st3">
	<path class="st4" d="M166.3,264.9c2.1,0.2,4,1.4,5,3l0.8-7.6l4.1,0.4l-2.2,21.4l-4.1-0.4l0.2-2.4c-1.1,1.4-3,2.3-5.5,2.1
		c-4.1-0.4-7-4.1-6.5-9.1S162.2,264.5,166.3,264.9z M167,268.5c-2.2-0.2-4.4,1.2-4.7,4.2s1.6,5,3.7,5.2c2.2,0.2,4.4-1.2,4.7-4.3
		C171,270.6,169.2,268.7,167,268.5z"/>
</g>
<g class="st3">
	<path class="st4" d="M193.6,283.3l-4.1-0.2l0.1-2c-1.1,1.3-2.9,2.1-4.9,1.9c-3.7-0.2-6.3-2.8-6-7.2l0.6-9.4l4.1,0.2l-0.5,8.8
		c-0.2,2.6,1.2,4.1,3.3,4.2c2.2,0.1,3.7-1.2,3.8-3.7l0.5-8.8l4.1,0.2L193.6,283.3z"/>
</g>
<g class="st3">
	<path class="st4" d="M204.7,267.3c2.6,0,4.3,1.3,5.3,2.7v-2.3l4.1,0.1l-0.3,16.1l-4.1-0.1v-2.3c-1,1.4-2.8,2.6-5.4,2.5
		c-4.1-0.1-7.2-3.5-7.1-8.5C197.3,270.4,200.6,267.2,204.7,267.3z M205.7,270.9c-2.2,0-4.3,1.5-4.3,4.6c-0.1,3,2,4.8,4.1,4.9
		c2.2,0,4.3-1.6,4.4-4.6C209.9,272.7,207.9,271,205.7,270.9z"/>
</g>
<g class="st3">
	<path class="st4" d="M217.8,262.3h4.1l0.2,21.5H218L217.8,262.3z"/>
</g>
<g class="st3">
	<path class="st4" d="M232.4,263.3l4.6-0.3l7.3,14.7l5.5-15.4l4.6-0.3l1.2,20.2l-4.1,0.2l-0.8-13.2l-4.6,13.5l-3.1,0.2l-6.2-12.8
		l0.8,13.2l-4.1,0.2L232.4,263.3z"/>
</g>
<g class="st3">
	<path class="st4" d="M267.2,281.1c-4.6,0.5-8.3-2.3-8.9-7.3s2.4-8.6,7.1-9.1c4.6-0.5,8.2,2.3,8.7,7c0.1,0.5,0.1,1,0.1,1.6
		l-11.6,1.3c0.5,2.3,2.2,3.5,4.2,3.3c1.7-0.2,2.6-1.2,3-2.3l4.3-0.5C273.5,278.1,271.1,280.7,267.2,281.1z M262.2,271.9l7.5-0.8
		c-0.3-2.1-2.1-3.2-4.2-3C263.7,268.3,262.3,269.7,262.2,271.9z"/>
</g>
<g class="st3">
	<path class="st4" d="M299.5,267.4c-0.4-2.5-2-3.6-4.1-3.3c-2.1,0.3-3.3,1.9-2.9,4.4l1.4,8.8l-4,0.6l-1.4-8.8
		c-0.4-2.5-2-3.6-4.1-3.3c-2.2,0.3-3.4,1.9-3,4.4l1.4,8.8l-4,0.6l-2.5-15.9l4-0.6l0.3,1.9c0.8-1.5,2.3-2.6,4.3-2.9
		c2.5-0.4,4.7,0.3,6.1,2.1c0.7-2,2.6-3.5,5-3.9c3.8-0.6,6.9,1.4,7.6,5.7l1.5,9.3l-4,0.6L299.5,267.4z"/>
</g>
<g class="st3">
	<path class="st4" d="M315,256.5c4-0.9,7.9,1.6,8.9,6.5c1.1,4.9-1.4,8.9-5.4,9.7c-2.5,0.5-4.5-0.2-5.7-1.4l0.5,2.2l-4,0.9l-4.5-21
		l4-0.9l1.6,7.6C311,258.6,312.6,257.1,315,256.5z M314.7,260.3c-2.1,0.5-3.8,2.5-3.2,5.5c0.6,3,3,4.2,5.1,3.7
		c2.2-0.5,3.8-2.6,3.2-5.6S316.9,259.8,314.7,260.3z"/>
</g>
<g class="st3">
	<path class="st4" d="M335.9,268.7c-4.5,1.2-8.6-1.1-9.9-6s1.1-8.9,5.7-10.1c4.5-1.2,8.5,1.1,9.7,5.7c0.1,0.5,0.2,1,0.3,1.5
		l-11.4,2.9c0.8,2.3,2.7,3.1,4.7,2.6c1.7-0.4,2.4-1.5,2.6-2.7l4.2-1.1C341.7,264.7,339.7,267.7,335.9,268.7z M329.6,260.1l7.4-1.9
		c-0.6-2-2.6-2.9-4.6-2.4C330.5,256.3,329.4,257.9,329.6,260.1z"/>
</g>
<g class="st3">
	<path class="st4" d="M350.6,264.3l-3.9,1.1l-4.5-15.4l3.9-1.1l0.7,2.4c0.5-1.9,1.8-3.4,4-4l1.2,4.1l-1,0.3c-2.3,0.7-3.4,2-2.6,5
		L350.6,264.3z"/>
</g>
</svg>
